<svg width="290" height="111" viewBox="0 0 290 111" fill="none" xmlns="http://www.w3.org/2000/svg">
<g clip-path="url(#clip0_5104_8375)">
<path d="M28 24.4094C28 26.3938 26.3906 28 24.4094 28H15.5906C13.6094 28 12 26.3906 12 24.4094V15.5906C12 13.6094 13.6094 12 15.5906 12H24.4094C26.3906 12 28 13.6094 28 15.5906V24.4094Z" fill="#5EBEE1"/>
<path d="M23.9718 16.1904L15.6343 19.4373C15.3655 19.5436 15.3811 19.9311 15.6593 20.0123L17.778 20.6373L18.5686 23.1467C18.6499 23.4092 18.9843 23.4873 19.1749 23.2904L20.2718 22.1717L22.4218 23.7498C22.6843 23.9436 23.0593 23.7998 23.1249 23.4811L24.5468 16.6748C24.6186 16.3436 24.2905 16.0654 23.9718 16.1904ZM22.928 17.6998L19.0561 21.1248C19.0186 21.1592 18.9936 21.2061 18.9874 21.2561L18.8374 22.5811C18.8311 22.6248 18.7718 22.6311 18.7593 22.5873L18.1468 20.6092C18.1186 20.5186 18.1561 20.4217 18.2374 20.3717L22.8093 17.5342C22.9124 17.4748 23.0218 17.6186 22.928 17.6998Z" fill="white"/>
</g>
<path d="M44.6158 15.8182V26H43.6911V16.6534H38.2074V26H37.2777V15.8182H44.6158ZM47.0668 28.8636V18.3636H47.9268V19.8203H48.0312C48.1373 19.5916 48.2831 19.358 48.4688 19.1193C48.6544 18.8774 48.8996 18.6735 49.2045 18.5078C49.5128 18.3421 49.9006 18.2592 50.3679 18.2592C50.9976 18.2592 51.5478 18.425 52.0185 18.7564C52.4924 19.0845 52.8603 19.5452 53.1222 20.1385C53.3873 20.7285 53.5199 21.4162 53.5199 22.2017C53.5199 22.9905 53.3873 23.6816 53.1222 24.2749C52.8603 24.8681 52.4924 25.3305 52.0185 25.6619C51.5478 25.9934 51.0009 26.1591 50.3778 26.1591C49.9171 26.1591 49.531 26.0762 49.2195 25.9105C48.9112 25.7448 48.661 25.541 48.4688 25.299C48.2798 25.0537 48.134 24.8151 48.0312 24.5831H47.9517V28.8636H47.0668ZM47.9418 22.1868C47.9418 22.8033 48.0329 23.3501 48.2152 23.8274C48.4008 24.3014 48.666 24.6742 49.0107 24.946C49.3587 25.2145 49.7796 25.3487 50.2734 25.3487C50.7805 25.3487 51.2081 25.2095 51.5561 24.9311C51.9074 24.6494 52.1742 24.2699 52.3565 23.7926C52.5421 23.3153 52.6349 22.7801 52.6349 22.1868C52.6349 21.6001 52.5438 21.0715 52.3615 20.6009C52.1825 20.1302 51.9174 19.7573 51.5661 19.4822C51.2147 19.2038 50.7839 19.0646 50.2734 19.0646C49.7763 19.0646 49.3537 19.1989 49.0057 19.4673C48.6577 19.7325 48.3925 20.1004 48.2102 20.571C48.0312 21.0384 47.9418 21.5769 47.9418 22.1868ZM58.4293 26.1591C57.7698 26.1591 57.1864 25.9917 56.6793 25.657C56.1755 25.3222 55.7811 24.8598 55.4961 24.2699C55.2111 23.6766 55.0685 22.9922 55.0685 22.2166C55.0685 21.4344 55.2111 20.7467 55.4961 20.1534C55.7811 19.5568 56.1755 19.0928 56.6793 18.7614C57.1864 18.4266 57.7698 18.2592 58.4293 18.2592C59.0889 18.2592 59.6706 18.4266 60.1744 18.7614C60.6781 19.0961 61.0726 19.5601 61.3576 20.1534C61.646 20.7467 61.7901 21.4344 61.7901 22.2166C61.7901 22.9922 61.6476 23.6766 61.3626 24.2699C61.0775 24.8598 60.6815 25.3222 60.1744 25.657C59.6706 25.9917 59.0889 26.1591 58.4293 26.1591ZM58.4293 25.3487C58.9596 25.3487 59.4087 25.2062 59.7766 24.9212C60.1445 24.6361 60.4229 24.2566 60.6119 23.7827C60.8041 23.3087 60.9002 22.7867 60.9002 22.2166C60.9002 21.6465 60.8041 21.1229 60.6119 20.6456C60.4229 20.1683 60.1445 19.7855 59.7766 19.4972C59.4087 19.2088 58.9596 19.0646 58.4293 19.0646C57.9023 19.0646 57.4532 19.2088 57.082 19.4972C56.7141 19.7855 56.4341 20.1683 56.2418 20.6456C56.0529 21.1229 55.9585 21.6465 55.9585 22.2166C55.9585 22.7867 56.0529 23.3087 56.2418 23.7827C56.4341 24.2566 56.7141 24.6361 57.082 24.9212C57.4499 25.2062 57.899 25.3487 58.4293 25.3487ZM62.8279 28.1726V25.1648H63.4892C63.6549 24.9792 63.7991 24.7786 63.9217 24.5632C64.0443 24.3478 64.1504 24.1025 64.2399 23.8274C64.3327 23.549 64.4106 23.2259 64.4735 22.858C64.5365 22.4867 64.5895 22.0542 64.6326 21.5604L64.911 18.3636H69.4302V25.1648H70.5637V28.1726H69.6788V26H63.7179V28.1726H62.8279ZM64.5083 25.1648H68.5453V19.1989H65.7363L65.5076 21.5604C65.4281 22.3625 65.3154 23.0618 65.1696 23.6584C65.0237 24.255 64.8033 24.7571 64.5083 25.1648ZM74.3832 26.174C73.9225 26.174 73.5015 26.0845 73.1204 25.9055C72.7392 25.7232 72.436 25.4614 72.2106 25.12C71.9852 24.7753 71.8725 24.3577 71.8725 23.8672C71.8725 23.4893 71.9438 23.1712 72.0863 22.9126C72.2288 22.6541 72.431 22.442 72.6928 22.2763C72.9547 22.1106 73.2646 21.9796 73.6225 21.8835C73.9805 21.7874 74.3749 21.7128 74.8058 21.6598C75.2333 21.6068 75.5946 21.5604 75.8896 21.5206C76.1879 21.4808 76.4149 21.4179 76.5707 21.3317C76.7264 21.2455 76.8043 21.1063 76.8043 20.9141V20.7351C76.8043 20.2147 76.6486 19.8054 76.337 19.5071C76.0288 19.2055 75.5846 19.0547 75.0046 19.0547C74.4544 19.0547 74.0053 19.1757 73.6573 19.4176C73.3126 19.6596 73.0707 19.9446 72.9315 20.2727L72.0913 19.9695C72.2636 19.5518 72.5022 19.2187 72.8072 18.9702C73.1121 18.7183 73.4535 18.5376 73.8313 18.4283C74.2092 18.3156 74.592 18.2592 74.9798 18.2592C75.2714 18.2592 75.5747 18.2973 75.8896 18.3736C76.2077 18.4498 76.5027 18.5824 76.7745 18.7713C77.0463 18.9569 77.2667 19.2171 77.4357 19.5518C77.6048 19.8833 77.6893 20.3042 77.6893 20.8146V26H76.8043V24.7919H76.7496C76.6436 25.0173 76.4862 25.236 76.2773 25.4482C76.0685 25.6603 75.8067 25.8343 75.4918 25.9702C75.177 26.1061 74.8074 26.174 74.3832 26.174ZM74.5025 25.3636C74.9731 25.3636 75.3808 25.2592 75.7255 25.0504C76.0702 24.8416 76.3353 24.5649 76.521 24.2202C76.7099 23.8722 76.8043 23.4893 76.8043 23.0717V21.968C76.738 22.031 76.627 22.0874 76.4712 22.1371C76.3188 22.1868 76.1415 22.2315 75.9393 22.2713C75.7404 22.3078 75.5415 22.3393 75.3427 22.3658C75.1438 22.3923 74.9648 22.4155 74.8058 22.4354C74.3749 22.4884 74.007 22.5713 73.7021 22.6839C73.3971 22.7966 73.1635 22.9524 73.0011 23.1513C72.8387 23.3468 72.7575 23.5987 72.7575 23.907C72.7575 24.371 72.9232 24.7306 73.2546 24.9858C73.5861 25.2377 74.002 25.3636 74.5025 25.3636ZM83.3295 21.8438V22.679H79.5959V21.8438H83.3295ZM80.3068 18.3636V26H79.4169V18.3636H80.3068ZM85.8899 26.1591C85.2304 26.1591 84.6487 25.9917 84.1449 25.657C83.6411 25.3222 83.245 24.8598 82.9567 24.2699C82.6716 23.6766 82.5291 22.9922 82.5291 22.2166C82.5291 21.4344 82.6716 20.7467 82.9567 20.1534C83.245 19.5568 83.6411 19.0928 84.1449 18.7614C84.6487 18.4266 85.2304 18.2592 85.8899 18.2592C86.5495 18.2592 87.1312 18.4266 87.6349 18.7614C88.142 19.0961 88.5381 19.5601 88.8232 20.1534C89.1082 20.7467 89.2507 21.4344 89.2507 22.2166C89.2507 22.9922 89.1082 23.6766 88.8232 24.2699C88.5381 24.8598 88.142 25.3222 87.6349 25.657C87.1312 25.9917 86.5495 26.1591 85.8899 26.1591ZM85.8899 25.3487C86.4202 25.3487 86.8693 25.2062 87.2372 24.9212C87.6051 24.6361 87.8852 24.2566 88.0774 23.7827C88.2696 23.3087 88.3658 22.7867 88.3658 22.2166C88.3658 21.6465 88.2696 21.1229 88.0774 20.6456C87.8852 20.1683 87.6051 19.7855 87.2372 19.4972C86.8693 19.2088 86.4202 19.0646 85.8899 19.0646C85.3629 19.0646 84.9155 19.2088 84.5476 19.4972C84.1797 19.7855 83.8996 20.1683 83.7074 20.6456C83.5152 21.1229 83.419 21.6465 83.419 22.2166C83.419 22.7867 83.5135 23.3087 83.7024 23.7827C83.8946 24.2566 84.1747 24.6361 84.5426 24.9212C84.9138 25.2062 85.3629 25.3487 85.8899 25.3487ZM101.21 25.1648L101.071 28.1925H100.196V26H99.2411V25.1648H101.21ZM91.3363 18.3636H92.2212V25.1648H95.3533V18.3636H96.2383V25.1648H99.3704V18.3636H100.255V26H91.3363V18.3636ZM103.911 24.7422L107.943 18.3636H109.002V26H108.117V19.6214L104.1 26H103.026V18.3636H103.911V24.7422ZM112.223 24.7422L116.255 18.3636H117.314V26H116.429V19.6214L112.412 26H111.338V18.3636H112.223V24.7422ZM115.241 15.8182H116.076C116.076 16.2921 115.919 16.6766 115.604 16.9716C115.292 17.2666 114.866 17.4141 114.326 17.4141C113.793 17.4141 113.37 17.2666 113.058 16.9716C112.747 16.6766 112.591 16.2921 112.591 15.8182H113.426C113.426 16.0767 113.496 16.2955 113.635 16.4744C113.778 16.6501 114.008 16.7379 114.326 16.7379C114.644 16.7379 114.876 16.6501 115.022 16.4744C115.168 16.2955 115.241 16.0767 115.241 15.8182ZM123.588 26V18.3636H124.473V21.799H125.303L128.142 18.3636H129.286L126.223 22.0376L129.355 26H128.212L125.577 22.6342H124.473V26H123.588ZM130.807 28.8636V18.3636H131.667V19.8203H131.771C131.878 19.5916 132.023 19.358 132.209 19.1193C132.395 18.8774 132.64 18.6735 132.945 18.5078C133.253 18.3421 133.641 18.2592 134.108 18.2592C134.738 18.2592 135.288 18.425 135.759 18.7564C136.233 19.0845 136.601 19.5452 136.862 20.1385C137.128 20.7285 137.26 21.4162 137.26 22.2017C137.26 22.9905 137.128 23.6816 136.862 24.2749C136.601 24.8681 136.233 25.3305 135.759 25.6619C135.288 25.9934 134.741 26.1591 134.118 26.1591C133.657 26.1591 133.271 26.0762 132.96 25.9105C132.651 25.7448 132.401 25.541 132.209 25.299C132.02 25.0537 131.874 24.8151 131.771 24.5831H131.692V28.8636H130.807ZM131.682 22.1868C131.682 22.8033 131.773 23.3501 131.955 23.8274C132.141 24.3014 132.406 24.6742 132.751 24.946C133.099 25.2145 133.52 25.3487 134.014 25.3487C134.521 25.3487 134.948 25.2095 135.296 24.9311C135.648 24.6494 135.914 24.2699 136.097 23.7926C136.282 23.3153 136.375 22.7801 136.375 22.1868C136.375 21.6001 136.284 21.0715 136.102 20.6009C135.923 20.1302 135.658 19.7573 135.306 19.4822C134.955 19.2038 134.524 19.0646 134.014 19.0646C133.517 19.0646 133.094 19.1989 132.746 19.4673C132.398 19.7325 132.133 20.1004 131.95 20.571C131.771 21.0384 131.682 21.5769 131.682 22.1868ZM141.334 26.174C140.874 26.174 140.453 26.0845 140.072 25.9055C139.69 25.7232 139.387 25.4614 139.162 25.12C138.936 24.7753 138.824 24.3577 138.824 23.8672C138.824 23.4893 138.895 23.1712 139.037 22.9126C139.18 22.6541 139.382 22.442 139.644 22.2763C139.906 22.1106 140.216 21.9796 140.574 21.8835C140.932 21.7874 141.326 21.7128 141.757 21.6598C142.184 21.6068 142.546 21.5604 142.841 21.5206C143.139 21.4808 143.366 21.4179 143.522 21.3317C143.678 21.2455 143.756 21.1063 143.756 20.9141V20.7351C143.756 20.2147 143.6 19.8054 143.288 19.5071C142.98 19.2055 142.536 19.0547 141.956 19.0547C141.406 19.0547 140.956 19.1757 140.608 19.4176C140.264 19.6596 140.022 19.9446 139.883 20.2727L139.042 19.9695C139.215 19.5518 139.453 19.2187 139.758 18.9702C140.063 18.7183 140.405 18.5376 140.782 18.4283C141.16 18.3156 141.543 18.2592 141.931 18.2592C142.223 18.2592 142.526 18.2973 142.841 18.3736C143.159 18.4498 143.454 18.5824 143.726 18.7713C143.997 18.9569 144.218 19.2171 144.387 19.5518C144.556 19.8833 144.64 20.3042 144.64 20.8146V26H143.756V24.7919H143.701C143.595 25.0173 143.437 25.236 143.229 25.4482C143.02 25.6603 142.758 25.8343 142.443 25.9702C142.128 26.1061 141.759 26.174 141.334 26.174ZM141.454 25.3636C141.924 25.3636 142.332 25.2592 142.677 25.0504C143.021 24.8416 143.287 24.5649 143.472 24.2202C143.661 23.8722 143.756 23.4893 143.756 23.0717V21.968C143.689 22.031 143.578 22.0874 143.422 22.1371C143.27 22.1868 143.093 22.2315 142.89 22.2713C142.692 22.3078 142.493 22.3393 142.294 22.3658C142.095 22.3923 141.916 22.4155 141.757 22.4354C141.326 22.4884 140.958 22.5713 140.653 22.6839C140.348 22.7966 140.115 22.9524 139.952 23.1513C139.79 23.3468 139.709 23.5987 139.709 23.907C139.709 24.371 139.874 24.7306 140.206 24.9858C140.537 25.2377 140.953 25.3636 141.454 25.3636ZM149.977 26.1591C149.295 26.1591 148.7 25.9884 148.193 25.647C147.689 25.3056 147.298 24.8383 147.019 24.245C146.741 23.6518 146.602 22.9756 146.602 22.2166C146.602 21.451 146.743 20.7699 147.024 20.1733C147.309 19.5767 147.704 19.1094 148.208 18.7713C148.711 18.4299 149.296 18.2592 149.963 18.2592C150.473 18.2592 150.935 18.3587 151.35 18.5575C151.764 18.7531 152.105 19.0298 152.374 19.3878C152.646 19.7424 152.816 20.1567 152.886 20.6307H151.991C151.898 20.1998 151.674 19.8319 151.32 19.527C150.968 19.2187 150.521 19.0646 149.977 19.0646C149.49 19.0646 149.059 19.1972 148.685 19.4624C148.31 19.7242 148.017 20.0904 147.805 20.5611C147.596 21.0284 147.492 21.5703 147.492 22.1868C147.492 22.8066 147.594 23.3551 147.8 23.8324C148.005 24.3063 148.294 24.6776 148.665 24.946C149.039 25.2145 149.477 25.3487 149.977 25.3487C150.316 25.3487 150.624 25.2857 150.902 25.1598C151.184 25.0305 151.419 24.8482 151.608 24.6129C151.8 24.3776 151.93 24.0975 151.996 23.7727H152.891C152.825 24.2334 152.66 24.6444 152.399 25.0057C152.14 25.3636 151.804 25.6454 151.389 25.8509C150.978 26.0563 150.508 26.1591 149.977 26.1591ZM159.943 21.7692V22.6044H155.454V21.7692H159.943ZM155.672 18.3636V26H154.787V18.3636H155.672ZM160.594 18.3636V26H159.709V18.3636H160.594ZM163.695 21.3118H165.933C166.791 21.3118 167.454 21.5206 167.921 21.9382C168.388 22.3558 168.622 22.9209 168.622 23.6335C168.622 24.1075 168.516 24.5218 168.304 24.8764C168.095 25.2311 167.79 25.5078 167.389 25.7067C166.988 25.9022 166.503 26 165.933 26H162.96V18.3636H163.849V25.1648H165.933C166.473 25.1648 166.907 25.0355 167.235 24.777C167.567 24.5185 167.732 24.1506 167.732 23.6733C167.732 23.1861 167.567 22.8099 167.235 22.5447C166.907 22.2796 166.473 22.147 165.933 22.147H163.695V21.3118ZM169.91 26V18.3636H170.795V26H169.91ZM174.034 24.7422L178.066 18.3636H179.125V26H178.24V19.6214L174.223 26H173.149V18.3636H174.034V24.7422ZM177.051 15.8182H177.887C177.887 16.2921 177.729 16.6766 177.414 16.9716C177.103 17.2666 176.677 17.4141 176.137 17.4141C175.603 17.4141 175.181 17.2666 174.869 16.9716C174.557 16.6766 174.402 16.2921 174.402 15.8182H175.237C175.237 16.0767 175.306 16.2955 175.446 16.4744C175.588 16.6501 175.819 16.7379 176.137 16.7379C176.455 16.7379 176.687 16.6501 176.833 16.4744C176.979 16.2955 177.051 16.0767 177.051 15.8182Z" fill="black"/>
<path d="M240.558 24.1364C239.973 24.1364 239.463 23.9901 239.028 23.6974C238.597 23.4048 238.261 23.0043 238.023 22.4957C237.784 21.9872 237.665 21.4077 237.665 20.7571C237.665 20.1009 237.786 19.517 238.027 19.0057C238.271 18.4943 238.609 18.0937 239.041 17.804C239.473 17.5114 239.974 17.3651 240.545 17.3651C240.983 17.3651 241.379 17.4503 241.734 17.6207C242.089 17.7884 242.382 18.0256 242.612 18.3324C242.845 18.6364 242.991 18.9915 243.051 19.3977H242.284C242.205 19.0284 242.013 18.7131 241.709 18.4517C241.408 18.1875 241.024 18.0554 240.558 18.0554C240.141 18.0554 239.771 18.169 239.45 18.3963C239.129 18.6207 238.878 18.9347 238.696 19.3381C238.517 19.7386 238.428 20.2031 238.428 20.7315C238.428 21.2628 238.516 21.733 238.692 22.142C238.868 22.5483 239.115 22.8665 239.433 23.0966C239.754 23.3267 240.129 23.4418 240.558 23.4418C240.848 23.4418 241.112 23.3878 241.351 23.2798C241.592 23.169 241.794 23.0128 241.956 22.8111C242.121 22.6094 242.232 22.3693 242.288 22.0909H243.055C242.999 22.4858 242.858 22.8381 242.634 23.1477C242.412 23.4545 242.124 23.696 241.768 23.8722C241.416 24.0483 241.013 24.1364 240.558 24.1364ZM247.327 24.1364C246.717 24.1364 246.188 23.9943 245.742 23.7102C245.296 23.4233 244.951 23.027 244.707 22.5213C244.465 22.0128 244.344 21.4276 244.344 20.7656C244.344 20.1065 244.465 19.5213 244.707 19.0099C244.951 18.4957 245.288 18.0937 245.717 17.804C246.148 17.5114 246.647 17.3651 247.212 17.3651C247.567 17.3651 247.91 17.4304 248.239 17.5611C248.569 17.6889 248.864 17.8864 249.126 18.1534C249.39 18.4176 249.599 18.7514 249.752 19.1548C249.906 19.5554 249.982 20.0298 249.982 20.5781V20.9531H244.869V20.2841H249.207C249.207 19.8636 249.121 19.4858 248.951 19.1506C248.783 18.8125 248.549 18.5455 248.248 18.3494C247.95 18.1534 247.604 18.0554 247.212 18.0554C246.798 18.0554 246.433 18.1662 246.117 18.3878C245.802 18.6094 245.555 18.902 245.376 19.2656C245.2 19.6293 245.11 20.027 245.107 20.4588V20.8594C245.107 21.3793 245.197 21.8338 245.376 22.223C245.558 22.6094 245.815 22.9091 246.147 23.1222C246.479 23.3352 246.873 23.4418 247.327 23.4418C247.637 23.4418 247.908 23.3935 248.141 23.2969C248.377 23.2003 248.575 23.071 248.734 22.9091C248.896 22.7443 249.018 22.5639 249.1 22.3679L249.82 22.6023C249.721 22.8778 249.558 23.1321 249.33 23.3651C249.106 23.598 248.825 23.7855 248.487 23.9276C248.151 24.0668 247.765 24.1364 247.327 24.1364ZM252.412 22.9219L255.868 17.4545H256.776V24H256.017V18.5327L252.574 24H251.654V17.4545H252.412V22.9219ZM254.999 15.2727H255.715C255.715 15.679 255.58 16.0085 255.31 16.2614C255.043 16.5142 254.678 16.6406 254.215 16.6406C253.757 16.6406 253.395 16.5142 253.128 16.2614C252.861 16.0085 252.728 15.679 252.728 15.2727H253.444C253.444 15.4943 253.503 15.6818 253.623 15.8352C253.745 15.9858 253.942 16.0611 254.215 16.0611C254.488 16.0611 254.686 15.9858 254.811 15.8352C254.936 15.6818 254.999 15.4943 254.999 15.2727ZM263.607 17.4545V24H262.844V17.4545H263.607ZM263.326 20.6889V21.4134C263.067 21.5071 262.821 21.5866 262.588 21.652C262.355 21.7145 262.121 21.7628 261.885 21.7969C261.652 21.831 261.404 21.848 261.14 21.848C260.404 21.8452 259.826 21.6562 259.405 21.2812C258.988 20.9062 258.779 20.3352 258.779 19.5682V17.4332H259.537V19.5682C259.537 19.9318 259.603 20.2287 259.733 20.4588C259.864 20.6889 260.049 20.8594 260.287 20.9702C260.526 21.0781 260.807 21.1321 261.131 21.1321C261.529 21.1321 261.904 21.0923 262.256 21.0128C262.608 20.9332 262.965 20.8253 263.326 20.6889ZM267.451 24.1491C267.056 24.1491 266.695 24.0724 266.368 23.919C266.042 23.7628 265.782 23.5384 265.588 23.2457C265.395 22.9503 265.299 22.5923 265.299 22.1719C265.299 21.848 265.36 21.5753 265.482 21.3537C265.604 21.1321 265.777 20.9503 266.002 20.8082C266.226 20.6662 266.492 20.554 266.799 20.4716C267.105 20.3892 267.444 20.3253 267.813 20.2798C268.179 20.2344 268.489 20.1946 268.742 20.1605C268.998 20.1264 269.192 20.0724 269.326 19.9986C269.459 19.9247 269.526 19.8054 269.526 19.6406V19.4872C269.526 19.0412 269.392 18.6903 269.125 18.4347C268.861 18.1761 268.48 18.0469 267.983 18.0469C267.512 18.0469 267.127 18.1506 266.828 18.358C266.533 18.5653 266.326 18.8097 266.206 19.0909L265.486 18.831C265.634 18.473 265.838 18.1875 266.1 17.9744C266.361 17.7585 266.654 17.6037 266.978 17.5099C267.301 17.4134 267.63 17.3651 267.962 17.3651C268.212 17.3651 268.472 17.3977 268.742 17.4631C269.015 17.5284 269.267 17.642 269.5 17.804C269.733 17.9631 269.922 18.1861 270.067 18.473C270.212 18.7571 270.284 19.1179 270.284 19.5554V24H269.526V22.9645H269.479C269.388 23.1577 269.253 23.3452 269.074 23.527C268.895 23.7088 268.671 23.858 268.401 23.9744C268.131 24.0909 267.814 24.1491 267.451 24.1491ZM267.553 23.4545C267.956 23.4545 268.306 23.3651 268.601 23.1861C268.897 23.0071 269.124 22.7699 269.283 22.4744C269.445 22.1761 269.526 21.848 269.526 21.4901V20.544C269.469 20.598 269.374 20.6463 269.24 20.6889C269.11 20.7315 268.958 20.7699 268.784 20.804C268.614 20.8352 268.444 20.8622 268.273 20.8849C268.103 20.9077 267.949 20.9276 267.813 20.9446C267.444 20.9901 267.128 21.0611 266.867 21.1577C266.605 21.2543 266.405 21.3878 266.266 21.5582C266.127 21.7259 266.057 21.9418 266.057 22.206C266.057 22.6037 266.199 22.9119 266.483 23.1307C266.767 23.3466 267.124 23.4545 267.553 23.4545ZM274.859 24.1364C274.274 24.1364 273.764 23.9901 273.329 23.6974C272.897 23.4048 272.562 23.0043 272.324 22.4957C272.085 21.9872 271.966 21.4077 271.966 20.7571C271.966 20.1009 272.086 19.517 272.328 19.0057C272.572 18.4943 272.91 18.0937 273.342 17.804C273.774 17.5114 274.275 17.3651 274.846 17.3651C275.284 17.3651 275.68 17.4503 276.035 17.6207C276.39 17.7884 276.683 18.0256 276.913 18.3324C277.146 18.6364 277.292 18.9915 277.352 19.3977H276.585C276.505 19.0284 276.314 18.7131 276.01 18.4517C275.708 18.1875 275.325 18.0554 274.859 18.0554C274.441 18.0554 274.072 18.169 273.751 18.3963C273.43 18.6207 273.179 18.9347 272.997 19.3381C272.818 19.7386 272.728 20.2031 272.728 20.7315C272.728 21.2628 272.816 21.733 272.993 22.142C273.169 22.5483 273.416 22.8665 273.734 23.0966C274.055 23.3267 274.43 23.4418 274.859 23.4418C275.149 23.4418 275.413 23.3878 275.652 23.2798C275.893 23.169 276.095 23.0128 276.257 22.8111C276.422 22.6094 276.532 22.3693 276.589 22.0909H277.356C277.299 22.4858 277.159 22.8381 276.934 23.1477C276.713 23.4545 276.424 23.696 276.069 23.8722C275.717 24.0483 275.314 24.1364 274.859 24.1364Z" fill="black"/>
<rect x="12" y="41" width="186.724" height="15.7242" rx="2.89657" fill="#D1222E"/>
<path d="M16.6608 44.7864H24.6205V52.8621H22.6277V46.4201H18.6536V52.8621H16.6608V44.7864ZM30.022 44.7864H33.9845V52.8621H32.0148V50.4405H31.0416L28.203 52.8621H25.5961L28.5621 50.3131C26.9516 49.9771 26.1522 49.0618 26.1522 47.5671C26.1522 45.7133 27.4383 44.7864 30.022 44.7864ZM30.022 48.8416H32.0148V46.3969H30.022C28.7128 46.3969 28.1219 46.7445 28.1219 47.5671C28.1219 48.4593 28.7128 48.8416 30.022 48.8416ZM40.1181 52.8621H38.1252V46.4201H35.1128V44.7864H43.1189V46.4201H40.1181V52.8621ZM50.4326 47.8568V44.7864H52.4138V52.8621H50.4326V49.4905H46.2615V52.8621H44.2687V44.7864H46.2615V47.8568H50.4326ZM60.0818 44.7864H63.3955V52.8621H61.4027V46.6055H61.0899L57.3243 52.8621H54.0106V44.7864H56.0035V51.0546H56.3047L60.0818 44.7864ZM70.6053 48.4709V44.7864H72.6097V52.8621H70.6053V50.0003C69.9912 50.3478 69.0875 50.5216 67.9057 50.5216C65.8665 50.5216 64.6615 49.6063 64.6615 47.7873V44.7864H66.6543V47.7293C66.6543 48.5056 67.28 48.8996 68.5313 48.8996C69.3887 48.8996 70.0839 48.7605 70.6053 48.4709ZM80.3713 47.8568V44.7864H82.3526V52.8621H80.3713V49.4905H76.2002V52.8621H74.2074V44.7864H76.2002V47.8568H80.3713ZM83.9494 52.8621V44.7864H85.9422V47.6135H88.3753C90.7969 47.6135 91.9091 48.4129 91.9091 50.2088C91.9091 52.0163 90.7969 52.8621 88.3753 52.8621H83.9494ZM95.1533 52.8621H93.1605V44.7864H95.1533V52.8621ZM88.3753 49.2471H85.9422V51.2284H88.3753C89.4413 51.2284 89.9279 50.904 89.9279 50.2088C89.9279 49.5252 89.4529 49.2471 88.3753 49.2471ZM98.7273 42.5039H100.106C100.106 42.9326 100.558 43.1412 101.45 43.1412C102.354 43.1412 102.806 42.9326 102.817 42.5039H104.15C104.15 43.6278 103.304 44.1492 101.45 44.1492C99.5963 44.1492 98.7389 43.6278 98.7273 42.5039ZM102.829 44.7864H106.143V52.8621H104.15V46.6055H103.837L100.071 52.8621H96.7576V44.7864H98.7505V51.0546H99.0517L102.829 44.7864ZM119.988 44.7864V51.2284H120.88V54.8201H118.875V52.8621H112.653V54.8201H110.649V51.2284H111.472C112.294 50.4985 112.711 49.3051 112.711 47.6251V44.7864H119.988ZM114.704 46.4201V47.6251C114.704 48.9807 114.391 50.174 113.766 51.2284H117.995V46.4201H114.704ZM130.966 52.8621H128.95L128.383 51.1473H124.107L123.54 52.8621H121.512L124.2 44.7864H128.29L130.966 52.8621ZM125.683 46.4201L124.652 49.5252H127.838L126.807 46.4201H125.683ZM133.973 42.5039H135.351C135.351 42.9326 135.803 43.1412 136.695 43.1412C137.599 43.1412 138.051 42.9326 138.063 42.5039H139.395C139.395 43.6278 138.549 44.1492 136.695 44.1492C134.842 44.1492 133.984 43.6278 133.973 42.5039ZM138.074 44.7864H141.388V52.8621H139.395V46.6055H139.082L135.317 52.8621H132.003V44.7864H133.996V51.0546H134.297L138.074 44.7864ZM151.703 44.7864V51.2284H152.595V54.8201H150.59V52.8621H144.369V54.8201H142.364V51.2284H143.187C144.009 50.4985 144.427 49.3051 144.427 47.6251V44.7864H151.703ZM146.419 46.4201V47.6251C146.419 48.9807 146.107 50.174 145.481 51.2284H149.71V46.4201H146.419ZM166.586 52.8621H164.419L162.624 49.502H160.955V52.8621H158.962V49.502H157.294L155.486 52.8621H153.32L155.556 48.7142L153.505 44.7864H155.66L157.248 47.8684H158.962V44.7864H160.955V47.8684H162.67L164.257 44.7864H166.412L164.373 48.7142L166.586 52.8621ZM174.664 52.8621H167.701V44.7864H174.583V46.3506H169.694V47.9379H174.189V49.502H169.694V51.2979H174.664V52.8621ZM180.549 53.059C177.155 53.059 175.602 51.715 175.602 48.7837C175.602 45.9219 177.178 44.5895 180.619 44.5895C183.539 44.5895 185.126 45.7017 185.346 47.8684H183.376C183.237 46.6982 182.345 46.2231 180.619 46.2231C178.441 46.2231 177.595 46.9415 177.595 48.7953C177.595 49.7338 177.827 50.4058 178.278 50.8113C178.73 51.2168 179.495 51.4138 180.561 51.4138C182.403 51.4138 183.365 50.7881 183.457 49.5368H185.439C185.253 51.8541 183.562 53.059 180.549 53.059ZM190.909 52.8621H188.916V46.4201H185.904V44.7864H193.91V46.4201H190.909V52.8621Z" fill="white"/>
<path d="M13.7699 78.8633V77.7099H14.4062C14.6515 77.7099 14.857 77.6619 15.0227 77.5657C15.1918 77.4696 15.331 77.3453 15.4403 77.1929C15.553 77.0404 15.6458 76.8813 15.7188 76.7156L15.8778 76.3378L12.358 68.5423H13.6903L16.4943 74.8662L19.0597 68.5423H20.3722L16.8523 77.0736C16.7131 77.3917 16.554 77.6867 16.375 77.9585C16.1993 78.2303 15.959 78.449 15.6541 78.6147C15.3525 78.7805 14.9432 78.8633 14.4261 78.8633H13.7699ZM21.3329 76.7753H22.5858C22.6123 77.12 22.7681 77.3818 23.0531 77.5608C23.3414 77.7397 23.716 77.8292 24.1767 77.8292C24.6473 77.8292 25.05 77.7331 25.3848 77.5409C25.7195 77.3453 25.8869 77.0305 25.8869 76.5963C25.8869 76.3411 25.8239 76.119 25.698 75.9301C25.572 75.7379 25.3947 75.5887 25.166 75.4826C24.9373 75.3766 24.6672 75.3236 24.3556 75.3236H23.0431V74.2696H24.3556C24.823 74.2696 25.1677 74.1635 25.3897 73.9514C25.6151 73.7393 25.7278 73.4741 25.7278 73.1559C25.7278 72.8146 25.6068 72.5411 25.3649 72.3356C25.1229 72.1268 24.7799 72.0224 24.3358 72.0224C23.8883 72.0224 23.5154 72.1235 23.2172 72.3257C22.9189 72.5245 22.7614 72.7814 22.7449 73.0963H21.5119C21.5252 72.6853 21.6511 72.3224 21.8897 72.0075C22.1284 71.6893 22.4532 71.4407 22.8642 71.2618C23.2752 71.0795 23.7458 70.9883 24.2761 70.9883C24.813 70.9883 25.2787 71.0828 25.6731 71.2717C26.0708 71.4573 26.3774 71.7109 26.5929 72.0324C26.8116 72.3505 26.921 72.7118 26.921 73.1162C26.921 73.547 26.8 73.895 26.5581 74.1602C26.3161 74.4254 26.0128 74.6143 25.6483 74.727V74.8065C25.9366 74.8264 26.1868 74.9192 26.399 75.0849C26.6144 75.2473 26.7818 75.4611 26.9011 75.7263C27.0204 75.9881 27.0801 76.2781 27.0801 76.5963C27.0801 77.0603 26.9558 77.4647 26.7072 77.8093C26.4586 78.1507 26.1172 78.4159 25.6831 78.6048C25.2489 78.7904 24.7534 78.8832 24.1966 78.8832C23.6563 78.8832 23.1724 78.7954 22.7449 78.6197C22.3173 78.4407 21.9776 78.1938 21.7257 77.879C21.4771 77.5608 21.3462 77.1929 21.3329 76.7753ZM33.839 74.369V75.4628H29.623V74.369H33.839ZM29.9015 71.0878V78.7241H28.7282V71.0878H29.9015ZM34.7338 71.0878V78.7241H33.5605V71.0878H34.7338ZM39.1238 78.9031C38.6399 78.9031 38.2007 78.812 37.8063 78.6297C37.4119 78.4441 37.0987 78.1772 36.8667 77.8292C36.6346 77.4779 36.5186 77.0537 36.5186 76.5565C36.5186 76.119 36.6048 75.7644 36.7772 75.4926C36.9495 75.2175 37.1799 75.0021 37.4682 74.8463C37.7566 74.6905 38.0748 74.5745 38.4228 74.4983C38.7741 74.4187 39.1271 74.3557 39.4817 74.3093C39.9457 74.2497 40.3219 74.2049 40.6103 74.1751C40.9019 74.142 41.1141 74.0873 41.2466 74.0111C41.3825 73.9348 41.4505 73.8022 41.4505 73.6133V73.5736C41.4505 73.083 41.3162 72.7019 41.0478 72.4301C40.7826 72.1583 40.3799 72.0224 39.8397 72.0224C39.2795 72.0224 38.8404 72.145 38.5222 72.3903C38.204 72.6356 37.9803 72.8974 37.851 73.1758L36.7374 72.7781C36.9363 72.3141 37.2014 71.9528 37.5328 71.6943C37.8676 71.4325 38.2322 71.2502 38.6266 71.1474C39.0243 71.0414 39.4154 70.9883 39.7999 70.9883C40.0452 70.9883 40.3269 71.0182 40.6451 71.0778C40.9666 71.1342 41.2765 71.2518 41.5748 71.4308C41.8764 71.6098 42.1266 71.8799 42.3255 72.2412C42.5243 72.6024 42.6238 73.0863 42.6238 73.6929V78.7241H41.4505V77.69H41.3908C41.3113 77.8557 41.1787 78.0331 40.9931 78.222C40.8075 78.4109 40.5605 78.5717 40.2523 78.7042C39.9441 78.8368 39.5679 78.9031 39.1238 78.9031ZM39.3027 77.8491C39.7667 77.8491 40.1578 77.758 40.476 77.5757C40.7975 77.3934 41.0395 77.1581 41.2019 76.8697C41.3676 76.5814 41.4505 76.2781 41.4505 75.9599V74.8861C41.4007 74.9457 41.2914 75.0004 41.1223 75.0501C40.9566 75.0965 40.7644 75.1379 40.5456 75.1744C40.3302 75.2075 40.1197 75.2374 39.9142 75.2639C39.7121 75.2871 39.548 75.307 39.4221 75.3236C39.1171 75.3633 38.8321 75.428 38.5669 75.5174C38.3051 75.6036 38.093 75.7345 37.9306 75.9102C37.7715 76.0825 37.6919 76.3179 37.6919 76.6162C37.6919 77.0238 37.8427 77.3321 38.1444 77.5409C38.4493 77.7464 38.8354 77.8491 39.3027 77.8491ZM44.7653 78.7241V71.0878H47.8874C48.7094 71.0878 49.3623 71.2734 49.8462 71.6446C50.3301 72.0158 50.5721 72.5063 50.5721 73.1162C50.5721 73.5802 50.4345 73.9398 50.1594 74.195C49.8844 74.4469 49.5314 74.6176 49.1005 74.7071C49.3822 74.7468 49.6557 74.8463 49.9208 75.0054C50.1893 75.1645 50.4113 75.3832 50.587 75.6616C50.7627 75.9367 50.8505 76.2748 50.8505 76.6758C50.8505 77.0669 50.7511 77.4166 50.5522 77.7248C50.3533 78.0331 50.0683 78.2767 49.6971 78.4557C49.3259 78.6346 48.8817 78.7241 48.3647 78.7241H44.7653ZM45.8789 77.6503H48.3647C48.7691 77.6503 49.0856 77.5541 49.3143 77.3619C49.543 77.1697 49.6573 76.9078 49.6573 76.5764C49.6573 76.182 49.543 75.8721 49.3143 75.6467C49.0856 75.418 48.7691 75.3037 48.3647 75.3037H45.8789V77.6503ZM45.8789 74.2895H47.8874C48.2023 74.2895 48.4724 74.2464 48.6978 74.1602C48.9232 74.0707 49.0955 73.9448 49.2148 73.7824C49.3375 73.6166 49.3988 73.4211 49.3988 73.1957C49.3988 72.8742 49.2646 72.6223 48.9961 72.44C48.7276 72.2544 48.3581 72.1616 47.8874 72.1616H45.8789V74.2895ZM54.8738 78.9031C54.3899 78.9031 53.9507 78.812 53.5563 78.6297C53.1619 78.4441 52.8487 78.1772 52.6167 77.8292C52.3846 77.4779 52.2686 77.0537 52.2686 76.5565C52.2686 76.119 52.3548 75.7644 52.5272 75.4926C52.6995 75.2175 52.9299 75.0021 53.2182 74.8463C53.5066 74.6905 53.8248 74.5745 54.1728 74.4983C54.5241 74.4187 54.8771 74.3557 55.2317 74.3093C55.6957 74.2497 56.0719 74.2049 56.3603 74.1751C56.6519 74.142 56.8641 74.0873 56.9966 74.0111C57.1325 73.9348 57.2005 73.8022 57.2005 73.6133V73.5736C57.2005 73.083 57.0662 72.7019 56.7978 72.4301C56.5326 72.1583 56.1299 72.0224 55.5897 72.0224C55.0295 72.0224 54.5904 72.145 54.2722 72.3903C53.954 72.6356 53.7303 72.8974 53.601 73.1758L52.4874 72.7781C52.6863 72.3141 52.9514 71.9528 53.2828 71.6943C53.6176 71.4325 53.9822 71.2502 54.3766 71.1474C54.7743 71.0414 55.1654 70.9883 55.5499 70.9883C55.7952 70.9883 56.0769 71.0182 56.3951 71.0778C56.7166 71.1342 57.0265 71.2518 57.3248 71.4308C57.6264 71.6098 57.8766 71.8799 58.0755 72.2412C58.2743 72.6024 58.3738 73.0863 58.3738 73.6929V78.7241H57.2005V77.69H57.1408C57.0613 77.8557 56.9287 78.0331 56.7431 78.222C56.5575 78.4109 56.3105 78.5717 56.0023 78.7042C55.6941 78.8368 55.3179 78.9031 54.8738 78.9031ZM55.0527 77.8491C55.5167 77.8491 55.9078 77.758 56.226 77.5757C56.5475 77.3934 56.7895 77.1581 56.9519 76.8697C57.1176 76.5814 57.2005 76.2781 57.2005 75.9599V74.8861C57.1507 74.9457 57.0414 75.0004 56.8723 75.0501C56.7066 75.0965 56.5144 75.1379 56.2956 75.1744C56.0802 75.2075 55.8697 75.2374 55.6642 75.2639C55.4621 75.2871 55.298 75.307 55.1721 75.3236C54.8671 75.3633 54.5821 75.428 54.3169 75.5174C54.0551 75.6036 53.843 75.7345 53.6806 75.9102C53.5215 76.0825 53.4419 76.3179 53.4419 76.6162C53.4419 77.0238 53.5927 77.3321 53.8944 77.5409C54.1993 77.7464 54.5854 77.8491 55.0527 77.8491ZM61.6886 76.994L65.3675 71.0878H66.7198V78.7241H65.5465V72.8179L61.8874 78.7241H60.5153V71.0878H61.6886V76.994ZM64.592 68.5423H65.6857C65.6857 69.0792 65.5001 69.5184 65.1289 69.8598C64.7577 70.2012 64.2539 70.3718 63.6175 70.3718C62.9911 70.3718 62.4923 70.2012 62.1211 69.8598C61.7532 69.5184 61.5692 69.0792 61.5692 68.5423H62.663C62.663 68.8008 62.7343 69.0279 62.8768 69.2234C63.0226 69.419 63.2695 69.5167 63.6175 69.5167C63.9656 69.5167 64.2141 69.419 64.3633 69.2234C64.5157 69.0279 64.592 68.8008 64.592 68.5423ZM67.8297 72.1815V71.0878H74.0343V72.1815H71.5286V78.7241H70.3553V72.1815H67.8297ZM78.551 78.8832C77.8152 78.8832 77.1805 78.7208 76.6468 78.396C76.1165 78.0679 75.7072 77.6105 75.4189 77.0238C75.1338 76.4339 74.9913 75.7478 74.9913 74.9656C74.9913 74.1834 75.1338 73.494 75.4189 72.8974C75.7072 72.2975 76.1083 71.8302 76.622 71.4954C77.139 71.1574 77.7422 70.9883 78.4316 70.9883C78.8294 70.9883 79.2221 71.0546 79.6099 71.1872C79.9977 71.3198 80.3507 71.5352 80.6689 71.8335C80.987 72.1285 81.2406 72.5196 81.4295 73.0068C81.6184 73.494 81.7129 74.0939 81.7129 74.8065V75.3037H75.8265V74.2895H80.5197C80.5197 73.8586 80.4335 73.4741 80.2612 73.1361C80.0922 72.798 79.8502 72.5312 79.5353 72.3356C79.2238 72.1401 78.8559 72.0423 78.4316 72.0423C77.9643 72.0423 77.56 72.1583 77.2186 72.3903C76.8805 72.619 76.6203 72.9173 76.438 73.2852C76.2557 73.6531 76.1646 74.0475 76.1646 74.4684V75.1446C76.1646 75.7213 76.264 76.2102 76.4629 76.6112C76.6651 77.0089 76.9451 77.3122 77.3031 77.521C77.661 77.7265 78.077 77.8292 78.551 77.8292C78.8592 77.8292 79.1376 77.7861 79.3862 77.7C79.6381 77.6105 79.8552 77.4779 80.0375 77.3022C80.2198 77.1233 80.3606 76.9012 80.46 76.6361L81.5936 76.9542C81.4743 77.3387 81.2737 77.6768 80.992 77.9684C80.7103 78.2568 80.3623 78.4822 79.948 78.6446C79.5337 78.8037 79.068 78.8832 78.551 78.8832ZM87.4352 78.7241V71.0878H93.4409V78.7241H92.2676V72.1815H88.6085V78.7241H87.4352ZM98.6859 78.8832C97.9965 78.8832 97.3916 78.7191 96.8713 78.391C96.3542 78.0629 95.9499 77.6039 95.6582 77.0139C95.3699 76.4239 95.2257 75.7345 95.2257 74.9457C95.2257 74.1503 95.3699 73.4559 95.6582 72.8626C95.9499 72.2693 96.3542 71.8086 96.8713 71.4805C97.3916 71.1524 97.9965 70.9883 98.6859 70.9883C99.3753 70.9883 99.9785 71.1524 100.496 71.4805C101.016 71.8086 101.42 72.2693 101.709 72.8626C102 73.4559 102.146 74.1503 102.146 74.9457C102.146 75.7345 102 76.4239 101.709 77.0139C101.42 77.6039 101.016 78.0629 100.496 78.391C99.9785 78.7191 99.3753 78.8832 98.6859 78.8832ZM98.6859 77.8292C99.2096 77.8292 99.6404 77.695 99.9785 77.4265C100.317 77.1581 100.567 76.8051 100.729 76.3676C100.892 75.9301 100.973 75.4561 100.973 74.9457C100.973 74.4353 100.892 73.9597 100.729 73.5189C100.567 73.0781 100.317 72.7218 99.9785 72.45C99.6404 72.1782 99.2096 72.0423 98.6859 72.0423C98.1622 72.0423 97.7314 72.1782 97.3933 72.45C97.0552 72.7218 96.805 73.0781 96.6426 73.5189C96.4802 73.9597 96.399 74.4353 96.399 74.9457C96.399 75.4561 96.4802 75.9301 96.6426 76.3676C96.805 76.8051 97.0552 77.1581 97.3933 77.4265C97.7314 77.695 98.1622 77.8292 98.6859 77.8292ZM107.039 78.8832C106.324 78.8832 105.707 78.7142 105.19 78.3761C104.673 78.038 104.275 77.5724 103.997 76.9791C103.718 76.3858 103.579 75.708 103.579 74.9457C103.579 74.1701 103.722 73.4857 104.007 72.8924C104.295 72.2959 104.696 71.8302 105.21 71.4954C105.727 71.1574 106.33 70.9883 107.02 70.9883C107.556 70.9883 108.04 71.0878 108.471 71.2866C108.902 71.4855 109.255 71.7639 109.53 72.1218C109.805 72.4798 109.976 72.8974 110.042 73.3747H108.869C108.779 73.0267 108.581 72.7184 108.272 72.45C107.967 72.1782 107.556 72.0423 107.039 72.0423C106.582 72.0423 106.181 72.1616 105.836 72.4003C105.495 72.6356 105.228 72.9687 105.036 73.3995C104.847 73.8271 104.752 74.3292 104.752 74.9059C104.752 75.4959 104.845 76.0096 105.031 76.4471C105.22 76.8846 105.485 77.2244 105.826 77.4663C106.171 77.7083 106.575 77.8292 107.039 77.8292C107.344 77.8292 107.621 77.7762 107.87 77.6701C108.118 77.5641 108.329 77.4116 108.501 77.2128C108.673 77.0139 108.796 76.7753 108.869 76.4968H110.042C109.976 76.9476 109.812 77.3536 109.55 77.7149C109.292 78.0728 108.949 78.3579 108.521 78.57C108.097 78.7788 107.603 78.8832 107.039 78.8832ZM111.081 78.7241V77.6304H111.36C111.588 77.6304 111.779 77.5856 111.931 77.4961C112.084 77.4033 112.207 77.2426 112.299 77.0139C112.395 76.7819 112.468 76.4604 112.518 76.0494C112.571 75.6351 112.609 75.1081 112.632 74.4684L112.772 71.0878H117.863V78.7241H116.689V72.1815H113.885L113.766 74.9059C113.739 75.5324 113.683 76.0842 113.597 76.5615C113.514 77.0354 113.386 77.4332 113.214 77.7547C113.045 78.0762 112.82 78.3181 112.538 78.4805C112.256 78.6429 111.903 78.7241 111.479 78.7241H111.081ZM123.217 78.8832C122.481 78.8832 121.846 78.7208 121.313 78.396C120.783 78.0679 120.373 77.6105 120.085 77.0238C119.8 76.4339 119.657 75.7478 119.657 74.9656C119.657 74.1834 119.8 73.494 120.085 72.8974C120.373 72.2975 120.774 71.8302 121.288 71.4954C121.805 71.1574 122.408 70.9883 123.098 70.9883C123.495 70.9883 123.888 71.0546 124.276 71.1872C124.664 71.3198 125.017 71.5352 125.335 71.8335C125.653 72.1285 125.907 72.5196 126.096 73.0068C126.284 73.494 126.379 74.0939 126.379 74.8065V75.3037H120.493V74.2895H125.186C125.186 73.8586 125.1 73.4741 124.927 73.1361C124.758 72.798 124.516 72.5312 124.201 72.3356C123.89 72.1401 123.522 72.0423 123.098 72.0423C122.63 72.0423 122.226 72.1583 121.885 72.3903C121.547 72.619 121.286 72.9173 121.104 73.2852C120.922 73.6531 120.831 74.0475 120.831 74.4684V75.1446C120.831 75.7213 120.93 76.2102 121.129 76.6112C121.331 77.0089 121.611 77.3122 121.969 77.521C122.327 77.7265 122.743 77.8292 123.217 77.8292C123.525 77.8292 123.804 77.7861 124.052 77.7C124.304 77.6105 124.521 77.4779 124.703 77.3022C124.886 77.1233 125.027 76.9012 125.126 76.6361L126.26 76.9542C126.14 77.3387 125.94 77.6768 125.658 77.9684C125.376 78.2568 125.028 78.4822 124.614 78.6446C124.2 78.8037 123.734 78.8832 123.217 78.8832ZM127.348 80.9116V77.6304H127.985C128.141 77.468 128.275 77.2923 128.387 77.1034C128.5 76.9145 128.598 76.6907 128.681 76.4322C128.767 76.1704 128.84 75.8522 128.9 75.4777C128.959 75.0998 129.012 74.6441 129.059 74.1105L129.317 71.0878H134.169V77.6304H135.343V80.9116H134.169V78.7241H128.522V80.9116H127.348ZM129.317 77.6304H132.996V72.1815H130.411L130.212 74.1105C130.129 74.9093 130.026 75.6069 129.904 76.2035C129.781 76.8001 129.586 77.2757 129.317 77.6304ZM142.011 74.369V75.4628H137.795V74.369H142.011ZM138.073 71.0878V78.7241H136.9V71.0878H138.073ZM142.906 71.0878V78.7241H141.732V71.0878H142.906ZM146.222 76.994L149.901 71.0878H151.253V78.7241H150.08V72.8179L146.421 78.7241H145.048V71.0878H146.222V76.994ZM156.604 78.8832C155.868 78.8832 155.233 78.7208 154.7 78.396C154.169 78.0679 153.76 77.6105 153.472 77.0238C153.187 76.4339 153.044 75.7478 153.044 74.9656C153.044 74.1834 153.187 73.494 153.472 72.8974C153.76 72.2975 154.161 71.8302 154.675 71.4954C155.192 71.1574 155.795 70.9883 156.484 70.9883C156.882 70.9883 157.275 71.0546 157.663 71.1872C158.05 71.3198 158.403 71.5352 158.722 71.8335C159.04 72.1285 159.293 72.5196 159.482 73.0068C159.671 73.494 159.766 74.0939 159.766 74.8065V75.3037H153.879V74.2895H158.572C158.572 73.8586 158.486 73.4741 158.314 73.1361C158.145 72.798 157.903 72.5312 157.588 72.3356C157.277 72.1401 156.909 72.0423 156.484 72.0423C156.017 72.0423 155.613 72.1583 155.271 72.3903C154.933 72.619 154.673 72.9173 154.491 73.2852C154.308 73.6531 154.217 74.0475 154.217 74.4684V75.1446C154.217 75.7213 154.317 76.2102 154.516 76.6112C154.718 77.0089 154.998 77.3122 155.356 77.521C155.714 77.7265 156.13 77.8292 156.604 77.8292C156.912 77.8292 157.19 77.7861 157.439 77.7C157.691 77.6105 157.908 77.4779 158.09 77.3022C158.272 77.1233 158.413 76.9012 158.513 76.6361L159.646 76.9542C159.527 77.3387 159.326 77.6768 159.045 77.9684C158.763 78.2568 158.415 78.4822 158.001 78.6446C157.586 78.8037 157.121 78.8832 156.604 78.8832ZM170.599 74.369V75.4628H166.383V74.369H170.599ZM166.661 71.0878V78.7241H165.488V71.0878H166.661ZM171.494 71.0878V78.7241H170.32V71.0878H171.494ZM176.739 78.8832C176.049 78.8832 175.444 78.7191 174.924 78.391C174.407 78.0629 174.003 77.6039 173.711 77.0139C173.423 76.4239 173.278 75.7345 173.278 74.9457C173.278 74.1503 173.423 73.4559 173.711 72.8626C174.003 72.2693 174.407 71.8086 174.924 71.4805C175.444 71.1524 176.049 70.9883 176.739 70.9883C177.428 70.9883 178.031 71.1524 178.548 71.4805C179.069 71.8086 179.473 72.2693 179.761 72.8626C180.053 73.4559 180.199 74.1503 180.199 74.9457C180.199 75.7345 180.053 76.4239 179.761 77.0139C179.473 77.6039 179.069 78.0629 178.548 78.391C178.031 78.7191 177.428 78.8832 176.739 78.8832ZM176.739 77.8292C177.262 77.8292 177.693 77.695 178.031 77.4265C178.369 77.1581 178.62 76.8051 178.782 76.3676C178.944 75.9301 179.026 75.4561 179.026 74.9457C179.026 74.4353 178.944 73.9597 178.782 73.5189C178.62 73.0781 178.369 72.7218 178.031 72.45C177.693 72.1782 177.262 72.0423 176.739 72.0423C176.215 72.0423 175.784 72.1782 175.446 72.45C175.108 72.7218 174.858 73.0781 174.695 73.5189C174.533 73.9597 174.452 74.4353 174.452 74.9457C174.452 75.4561 174.533 75.9301 174.695 76.3676C174.858 76.8051 175.108 77.1581 175.446 77.4265C175.784 77.695 176.215 77.8292 176.739 77.8292ZM181.99 78.7241V71.0878H185.112C185.934 71.0878 186.587 71.2734 187.071 71.6446C187.555 72.0158 187.797 72.5063 187.797 73.1162C187.797 73.5802 187.659 73.9398 187.384 74.195C187.109 74.4469 186.756 74.6176 186.325 74.7071C186.607 74.7468 186.88 74.8463 187.145 75.0054C187.414 75.1645 187.636 75.3832 187.812 75.6616C187.987 75.9367 188.075 76.2748 188.075 76.6758C188.075 77.0669 187.976 77.4166 187.777 77.7248C187.578 78.0331 187.293 78.2767 186.922 78.4557C186.55 78.6346 186.106 78.7241 185.589 78.7241H181.99ZM183.104 77.6503H185.589C185.994 77.6503 186.31 77.5541 186.539 77.3619C186.768 77.1697 186.882 76.9078 186.882 76.5764C186.882 76.182 186.768 75.8721 186.539 75.6467C186.31 75.418 185.994 75.3037 185.589 75.3037H183.104V77.6503ZM183.104 74.2895H185.112C185.427 74.2895 185.697 74.2464 185.922 74.1602C186.148 74.0707 186.32 73.9448 186.439 73.7824C186.562 73.6166 186.623 73.4211 186.623 73.1957C186.623 72.8742 186.489 72.6223 186.221 72.44C185.952 72.2544 185.583 72.1616 185.112 72.1616H183.104V74.2895ZM192.953 78.8832C192.264 78.8832 191.659 78.7191 191.139 78.391C190.622 78.0629 190.217 77.6039 189.926 77.0139C189.637 76.4239 189.493 75.7345 189.493 74.9457C189.493 74.1503 189.637 73.4559 189.926 72.8626C190.217 72.2693 190.622 71.8086 191.139 71.4805C191.659 71.1524 192.264 70.9883 192.953 70.9883C193.643 70.9883 194.246 71.1524 194.763 71.4805C195.283 71.8086 195.688 72.2693 195.976 72.8626C196.268 73.4559 196.414 74.1503 196.414 74.9457C196.414 75.7345 196.268 76.4239 195.976 77.0139C195.688 77.6039 195.283 78.0629 194.763 78.391C194.246 78.7191 193.643 78.8832 192.953 78.8832ZM192.953 77.8292C193.477 77.8292 193.908 77.695 194.246 77.4265C194.584 77.1581 194.834 76.8051 194.997 76.3676C195.159 75.9301 195.24 75.4561 195.24 74.9457C195.24 74.4353 195.159 73.9597 194.997 73.5189C194.834 73.0781 194.584 72.7218 194.246 72.45C193.908 72.1782 193.477 72.0423 192.953 72.0423C192.43 72.0423 191.999 72.1782 191.661 72.45C191.323 72.7218 191.073 73.0781 190.91 73.5189C190.748 73.9597 190.667 74.4353 190.667 74.9457C190.667 75.4561 190.748 75.9301 190.91 76.3676C191.073 76.8051 191.323 77.1581 191.661 77.4265C191.999 77.695 192.43 77.8292 192.953 77.8292ZM201.307 78.8832C200.591 78.8832 199.975 78.7142 199.458 78.3761C198.941 78.038 198.543 77.5724 198.264 76.9791C197.986 76.3858 197.847 75.708 197.847 74.9457C197.847 74.1701 197.989 73.4857 198.274 72.8924C198.563 72.2959 198.964 71.8302 199.477 71.4954C199.994 71.1574 200.598 70.9883 201.287 70.9883C201.824 70.9883 202.308 71.0878 202.739 71.2866C203.17 71.4855 203.523 71.7639 203.798 72.1218C204.073 72.4798 204.244 72.8974 204.31 73.3747H203.137C203.047 73.0267 202.848 72.7184 202.54 72.45C202.235 72.1782 201.824 72.0423 201.307 72.0423C200.85 72.0423 200.449 72.1616 200.104 72.4003C199.762 72.6356 199.496 72.9687 199.303 73.3995C199.115 73.8271 199.02 74.3292 199.02 74.9059C199.02 75.4959 199.113 76.0096 199.298 76.4471C199.487 76.8846 199.753 77.2244 200.094 77.4663C200.439 77.7083 200.843 77.8292 201.307 77.8292C201.612 77.8292 201.889 77.7762 202.137 77.6701C202.386 77.5641 202.596 77.4116 202.769 77.2128C202.941 77.0139 203.064 76.7753 203.137 76.4968H204.31C204.244 76.9476 204.079 77.3536 203.818 77.7149C203.559 78.0728 203.216 78.3579 202.789 78.57C202.364 78.7788 201.87 78.8832 201.307 78.8832ZM205.423 72.1815V71.0878H211.628V72.1815H209.122V78.7241H207.949V72.1815H205.423ZM214.513 76.994L218.192 71.0878H219.544V78.7241H218.371V72.8179L214.712 78.7241H213.339V71.0878H214.513V76.994ZM13.0739 95.7241V88.0878H16.196C17.018 88.0878 17.6709 88.2734 18.1548 88.6446C18.6387 89.0158 18.8807 89.5063 18.8807 90.1162C18.8807 90.5802 18.7431 90.9398 18.468 91.195C18.1929 91.4469 17.84 91.6176 17.4091 91.7071C17.6908 91.7468 17.9643 91.8463 18.2294 92.0054C18.4979 92.1645 18.7199 92.3832 18.8956 92.6616C19.0713 92.9367 19.1591 93.2748 19.1591 93.6758C19.1591 94.0669 19.0597 94.4166 18.8608 94.7248C18.6619 95.0331 18.3769 95.2767 18.0057 95.4557C17.6345 95.6346 17.1903 95.7241 16.6733 95.7241H13.0739ZM14.1875 94.6503H16.6733C17.0777 94.6503 17.3942 94.5541 17.6229 94.3619C17.8516 94.1697 17.9659 93.9078 17.9659 93.5764C17.9659 93.182 17.8516 92.8721 17.6229 92.6467C17.3942 92.418 17.0777 92.3037 16.6733 92.3037H14.1875V94.6503ZM14.1875 91.2895H16.196C16.5109 91.2895 16.781 91.2464 17.0064 91.1602C17.2318 91.0707 17.4041 90.9448 17.5234 90.7824C17.6461 90.6166 17.7074 90.4211 17.7074 90.1957C17.7074 89.8742 17.5732 89.6223 17.3047 89.44C17.0362 89.2544 16.6667 89.1616 16.196 89.1616H14.1875V91.2895ZM25.6284 98.5878C25.4295 98.5878 25.2522 98.5712 25.0964 98.538C24.9406 98.5082 24.8329 98.4784 24.7733 98.4486L25.0716 97.4145C25.3566 97.4874 25.6085 97.5139 25.8272 97.494C26.046 97.4741 26.2399 97.3763 26.4089 97.2007C26.5813 97.0283 26.7387 96.7483 26.8812 96.3605L27.1 95.7639L24.2761 88.0878H25.5488L27.6568 94.173H27.7363L29.8443 88.0878H31.117L27.8755 96.8378C27.7297 97.2322 27.5491 97.5586 27.3336 97.8172C27.1182 98.079 26.868 98.2729 26.5829 98.3988C26.3012 98.5248 25.983 98.5878 25.6284 98.5878ZM31.2077 97.9116V94.6304H31.8441C31.9999 94.468 32.1341 94.2923 32.2468 94.1034C32.3595 93.9145 32.4573 93.6907 32.5401 93.4322C32.6263 93.1704 32.6992 92.8522 32.7589 92.4777C32.8185 92.0998 32.8716 91.6441 32.918 91.1105L33.1765 88.0878H38.0288V94.6304H39.2021V97.9116H38.0288V95.7241H32.381V97.9116H31.2077ZM33.1765 94.6304H36.8555V89.1815H34.2702L34.0714 91.1105C33.9885 91.9093 33.8858 92.6069 33.7631 93.2035C33.6405 93.8001 33.445 94.2757 33.1765 94.6304ZM43.8617 95.8832C43.1723 95.8832 42.5674 95.7191 42.0471 95.391C41.53 95.0629 41.1257 94.6039 40.834 94.0139C40.5456 93.4239 40.4015 92.7345 40.4015 91.9457C40.4015 91.1503 40.5456 90.4559 40.834 89.8626C41.1257 89.2693 41.53 88.8086 42.0471 88.4805C42.5674 88.1524 43.1723 87.9883 43.8617 87.9883C44.5511 87.9883 45.1543 88.1524 45.6713 88.4805C46.1917 88.8086 46.5961 89.2693 46.8844 89.8626C47.1761 90.4559 47.3219 91.1503 47.3219 91.9457C47.3219 92.7345 47.1761 93.4239 46.8844 94.0139C46.5961 94.6039 46.1917 95.0629 45.6713 95.391C45.1543 95.7191 44.5511 95.8832 43.8617 95.8832ZM43.8617 94.8292C44.3854 94.8292 44.8162 94.695 45.1543 94.4265C45.4924 94.1581 45.7426 93.8051 45.905 93.3676C46.0674 92.9301 46.1486 92.4561 46.1486 91.9457C46.1486 91.4353 46.0674 90.9597 45.905 90.5189C45.7426 90.0781 45.4924 89.7218 45.1543 89.45C44.8162 89.1782 44.3854 89.0423 43.8617 89.0423C43.338 89.0423 42.9071 89.1782 42.5691 89.45C42.231 89.7218 41.9808 90.0781 41.8184 90.5189C41.656 90.9597 41.5748 91.4353 41.5748 91.9457C41.5748 92.4561 41.656 92.9301 41.8184 93.3676C41.9808 93.8051 42.231 94.1581 42.5691 94.4265C42.9071 94.695 43.338 94.8292 43.8617 94.8292ZM54.7805 85.2241L55.3771 85.94C55.1451 86.1654 54.8767 86.3228 54.5717 86.4123C54.2668 86.5018 53.9221 86.5565 53.5376 86.5764C53.1532 86.5963 52.7256 86.6162 52.255 86.6361C51.7247 86.6559 51.2855 86.7852 50.9375 87.0238C50.5895 87.2625 50.321 87.6072 50.1321 88.0579C49.9432 88.5087 49.8222 89.0622 49.7692 89.7184H49.8686C50.1271 89.2412 50.4851 88.8898 50.9425 88.6645C51.3999 88.4391 51.8904 88.3264 52.4141 88.3264C53.0107 88.3264 53.5476 88.4656 54.0249 88.744C54.5021 89.0224 54.88 89.4351 55.1584 89.9819C55.4368 90.5288 55.576 91.2033 55.576 92.0054C55.576 92.8041 55.4335 93.4935 55.1484 94.0736C54.8667 94.6536 54.4706 95.101 53.9602 95.4159C53.4531 95.7274 52.8582 95.8832 52.1754 95.8832C51.4927 95.8832 50.8944 95.7225 50.3807 95.401C49.867 95.0762 49.4676 94.5956 49.1825 93.9592C48.8975 93.3195 48.755 92.529 48.755 91.5878V90.7724C48.755 89.0721 49.0433 87.7828 49.62 86.9045C50.2 86.0262 51.0717 85.5721 52.2351 85.5423C52.6461 85.529 53.0123 85.5257 53.3338 85.5324C53.6553 85.539 53.9354 85.5241 54.174 85.4876C54.4126 85.4512 54.6148 85.3633 54.7805 85.2241ZM52.1754 94.8292C52.6361 94.8292 53.0322 94.7132 53.3636 94.4812C53.6984 94.2492 53.9553 93.9227 54.1342 93.5018C54.3132 93.0776 54.4027 92.5788 54.4027 92.0054C54.4027 91.4486 54.3116 90.9746 54.1293 90.5835C53.9503 90.1924 53.6934 89.8941 53.3587 89.6886C53.0239 89.4831 52.6229 89.3804 52.1555 89.3804C51.8142 89.3804 51.5076 89.4384 51.2358 89.5544C50.964 89.6704 50.732 89.8411 50.5398 90.0665C50.3475 90.2918 50.1984 90.5669 50.0923 90.8917C49.9896 91.2165 49.9349 91.5878 49.9283 92.0054C49.9283 92.8605 50.1288 93.5449 50.5298 94.0586C50.9309 94.5724 51.4794 94.8292 52.1754 94.8292ZM62.4815 91.369V92.4628H58.2656V91.369H62.4815ZM58.544 88.0878V95.7241H57.3707V88.0878H58.544ZM63.3764 88.0878V95.7241H62.2031V88.0878H63.3764ZM68.6214 95.8832C67.9321 95.8832 67.3272 95.7191 66.8068 95.391C66.2898 95.0629 65.8854 94.6039 65.5938 94.0139C65.3054 93.4239 65.1612 92.7345 65.1612 91.9457C65.1612 91.1503 65.3054 90.4559 65.5938 89.8626C65.8854 89.2693 66.2898 88.8086 66.8068 88.4805C67.3272 88.1524 67.9321 87.9883 68.6214 87.9883C69.3108 87.9883 69.9141 88.1524 70.4311 88.4805C70.9515 88.8086 71.3558 89.2693 71.6442 89.8626C71.9358 90.4559 72.0817 91.1503 72.0817 91.9457C72.0817 92.7345 71.9358 93.4239 71.6442 94.0139C71.3558 94.6039 70.9515 95.0629 70.4311 95.391C69.9141 95.7191 69.3108 95.8832 68.6214 95.8832ZM68.6214 94.8292C69.1451 94.8292 69.576 94.695 69.9141 94.4265C70.2521 94.1581 70.5024 93.8051 70.6648 93.3676C70.8272 92.9301 70.9084 92.4561 70.9084 91.9457C70.9084 91.4353 70.8272 90.9597 70.6648 90.5189C70.5024 90.0781 70.2521 89.7218 69.9141 89.45C69.576 89.1782 69.1451 89.0423 68.6214 89.0423C68.0978 89.0423 67.6669 89.1782 67.3288 89.45C66.9908 89.7218 66.7405 90.0781 66.5781 90.5189C66.4157 90.9597 66.3345 91.4353 66.3345 91.9457C66.3345 92.4561 66.4157 92.9301 66.5781 93.3676C66.7405 93.8051 66.9908 94.1581 67.3288 94.4265C67.6669 94.695 68.0978 94.8292 68.6214 94.8292ZM78.0488 94.1332L80.7136 88.0878H81.8272L78.5261 95.7241H77.5716L74.3301 88.0878H75.4238L78.0488 94.1332ZM75.046 88.0878V95.7241H73.8727V88.0878H75.046ZM81.0517 95.7241V88.0878H82.225V95.7241H81.0517ZM91.4125 98.3292V85.5423H92.5858V98.3292H91.4125ZM91.4125 95.8832C90.8954 95.8832 90.4248 95.7904 90.0005 95.6048C89.5763 95.4159 89.2117 95.1491 88.9068 94.8044C88.6019 94.4564 88.3665 94.0404 88.2008 93.5565C88.0351 93.0726 87.9522 92.5357 87.9522 91.9457C87.9522 91.3491 88.0351 90.8089 88.2008 90.325C88.3665 89.8378 88.6019 89.4201 88.9068 89.0721C89.2117 88.7241 89.5763 88.4573 90.0005 88.2717C90.4248 88.0828 90.8954 87.9883 91.4125 87.9883H91.7704V95.8832H91.4125ZM91.4125 94.8292H91.6113V89.0423H91.4125C91.0214 89.0423 90.6816 89.1218 90.3933 89.2809C90.1049 89.4367 89.8663 89.6505 89.6774 89.9223C89.4918 90.1907 89.3526 90.499 89.2598 90.847C89.1703 91.195 89.1255 91.5612 89.1255 91.9457C89.1255 92.4561 89.2067 92.9301 89.3691 93.3676C89.5315 93.8051 89.7818 94.1581 90.1199 94.4265C90.4579 94.695 90.8888 94.8292 91.4125 94.8292ZM92.5858 95.8832H92.2278V87.9883H92.5858C93.1028 87.9883 93.5734 88.0828 93.9977 88.2717C94.4219 88.4573 94.7865 88.7241 95.0914 89.0721C95.3964 89.4201 95.6317 89.8378 95.7974 90.325C95.9631 90.8089 96.046 91.3491 96.046 91.9457C96.046 92.5357 95.9631 93.0726 95.7974 93.5565C95.6317 94.0404 95.3964 94.4564 95.0914 94.8044C94.7865 95.1491 94.4219 95.4159 93.9977 95.6048C93.5734 95.7904 93.1028 95.8832 92.5858 95.8832ZM92.5858 94.8292C92.9802 94.8292 93.3199 94.753 93.6049 94.6005C93.8933 94.4448 94.1303 94.2326 94.3159 93.9642C94.5048 93.6924 94.644 93.3842 94.7335 93.0395C94.8263 92.6915 94.8727 92.3269 94.8727 91.9457C94.8727 91.4353 94.7915 90.9597 94.6291 90.5189C94.4667 90.0781 94.2164 89.7218 93.8784 89.45C93.5403 89.1782 93.1094 89.0423 92.5858 89.0423H92.3869V94.8292H92.5858ZM100.942 95.8832C100.252 95.8832 99.6475 95.7191 99.1271 95.391C98.6101 95.0629 98.2057 94.6039 97.9141 94.0139C97.6257 93.4239 97.4815 92.7345 97.4815 91.9457C97.4815 91.1503 97.6257 90.4559 97.9141 89.8626C98.2057 89.2693 98.6101 88.8086 99.1271 88.4805C99.6475 88.1524 100.252 87.9883 100.942 87.9883C101.631 87.9883 102.234 88.1524 102.751 88.4805C103.272 88.8086 103.676 89.2693 103.964 89.8626C104.256 90.4559 104.402 91.1503 104.402 91.9457C104.402 92.7345 104.256 93.4239 103.964 94.0139C103.676 94.6039 103.272 95.0629 102.751 95.391C102.234 95.7191 101.631 95.8832 100.942 95.8832ZM100.942 94.8292C101.465 94.8292 101.896 94.695 102.234 94.4265C102.572 94.1581 102.823 93.8051 102.985 93.3676C103.147 92.9301 103.229 92.4561 103.229 91.9457C103.229 91.4353 103.147 90.9597 102.985 90.5189C102.823 90.0781 102.572 89.7218 102.234 89.45C101.896 89.1782 101.465 89.0423 100.942 89.0423C100.418 89.0423 99.9872 89.1782 99.6491 89.45C99.3111 89.7218 99.0608 90.0781 98.8984 90.5189C98.736 90.9597 98.6548 91.4353 98.6548 91.9457C98.6548 92.4561 98.736 92.9301 98.8984 93.3676C99.0608 93.8051 99.3111 94.1581 99.6491 94.4265C99.9872 94.695 100.418 94.8292 100.942 94.8292ZM106.193 98.5878V88.0878H107.327V89.3008H107.466C107.552 89.1682 107.671 88.9992 107.824 88.7937C107.979 88.5849 108.202 88.3993 108.49 88.2369C108.782 88.0712 109.176 87.9883 109.673 87.9883C110.316 87.9883 110.883 88.1491 111.373 88.4706C111.864 88.7921 112.247 89.2478 112.522 89.8378C112.797 90.4277 112.934 91.1237 112.934 91.9258C112.934 92.7345 112.797 93.4355 112.522 94.0288C112.247 94.6188 111.866 95.0762 111.378 95.401C110.891 95.7225 110.329 95.8832 109.693 95.8832C109.202 95.8832 108.81 95.802 108.515 95.6396C108.22 95.4739 107.993 95.2866 107.834 95.0778C107.675 94.8657 107.552 94.69 107.466 94.5508H107.366V98.5878H106.193ZM107.346 91.9059C107.346 92.4826 107.431 92.9914 107.6 93.4322C107.769 93.8697 108.016 94.2128 108.341 94.4613C108.666 94.7066 109.063 94.8292 109.534 94.8292C110.024 94.8292 110.434 94.7 110.762 94.4415C111.093 94.1796 111.342 93.8283 111.508 93.3875C111.677 92.9433 111.761 92.4495 111.761 91.9059C111.761 91.369 111.678 90.8851 111.513 90.4542C111.35 90.02 111.103 89.677 110.772 89.4251C110.444 89.1699 110.031 89.0423 109.534 89.0423C109.057 89.0423 108.656 89.1633 108.331 89.4052C108.006 89.6439 107.761 89.9786 107.595 90.4095C107.429 90.837 107.346 91.3359 107.346 91.9059ZM118.9 94.1332L121.565 88.0878H122.679L119.378 95.7241H118.423L115.182 88.0878H116.275L118.9 94.1332ZM115.898 88.0878V95.7241H114.724V88.0878H115.898ZM121.903 95.7241V88.0878H123.077V95.7241H121.903ZM127.471 95.9031C126.988 95.9031 126.548 95.812 126.154 95.6297C125.76 95.4441 125.446 95.1772 125.214 94.8292C124.982 94.4779 124.866 94.0537 124.866 93.5565C124.866 93.119 124.952 92.7644 125.125 92.4926C125.297 92.2175 125.528 92.0021 125.816 91.8463C126.104 91.6905 126.422 91.5745 126.77 91.4983C127.122 91.4187 127.475 91.3557 127.829 91.3093C128.293 91.2497 128.67 91.2049 128.958 91.1751C129.25 91.142 129.462 91.0873 129.594 91.0111C129.73 90.9348 129.798 90.8022 129.798 90.6133V90.5736C129.798 90.083 129.664 89.7019 129.395 89.4301C129.13 89.1583 128.728 89.0224 128.187 89.0224C127.627 89.0224 127.188 89.145 126.87 89.3903C126.552 89.6356 126.328 89.8974 126.199 90.1758L125.085 89.7781C125.284 89.3141 125.549 88.9528 125.881 88.6943C126.215 88.4325 126.58 88.2502 126.974 88.1474C127.372 88.0414 127.763 87.9883 128.148 87.9883C128.393 87.9883 128.675 88.0182 128.993 88.0778C129.314 88.1342 129.624 88.2518 129.922 88.4308C130.224 88.6098 130.474 88.8799 130.673 89.2412C130.872 89.6024 130.971 90.0863 130.971 90.6929V95.7241H129.798V94.69H129.738C129.659 94.8557 129.526 95.0331 129.341 95.222C129.155 95.4109 128.908 95.5717 128.6 95.7042C128.292 95.8368 127.916 95.9031 127.471 95.9031ZM127.65 94.8491C128.114 94.8491 128.506 94.758 128.824 94.5757C129.145 94.3934 129.387 94.1581 129.55 93.8697C129.715 93.5814 129.798 93.2781 129.798 92.9599V91.8861C129.748 91.9457 129.639 92.0004 129.47 92.0501C129.304 92.0965 129.112 92.1379 128.893 92.1744C128.678 92.2075 128.467 92.2374 128.262 92.2639C128.06 92.2871 127.896 92.307 127.77 92.3236C127.465 92.3633 127.18 92.428 126.915 92.5174C126.653 92.6036 126.441 92.7345 126.278 92.9102C126.119 93.0825 126.04 93.3179 126.04 93.6162C126.04 94.0238 126.19 94.3321 126.492 94.5409C126.797 94.7464 127.183 94.8491 127.65 94.8491ZM132.074 89.1815V88.0878H138.278V89.1815H135.773V95.7241H134.599V89.1815H132.074ZM142.795 95.8832C142.059 95.8832 141.425 95.7208 140.891 95.396C140.361 95.0679 139.951 94.6105 139.663 94.0238C139.378 93.4339 139.235 92.7478 139.235 91.9656C139.235 91.1834 139.378 90.494 139.663 89.8974C139.951 89.2975 140.352 88.8302 140.866 88.4954C141.383 88.1574 141.986 87.9883 142.676 87.9883C143.074 87.9883 143.466 88.0546 143.854 88.1872C144.242 88.3198 144.595 88.5352 144.913 88.8335C145.231 89.1285 145.485 89.5196 145.674 90.0068C145.863 90.494 145.957 91.0939 145.957 91.8065V92.3037H140.071V91.2895H144.764C144.764 90.8586 144.678 90.4741 144.505 90.1361C144.336 89.798 144.094 89.5312 143.779 89.3356C143.468 89.1401 143.1 89.0423 142.676 89.0423C142.208 89.0423 141.804 89.1583 141.463 89.3903C141.125 89.619 140.864 89.9173 140.682 90.2852C140.5 90.6531 140.409 91.0475 140.409 91.4684V92.1446C140.409 92.7213 140.508 93.2102 140.707 93.6112C140.909 94.0089 141.189 94.3122 141.547 94.521C141.905 94.7265 142.321 94.8292 142.795 94.8292C143.103 94.8292 143.382 94.7861 143.63 94.7C143.882 94.6105 144.099 94.4779 144.282 94.3022C144.464 94.1233 144.605 93.9012 144.704 93.6361L145.838 93.9542C145.718 94.3387 145.518 94.6768 145.236 94.9684C144.954 95.2568 144.606 95.4822 144.192 95.6446C143.778 95.8037 143.312 95.8832 142.795 95.8832ZM154.583 94.6304H153.549L151.54 91.6474V91.548H152.674L154.583 94.6304ZM154.583 88.5253L152.674 91.6076H151.54V91.5082L153.549 88.5253H154.583ZM157.128 94.6304H156.094L154.086 91.6474V91.548H155.219L157.128 94.6304ZM157.128 88.5253L155.219 91.6076H154.086V91.5082L156.094 88.5253H157.128ZM159.338 95.7241H158.045L161.784 85.5423H163.057L166.795 95.7241H165.503L162.46 87.1531H162.381L159.338 95.7241ZM159.815 91.7468H165.026V92.8406H159.815V91.7468ZM169.396 85.5423V95.7241H168.222V85.5423H169.396ZM172.718 85.5423V95.7241H171.545V85.5423H172.718ZM179.242 90.8122V91.9059H174.787V90.8122H179.242ZM181.306 95.7241V88.0878H182.48V95.7241H181.306ZM181.903 86.815C181.674 86.815 181.477 86.7371 181.311 86.5814C181.149 86.4256 181.068 86.2383 181.068 86.0196C181.068 85.8008 181.149 85.6136 181.311 85.4578C181.477 85.302 181.674 85.2241 181.903 85.2241C182.132 85.2241 182.327 85.302 182.49 85.4578C182.655 85.6136 182.738 85.8008 182.738 86.0196C182.738 86.2383 182.655 86.4256 182.49 86.5814C182.327 86.7371 182.132 86.815 181.903 86.815ZM185.802 91.1304V95.7241H184.629V88.0878H185.762V89.2809H185.862C186.04 88.8932 186.312 88.5816 186.677 88.3463C187.041 88.1076 187.512 87.9883 188.089 87.9883C188.606 87.9883 189.058 88.0944 189.446 88.3065C189.834 88.5153 190.135 88.8335 190.351 89.2611C190.566 89.6853 190.674 90.2222 190.674 90.8718V95.7241H189.501V90.9514C189.501 90.3515 189.345 89.8842 189.033 89.5494C188.722 89.2113 188.294 89.0423 187.751 89.0423C187.376 89.0423 187.041 89.1235 186.746 89.2859C186.455 89.4483 186.224 89.6853 186.055 89.9968C185.886 90.3084 185.802 90.6862 185.802 91.1304ZM197.193 90.8122V91.9059H192.738V90.8122H197.193ZM202.36 95.8832C201.67 95.8832 201.065 95.7191 200.545 95.391C200.028 95.0629 199.624 94.6039 199.332 94.0139C199.044 93.4239 198.9 92.7345 198.9 91.9457C198.9 91.1503 199.044 90.4559 199.332 89.8626C199.624 89.2693 200.028 88.8086 200.545 88.4805C201.065 88.1524 201.67 87.9883 202.36 87.9883C203.049 87.9883 203.652 88.1524 204.169 88.4805C204.69 88.8086 205.094 89.2693 205.382 89.8626C205.674 90.4559 205.82 91.1503 205.82 91.9457C205.82 92.7345 205.674 93.4239 205.382 94.0139C205.094 94.6039 204.69 95.0629 204.169 95.391C203.652 95.7191 203.049 95.8832 202.36 95.8832ZM202.36 94.8292C202.883 94.8292 203.314 94.695 203.652 94.4265C203.99 94.1581 204.241 93.8051 204.403 93.3676C204.565 92.9301 204.647 92.4561 204.647 91.9457C204.647 91.4353 204.565 90.9597 204.403 90.5189C204.241 90.0781 203.99 89.7218 203.652 89.45C203.314 89.1782 202.883 89.0423 202.36 89.0423C201.836 89.0423 201.405 89.1782 201.067 89.45C200.729 89.7218 200.479 90.0781 200.316 90.5189C200.154 90.9597 200.073 91.4353 200.073 91.9457C200.073 92.4561 200.154 92.9301 200.316 93.3676C200.479 93.8051 200.729 94.1581 201.067 94.4265C201.405 94.695 201.836 94.8292 202.36 94.8292ZM208.784 91.1304V95.7241H207.611V88.0878H208.744V89.2809H208.844C209.023 88.8932 209.295 88.5816 209.659 88.3463C210.024 88.1076 210.494 87.9883 211.071 87.9883C211.588 87.9883 212.041 88.0944 212.428 88.3065C212.816 88.5153 213.118 88.8335 213.333 89.2611C213.549 89.6853 213.656 90.2222 213.656 90.8718V95.7241H212.483V90.9514C212.483 90.3515 212.327 89.8842 212.016 89.5494C211.704 89.2113 211.277 89.0423 210.733 89.0423C210.359 89.0423 210.024 89.1235 209.729 89.2859C209.437 89.4483 209.207 89.6853 209.038 89.9968C208.869 90.3084 208.784 90.6862 208.784 91.1304ZM219.002 95.8832C218.266 95.8832 217.632 95.7208 217.098 95.396C216.568 95.0679 216.158 94.6105 215.87 94.0238C215.585 93.4339 215.442 92.7478 215.442 91.9656C215.442 91.1834 215.585 90.494 215.87 89.8974C216.158 89.2975 216.559 88.8302 217.073 88.4954C217.59 88.1574 218.193 87.9883 218.883 87.9883C219.281 87.9883 219.673 88.0546 220.061 88.1872C220.449 88.3198 220.802 88.5352 221.12 88.8335C221.438 89.1285 221.692 89.5196 221.881 90.0068C222.07 90.494 222.164 91.0939 222.164 91.8065V92.3037H216.278V91.2895H220.971C220.971 90.8586 220.885 90.4741 220.712 90.1361C220.543 89.798 220.301 89.5312 219.987 89.3356C219.675 89.1401 219.307 89.0423 218.883 89.0423C218.415 89.0423 218.011 89.1583 217.67 89.3903C217.332 89.619 217.071 89.9173 216.889 90.2852C216.707 90.6531 216.616 91.0475 216.616 91.4684V92.1446C216.616 92.7213 216.715 93.2102 216.914 93.6112C217.116 94.0089 217.396 94.3122 217.754 94.521C218.112 94.7265 218.528 94.8292 219.002 94.8292C219.31 94.8292 219.589 94.7861 219.837 94.7C220.089 94.6105 220.306 94.4779 220.489 94.3022C220.671 94.1233 220.812 93.9012 220.911 93.6361L222.045 93.9542C221.925 94.3387 221.725 94.6768 221.443 94.9684C221.161 95.2568 220.813 95.4822 220.399 95.6446C219.985 95.8037 219.519 95.8832 219.002 95.8832ZM223.81 94.6304L225.719 91.548H226.852V91.6474L224.844 94.6304H223.81ZM223.81 88.5253H224.844L226.852 91.5082V91.6076H225.719L223.81 88.5253ZM226.355 94.6304L228.264 91.548H229.398V91.6474L227.389 94.6304H226.355ZM226.355 88.5253H227.389L229.398 91.5082V91.6076H228.264L226.355 88.5253Z" fill="black"/>
<defs>
<clipPath id="clip0_5104_8375">
<rect width="16" height="16" fill="white" transform="translate(12 12)"/>
</clipPath>
</defs>
</svg>
