<svg width="290" height="121" viewBox="0 0 290 121" fill="none" xmlns="http://www.w3.org/2000/svg">
<g clip-path="url(#clip0_5104_8363)">
<path d="M28 24.4094C28 26.3938 26.3906 28 24.4094 28H15.5906C13.6094 28 12 26.3906 12 24.4094V15.5906C12 13.6094 13.6094 12 15.5906 12H24.4094C26.3906 12 28 13.6094 28 15.5906V24.4094Z" fill="#5EBEE1"/>
<path d="M23.9718 16.1904L15.6343 19.4373C15.3655 19.5436 15.3811 19.9311 15.6593 20.0123L17.778 20.6373L18.5686 23.1467C18.6499 23.4092 18.9843 23.4873 19.1749 23.2904L20.2718 22.1717L22.4218 23.7498C22.6843 23.9436 23.0593 23.7998 23.1249 23.4811L24.5468 16.6748C24.6186 16.3436 24.2905 16.0654 23.9718 16.1904ZM22.928 17.6998L19.0561 21.1248C19.0186 21.1592 18.9936 21.2061 18.9874 21.2561L18.8374 22.5811C18.8311 22.6248 18.7718 22.6311 18.7593 22.5873L18.1468 20.6092C18.1186 20.5186 18.1561 20.4217 18.2374 20.3717L22.8093 17.5342C22.9124 17.4748 23.0218 17.6186 22.928 17.6998Z" fill="white"/>
</g>
<path d="M44.6158 15.8182V26H43.6911V16.6534H38.2074V26H37.2777V15.8182H44.6158ZM47.0668 28.8636V18.3636H47.9268V19.8203H48.0312C48.1373 19.5916 48.2831 19.358 48.4688 19.1193C48.6544 18.8774 48.8996 18.6735 49.2045 18.5078C49.5128 18.3421 49.9006 18.2592 50.3679 18.2592C50.9976 18.2592 51.5478 18.425 52.0185 18.7564C52.4924 19.0845 52.8603 19.5452 53.1222 20.1385C53.3873 20.7285 53.5199 21.4162 53.5199 22.2017C53.5199 22.9905 53.3873 23.6816 53.1222 24.2749C52.8603 24.8681 52.4924 25.3305 52.0185 25.6619C51.5478 25.9934 51.0009 26.1591 50.3778 26.1591C49.9171 26.1591 49.531 26.0762 49.2195 25.9105C48.9112 25.7448 48.661 25.541 48.4688 25.299C48.2798 25.0537 48.134 24.8151 48.0312 24.5831H47.9517V28.8636H47.0668ZM47.9418 22.1868C47.9418 22.8033 48.0329 23.3501 48.2152 23.8274C48.4008 24.3014 48.666 24.6742 49.0107 24.946C49.3587 25.2145 49.7796 25.3487 50.2734 25.3487C50.7805 25.3487 51.2081 25.2095 51.5561 24.9311C51.9074 24.6494 52.1742 24.2699 52.3565 23.7926C52.5421 23.3153 52.6349 22.7801 52.6349 22.1868C52.6349 21.6001 52.5438 21.0715 52.3615 20.6009C52.1825 20.1302 51.9174 19.7573 51.5661 19.4822C51.2147 19.2038 50.7839 19.0646 50.2734 19.0646C49.7763 19.0646 49.3537 19.1989 49.0057 19.4673C48.6577 19.7325 48.3925 20.1004 48.2102 20.571C48.0312 21.0384 47.9418 21.5769 47.9418 22.1868ZM58.4293 26.1591C57.7698 26.1591 57.1864 25.9917 56.6793 25.657C56.1755 25.3222 55.7811 24.8598 55.4961 24.2699C55.2111 23.6766 55.0685 22.9922 55.0685 22.2166C55.0685 21.4344 55.2111 20.7467 55.4961 20.1534C55.7811 19.5568 56.1755 19.0928 56.6793 18.7614C57.1864 18.4266 57.7698 18.2592 58.4293 18.2592C59.0889 18.2592 59.6706 18.4266 60.1744 18.7614C60.6781 19.0961 61.0726 19.5601 61.3576 20.1534C61.646 20.7467 61.7901 21.4344 61.7901 22.2166C61.7901 22.9922 61.6476 23.6766 61.3626 24.2699C61.0775 24.8598 60.6815 25.3222 60.1744 25.657C59.6706 25.9917 59.0889 26.1591 58.4293 26.1591ZM58.4293 25.3487C58.9596 25.3487 59.4087 25.2062 59.7766 24.9212C60.1445 24.6361 60.4229 24.2566 60.6119 23.7827C60.8041 23.3087 60.9002 22.7867 60.9002 22.2166C60.9002 21.6465 60.8041 21.1229 60.6119 20.6456C60.4229 20.1683 60.1445 19.7855 59.7766 19.4972C59.4087 19.2088 58.9596 19.0646 58.4293 19.0646C57.9023 19.0646 57.4532 19.2088 57.082 19.4972C56.7141 19.7855 56.4341 20.1683 56.2418 20.6456C56.0529 21.1229 55.9585 21.6465 55.9585 22.2166C55.9585 22.7867 56.0529 23.3087 56.2418 23.7827C56.4341 24.2566 56.7141 24.6361 57.082 24.9212C57.4499 25.2062 57.899 25.3487 58.4293 25.3487ZM62.8279 28.1726V25.1648H63.4892C63.6549 24.9792 63.7991 24.7786 63.9217 24.5632C64.0443 24.3478 64.1504 24.1025 64.2399 23.8274C64.3327 23.549 64.4106 23.2259 64.4735 22.858C64.5365 22.4867 64.5895 22.0542 64.6326 21.5604L64.911 18.3636H69.4302V25.1648H70.5637V28.1726H69.6788V26H63.7179V28.1726H62.8279ZM64.5083 25.1648H68.5453V19.1989H65.7363L65.5076 21.5604C65.4281 22.3625 65.3154 23.0618 65.1696 23.6584C65.0237 24.255 64.8033 24.7571 64.5083 25.1648ZM74.3832 26.174C73.9225 26.174 73.5015 26.0845 73.1204 25.9055C72.7392 25.7232 72.436 25.4614 72.2106 25.12C71.9852 24.7753 71.8725 24.3577 71.8725 23.8672C71.8725 23.4893 71.9438 23.1712 72.0863 22.9126C72.2288 22.6541 72.431 22.442 72.6928 22.2763C72.9547 22.1106 73.2646 21.9796 73.6225 21.8835C73.9805 21.7874 74.3749 21.7128 74.8058 21.6598C75.2333 21.6068 75.5946 21.5604 75.8896 21.5206C76.1879 21.4808 76.4149 21.4179 76.5707 21.3317C76.7264 21.2455 76.8043 21.1063 76.8043 20.9141V20.7351C76.8043 20.2147 76.6486 19.8054 76.337 19.5071C76.0288 19.2055 75.5846 19.0547 75.0046 19.0547C74.4544 19.0547 74.0053 19.1757 73.6573 19.4176C73.3126 19.6596 73.0707 19.9446 72.9315 20.2727L72.0913 19.9695C72.2636 19.5518 72.5022 19.2187 72.8072 18.9702C73.1121 18.7183 73.4535 18.5376 73.8313 18.4283C74.2092 18.3156 74.592 18.2592 74.9798 18.2592C75.2714 18.2592 75.5747 18.2973 75.8896 18.3736C76.2077 18.4498 76.5027 18.5824 76.7745 18.7713C77.0463 18.9569 77.2667 19.2171 77.4357 19.5518C77.6048 19.8833 77.6893 20.3042 77.6893 20.8146V26H76.8043V24.7919H76.7496C76.6436 25.0173 76.4862 25.236 76.2773 25.4482C76.0685 25.6603 75.8067 25.8343 75.4918 25.9702C75.177 26.1061 74.8074 26.174 74.3832 26.174ZM74.5025 25.3636C74.9731 25.3636 75.3808 25.2592 75.7255 25.0504C76.0702 24.8416 76.3353 24.5649 76.521 24.2202C76.7099 23.8722 76.8043 23.4893 76.8043 23.0717V21.968C76.738 22.031 76.627 22.0874 76.4712 22.1371C76.3188 22.1868 76.1415 22.2315 75.9393 22.2713C75.7404 22.3078 75.5415 22.3393 75.3427 22.3658C75.1438 22.3923 74.9648 22.4155 74.8058 22.4354C74.3749 22.4884 74.007 22.5713 73.7021 22.6839C73.3971 22.7966 73.1635 22.9524 73.0011 23.1513C72.8387 23.3468 72.7575 23.5987 72.7575 23.907C72.7575 24.371 72.9232 24.7306 73.2546 24.9858C73.5861 25.2377 74.002 25.3636 74.5025 25.3636ZM83.3295 21.8438V22.679H79.5959V21.8438H83.3295ZM80.3068 18.3636V26H79.4169V18.3636H80.3068ZM85.8899 26.1591C85.2304 26.1591 84.6487 25.9917 84.1449 25.657C83.6411 25.3222 83.245 24.8598 82.9567 24.2699C82.6716 23.6766 82.5291 22.9922 82.5291 22.2166C82.5291 21.4344 82.6716 20.7467 82.9567 20.1534C83.245 19.5568 83.6411 19.0928 84.1449 18.7614C84.6487 18.4266 85.2304 18.2592 85.8899 18.2592C86.5495 18.2592 87.1312 18.4266 87.6349 18.7614C88.142 19.0961 88.5381 19.5601 88.8232 20.1534C89.1082 20.7467 89.2507 21.4344 89.2507 22.2166C89.2507 22.9922 89.1082 23.6766 88.8232 24.2699C88.5381 24.8598 88.142 25.3222 87.6349 25.657C87.1312 25.9917 86.5495 26.1591 85.8899 26.1591ZM85.8899 25.3487C86.4202 25.3487 86.8693 25.2062 87.2372 24.9212C87.6051 24.6361 87.8852 24.2566 88.0774 23.7827C88.2696 23.3087 88.3658 22.7867 88.3658 22.2166C88.3658 21.6465 88.2696 21.1229 88.0774 20.6456C87.8852 20.1683 87.6051 19.7855 87.2372 19.4972C86.8693 19.2088 86.4202 19.0646 85.8899 19.0646C85.3629 19.0646 84.9155 19.2088 84.5476 19.4972C84.1797 19.7855 83.8996 20.1683 83.7074 20.6456C83.5152 21.1229 83.419 21.6465 83.419 22.2166C83.419 22.7867 83.5135 23.3087 83.7024 23.7827C83.8946 24.2566 84.1747 24.6361 84.5426 24.9212C84.9138 25.2062 85.3629 25.3487 85.8899 25.3487ZM101.21 25.1648L101.071 28.1925H100.196V26H99.2411V25.1648H101.21ZM91.3363 18.3636H92.2212V25.1648H95.3533V18.3636H96.2383V25.1648H99.3704V18.3636H100.255V26H91.3363V18.3636ZM103.911 24.7422L107.943 18.3636H109.002V26H108.117V19.6214L104.1 26H103.026V18.3636H103.911V24.7422ZM112.223 24.7422L116.255 18.3636H117.314V26H116.429V19.6214L112.412 26H111.338V18.3636H112.223V24.7422ZM115.241 15.8182H116.076C116.076 16.2921 115.919 16.6766 115.604 16.9716C115.292 17.2666 114.866 17.4141 114.326 17.4141C113.793 17.4141 113.37 17.2666 113.058 16.9716C112.747 16.6766 112.591 16.2921 112.591 15.8182H113.426C113.426 16.0767 113.496 16.2955 113.635 16.4744C113.778 16.6501 114.008 16.7379 114.326 16.7379C114.644 16.7379 114.876 16.6501 115.022 16.4744C115.168 16.2955 115.241 16.0767 115.241 15.8182ZM123.588 26V18.3636H124.473V21.799H125.303L128.142 18.3636H129.286L126.223 22.0376L129.355 26H128.212L125.577 22.6342H124.473V26H123.588ZM130.807 28.8636V18.3636H131.667V19.8203H131.771C131.878 19.5916 132.023 19.358 132.209 19.1193C132.395 18.8774 132.64 18.6735 132.945 18.5078C133.253 18.3421 133.641 18.2592 134.108 18.2592C134.738 18.2592 135.288 18.425 135.759 18.7564C136.233 19.0845 136.601 19.5452 136.862 20.1385C137.128 20.7285 137.26 21.4162 137.26 22.2017C137.26 22.9905 137.128 23.6816 136.862 24.2749C136.601 24.8681 136.233 25.3305 135.759 25.6619C135.288 25.9934 134.741 26.1591 134.118 26.1591C133.657 26.1591 133.271 26.0762 132.96 25.9105C132.651 25.7448 132.401 25.541 132.209 25.299C132.02 25.0537 131.874 24.8151 131.771 24.5831H131.692V28.8636H130.807ZM131.682 22.1868C131.682 22.8033 131.773 23.3501 131.955 23.8274C132.141 24.3014 132.406 24.6742 132.751 24.946C133.099 25.2145 133.52 25.3487 134.014 25.3487C134.521 25.3487 134.948 25.2095 135.296 24.9311C135.648 24.6494 135.914 24.2699 136.097 23.7926C136.282 23.3153 136.375 22.7801 136.375 22.1868C136.375 21.6001 136.284 21.0715 136.102 20.6009C135.923 20.1302 135.658 19.7573 135.306 19.4822C134.955 19.2038 134.524 19.0646 134.014 19.0646C133.517 19.0646 133.094 19.1989 132.746 19.4673C132.398 19.7325 132.133 20.1004 131.95 20.571C131.771 21.0384 131.682 21.5769 131.682 22.1868ZM141.334 26.174C140.874 26.174 140.453 26.0845 140.072 25.9055C139.69 25.7232 139.387 25.4614 139.162 25.12C138.936 24.7753 138.824 24.3577 138.824 23.8672C138.824 23.4893 138.895 23.1712 139.037 22.9126C139.18 22.6541 139.382 22.442 139.644 22.2763C139.906 22.1106 140.216 21.9796 140.574 21.8835C140.932 21.7874 141.326 21.7128 141.757 21.6598C142.184 21.6068 142.546 21.5604 142.841 21.5206C143.139 21.4808 143.366 21.4179 143.522 21.3317C143.678 21.2455 143.756 21.1063 143.756 20.9141V20.7351C143.756 20.2147 143.6 19.8054 143.288 19.5071C142.98 19.2055 142.536 19.0547 141.956 19.0547C141.406 19.0547 140.956 19.1757 140.608 19.4176C140.264 19.6596 140.022 19.9446 139.883 20.2727L139.042 19.9695C139.215 19.5518 139.453 19.2187 139.758 18.9702C140.063 18.7183 140.405 18.5376 140.782 18.4283C141.16 18.3156 141.543 18.2592 141.931 18.2592C142.223 18.2592 142.526 18.2973 142.841 18.3736C143.159 18.4498 143.454 18.5824 143.726 18.7713C143.997 18.9569 144.218 19.2171 144.387 19.5518C144.556 19.8833 144.64 20.3042 144.64 20.8146V26H143.756V24.7919H143.701C143.595 25.0173 143.437 25.236 143.229 25.4482C143.02 25.6603 142.758 25.8343 142.443 25.9702C142.128 26.1061 141.759 26.174 141.334 26.174ZM141.454 25.3636C141.924 25.3636 142.332 25.2592 142.677 25.0504C143.021 24.8416 143.287 24.5649 143.472 24.2202C143.661 23.8722 143.756 23.4893 143.756 23.0717V21.968C143.689 22.031 143.578 22.0874 143.422 22.1371C143.27 22.1868 143.093 22.2315 142.89 22.2713C142.692 22.3078 142.493 22.3393 142.294 22.3658C142.095 22.3923 141.916 22.4155 141.757 22.4354C141.326 22.4884 140.958 22.5713 140.653 22.6839C140.348 22.7966 140.115 22.9524 139.952 23.1513C139.79 23.3468 139.709 23.5987 139.709 23.907C139.709 24.371 139.874 24.7306 140.206 24.9858C140.537 25.2377 140.953 25.3636 141.454 25.3636ZM149.977 26.1591C149.295 26.1591 148.7 25.9884 148.193 25.647C147.689 25.3056 147.298 24.8383 147.019 24.245C146.741 23.6518 146.602 22.9756 146.602 22.2166C146.602 21.451 146.743 20.7699 147.024 20.1733C147.309 19.5767 147.704 19.1094 148.208 18.7713C148.711 18.4299 149.296 18.2592 149.963 18.2592C150.473 18.2592 150.935 18.3587 151.35 18.5575C151.764 18.7531 152.105 19.0298 152.374 19.3878C152.646 19.7424 152.816 20.1567 152.886 20.6307H151.991C151.898 20.1998 151.674 19.8319 151.32 19.527C150.968 19.2187 150.521 19.0646 149.977 19.0646C149.49 19.0646 149.059 19.1972 148.685 19.4624C148.31 19.7242 148.017 20.0904 147.805 20.5611C147.596 21.0284 147.492 21.5703 147.492 22.1868C147.492 22.8066 147.594 23.3551 147.8 23.8324C148.005 24.3063 148.294 24.6776 148.665 24.946C149.039 25.2145 149.477 25.3487 149.977 25.3487C150.316 25.3487 150.624 25.2857 150.902 25.1598C151.184 25.0305 151.419 24.8482 151.608 24.6129C151.8 24.3776 151.93 24.0975 151.996 23.7727H152.891C152.825 24.2334 152.66 24.6444 152.399 25.0057C152.14 25.3636 151.804 25.6454 151.389 25.8509C150.978 26.0563 150.508 26.1591 149.977 26.1591ZM159.943 21.7692V22.6044H155.454V21.7692H159.943ZM155.672 18.3636V26H154.787V18.3636H155.672ZM160.594 18.3636V26H159.709V18.3636H160.594ZM163.695 21.3118H165.933C166.791 21.3118 167.454 21.5206 167.921 21.9382C168.388 22.3558 168.622 22.9209 168.622 23.6335C168.622 24.1075 168.516 24.5218 168.304 24.8764C168.095 25.2311 167.79 25.5078 167.389 25.7067C166.988 25.9022 166.503 26 165.933 26H162.96V18.3636H163.849V25.1648H165.933C166.473 25.1648 166.907 25.0355 167.235 24.777C167.567 24.5185 167.732 24.1506 167.732 23.6733C167.732 23.1861 167.567 22.8099 167.235 22.5447C166.907 22.2796 166.473 22.147 165.933 22.147H163.695V21.3118ZM169.91 26V18.3636H170.795V26H169.91ZM174.034 24.7422L178.066 18.3636H179.125V26H178.24V19.6214L174.223 26H173.149V18.3636H174.034V24.7422ZM177.051 15.8182H177.887C177.887 16.2921 177.729 16.6766 177.414 16.9716C177.103 17.2666 176.677 17.4141 176.137 17.4141C175.603 17.4141 175.181 17.2666 174.869 16.9716C174.557 16.6766 174.402 16.2921 174.402 15.8182H175.237C175.237 16.0767 175.306 16.2955 175.446 16.4744C175.588 16.6501 175.819 16.7379 176.137 16.7379C176.455 16.7379 176.687 16.6501 176.833 16.4744C176.979 16.2955 177.051 16.0767 177.051 15.8182Z" fill="black"/>
<path d="M240.558 24.1364C239.973 24.1364 239.463 23.9901 239.028 23.6974C238.597 23.4048 238.261 23.0043 238.023 22.4957C237.784 21.9872 237.665 21.4077 237.665 20.7571C237.665 20.1009 237.786 19.517 238.027 19.0057C238.271 18.4943 238.609 18.0937 239.041 17.804C239.473 17.5114 239.974 17.3651 240.545 17.3651C240.983 17.3651 241.379 17.4503 241.734 17.6207C242.089 17.7884 242.382 18.0256 242.612 18.3324C242.845 18.6364 242.991 18.9915 243.051 19.3977H242.284C242.205 19.0284 242.013 18.7131 241.709 18.4517C241.408 18.1875 241.024 18.0554 240.558 18.0554C240.141 18.0554 239.771 18.169 239.45 18.3963C239.129 18.6207 238.878 18.9347 238.696 19.3381C238.517 19.7386 238.428 20.2031 238.428 20.7315C238.428 21.2628 238.516 21.733 238.692 22.142C238.868 22.5483 239.115 22.8665 239.433 23.0966C239.754 23.3267 240.129 23.4418 240.558 23.4418C240.848 23.4418 241.112 23.3878 241.351 23.2798C241.592 23.169 241.794 23.0128 241.956 22.8111C242.121 22.6094 242.232 22.3693 242.288 22.0909H243.055C242.999 22.4858 242.858 22.8381 242.634 23.1477C242.412 23.4545 242.124 23.696 241.768 23.8722C241.416 24.0483 241.013 24.1364 240.558 24.1364ZM247.327 24.1364C246.717 24.1364 246.188 23.9943 245.742 23.7102C245.296 23.4233 244.951 23.027 244.707 22.5213C244.465 22.0128 244.344 21.4276 244.344 20.7656C244.344 20.1065 244.465 19.5213 244.707 19.0099C244.951 18.4957 245.288 18.0937 245.717 17.804C246.148 17.5114 246.647 17.3651 247.212 17.3651C247.567 17.3651 247.91 17.4304 248.239 17.5611C248.569 17.6889 248.864 17.8864 249.126 18.1534C249.39 18.4176 249.599 18.7514 249.752 19.1548C249.906 19.5554 249.982 20.0298 249.982 20.5781V20.9531H244.869V20.2841H249.207C249.207 19.8636 249.121 19.4858 248.951 19.1506C248.783 18.8125 248.549 18.5455 248.248 18.3494C247.95 18.1534 247.604 18.0554 247.212 18.0554C246.798 18.0554 246.433 18.1662 246.117 18.3878C245.802 18.6094 245.555 18.902 245.376 19.2656C245.2 19.6293 245.11 20.027 245.107 20.4588V20.8594C245.107 21.3793 245.197 21.8338 245.376 22.223C245.558 22.6094 245.815 22.9091 246.147 23.1222C246.479 23.3352 246.873 23.4418 247.327 23.4418C247.637 23.4418 247.908 23.3935 248.141 23.2969C248.377 23.2003 248.575 23.071 248.734 22.9091C248.896 22.7443 249.018 22.5639 249.1 22.3679L249.82 22.6023C249.721 22.8778 249.558 23.1321 249.33 23.3651C249.106 23.598 248.825 23.7855 248.487 23.9276C248.151 24.0668 247.765 24.1364 247.327 24.1364ZM252.412 22.9219L255.868 17.4545H256.776V24H256.017V18.5327L252.574 24H251.654V17.4545H252.412V22.9219ZM254.999 15.2727H255.715C255.715 15.679 255.58 16.0085 255.31 16.2614C255.043 16.5142 254.678 16.6406 254.215 16.6406C253.757 16.6406 253.395 16.5142 253.128 16.2614C252.861 16.0085 252.728 15.679 252.728 15.2727H253.444C253.444 15.4943 253.503 15.6818 253.623 15.8352C253.745 15.9858 253.942 16.0611 254.215 16.0611C254.488 16.0611 254.686 15.9858 254.811 15.8352C254.936 15.6818 254.999 15.4943 254.999 15.2727ZM263.607 17.4545V24H262.844V17.4545H263.607ZM263.326 20.6889V21.4134C263.067 21.5071 262.821 21.5866 262.588 21.652C262.355 21.7145 262.121 21.7628 261.885 21.7969C261.652 21.831 261.404 21.848 261.14 21.848C260.404 21.8452 259.826 21.6562 259.405 21.2812C258.988 20.9062 258.779 20.3352 258.779 19.5682V17.4332H259.537V19.5682C259.537 19.9318 259.603 20.2287 259.733 20.4588C259.864 20.6889 260.049 20.8594 260.287 20.9702C260.526 21.0781 260.807 21.1321 261.131 21.1321C261.529 21.1321 261.904 21.0923 262.256 21.0128C262.608 20.9332 262.965 20.8253 263.326 20.6889ZM267.451 24.1491C267.056 24.1491 266.695 24.0724 266.368 23.919C266.042 23.7628 265.782 23.5384 265.588 23.2457C265.395 22.9503 265.299 22.5923 265.299 22.1719C265.299 21.848 265.36 21.5753 265.482 21.3537C265.604 21.1321 265.777 20.9503 266.002 20.8082C266.226 20.6662 266.492 20.554 266.799 20.4716C267.105 20.3892 267.444 20.3253 267.813 20.2798C268.179 20.2344 268.489 20.1946 268.742 20.1605C268.998 20.1264 269.192 20.0724 269.326 19.9986C269.459 19.9247 269.526 19.8054 269.526 19.6406V19.4872C269.526 19.0412 269.392 18.6903 269.125 18.4347C268.861 18.1761 268.48 18.0469 267.983 18.0469C267.512 18.0469 267.127 18.1506 266.828 18.358C266.533 18.5653 266.326 18.8097 266.206 19.0909L265.486 18.831C265.634 18.473 265.838 18.1875 266.1 17.9744C266.361 17.7585 266.654 17.6037 266.978 17.5099C267.301 17.4134 267.63 17.3651 267.962 17.3651C268.212 17.3651 268.472 17.3977 268.742 17.4631C269.015 17.5284 269.267 17.642 269.5 17.804C269.733 17.9631 269.922 18.1861 270.067 18.473C270.212 18.7571 270.284 19.1179 270.284 19.5554V24H269.526V22.9645H269.479C269.388 23.1577 269.253 23.3452 269.074 23.527C268.895 23.7088 268.671 23.858 268.401 23.9744C268.131 24.0909 267.814 24.1491 267.451 24.1491ZM267.553 23.4545C267.956 23.4545 268.306 23.3651 268.601 23.1861C268.897 23.0071 269.124 22.7699 269.283 22.4744C269.445 22.1761 269.526 21.848 269.526 21.4901V20.544C269.469 20.598 269.374 20.6463 269.24 20.6889C269.11 20.7315 268.958 20.7699 268.784 20.804C268.614 20.8352 268.444 20.8622 268.273 20.8849C268.103 20.9077 267.949 20.9276 267.813 20.9446C267.444 20.9901 267.128 21.0611 266.867 21.1577C266.605 21.2543 266.405 21.3878 266.266 21.5582C266.127 21.7259 266.057 21.9418 266.057 22.206C266.057 22.6037 266.199 22.9119 266.483 23.1307C266.767 23.3466 267.124 23.4545 267.553 23.4545ZM274.859 24.1364C274.274 24.1364 273.764 23.9901 273.329 23.6974C272.897 23.4048 272.562 23.0043 272.324 22.4957C272.085 21.9872 271.966 21.4077 271.966 20.7571C271.966 20.1009 272.086 19.517 272.328 19.0057C272.572 18.4943 272.91 18.0937 273.342 17.804C273.774 17.5114 274.275 17.3651 274.846 17.3651C275.284 17.3651 275.68 17.4503 276.035 17.6207C276.39 17.7884 276.683 18.0256 276.913 18.3324C277.146 18.6364 277.292 18.9915 277.352 19.3977H276.585C276.505 19.0284 276.314 18.7131 276.01 18.4517C275.708 18.1875 275.325 18.0554 274.859 18.0554C274.441 18.0554 274.072 18.169 273.751 18.3963C273.43 18.6207 273.179 18.9347 272.997 19.3381C272.818 19.7386 272.728 20.2031 272.728 20.7315C272.728 21.2628 272.816 21.733 272.993 22.142C273.169 22.5483 273.416 22.8665 273.734 23.0966C274.055 23.3267 274.43 23.4418 274.859 23.4418C275.149 23.4418 275.413 23.3878 275.652 23.2798C275.893 23.169 276.095 23.0128 276.257 22.8111C276.422 22.6094 276.532 22.3693 276.589 22.0909H277.356C277.299 22.4858 277.159 22.8381 276.934 23.1477C276.713 23.4545 276.424 23.696 276.069 23.8722C275.717 24.0483 275.314 24.1364 274.859 24.1364Z" fill="black"/>
<path d="M21.5405 40.8182V51H19.4126V42.5682H15.2962V51H13.1683V40.8182H21.5405ZM27.0005 51.1491C26.2283 51.1491 25.5604 50.9851 24.997 50.657C24.4368 50.3255 24.0043 49.8648 23.6994 49.2749C23.3945 48.6816 23.242 47.9938 23.242 47.2116C23.242 46.4228 23.3945 45.7334 23.6994 45.1435C24.0043 44.5502 24.4368 44.0895 24.997 43.7614C25.5604 43.4299 26.2283 43.2642 27.0005 43.2642C27.7728 43.2642 28.439 43.4299 28.9991 43.7614C29.5626 44.0895 29.9967 44.5502 30.3017 45.1435C30.6066 45.7334 30.7591 46.4228 30.7591 47.2116C30.7591 47.9938 30.6066 48.6816 30.3017 49.2749C29.9967 49.8648 29.5626 50.3255 28.9991 50.657C28.439 50.9851 27.7728 51.1491 27.0005 51.1491ZM27.0105 49.5085C27.3618 49.5085 27.6551 49.4091 27.8904 49.2102C28.1258 49.008 28.3031 48.733 28.4224 48.3849C28.545 48.0369 28.6064 47.6409 28.6064 47.1967C28.6064 46.7526 28.545 46.3565 28.4224 46.0085C28.3031 45.6605 28.1258 45.3854 27.8904 45.1832C27.6551 44.9811 27.3618 44.88 27.0105 44.88C26.6558 44.88 26.3575 44.9811 26.1156 45.1832C25.877 45.3854 25.6963 45.6605 25.5737 46.0085C25.4544 46.3565 25.3947 46.7526 25.3947 47.1967C25.3947 47.6409 25.4544 48.0369 25.5737 48.3849C25.6963 48.733 25.877 49.008 26.1156 49.2102C26.3575 49.4091 26.6558 49.5085 27.0105 49.5085ZM31.6887 51L31.6788 49.3196H31.9324C32.1113 49.3196 32.2654 49.2765 32.3947 49.1903C32.5273 49.1009 32.6367 48.9567 32.7228 48.7578C32.809 48.5589 32.877 48.2955 32.9267 47.9673C32.9764 47.6359 33.0095 47.2282 33.0261 46.7443L33.1504 43.3636H38.9572V51H36.9387V45.0291H35.0545L34.9352 47.3608C34.9054 48.0005 34.8275 48.5507 34.7015 49.0114C34.5789 49.4721 34.4082 49.8499 34.1895 50.1449C33.9707 50.4366 33.7072 50.652 33.399 50.7912C33.0907 50.9304 32.7328 51 32.3251 51H31.6887ZM44.0792 51.1491C43.2937 51.1491 42.6175 50.9901 42.0508 50.6719C41.4873 50.3504 41.0531 49.8963 40.7482 49.3097C40.4433 48.7197 40.2908 48.022 40.2908 47.2166C40.2908 46.4311 40.4433 45.7417 40.7482 45.1484C41.0531 44.5552 41.4824 44.0928 42.0359 43.7614C42.5927 43.4299 43.2456 43.2642 43.9947 43.2642C44.4985 43.2642 44.9674 43.3454 45.4016 43.5078C45.8391 43.6669 46.2203 43.9072 46.5451 44.2287C46.8732 44.5502 47.1284 44.9545 47.3107 45.4418C47.493 45.9257 47.5842 46.4924 47.5842 47.142V47.7237H41.136V46.4112H45.5906C45.5906 46.1063 45.5243 45.8362 45.3917 45.6009C45.2591 45.3655 45.0752 45.1816 44.8398 45.049C44.6078 44.9131 44.3377 44.8452 44.0295 44.8452C43.708 44.8452 43.4229 44.9197 43.1744 45.0689C42.9291 45.2147 42.7369 45.4119 42.5977 45.6605C42.4585 45.9058 42.3872 46.1792 42.3839 46.4808V47.7287C42.3839 48.1065 42.4535 48.433 42.5927 48.7081C42.7352 48.9832 42.9357 49.1953 43.1942 49.3445C43.4528 49.4936 43.7594 49.5682 44.114 49.5682C44.3493 49.5682 44.5647 49.535 44.7603 49.4688C44.9558 49.4025 45.1232 49.303 45.2624 49.1705C45.4016 49.0379 45.5077 48.8755 45.5806 48.6832L47.5394 48.8125C47.44 49.2831 47.2362 49.6941 46.9279 50.0455C46.623 50.3935 46.2286 50.6652 45.7447 50.8608C45.2641 51.053 44.7089 51.1491 44.0792 51.1491ZM48.5735 48.8374H50.6268C50.6367 49.0893 50.7494 49.2881 50.9648 49.4339C51.1803 49.5798 51.4587 49.6527 51.8001 49.6527C52.1448 49.6527 52.4348 49.5732 52.6701 49.4141C52.9054 49.2517 53.0231 49.0196 53.0231 48.718C53.0231 48.5324 52.9767 48.3717 52.8839 48.2358C52.7911 48.0966 52.6618 47.9872 52.4961 47.9077C52.3304 47.8281 52.1381 47.7884 51.9194 47.7884H50.8207V46.4013H51.9194C52.2475 46.4013 52.4994 46.325 52.6751 46.1726C52.854 46.0201 52.9435 45.8295 52.9435 45.6009C52.9435 45.3423 52.8507 45.1352 52.6651 44.9794C52.4828 44.8203 52.2359 44.7408 51.9244 44.7408C51.6095 44.7408 51.3477 44.812 51.1388 44.9545C50.9334 45.0937 50.8273 45.276 50.8207 45.5014H48.7773C48.784 45.044 48.9215 44.648 49.19 44.3132C49.4618 43.9785 49.8263 43.7199 50.2837 43.5376C50.7444 43.3554 51.2598 43.2642 51.8299 43.2642C52.453 43.2642 52.9899 43.352 53.4407 43.5277C53.8948 43.7 54.2428 43.947 54.4847 44.2685C54.73 44.59 54.8526 44.9728 54.8526 45.4169C54.8526 45.8213 54.7201 46.1593 54.4549 46.4311C54.1897 46.7029 53.8185 46.8968 53.3413 47.0128V47.0923C53.6561 47.1122 53.9412 47.1967 54.1964 47.3459C54.4516 47.495 54.6554 47.7005 54.8079 47.9624C54.9603 48.2209 55.0366 48.5275 55.0366 48.8821C55.0366 49.3561 54.8974 49.7621 54.619 50.1001C54.3439 50.4382 53.9627 50.6984 53.4755 50.8807C52.9916 51.0597 52.4364 51.1491 51.81 51.1491C51.2002 51.1491 50.6533 51.0613 50.1694 50.8857C49.6888 50.7067 49.306 50.4448 49.021 50.1001C48.7392 49.7554 48.5901 49.3345 48.5735 48.8374ZM61.65 46.3366V48.0021H57.6628V46.3366H61.65ZM58.3588 43.3636V51H56.3354V43.3636H58.3588ZM62.9775 43.3636V51H60.9689V43.3636H62.9775ZM65.948 45.7102H68.2299C69.2408 45.7102 70.0297 45.9522 70.5964 46.4361C71.1632 46.9167 71.4466 47.5597 71.4466 48.3651C71.4466 48.8887 71.319 49.3494 71.0637 49.7472C70.8085 50.1416 70.4406 50.4498 69.96 50.6719C69.4795 50.8906 68.9028 51 68.2299 51H64.6206V43.3636H66.644V49.3345H68.2299C68.5846 49.3345 68.8762 49.245 69.1049 49.0661C69.3336 48.8871 69.4496 48.6584 69.4529 48.38C69.4496 48.085 69.3336 47.8447 69.1049 47.6591C68.8762 47.4702 68.5846 47.3757 68.2299 47.3757H65.948V45.7102ZM72.2669 51V43.3636H74.3848V51H72.2669ZM79.5577 51.1491C78.7722 51.1491 78.0961 50.9901 77.5293 50.6719C76.9658 50.3504 76.5317 49.8963 76.2267 49.3097C75.9218 48.7197 75.7694 48.022 75.7694 47.2166C75.7694 46.4311 75.9218 45.7417 76.2267 45.1484C76.5317 44.5552 76.9609 44.0928 77.5144 43.7614C78.0712 43.4299 78.7241 43.2642 79.4732 43.2642C79.977 43.2642 80.446 43.3454 80.8801 43.5078C81.3176 43.6669 81.6988 43.9072 82.0236 44.2287C82.3517 44.5502 82.6069 44.9545 82.7892 45.4418C82.9715 45.9257 83.0627 46.4924 83.0627 47.142V47.7237H76.6145V46.4112H81.0691C81.0691 46.1063 81.0028 45.8362 80.8702 45.6009C80.7376 45.3655 80.5537 45.1816 80.3184 45.049C80.0864 44.9131 79.8162 44.8452 79.508 44.8452C79.1865 44.8452 78.9015 44.9197 78.6529 45.0689C78.4076 45.2147 78.2154 45.4119 78.0762 45.6605C77.937 45.9058 77.8657 46.1792 77.8624 46.4808V47.7287C77.8624 48.1065 77.932 48.433 78.0712 48.7081C78.2137 48.9832 78.4142 49.1953 78.6728 49.3445C78.9313 49.4936 79.2379 49.5682 79.5925 49.5682C79.8278 49.5682 80.0433 49.535 80.2388 49.4688C80.4344 49.4025 80.6017 49.303 80.7409 49.1705C80.8801 49.0379 80.9862 48.8755 81.0591 48.6832L83.0179 48.8125C82.9185 49.2831 82.7147 49.6941 82.4064 50.0455C82.1015 50.3935 81.7071 50.6652 81.2232 50.8608C80.7426 51.053 80.1874 51.1491 79.5577 51.1491ZM91.1353 51.1491C90.3531 51.1491 89.6803 50.9834 89.1168 50.652C88.5567 50.3172 88.1258 49.8532 87.8242 49.2599C87.5259 48.6667 87.3768 47.9839 87.3768 47.2116C87.3768 46.4295 87.5276 45.7434 87.8292 45.1534C88.1341 44.5601 88.5666 44.0978 89.1268 43.7663C89.6869 43.4316 90.3531 43.2642 91.1254 43.2642C91.7915 43.2642 92.3749 43.3852 92.8754 43.6271C93.3758 43.8691 93.7719 44.2088 94.0636 44.6463C94.3552 45.0838 94.516 45.5975 94.5458 46.1875H92.5472C92.4909 45.8063 92.3417 45.4998 92.0998 45.2678C91.8612 45.0324 91.5479 44.9148 91.1602 44.9148C90.832 44.9148 90.5453 45.0043 90.3001 45.1832C90.0581 45.3589 89.8692 45.6158 89.7333 45.9538C89.5974 46.2919 89.5295 46.7012 89.5295 47.1818C89.5295 47.669 89.5958 48.0833 89.7283 48.4247C89.8642 48.7661 90.0548 49.0263 90.3001 49.2053C90.5453 49.3842 90.832 49.4737 91.1602 49.4737C91.4021 49.4737 91.6192 49.424 91.8114 49.3246C92.007 49.2251 92.1677 49.081 92.2937 48.892C92.4229 48.6998 92.5075 48.4695 92.5472 48.201H94.5458C94.5127 48.7843 94.3536 49.2981 94.0685 49.7422C93.7868 50.183 93.3974 50.5277 92.9002 50.7763C92.4031 51.0249 91.8147 51.1491 91.1353 51.1491ZM95.381 45.0291V43.3636H102.301V45.0291H99.8406V51H97.8221V45.0291H95.381ZM105.49 51.1442C105.002 51.1442 104.568 51.0597 104.187 50.8906C103.806 50.7183 103.504 50.4647 103.282 50.13C103.063 49.7919 102.954 49.371 102.954 48.8672C102.954 48.4429 103.032 48.0866 103.188 47.7983C103.343 47.5099 103.556 47.2779 103.824 47.1023C104.093 46.9266 104.397 46.794 104.739 46.7045C105.084 46.6151 105.445 46.5521 105.823 46.5156C106.267 46.4692 106.625 46.4261 106.896 46.3864C107.168 46.3433 107.365 46.2803 107.488 46.1974C107.611 46.1146 107.672 45.992 107.672 45.8295V45.7997C107.672 45.4848 107.573 45.2412 107.374 45.0689C107.178 44.8965 106.9 44.8104 106.539 44.8104C106.157 44.8104 105.854 44.8949 105.629 45.0639C105.403 45.2296 105.254 45.4384 105.181 45.6903L103.222 45.5312C103.322 45.0672 103.517 44.6662 103.809 44.3281C104.101 43.9867 104.477 43.7249 104.938 43.5426C105.402 43.357 105.939 43.2642 106.548 43.2642C106.973 43.2642 107.379 43.3139 107.767 43.4134C108.158 43.5128 108.504 43.6669 108.806 43.8757C109.11 44.0845 109.351 44.353 109.526 44.6811C109.702 45.0059 109.79 45.3954 109.79 45.8494V51H107.781V49.9411H107.722C107.599 50.1797 107.435 50.3902 107.23 50.5724C107.024 50.7514 106.777 50.8923 106.489 50.995C106.2 51.0945 105.867 51.1442 105.49 51.1442ZM106.096 49.6825C106.408 49.6825 106.683 49.6212 106.921 49.4986C107.16 49.3726 107.347 49.2036 107.483 48.9915C107.619 48.7794 107.687 48.5391 107.687 48.2706V47.4602C107.621 47.5033 107.53 47.5431 107.414 47.5795C107.301 47.6127 107.173 47.6442 107.031 47.674C106.888 47.7005 106.746 47.7254 106.603 47.7486C106.461 47.7685 106.331 47.7867 106.215 47.8033C105.967 47.8397 105.75 47.8977 105.564 47.9773C105.378 48.0568 105.234 48.1645 105.132 48.3004C105.029 48.433 104.977 48.5987 104.977 48.7976C104.977 49.0859 105.082 49.3063 105.291 49.4588C105.503 49.608 105.771 49.6825 106.096 49.6825ZM110.666 45.0291V43.3636H117.587V45.0291H115.126V51H113.107V45.0291H110.666ZM120.198 45.7102H122.48C123.491 45.7102 124.28 45.9522 124.846 46.4361C125.413 46.9167 125.697 47.5597 125.697 48.3651C125.697 48.8887 125.569 49.3494 125.314 49.7472C125.059 50.1416 124.691 50.4498 124.21 50.6719C123.729 50.8906 123.153 51 122.48 51H118.871V43.3636H120.894V49.3345H122.48C122.835 49.3345 123.126 49.245 123.355 49.0661C123.584 48.8871 123.7 48.6584 123.703 48.38C123.7 48.085 123.584 47.8447 123.355 47.6591C123.126 47.4702 122.835 47.3757 122.48 47.3757H120.198V45.7102ZM129.124 48.206L131.874 43.3636H133.962V51H131.943V46.1428L129.204 51H127.101V43.3636H129.124V48.206Z" fill="black"/>
<path d="M21.8239 66.9091C21.8239 67.983 21.63 68.911 21.2422 69.6932C20.8544 70.4754 20.3224 71.0786 19.6463 71.5028C18.9702 71.9271 18.1979 72.1392 17.3295 72.1392C16.4612 72.1392 15.6889 71.9271 15.0128 71.5028C14.3366 71.0786 13.8047 70.4754 13.4169 69.6932C13.0291 68.911 12.8352 67.983 12.8352 66.9091C12.8352 65.8352 13.0291 64.9072 13.4169 64.125C13.8047 63.3428 14.3366 62.7396 15.0128 62.3153C15.6889 61.8911 16.4612 61.679 17.3295 61.679C18.1979 61.679 18.9702 61.8911 19.6463 62.3153C20.3224 62.7396 20.8544 63.3428 21.2422 64.125C21.63 64.9072 21.8239 65.8352 21.8239 66.9091ZM20.6307 66.9091C20.6307 66.0275 20.4832 65.2834 20.1882 64.6768C19.8965 64.0703 19.5005 63.6113 19 63.2997C18.5028 62.9882 17.946 62.8324 17.3295 62.8324C16.7131 62.8324 16.1546 62.9882 15.6541 63.2997C15.157 63.6113 14.7609 64.0703 14.4659 64.6768C14.1742 65.2834 14.0284 66.0275 14.0284 66.9091C14.0284 67.7907 14.1742 68.5348 14.4659 69.1413C14.7609 69.7479 15.157 70.2069 15.6541 70.5185C16.1546 70.83 16.7131 70.9858 17.3295 70.9858C17.946 70.9858 18.5028 70.83 19 70.5185C19.5005 70.2069 19.8965 69.7479 20.1882 69.1413C20.4832 68.5348 20.6307 67.7907 20.6307 66.9091ZM23.3004 65.4574V64.3636H29.505V65.4574H26.9993V72H25.826V65.4574H23.3004ZM31.2164 72V64.3636H32.3897V67.6847H33.1653L35.9096 64.3636H37.421L34.3386 68.0426L37.4608 72H35.9494L33.4437 68.7784H32.3897V72H31.2164ZM38.736 74.8636V64.3636H39.8695V65.5767H40.0087C40.0949 65.4441 40.2142 65.2751 40.3667 65.0696C40.5224 64.8608 40.7445 64.6752 41.0328 64.5128C41.3245 64.3471 41.7189 64.2642 42.2161 64.2642C42.8591 64.2642 43.4258 64.425 43.9164 64.7464C44.4069 65.0679 44.7897 65.5237 45.0648 66.1136C45.3399 66.7036 45.4775 67.3996 45.4775 68.2017C45.4775 69.0104 45.3399 69.7114 45.0648 70.3047C44.7897 70.8946 44.4086 71.352 43.9213 71.6768C43.4341 71.9983 42.8723 72.1591 42.236 72.1591C41.7454 72.1591 41.3527 72.0779 41.0577 71.9155C40.7627 71.7498 40.5357 71.5625 40.3766 71.3537C40.2175 71.1416 40.0949 70.9659 40.0087 70.8267H39.9093V74.8636H38.736ZM39.8894 68.1818C39.8894 68.7585 39.9739 69.2673 40.1429 69.7081C40.312 70.1456 40.5589 70.4886 40.8837 70.7372C41.2085 70.9825 41.6062 71.1051 42.0769 71.1051C42.5674 71.1051 42.9767 70.9759 43.3049 70.7173C43.6363 70.4555 43.8849 70.1042 44.0506 69.6634C44.2196 69.2192 44.3042 68.7254 44.3042 68.1818C44.3042 67.6449 44.2213 67.161 44.0556 66.7301C43.8932 66.2959 43.6462 65.9529 43.3148 65.701C42.9867 65.4458 42.574 65.3182 42.0769 65.3182C41.5996 65.3182 41.1986 65.4392 40.8738 65.6811C40.5489 65.9197 40.3037 66.2545 40.138 66.6854C39.9722 67.1129 39.8894 67.6117 39.8894 68.1818ZM48.2814 67.1278H50.4689C51.3638 67.1278 52.0482 67.3549 52.5222 67.8089C52.9962 68.263 53.2331 68.8381 53.2331 69.5341C53.2331 69.9915 53.1271 70.4074 52.915 70.782C52.7028 71.1532 52.3913 71.4498 51.9803 71.6719C51.5693 71.8906 51.0655 72 50.4689 72H47.2672V64.3636H48.4405V70.9062H50.4689C50.9329 70.9062 51.3141 70.7836 51.6124 70.5384C51.9107 70.2931 52.0598 69.9782 52.0598 69.5938C52.0598 69.1894 51.9107 68.8596 51.6124 68.6044C51.3141 68.3492 50.9329 68.2216 50.4689 68.2216H48.2814V67.1278ZM54.4462 72V64.3636H55.6195V72H54.4462ZM57.7672 72V64.3636H60.8894C61.7114 64.3636 62.3643 64.5492 62.8482 64.9205C63.3321 65.2917 63.574 65.7822 63.574 66.392C63.574 66.8561 63.4365 67.2157 63.1614 67.4709C62.8863 67.7228 62.5333 67.8935 62.1025 67.983C62.3842 68.0227 62.6576 68.1222 62.9228 68.2812C63.1912 68.4403 63.4133 68.6591 63.589 68.9375C63.7646 69.2126 63.8525 69.5507 63.8525 69.9517C63.8525 70.3428 63.753 70.6925 63.5542 71.0007C63.3553 71.3089 63.0703 71.5526 62.699 71.7315C62.3278 71.9105 61.8837 72 61.3667 72H57.7672ZM58.8809 70.9261H61.3667C61.771 70.9261 62.0875 70.83 62.3162 70.6378C62.5449 70.4455 62.6593 70.1837 62.6593 69.8523C62.6593 69.4579 62.5449 69.148 62.3162 68.9226C62.0875 68.6939 61.771 68.5795 61.3667 68.5795H58.8809V70.9261ZM58.8809 67.5653H60.8894C61.2042 67.5653 61.4744 67.5223 61.6998 67.4361C61.9251 67.3466 62.0975 67.2206 62.2168 67.0582C62.3394 66.8925 62.4007 66.697 62.4007 66.4716C62.4007 66.1501 62.2665 65.8982 61.998 65.7159C61.7296 65.5303 61.36 65.4375 60.8894 65.4375H58.8809V67.5653ZM67.8757 72.179C67.3918 72.179 66.9527 72.0878 66.5582 71.9055C66.1638 71.7199 65.8506 71.4531 65.6186 71.1051C65.3866 70.7538 65.2706 70.3295 65.2706 69.8324C65.2706 69.3949 65.3568 69.0402 65.5291 68.7685C65.7015 68.4934 65.9318 68.2779 66.2202 68.1222C66.5085 67.9664 66.8267 67.8504 67.1747 67.7741C67.526 67.6946 67.879 67.6316 68.2337 67.5852C68.6977 67.5256 69.0739 67.4808 69.3622 67.451C69.6539 67.4179 69.866 67.3632 69.9986 67.2869C70.1345 67.2107 70.2024 67.0781 70.2024 66.8892V66.8494C70.2024 66.3589 70.0682 65.9777 69.7997 65.706C69.5346 65.4342 69.1319 65.2983 68.5916 65.2983C68.0315 65.2983 67.5923 65.4209 67.2741 65.6662C66.956 65.9115 66.7322 66.1733 66.603 66.4517L65.4893 66.054C65.6882 65.59 65.9534 65.2287 66.2848 64.9702C66.6196 64.7083 66.9841 64.526 67.3786 64.4233C67.7763 64.3172 68.1674 64.2642 68.5518 64.2642C68.7971 64.2642 69.0788 64.294 69.397 64.3537C69.7185 64.41 70.0284 64.5277 70.3267 64.7067C70.6283 64.8857 70.8786 65.1558 71.0774 65.517C71.2763 65.8783 71.3757 66.3622 71.3757 66.9688V72H70.2024V70.9659H70.1428C70.0632 71.1316 69.9306 71.3089 69.745 71.4979C69.5594 71.6868 69.3125 71.8475 69.0043 71.9801C68.696 72.1127 68.3198 72.179 67.8757 72.179ZM68.0547 71.125C68.5187 71.125 68.9098 71.0339 69.228 70.8516C69.5495 70.6693 69.7914 70.4339 69.9538 70.1456C70.1196 69.8572 70.2024 69.554 70.2024 69.2358V68.1619C70.1527 68.2216 70.0433 68.2763 69.8743 68.326C69.7086 68.3724 69.5163 68.4138 69.2976 68.4503C69.0821 68.4834 68.8717 68.5133 68.6662 68.5398C68.464 68.563 68.3 68.5829 68.174 68.5994C67.8691 68.6392 67.584 68.7038 67.3189 68.7933C67.0571 68.8795 66.8449 69.0104 66.6825 69.1861C66.5234 69.3584 66.4439 69.5937 66.4439 69.892C66.4439 70.2997 66.5947 70.608 66.8963 70.8168C67.2012 71.0223 67.5874 71.125 68.0547 71.125ZM74.6905 70.2699L78.3695 64.3636H79.7218V72H78.5485V66.0938L74.8894 72H73.5172V64.3636H74.6905V70.2699ZM77.5939 61.8182H78.6877C78.6877 62.3551 78.5021 62.7943 78.1309 63.1357C77.7596 63.477 77.2559 63.6477 76.6195 63.6477C75.9931 63.6477 75.4943 63.477 75.123 63.1357C74.7551 62.7943 74.5712 62.3551 74.5712 61.8182H75.665C75.665 62.0767 75.7362 62.3037 75.8787 62.4993C76.0246 62.6948 76.2715 62.7926 76.6195 62.7926C76.9675 62.7926 77.2161 62.6948 77.3652 62.4993C77.5177 62.3037 77.5939 62.0767 77.5939 61.8182ZM80.8317 65.4574V64.3636H87.0362V65.4574H84.5305V72H83.3572V65.4574H80.8317ZM91.5529 72.1591C90.8171 72.1591 90.1824 71.9967 89.6488 71.6719C89.1185 71.3438 88.7092 70.8864 88.4208 70.2997C88.1358 69.7098 87.9933 69.0237 87.9933 68.2415C87.9933 67.4593 88.1358 66.7699 88.4208 66.1733C88.7092 65.5734 89.1102 65.1061 89.6239 64.7713C90.141 64.4332 90.7442 64.2642 91.4336 64.2642C91.8313 64.2642 92.2241 64.3305 92.6119 64.4631C92.9996 64.5956 93.3526 64.8111 93.6708 65.1094C93.989 65.4044 94.2425 65.7955 94.4315 66.2827C94.6204 66.7699 94.7148 67.3698 94.7148 68.0824V68.5795H88.8285V67.5653H93.5217C93.5217 67.1345 93.4355 66.75 93.2631 66.4119C93.0941 66.0739 92.8522 65.8071 92.5373 65.6115C92.2257 65.416 91.8578 65.3182 91.4336 65.3182C90.9663 65.3182 90.5619 65.4342 90.2205 65.6662C89.8825 65.8949 89.6223 66.1932 89.44 66.5611C89.2577 66.929 89.1665 67.3234 89.1665 67.7443V68.4205C89.1665 68.9972 89.266 69.486 89.4648 69.8871C89.667 70.2848 89.9471 70.5881 90.305 70.7969C90.663 71.0024 91.079 71.1051 91.5529 71.1051C91.8612 71.1051 92.1396 71.062 92.3881 70.9759C92.64 70.8864 92.8571 70.7538 93.0394 70.5781C93.2217 70.3991 93.3626 70.1771 93.462 69.9119L94.5955 70.2301C94.4762 70.6146 94.2757 70.9527 93.994 71.2443C93.7122 71.5327 93.3642 71.758 92.9499 71.9205C92.5356 72.0795 92.07 72.1591 91.5529 72.1591ZM99.6218 74.1875V70.9062H100.258C100.414 70.7438 100.548 70.5682 100.661 70.3793C100.774 70.1903 100.871 69.9666 100.954 69.7081C101.04 69.4463 101.113 69.1281 101.173 68.7536C101.233 68.3757 101.286 67.92 101.332 67.3864L101.591 64.3636H106.443V70.9062H107.616V74.1875H106.443V72H100.795V74.1875H99.6218ZM101.591 70.9062H105.27V65.4574H102.684L102.485 67.3864C102.403 68.1851 102.3 68.8828 102.177 69.4794C102.055 70.076 101.859 70.5516 101.591 70.9062ZM108.497 72V70.9062H108.776C109.004 70.9062 109.195 70.8615 109.347 70.772C109.5 70.6792 109.623 70.5185 109.715 70.2898C109.811 70.0578 109.884 69.7363 109.934 69.3253C109.987 68.911 110.025 68.384 110.048 67.7443L110.188 64.3636H115.279V72H114.105V65.4574H111.301L111.182 68.1818C111.155 68.8082 111.099 69.3601 111.013 69.8374C110.93 70.3113 110.802 70.709 110.63 71.0305C110.461 71.352 110.236 71.594 109.954 71.7564C109.672 71.9188 109.319 72 108.895 72H108.497ZM122.025 72V65.4375H119.997C119.539 65.4375 119.18 65.5436 118.918 65.7557C118.656 65.9678 118.525 66.2595 118.525 66.6307C118.525 66.9953 118.643 67.282 118.878 67.4908C119.117 67.6996 119.443 67.804 119.857 67.804H122.323V68.8977H119.857C119.34 68.8977 118.895 68.8066 118.52 68.6243C118.146 68.442 117.857 68.1818 117.655 67.8438C117.453 67.5024 117.352 67.098 117.352 66.6307C117.352 66.16 117.458 65.7557 117.67 65.4176C117.882 65.0795 118.185 64.8194 118.58 64.6371C118.977 64.4548 119.45 64.3636 119.997 64.3636H123.139V72H122.025ZM116.934 72L119.102 68.2017H120.374L118.207 72H116.934ZM132.332 72.1591C131.616 72.1591 131 71.9901 130.483 71.652C129.966 71.3139 129.568 70.8482 129.29 70.255C129.011 69.6617 128.872 68.9839 128.872 68.2216C128.872 67.446 129.015 66.7616 129.3 66.1683C129.588 65.5717 129.989 65.1061 130.503 64.7713C131.02 64.4332 131.623 64.2642 132.312 64.2642C132.849 64.2642 133.333 64.3636 133.764 64.5625C134.195 64.7614 134.548 65.0398 134.823 65.3977C135.098 65.7557 135.269 66.1733 135.335 66.6506H134.162C134.072 66.3026 133.874 65.9943 133.565 65.7259C133.26 65.4541 132.849 65.3182 132.332 65.3182C131.875 65.3182 131.474 65.4375 131.129 65.6761C130.788 65.9115 130.521 66.2446 130.329 66.6754C130.14 67.103 130.045 67.6051 130.045 68.1818C130.045 68.7718 130.138 69.2855 130.324 69.723C130.513 70.1605 130.778 70.5002 131.119 70.7422C131.464 70.9841 131.868 71.1051 132.332 71.1051C132.637 71.1051 132.914 71.0521 133.163 70.946C133.411 70.84 133.622 70.6875 133.794 70.4886C133.966 70.2898 134.089 70.0511 134.162 69.7727H135.335C135.269 70.2235 135.105 70.6295 134.843 70.9908C134.585 71.3487 134.241 71.6338 133.814 71.8459C133.39 72.0547 132.896 72.1591 132.332 72.1591ZM140.252 72.1591C139.516 72.1591 138.882 71.9967 138.348 71.6719C137.818 71.3438 137.408 70.8864 137.12 70.2997C136.835 69.7098 136.692 69.0237 136.692 68.2415C136.692 67.4593 136.835 66.7699 137.12 66.1733C137.408 65.5734 137.809 65.1061 138.323 64.7713C138.84 64.4332 139.443 64.2642 140.133 64.2642C140.531 64.2642 140.923 64.3305 141.311 64.4631C141.699 64.5956 142.052 64.8111 142.37 65.1094C142.688 65.4044 142.942 65.7955 143.131 66.2827C143.32 66.7699 143.414 67.3698 143.414 68.0824V68.5795H137.528V67.5653H142.221C142.221 67.1345 142.135 66.75 141.962 66.4119C141.793 66.0739 141.551 65.8071 141.237 65.6115C140.925 65.416 140.557 65.3182 140.133 65.3182C139.665 65.3182 139.261 65.4342 138.92 65.6662C138.582 65.8949 138.321 66.1932 138.139 66.5611C137.957 66.929 137.866 67.3234 137.866 67.7443V68.4205C137.866 68.9972 137.965 69.486 138.164 69.8871C138.366 70.2848 138.646 70.5881 139.004 70.7969C139.362 71.0024 139.778 71.1051 140.252 71.1051C140.56 71.1051 140.839 71.062 141.087 70.9759C141.339 70.8864 141.556 70.7538 141.739 70.5781C141.921 70.3991 142.062 70.1771 142.161 69.9119L143.295 70.2301C143.175 70.6146 142.975 70.9527 142.693 71.2443C142.411 71.5327 142.063 71.758 141.649 71.9205C141.235 72.0795 140.769 72.1591 140.252 72.1591ZM150.866 61.5L151.463 62.2159C151.231 62.4413 150.963 62.5987 150.658 62.6882C150.353 62.7777 150.008 62.8324 149.624 62.8523C149.239 62.8722 148.812 62.892 148.341 62.9119C147.811 62.9318 147.371 63.0611 147.023 63.2997C146.675 63.5384 146.407 63.883 146.218 64.3338C146.029 64.7846 145.908 65.3381 145.855 65.9943H145.955C146.213 65.517 146.571 65.1657 147.028 64.9403C147.486 64.715 147.976 64.6023 148.5 64.6023C149.097 64.6023 149.634 64.7415 150.111 65.0199C150.588 65.2983 150.966 65.7109 151.244 66.2578C151.523 66.8047 151.662 67.4792 151.662 68.2812C151.662 69.08 151.519 69.7694 151.234 70.3494C150.953 70.9295 150.557 71.3769 150.046 71.6918C149.539 72.0033 148.944 72.1591 148.261 72.1591C147.579 72.1591 146.98 71.9983 146.467 71.6768C145.953 71.352 145.554 70.8714 145.268 70.2351C144.983 69.5954 144.841 68.8049 144.841 67.8636V67.0483C144.841 65.348 145.129 64.0587 145.706 63.1804C146.286 62.3021 147.158 61.848 148.321 61.8182C148.732 61.8049 149.098 61.8016 149.42 61.8082C149.741 61.8149 150.021 61.8 150.26 61.7635C150.499 61.727 150.701 61.6392 150.866 61.5ZM148.261 71.1051C148.722 71.1051 149.118 70.9891 149.45 70.7571C149.784 70.5251 150.041 70.1986 150.22 69.7777C150.399 69.3535 150.489 68.8546 150.489 68.2812C150.489 67.7244 150.397 67.2505 150.215 66.8594C150.036 66.4683 149.779 66.17 149.445 65.9645C149.11 65.759 148.709 65.6562 148.241 65.6562C147.9 65.6562 147.594 65.7143 147.322 65.8303C147.05 65.9463 146.818 66.117 146.626 66.3423C146.433 66.5677 146.284 66.8428 146.178 67.1676C146.076 67.4924 146.021 67.8636 146.014 68.2812C146.014 69.1364 146.215 69.8208 146.616 70.3345C147.017 70.8482 147.565 71.1051 148.261 71.1051ZM158.05 72V65.4375H156.022C155.565 65.4375 155.205 65.5436 154.943 65.7557C154.681 65.9678 154.55 66.2595 154.55 66.6307C154.55 66.9953 154.668 67.282 154.903 67.4908C155.142 67.6996 155.469 67.804 155.883 67.804H158.349V68.8977H155.883C155.366 68.8977 154.92 68.8066 154.545 68.6243C154.171 68.442 153.883 68.1818 153.68 67.8438C153.478 67.5024 153.377 67.098 153.377 66.6307C153.377 66.16 153.483 65.7557 153.695 65.4176C153.907 65.0795 154.211 64.8194 154.605 64.6371C155.003 64.4548 155.475 64.3636 156.022 64.3636H159.164V72H158.05ZM152.96 72L155.127 68.2017H156.4L154.232 72H152.96ZM170.366 67.6449V68.7386H166.15V67.6449H170.366ZM166.429 64.3636V72H165.256V64.3636H166.429ZM171.261 64.3636V72H170.088V64.3636H171.261ZM176.506 72.1591C175.817 72.1591 175.212 71.995 174.692 71.6669C174.175 71.3388 173.77 70.8797 173.479 70.2898C173.19 69.6998 173.046 69.0104 173.046 68.2216C173.046 67.4261 173.19 66.7318 173.479 66.1385C173.77 65.5452 174.175 65.0845 174.692 64.7564C175.212 64.4283 175.817 64.2642 176.506 64.2642C177.196 64.2642 177.799 64.4283 178.316 64.7564C178.836 65.0845 179.241 65.5452 179.529 66.1385C179.821 66.7318 179.966 67.4261 179.966 68.2216C179.966 69.0104 179.821 69.6998 179.529 70.2898C179.241 70.8797 178.836 71.3388 178.316 71.6669C177.799 71.995 177.196 72.1591 176.506 72.1591ZM176.506 71.1051C177.03 71.1051 177.461 70.9709 177.799 70.7024C178.137 70.4339 178.387 70.081 178.55 69.6435C178.712 69.206 178.793 68.732 178.793 68.2216C178.793 67.7112 178.712 67.2356 178.55 66.7947C178.387 66.3539 178.137 65.9976 177.799 65.7259C177.461 65.4541 177.03 65.3182 176.506 65.3182C175.983 65.3182 175.552 65.4541 175.214 65.7259C174.876 65.9976 174.625 66.3539 174.463 66.7947C174.3 67.2356 174.219 67.7112 174.219 68.2216C174.219 68.732 174.3 69.206 174.463 69.6435C174.625 70.081 174.876 70.4339 175.214 70.7024C175.552 70.9709 175.983 71.1051 176.506 71.1051ZM181.757 72V64.3636H184.88C185.702 64.3636 186.355 64.5492 186.838 64.9205C187.322 65.2917 187.564 65.7822 187.564 66.392C187.564 66.8561 187.427 67.2157 187.152 67.4709C186.877 67.7228 186.524 67.8935 186.093 67.983C186.374 68.0227 186.648 68.1222 186.913 68.2812C187.181 68.4403 187.404 68.6591 187.579 68.9375C187.755 69.2126 187.843 69.5507 187.843 69.9517C187.843 70.3428 187.743 70.6925 187.544 71.0007C187.346 71.3089 187.06 71.5526 186.689 71.7315C186.318 71.9105 185.874 72 185.357 72H181.757ZM182.871 70.9261H185.357C185.761 70.9261 186.078 70.83 186.306 70.6378C186.535 70.4455 186.65 70.1837 186.65 69.8523C186.65 69.4579 186.535 69.148 186.306 68.9226C186.078 68.6939 185.761 68.5795 185.357 68.5795H182.871V70.9261ZM182.871 67.5653H184.88C185.194 67.5653 185.465 67.5223 185.69 67.4361C185.915 67.3466 186.088 67.2206 186.207 67.0582C186.33 66.8925 186.391 66.697 186.391 66.4716C186.391 66.1501 186.257 65.8982 185.988 65.7159C185.72 65.5303 185.35 65.4375 184.88 65.4375H182.871V67.5653ZM190.374 74.8636C190.176 74.8636 189.998 74.8471 189.843 74.8139C189.687 74.7841 189.579 74.7543 189.519 74.7244L189.818 73.6903C190.103 73.7633 190.355 73.7898 190.573 73.7699C190.792 73.75 190.986 73.6522 191.155 73.4766C191.327 73.3042 191.485 73.0241 191.627 72.6364L191.846 72.0398L189.022 64.3636H190.295L192.403 70.4489H192.482L194.59 64.3636H195.863L192.622 73.1136C192.476 73.508 192.295 73.8345 192.08 74.093C191.864 74.3549 191.614 74.5488 191.329 74.6747C191.047 74.8007 190.729 74.8636 190.374 74.8636ZM201.071 67.7045V68.7983H197.034V67.7045H201.071ZM198.028 64.3636V72H196.855V64.3636H198.028ZM203.417 72.1591C202.728 72.1591 202.123 71.995 201.603 71.6669C201.086 71.3388 200.681 70.8797 200.39 70.2898C200.101 69.6998 199.957 69.0104 199.957 68.2216C199.957 67.4261 200.101 66.7318 200.39 66.1385C200.681 65.5452 201.086 65.0845 201.603 64.7564C202.123 64.4283 202.728 64.2642 203.417 64.2642C204.107 64.2642 204.71 64.4283 205.227 64.7564C205.747 65.0845 206.152 65.5452 206.44 66.1385C206.732 66.7318 206.878 67.4261 206.878 68.2216C206.878 69.0104 206.732 69.6998 206.44 70.2898C206.152 70.8797 205.747 71.3388 205.227 71.6669C204.71 71.995 204.107 72.1591 203.417 72.1591ZM203.417 71.1051C203.941 71.1051 204.372 70.9709 204.71 70.7024C205.048 70.4339 205.298 70.081 205.461 69.6435C205.623 69.206 205.704 68.732 205.704 68.2216C205.704 67.7112 205.623 67.2356 205.461 66.7947C205.298 66.3539 205.048 65.9976 204.71 65.7259C204.372 65.4541 203.941 65.3182 203.417 65.3182C202.894 65.3182 202.463 65.4541 202.125 65.7259C201.787 65.9976 201.537 66.3539 201.374 66.7947C201.212 67.2356 201.131 67.7112 201.131 68.2216C201.131 68.732 201.212 69.206 201.374 69.6435C201.537 70.081 201.787 70.4339 202.125 70.7024C202.463 70.9709 202.894 71.1051 203.417 71.1051ZM14.2472 87.2699L17.9261 81.3636H19.2784V89H18.1051V83.0938L14.446 89H13.0739V81.3636H14.2472V87.2699ZM25.3649 89V81.3636H31.3706V89H30.1973V82.4574H26.5382V89H25.3649ZM36.6156 89.1591C35.9262 89.1591 35.3213 88.995 34.801 88.6669C34.2839 88.3388 33.8796 87.8797 33.5879 87.2898C33.2995 86.6998 33.1554 86.0104 33.1554 85.2216C33.1554 84.4261 33.2995 83.7318 33.5879 83.1385C33.8796 82.5452 34.2839 82.0845 34.801 81.7564C35.3213 81.4283 35.9262 81.2642 36.6156 81.2642C37.305 81.2642 37.9082 81.4283 38.4252 81.7564C38.9456 82.0845 39.35 82.5452 39.6383 83.1385C39.93 83.7318 40.0758 84.4261 40.0758 85.2216C40.0758 86.0104 39.93 86.6998 39.6383 87.2898C39.35 87.8797 38.9456 88.3388 38.4252 88.6669C37.9082 88.995 37.305 89.1591 36.6156 89.1591ZM36.6156 88.1051C37.1393 88.1051 37.5701 87.9709 37.9082 87.7024C38.2463 87.4339 38.4965 87.081 38.6589 86.6435C38.8213 86.206 38.9025 85.732 38.9025 85.2216C38.9025 84.7112 38.8213 84.2356 38.6589 83.7947C38.4965 83.3539 38.2463 82.9976 37.9082 82.7259C37.5701 82.4541 37.1393 82.3182 36.6156 82.3182C36.0919 82.3182 35.661 82.4541 35.323 82.7259C34.9849 82.9976 34.7347 83.3539 34.5723 83.7947C34.4099 84.2356 34.3287 84.7112 34.3287 85.2216C34.3287 85.732 34.4099 86.206 34.5723 86.6435C34.7347 87.081 34.9849 87.4339 35.323 87.7024C35.661 87.9709 36.0919 88.1051 36.6156 88.1051ZM41.1907 89V87.9062H41.4691C41.6978 87.9062 41.8884 87.8615 42.0408 87.772C42.1933 87.6792 42.3159 87.5185 42.4087 87.2898C42.5049 87.0578 42.5778 86.7363 42.6275 86.3253C42.6805 85.911 42.7186 85.384 42.7418 84.7443L42.881 81.3636H47.9719V89H46.7987V82.4574H43.9947L43.8754 85.1818C43.8488 85.8082 43.7925 86.3601 43.7063 86.8374C43.6235 87.3113 43.4959 87.709 43.3235 88.0305C43.1545 88.352 42.9291 88.594 42.6474 88.7564C42.3656 88.9188 42.0127 89 41.5884 89H41.1907ZM53.3263 89.1591C52.5906 89.1591 51.9558 88.9967 51.4222 88.6719C50.8919 88.3438 50.4826 87.8864 50.1942 87.2997C49.9092 86.7098 49.7667 86.0237 49.7667 85.2415C49.7667 84.4593 49.9092 83.7699 50.1942 83.1733C50.4826 82.5734 50.8836 82.1061 51.3974 81.7713C51.9144 81.4332 52.5176 81.2642 53.207 81.2642C53.6048 81.2642 53.9975 81.3305 54.3853 81.4631C54.7731 81.5956 55.1261 81.8111 55.4442 82.1094C55.7624 82.4044 56.016 82.7955 56.2049 83.2827C56.3938 83.7699 56.4883 84.3698 56.4883 85.0824V85.5795H50.6019V84.5653H55.2951C55.2951 84.1345 55.2089 83.75 55.0366 83.4119C54.8675 83.0739 54.6256 82.8071 54.3107 82.6115C53.9992 82.416 53.6313 82.3182 53.207 82.3182C52.7397 82.3182 52.3353 82.4342 51.994 82.6662C51.6559 82.8949 51.3957 83.1932 51.2134 83.5611C51.0311 83.929 50.94 84.3234 50.94 84.7443V85.4205C50.94 85.9972 51.0394 86.486 51.2383 86.8871C51.4405 87.2848 51.7205 87.5881 52.0785 87.7969C52.4364 88.0024 52.8524 88.1051 53.3263 88.1051C53.6346 88.1051 53.913 88.062 54.1616 87.9759C54.4135 87.8864 54.6306 87.7538 54.8129 87.5781C54.9951 87.3991 55.136 87.1771 55.2354 86.9119L56.369 87.2301C56.2496 87.6146 56.0491 87.9527 55.7674 88.2443C55.4857 88.5327 55.1377 88.758 54.7234 88.9205C54.3091 89.0795 53.8434 89.1591 53.3263 89.1591ZM57.7958 87.0511H59.0487C59.0752 87.3958 59.2309 87.6577 59.516 87.8366C59.8043 88.0156 60.1789 88.1051 60.6396 88.1051C61.1102 88.1051 61.5129 88.009 61.8477 87.8168C62.1824 87.6212 62.3498 87.3063 62.3498 86.8722C62.3498 86.617 62.2868 86.3949 62.1609 86.206C62.0349 86.0137 61.8576 85.8646 61.6289 85.7585C61.4002 85.6525 61.1301 85.5994 60.8185 85.5994H59.506V84.5455H60.8185C61.2859 84.5455 61.6306 84.4394 61.8526 84.2273C62.078 84.0152 62.1907 83.75 62.1907 83.4318C62.1907 83.0904 62.0697 82.817 61.8278 82.6115C61.5858 82.4027 61.2428 82.2983 60.7987 82.2983C60.3512 82.2983 59.9783 82.3994 59.68 82.6016C59.3817 82.8004 59.2243 83.0573 59.2077 83.3722H57.9748C57.988 82.9612 58.114 82.5982 58.3526 82.2834C58.5913 81.9652 58.9161 81.7166 59.3271 81.5376C59.738 81.3554 60.2087 81.2642 60.739 81.2642C61.2759 81.2642 61.7416 81.3587 62.136 81.5476C62.5337 81.7332 62.8403 81.9867 63.0558 82.3082C63.2745 82.6264 63.3839 82.9877 63.3839 83.392C63.3839 83.8229 63.2629 84.1709 63.021 84.4361C62.779 84.7012 62.4757 84.8902 62.1112 85.0028V85.0824C62.3995 85.1023 62.6497 85.1951 62.8619 85.3608C63.0773 85.5232 63.2447 85.737 63.364 86.0021C63.4833 86.264 63.543 86.554 63.543 86.8722C63.543 87.3362 63.4187 87.7405 63.1701 88.0852C62.9215 88.4266 62.5801 88.6918 62.146 88.8807C61.7118 89.0663 61.2163 89.1591 60.6594 89.1591C60.1192 89.1591 59.6353 89.0713 59.2077 88.8956C58.7802 88.7166 58.4405 88.4697 58.1886 88.1548C57.94 87.8366 57.8091 87.4688 57.7958 87.0511ZM70.3018 84.6449V85.7386H66.0859V84.6449H70.3018ZM66.3643 81.3636V89H65.1911V81.3636H66.3643ZM71.1967 81.3636V89H70.0234V81.3636H71.1967ZM73.8217 91.8636C73.6229 91.8636 73.4455 91.8471 73.2898 91.8139C73.134 91.7841 73.0263 91.7543 72.9666 91.7244L73.2649 90.6903C73.55 90.7633 73.8018 90.7898 74.0206 90.7699C74.2393 90.75 74.4332 90.6522 74.6023 90.4766C74.7746 90.3042 74.9321 90.0241 75.0746 89.6364L75.2933 89.0398L72.4695 81.3636H73.7422L75.8501 87.4489H75.9297L78.0376 81.3636H79.3104L76.0689 90.1136C75.9231 90.508 75.7424 90.8345 75.527 91.093C75.3116 91.3549 75.0613 91.5488 74.7763 91.6747C74.4946 91.8007 74.1764 91.8636 73.8217 91.8636ZM84.5181 84.7045V85.7983H80.4812V84.7045H84.5181ZM81.4755 81.3636V89H80.3022V81.3636H81.4755ZM86.8647 89.1591C86.1753 89.1591 85.5704 88.995 85.0501 88.6669C84.533 88.3388 84.1287 87.8797 83.837 87.2898C83.5487 86.6998 83.4045 86.0104 83.4045 85.2216C83.4045 84.4261 83.5487 83.7318 83.837 83.1385C84.1287 82.5452 84.533 82.0845 85.0501 81.7564C85.5704 81.4283 86.1753 81.2642 86.8647 81.2642C87.5541 81.2642 88.1573 81.4283 88.6744 81.7564C89.1947 82.0845 89.5991 82.5452 89.8874 83.1385C90.1791 83.7318 90.3249 84.4261 90.3249 85.2216C90.3249 86.0104 90.1791 86.6998 89.8874 87.2898C89.5991 87.8797 89.1947 88.3388 88.6744 88.6669C88.1573 88.995 87.5541 89.1591 86.8647 89.1591ZM86.8647 88.1051C87.3884 88.1051 87.8192 87.9709 88.1573 87.7024C88.4954 87.4339 88.7456 87.081 88.908 86.6435C89.0704 86.206 89.1516 85.732 89.1516 85.2216C89.1516 84.7112 89.0704 84.2356 88.908 83.7947C88.7456 83.3539 88.4954 82.9976 88.1573 82.7259C87.8192 82.4541 87.3884 82.3182 86.8647 82.3182C86.341 82.3182 85.9102 82.4541 85.5721 82.7259C85.234 82.9976 84.9838 83.3539 84.8214 83.7947C84.659 84.2356 84.5778 84.7112 84.5778 85.2216C84.5778 85.732 84.659 86.206 84.8214 86.6435C84.9838 87.081 85.234 87.4339 85.5721 87.7024C85.9102 87.9709 86.341 88.1051 86.8647 88.1051ZM97.3448 87.2699L101.024 81.3636H102.376V89H101.203V83.0938L97.5437 89H96.1715V81.3636H97.3448V87.2699ZM109.636 84.6449V85.7386H105.42V84.6449H109.636ZM105.698 81.3636V89H104.525V81.3636H105.698ZM110.531 81.3636V89H109.357V81.3636H110.531ZM115.776 91.6051V78.8182H116.949V91.6051H115.776ZM115.776 89.1591C115.259 89.1591 114.788 89.0663 114.364 88.8807C113.94 88.6918 113.575 88.425 113.27 88.0803C112.965 87.7322 112.73 87.3163 112.564 86.8324C112.398 86.3485 112.316 85.8116 112.316 85.2216C112.316 84.625 112.398 84.0848 112.564 83.6009C112.73 83.1136 112.965 82.696 113.27 82.348C113.575 82 113.94 81.7332 114.364 81.5476C114.788 81.3587 115.259 81.2642 115.776 81.2642H116.134V89.1591H115.776ZM115.776 88.1051H115.975V82.3182H115.776C115.385 82.3182 115.045 82.3977 114.757 82.5568C114.468 82.7126 114.23 82.9264 114.041 83.1982C113.855 83.4666 113.716 83.7749 113.623 84.1229C113.534 84.4709 113.489 84.8371 113.489 85.2216C113.489 85.732 113.57 86.206 113.732 86.6435C113.895 87.081 114.145 87.4339 114.483 87.7024C114.821 87.9709 115.252 88.1051 115.776 88.1051ZM116.949 89.1591H116.591V81.2642H116.949C117.466 81.2642 117.937 81.3587 118.361 81.5476C118.785 81.7332 119.15 82 119.455 82.348C119.76 82.696 119.995 83.1136 120.161 83.6009C120.326 84.0848 120.409 84.625 120.409 85.2216C120.409 85.8116 120.326 86.3485 120.161 86.8324C119.995 87.3163 119.76 87.7322 119.455 88.0803C119.15 88.425 118.785 88.6918 118.361 88.8807C117.937 89.0663 117.466 89.1591 116.949 89.1591ZM116.949 88.1051C117.343 88.1051 117.683 88.0289 117.968 87.8764C118.257 87.7206 118.494 87.5085 118.679 87.2401C118.868 86.9683 119.007 86.66 119.097 86.3153C119.19 85.9673 119.236 85.6027 119.236 85.2216C119.236 84.7112 119.155 84.2356 118.992 83.7947C118.83 83.3539 118.58 82.9976 118.242 82.7259C117.904 82.4541 117.473 82.3182 116.949 82.3182H116.75V88.1051H116.949ZM125.305 89.1591C124.616 89.1591 124.011 88.995 123.49 88.6669C122.973 88.3388 122.569 87.8797 122.277 87.2898C121.989 86.6998 121.845 86.0104 121.845 85.2216C121.845 84.4261 121.989 83.7318 122.277 83.1385C122.569 82.5452 122.973 82.0845 123.49 81.7564C124.011 81.4283 124.616 81.2642 125.305 81.2642C125.994 81.2642 126.598 81.4283 127.115 81.7564C127.635 82.0845 128.039 82.5452 128.328 83.1385C128.619 83.7318 128.765 84.4261 128.765 85.2216C128.765 86.0104 128.619 86.6998 128.328 87.2898C128.039 87.8797 127.635 88.3388 127.115 88.6669C126.598 88.995 125.994 89.1591 125.305 89.1591ZM125.305 88.1051C125.829 88.1051 126.26 87.9709 126.598 87.7024C126.936 87.4339 127.186 87.081 127.348 86.6435C127.511 86.206 127.592 85.732 127.592 85.2216C127.592 84.7112 127.511 84.2356 127.348 83.7947C127.186 83.3539 126.936 82.9976 126.598 82.7259C126.26 82.4541 125.829 82.3182 125.305 82.3182C124.781 82.3182 124.35 82.4541 124.012 82.7259C123.674 82.9976 123.424 83.3539 123.262 83.7947C123.099 84.2356 123.018 84.7112 123.018 85.2216C123.018 85.732 123.099 86.206 123.262 86.6435C123.424 87.081 123.674 87.4339 124.012 87.7024C124.35 87.9709 124.781 88.1051 125.305 88.1051ZM130.556 91.8636V81.3636H131.69V82.5767H131.829C131.915 82.4441 132.035 82.2751 132.187 82.0696C132.343 81.8608 132.565 81.6752 132.853 81.5128C133.145 81.3471 133.539 81.2642 134.036 81.2642C134.679 81.2642 135.246 81.425 135.737 81.7464C136.227 82.0679 136.61 82.5237 136.885 83.1136C137.16 83.7036 137.298 84.3996 137.298 85.2017C137.298 86.0104 137.16 86.7114 136.885 87.3047C136.61 87.8946 136.229 88.352 135.742 88.6768C135.254 88.9983 134.693 89.1591 134.056 89.1591C133.566 89.1591 133.173 89.0779 132.878 88.9155C132.583 88.7498 132.356 88.5625 132.197 88.3537C132.038 88.1416 131.915 87.9659 131.829 87.8267H131.73V91.8636H130.556ZM131.71 85.1818C131.71 85.7585 131.794 86.2673 131.963 86.7081C132.132 87.1456 132.379 87.4886 132.704 87.7372C133.029 87.9825 133.427 88.1051 133.897 88.1051C134.388 88.1051 134.797 87.9759 135.125 87.7173C135.457 87.4555 135.705 87.1042 135.871 86.6634C136.04 86.2192 136.124 85.7254 136.124 85.1818C136.124 84.6449 136.042 84.161 135.876 83.7301C135.713 83.2959 135.467 82.9529 135.135 82.701C134.807 82.4458 134.394 82.3182 133.897 82.3182C133.42 82.3182 133.019 82.4392 132.694 82.6811C132.369 82.9197 132.124 83.2545 131.958 83.6854C131.793 84.1129 131.71 84.6117 131.71 85.1818ZM143.264 87.4091L145.928 81.3636H147.042L143.741 89H142.786L139.545 81.3636H140.639L143.264 87.4091ZM140.261 81.3636V89H139.088V81.3636H140.261ZM146.267 89V81.3636H147.44V89H146.267ZM151.835 89.179C151.351 89.179 150.912 89.0878 150.517 88.9055C150.123 88.7199 149.81 88.4531 149.578 88.1051C149.346 87.7538 149.23 87.3295 149.23 86.8324C149.23 86.3949 149.316 86.0402 149.488 85.7685C149.66 85.4934 149.891 85.2779 150.179 85.1222C150.468 84.9664 150.786 84.8504 151.134 84.7741C151.485 84.6946 151.838 84.6316 152.193 84.5852C152.657 84.5256 153.033 84.4808 153.321 84.451C153.613 84.4179 153.825 84.3632 153.958 84.2869C154.093 84.2107 154.161 84.0781 154.161 83.8892V83.8494C154.161 83.3589 154.027 82.9777 153.759 82.706C153.494 82.4342 153.091 82.2983 152.551 82.2983C151.99 82.2983 151.551 82.4209 151.233 82.6662C150.915 82.9115 150.691 83.1733 150.562 83.4517L149.448 83.054C149.647 82.59 149.912 82.2287 150.244 81.9702C150.579 81.7083 150.943 81.526 151.338 81.4233C151.735 81.3172 152.126 81.2642 152.511 81.2642C152.756 81.2642 153.038 81.294 153.356 81.3537C153.677 81.41 153.987 81.5277 154.286 81.7067C154.587 81.8857 154.838 82.1558 155.036 82.517C155.235 82.8783 155.335 83.3622 155.335 83.9688V89H154.161V87.9659H154.102C154.022 88.1316 153.89 88.3089 153.704 88.4979C153.518 88.6868 153.271 88.8475 152.963 88.9801C152.655 89.1127 152.279 89.179 151.835 89.179ZM152.014 88.125C152.478 88.125 152.869 88.0339 153.187 87.8516C153.508 87.6693 153.75 87.4339 153.913 87.1456C154.079 86.8572 154.161 86.554 154.161 86.2358V85.1619C154.112 85.2216 154.002 85.2763 153.833 85.326C153.668 85.3724 153.475 85.4138 153.257 85.4503C153.041 85.4834 152.831 85.5133 152.625 85.5398C152.423 85.563 152.259 85.5829 152.133 85.5994C151.828 85.6392 151.543 85.7038 151.278 85.7933C151.016 85.8795 150.804 86.0104 150.642 86.1861C150.482 86.3584 150.403 86.5937 150.403 86.892C150.403 87.2997 150.554 87.608 150.855 87.8168C151.16 88.0223 151.546 88.125 152.014 88.125ZM163.482 81.3636V87.9062H164.556V91.4659H163.382V89H157.476V81.3636H158.65V87.9062H162.309V81.3636H163.482ZM167.536 87.2699L171.215 81.3636H172.567V89H171.394V83.0938L167.735 89H166.363V81.3636H167.536V87.2699ZM178.376 84.7045V85.7983H174.339V84.7045H178.376ZM175.333 81.3636V89H174.16V81.3636H175.333ZM180.722 89.1591C180.033 89.1591 179.428 88.995 178.907 88.6669C178.39 88.3388 177.986 87.8797 177.694 87.2898C177.406 86.6998 177.262 86.0104 177.262 85.2216C177.262 84.4261 177.406 83.7318 177.694 83.1385C177.986 82.5452 178.39 82.0845 178.907 81.7564C179.428 81.4283 180.033 81.2642 180.722 81.2642C181.412 81.2642 182.015 81.4283 182.532 81.7564C183.052 82.0845 183.456 82.5452 183.745 83.1385C184.037 83.7318 184.182 84.4261 184.182 85.2216C184.182 86.0104 184.037 86.6998 183.745 87.2898C183.456 87.8797 183.052 88.3388 182.532 88.6669C182.015 88.995 181.412 89.1591 180.722 89.1591ZM180.722 88.1051C181.246 88.1051 181.677 87.9709 182.015 87.7024C182.353 87.4339 182.603 87.081 182.765 86.6435C182.928 86.206 183.009 85.732 183.009 85.2216C183.009 84.7112 182.928 84.2356 182.765 83.7947C182.603 83.3539 182.353 82.9976 182.015 82.7259C181.677 82.4541 181.246 82.3182 180.722 82.3182C180.198 82.3182 179.768 82.4541 179.43 82.7259C179.091 82.9976 178.841 83.3539 178.679 83.7947C178.516 84.2356 178.435 84.7112 178.435 85.2216C178.435 85.732 178.516 86.206 178.679 86.6435C178.841 87.081 179.091 87.4339 179.43 87.7024C179.768 87.9709 180.198 88.1051 180.722 88.1051ZM190.029 89V81.3636H193.151C193.973 81.3636 194.626 81.5492 195.11 81.9205C195.594 82.2917 195.836 82.7822 195.836 83.392C195.836 83.8561 195.698 84.2157 195.423 84.4709C195.148 84.7228 194.795 84.8935 194.364 84.983C194.646 85.0227 194.919 85.1222 195.184 85.2812C195.453 85.4403 195.675 85.6591 195.851 85.9375C196.026 86.2126 196.114 86.5507 196.114 86.9517C196.114 87.3428 196.015 87.6925 195.816 88.0007C195.617 88.3089 195.332 88.5526 194.961 88.7315C194.59 88.9105 194.145 89 193.628 89H190.029ZM191.143 87.9261H193.628C194.033 87.9261 194.349 87.83 194.578 87.6378C194.807 87.4455 194.921 87.1837 194.921 86.8523C194.921 86.4579 194.807 86.148 194.578 85.9226C194.349 85.6939 194.033 85.5795 193.628 85.5795H191.143V87.9261ZM191.143 84.5653H193.151C193.466 84.5653 193.736 84.5223 193.961 84.4361C194.187 84.3466 194.359 84.2206 194.479 84.0582C194.601 83.8925 194.662 83.697 194.662 83.4716C194.662 83.1501 194.528 82.8982 194.26 82.7159C193.991 82.5303 193.622 82.4375 193.151 82.4375H191.143V84.5653ZM201.828 91.8636V81.3636H202.961V82.5767H203.1C203.187 82.4441 203.306 82.2751 203.458 82.0696C203.614 81.8608 203.836 81.6752 204.125 81.5128C204.416 81.3471 204.811 81.2642 205.308 81.2642C205.951 81.2642 206.518 81.425 207.008 81.7464C207.499 82.0679 207.882 82.5237 208.157 83.1136C208.432 83.7036 208.569 84.3996 208.569 85.2017C208.569 86.0104 208.432 86.7114 208.157 87.3047C207.882 87.8946 207.5 88.352 207.013 88.6768C206.526 88.9983 205.964 89.1591 205.328 89.1591C204.837 89.1591 204.444 89.0779 204.15 88.9155C203.855 88.7498 203.627 88.5625 203.468 88.3537C203.309 88.1416 203.187 87.9659 203.1 87.8267H203.001V91.8636H201.828ZM202.981 85.1818C202.981 85.7585 203.066 86.2673 203.235 86.7081C203.404 87.1456 203.651 87.4886 203.975 87.7372C204.3 87.9825 204.698 88.1051 205.169 88.1051C205.659 88.1051 206.069 87.9759 206.397 87.7173C206.728 87.4555 206.977 87.1042 207.142 86.6634C207.311 86.2192 207.396 85.7254 207.396 85.1818C207.396 84.6449 207.313 84.161 207.147 83.7301C206.985 83.2959 206.738 82.9529 206.407 82.701C206.078 82.4458 205.666 82.3182 205.169 82.3182C204.691 82.3182 204.29 82.4392 203.966 82.6811C203.641 82.9197 203.395 83.2545 203.23 83.6854C203.064 84.1129 202.981 84.6117 202.981 85.1818ZM213.561 89.1591C212.825 89.1591 212.19 88.9967 211.657 88.6719C211.126 88.3438 210.717 87.8864 210.429 87.2997C210.144 86.7098 210.001 86.0237 210.001 85.2415C210.001 84.4593 210.144 83.7699 210.429 83.1733C210.717 82.5734 211.118 82.1061 211.632 81.7713C212.149 81.4332 212.752 81.2642 213.441 81.2642C213.839 81.2642 214.232 81.3305 214.62 81.4631C215.007 81.5956 215.36 81.8111 215.679 82.1094C215.997 82.4044 216.25 82.7955 216.439 83.2827C216.628 83.7699 216.723 84.3698 216.723 85.0824V85.5795H210.836V84.5653H215.529C215.529 84.1345 215.443 83.75 215.271 83.4119C215.102 83.0739 214.86 82.8071 214.545 82.6115C214.234 82.416 213.866 82.3182 213.441 82.3182C212.974 82.3182 212.57 82.4342 212.228 82.6662C211.89 82.8949 211.63 83.1932 211.448 83.5611C211.266 83.929 211.174 84.3234 211.174 84.7443V85.4205C211.174 85.9972 211.274 86.486 211.473 86.8871C211.675 87.2848 211.955 87.5881 212.313 87.7969C212.671 88.0024 213.087 88.1051 213.561 88.1051C213.869 88.1051 214.147 88.062 214.396 87.9759C214.648 87.8864 214.865 87.7538 215.047 87.5781C215.23 87.3991 215.37 87.1771 215.47 86.9119L216.603 87.2301C216.484 87.6146 216.283 87.9527 216.002 88.2443C215.72 88.5327 215.372 88.758 214.958 88.9205C214.543 89.0795 214.078 89.1591 213.561 89.1591ZM220.755 89.179C220.271 89.179 219.832 89.0878 219.437 88.9055C219.043 88.7199 218.73 88.4531 218.498 88.1051C218.266 87.7538 218.15 87.3295 218.15 86.8324C218.15 86.3949 218.236 86.0402 218.408 85.7685C218.58 85.4934 218.811 85.2779 219.099 85.1222C219.387 84.9664 219.706 84.8504 220.054 84.7741C220.405 84.6946 220.758 84.6316 221.113 84.5852C221.577 84.5256 221.953 84.4808 222.241 84.451C222.533 84.4179 222.745 84.3632 222.877 84.2869C223.013 84.2107 223.081 84.0781 223.081 83.8892V83.8494C223.081 83.3589 222.947 82.9777 222.679 82.706C222.413 82.4342 222.011 82.2983 221.471 82.2983C220.91 82.2983 220.471 82.4209 220.153 82.6662C219.835 82.9115 219.611 83.1733 219.482 83.4517L218.368 83.054C218.567 82.59 218.832 82.2287 219.164 81.9702C219.498 81.7083 219.863 81.526 220.257 81.4233C220.655 81.3172 221.046 81.2642 221.431 81.2642C221.676 81.2642 221.958 81.294 222.276 81.3537C222.597 81.41 222.907 81.5277 223.206 81.7067C223.507 81.8857 223.757 82.1558 223.956 82.517C224.155 82.8783 224.255 83.3622 224.255 83.9688V89H223.081V87.9659H223.022C222.942 88.1316 222.81 88.3089 222.624 88.4979C222.438 88.6868 222.191 88.8475 221.883 88.9801C221.575 89.1127 221.199 89.179 220.755 89.179ZM220.934 88.125C221.398 88.125 221.789 88.0339 222.107 87.8516C222.428 87.6693 222.67 87.4339 222.833 87.1456C222.998 86.8572 223.081 86.554 223.081 86.2358V85.1619C223.032 85.2216 222.922 85.2763 222.753 85.326C222.587 85.3724 222.395 85.4138 222.176 85.4503C221.961 85.4834 221.751 85.5133 221.545 85.5398C221.343 85.563 221.179 85.5829 221.053 85.5994C220.748 85.6392 220.463 85.7038 220.198 85.7933C219.936 85.8795 219.724 86.0104 219.561 86.1861C219.402 86.3584 219.323 86.5937 219.323 86.892C219.323 87.2997 219.474 87.608 219.775 87.8168C220.08 88.0223 220.466 88.125 220.934 88.125ZM225.72 89V87.9062H225.998C226.227 87.9062 226.418 87.8615 226.57 87.772C226.723 87.6792 226.845 87.5185 226.938 87.2898C227.034 87.0578 227.107 86.7363 227.157 86.3253C227.21 85.911 227.248 85.384 227.271 84.7443L227.41 81.3636H232.501V89H231.328V82.4574H228.524L228.405 85.1818C228.378 85.8082 228.322 86.3601 228.236 86.8374C228.153 87.3113 228.025 87.709 227.853 88.0305C227.684 88.352 227.458 88.594 227.177 88.7564C226.895 88.9188 226.542 89 226.118 89H225.72ZM235.668 84.1278H237.856C238.751 84.1278 239.435 84.3549 239.909 84.8089C240.383 85.263 240.62 85.8381 240.62 86.5341C240.62 86.9915 240.514 87.4074 240.302 87.782C240.09 88.1532 239.778 88.4498 239.367 88.6719C238.956 88.8906 238.452 89 237.856 89H234.654V81.3636H235.827V87.9062H237.856C238.32 87.9062 238.701 87.7836 238.999 87.5384C239.297 87.2931 239.447 86.9782 239.447 86.5938C239.447 86.1894 239.297 85.8596 238.999 85.6044C238.701 85.3492 238.32 85.2216 237.856 85.2216H235.668V84.1278ZM247.517 84.6449V85.7386H243.301V84.6449H247.517ZM243.579 81.3636V89H242.406V81.3636H243.579ZM248.412 81.3636V89H247.238V81.3636H248.412ZM253.657 89.1591C252.967 89.1591 252.362 88.995 251.842 88.6669C251.325 88.3388 250.921 87.8797 250.629 87.2898C250.341 86.6998 250.196 86.0104 250.196 85.2216C250.196 84.4261 250.341 83.7318 250.629 83.1385C250.921 82.5452 251.325 82.0845 251.842 81.7564C252.362 81.4283 252.967 81.2642 253.657 81.2642C254.346 81.2642 254.949 81.4283 255.466 81.7564C255.987 82.0845 256.391 82.5452 256.679 83.1385C256.971 83.7318 257.117 84.4261 257.117 85.2216C257.117 86.0104 256.971 86.6998 256.679 87.2898C256.391 87.8797 255.987 88.3388 255.466 88.6669C254.949 88.995 254.346 89.1591 253.657 89.1591ZM253.657 88.1051C254.18 88.1051 254.611 87.9709 254.949 87.7024C255.287 87.4339 255.538 87.081 255.7 86.6435C255.862 86.206 255.944 85.732 255.944 85.2216C255.944 84.7112 255.862 84.2356 255.7 83.7947C255.538 83.3539 255.287 82.9976 254.949 82.7259C254.611 82.4541 254.18 82.3182 253.657 82.3182C253.133 82.3182 252.702 82.4541 252.364 82.7259C252.026 82.9976 251.776 83.3539 251.613 83.7947C251.451 84.2356 251.37 84.7112 251.37 85.2216C251.37 85.732 251.451 86.206 251.613 86.6435C251.776 87.081 252.026 87.4339 252.364 87.7024C252.702 87.9709 253.133 88.1051 253.657 88.1051ZM263.084 87.4091L265.749 81.3636H266.862L263.561 89H262.607L259.365 81.3636H260.459L263.084 87.4091ZM260.081 81.3636V89H258.908V81.3636H260.081ZM266.087 89V81.3636H267.26V89H266.087ZM13.0739 106V98.3636H16.196C17.018 98.3636 17.6709 98.5492 18.1548 98.9205C18.6387 99.2917 18.8807 99.7822 18.8807 100.392C18.8807 100.856 18.7431 101.216 18.468 101.471C18.1929 101.723 17.84 101.893 17.4091 101.983C17.6908 102.023 17.9643 102.122 18.2294 102.281C18.4979 102.44 18.7199 102.659 18.8956 102.938C19.0713 103.213 19.1591 103.551 19.1591 103.952C19.1591 104.343 19.0597 104.692 18.8608 105.001C18.6619 105.309 18.3769 105.553 18.0057 105.732C17.6345 105.911 17.1903 106 16.6733 106H13.0739ZM14.1875 104.926H16.6733C17.0777 104.926 17.3942 104.83 17.6229 104.638C17.8516 104.446 17.9659 104.184 17.9659 103.852C17.9659 103.458 17.8516 103.148 17.6229 102.923C17.3942 102.694 17.0777 102.58 16.6733 102.58H14.1875V104.926ZM14.1875 101.565H16.196C16.5109 101.565 16.781 101.522 17.0064 101.436C17.2318 101.347 17.4041 101.221 17.5234 101.058C17.6461 100.893 17.7074 100.697 17.7074 100.472C17.7074 100.15 17.5732 99.8982 17.3047 99.7159C17.0362 99.5303 16.6667 99.4375 16.196 99.4375H14.1875V101.565ZM20.9352 108.864V98.3636H22.0687V99.5767H22.2079C22.2941 99.4441 22.4134 99.2751 22.5659 99.0696C22.7217 98.8608 22.9437 98.6752 23.2321 98.5128C23.5237 98.3471 23.9181 98.2642 24.4153 98.2642C25.0583 98.2642 25.6251 98.425 26.1156 98.7464C26.6061 99.0679 26.9889 99.5237 27.264 100.114C27.5391 100.704 27.6767 101.4 27.6767 102.202C27.6767 103.01 27.5391 103.711 27.264 104.305C26.9889 104.895 26.6078 105.352 26.1206 105.677C25.6333 105.998 25.0716 106.159 24.4352 106.159C23.9447 106.159 23.5519 106.078 23.2569 105.915C22.9619 105.75 22.7349 105.562 22.5758 105.354C22.4167 105.142 22.2941 104.966 22.2079 104.827H22.1085V108.864H20.9352ZM22.0886 102.182C22.0886 102.759 22.1731 103.267 22.3422 103.708C22.5112 104.146 22.7581 104.489 23.0829 104.737C23.4077 104.982 23.8055 105.105 24.2761 105.105C24.7666 105.105 25.176 104.976 25.5041 104.717C25.8355 104.455 26.0841 104.104 26.2498 103.663C26.4189 103.219 26.5034 102.725 26.5034 102.182C26.5034 101.645 26.4205 101.161 26.2548 100.73C26.0924 100.296 25.8455 99.9529 25.514 99.701C25.1859 99.4458 24.7733 99.3182 24.2761 99.3182C23.7988 99.3182 23.3978 99.4392 23.073 99.6811C22.7482 99.9197 22.5029 100.254 22.3372 100.685C22.1715 101.113 22.0886 101.612 22.0886 102.182ZM32.6681 106.159C31.9324 106.159 31.2976 105.997 30.764 105.672C30.2337 105.344 29.8244 104.886 29.536 104.3C29.251 103.71 29.1085 103.024 29.1085 102.241C29.1085 101.459 29.251 100.77 29.536 100.173C29.8244 99.5734 30.2254 99.1061 30.7392 98.7713C31.2562 98.4332 31.8594 98.2642 32.5488 98.2642C32.9466 98.2642 33.3393 98.3305 33.7271 98.4631C34.1149 98.5956 34.4679 98.8111 34.786 99.1094C35.1042 99.4044 35.3578 99.7955 35.5467 100.283C35.7356 100.77 35.8301 101.37 35.8301 102.082V102.58H29.9437V101.565H34.6369C34.6369 101.134 34.5507 100.75 34.3784 100.412C34.2093 100.074 33.9674 99.8071 33.6525 99.6115C33.341 99.416 32.9731 99.3182 32.5488 99.3182C32.0815 99.3182 31.6771 99.4342 31.3358 99.6662C30.9977 99.8949 30.7375 100.193 30.5552 100.561C30.3729 100.929 30.2818 101.323 30.2818 101.744V102.42C30.2818 102.997 30.3812 103.486 30.5801 103.887C30.7823 104.285 31.0623 104.588 31.4203 104.797C31.7782 105.002 32.1942 105.105 32.6681 105.105C32.9764 105.105 33.2548 105.062 33.5034 104.976C33.7553 104.886 33.9724 104.754 34.1547 104.578C34.3369 104.399 34.4778 104.177 34.5772 103.912L35.7108 104.23C35.5914 104.615 35.3909 104.953 35.1092 105.244C34.8275 105.533 34.4795 105.758 34.0652 105.92C33.6509 106.08 33.1852 106.159 32.6681 106.159ZM41.791 104.409L44.4558 98.3636H45.5694L42.2683 106H41.3137L38.0723 98.3636H39.166L41.791 104.409ZM38.7882 98.3636V106H37.6149V98.3636H38.7882ZM44.7939 106V98.3636H45.9672V106H44.7939ZM51.3166 106.159C50.5808 106.159 49.9461 105.997 49.4125 105.672C48.8822 105.344 48.4728 104.886 48.1845 104.3C47.8994 103.71 47.7569 103.024 47.7569 102.241C47.7569 101.459 47.8994 100.77 48.1845 100.173C48.4728 99.5734 48.8739 99.1061 49.3876 98.7713C49.9047 98.4332 50.5079 98.2642 51.1973 98.2642C51.595 98.2642 51.9877 98.3305 52.3755 98.4631C52.7633 98.5956 53.1163 98.8111 53.4345 99.1094C53.7527 99.4044 54.0062 99.7955 54.1951 100.283C54.3841 100.77 54.4785 101.37 54.4785 102.082V102.58H48.5922V101.565H53.2853C53.2853 101.134 53.1992 100.75 53.0268 100.412C52.8578 100.074 52.6158 99.8071 52.301 99.6115C51.9894 99.416 51.6215 99.3182 51.1973 99.3182C50.7299 99.3182 50.3256 99.4342 49.9842 99.6662C49.6461 99.8949 49.3859 100.193 49.2037 100.561C49.0214 100.929 48.9302 101.323 48.9302 101.744V102.42C48.9302 102.997 49.0297 103.486 49.2285 103.887C49.4307 104.285 49.7108 104.588 50.0687 104.797C50.4267 105.002 50.8426 105.105 51.3166 105.105C51.6248 105.105 51.9032 105.062 52.1518 104.976C52.4037 104.886 52.6208 104.754 52.8031 104.578C52.9854 104.399 53.1262 104.177 53.2257 103.912L54.3592 104.23C54.2399 104.615 54.0394 104.953 53.7576 105.244C53.4759 105.533 53.1279 105.758 52.7136 105.92C52.2993 106.08 51.8336 106.159 51.3166 106.159ZM61.3741 101.645V102.739H57.1582V101.645H61.3741ZM57.4366 98.3636V106H56.2633V98.3636H57.4366ZM62.269 98.3636V106H61.0957V98.3636H62.269ZM65.585 104.27L69.264 98.3636H70.6163V106H69.443V100.094L65.7839 106H64.4118V98.3636H65.585V104.27Z" fill="black"/>
<defs>
<clipPath id="clip0_5104_8363">
<rect width="16" height="16" fill="white" transform="translate(12 12)"/>
</clipPath>
</defs>
</svg>
