<svg width="1920" height="540" viewBox="0 0 1920 540" fill="none" xmlns="http://www.w3.org/2000/svg">
<g clip-path="url(#clip0_8471_9327)">
<path d="M1487.16 491.602L1487.16 493.396L1488.95 491.602L1487.16 491.602Z" fill="white"/>
<path d="M1824.81 443.079L1823.01 443.079L1824.81 444.873L1824.81 443.079Z" fill="white"/>
<path d="M1679.31 443.079L1679.31 444.873L1681.11 443.079L1679.31 443.079Z" fill="white"/>
<path d="M1632.61 443.079L1630.82 443.079L1632.61 444.873L1632.61 443.079Z" fill="white"/>
<path d="M1584.12 443.079L1582.32 443.079L1584.12 444.873L1585.91 443.079L1584.12 443.079Z" fill="white"/>
<path d="M1535.66 443.079L1535.66 444.873L1537.46 443.079L1535.66 443.079Z" fill="white"/>
<path d="M1487.16 443.079L1487.16 444.873L1488.95 443.079L1487.16 443.079Z" fill="white"/>
<path d="M1440.46 443.079L1438.66 443.079L1440.46 444.873L1440.46 443.079Z" fill="white"/>
<path d="M1391.96 443.079L1390.17 443.079L1391.96 444.873L1393.76 443.079L1391.96 443.079Z" fill="white"/>
<path d="M1343.47 443.079L1343.47 444.873L1345.27 443.079L1343.47 443.079Z" fill="white"/>
<path d="M1296.77 443.079L1294.98 443.079L1296.77 444.873L1296.77 443.079Z" fill="white"/>
<path d="M1248.27 443.081L1246.48 443.081L1248.27 444.875L1250.07 443.081L1248.27 443.081Z" fill="white"/>
<path d="M1199.78 443.081L1199.78 444.875L1201.58 443.081L1199.78 443.081Z" fill="white"/>
<path d="M1151.27 443.081L1151.27 444.875L1153.07 443.081L1151.27 443.081Z" fill="white"/>
<path d="M1104.58 443.081L1102.78 443.081L1104.58 444.875L1104.58 443.081Z" fill="white"/>
<path d="M960.891 443.081L959.095 443.081L960.891 444.875L960.891 443.081Z" fill="white"/>
<path d="M863.887 443.081L863.887 444.875L865.684 443.081L863.887 443.081Z" fill="white"/>
<path d="M815.434 443.081L815.434 444.875L817.23 443.081L815.434 443.081Z" fill="white"/>
<path d="M335.852 443.081L335.852 444.875L337.648 443.081L335.852 443.081Z" fill="white"/>
<path d="M289.154 443.081L287.358 443.081L289.154 444.875L289.154 443.081Z" fill="white"/>
<path d="M143.712 443.081L143.712 444.875L145.508 443.081L143.712 443.081Z" fill="white"/>
<path d="M1824.81 394.718L1823.01 396.512L1824.81 396.512L1824.81 394.718Z" fill="white"/>
<path d="M1776.31 394.718L1774.52 396.512L1776.31 396.512L1776.31 394.718Z" fill="white"/>
<path d="M1727.8 394.718L1727.8 396.512L1729.6 396.512L1727.8 394.718Z" fill="white"/>
<path d="M1679.31 394.718L1679.31 396.512L1681.11 396.512L1679.31 394.718Z" fill="white"/>
<path d="M1632.61 394.681C1631.62 394.681 1630.81 395.485 1630.81 396.476C1630.81 397.466 1631.62 398.27 1632.61 398.27C1633.6 398.27 1634.41 397.466 1634.41 396.476C1634.41 395.485 1633.6 394.681 1632.61 394.681Z" fill="white"/>
<path d="M1584.12 394.681C1582.32 394.681 1582.32 394.681 1582.32 396.476C1582.32 398.27 1582.32 398.27 1584.12 398.27C1585.91 398.27 1585.91 398.27 1585.91 396.476C1585.91 394.681 1584.12 394.681 1584.12 394.681Z" fill="white"/>
<path d="M1535.66 394.681C1533.87 394.681 1533.87 394.681 1533.87 396.476C1533.87 398.27 1533.87 398.27 1535.66 398.27C1537.46 398.27 1537.46 398.27 1537.46 396.476C1537.46 394.681 1537.46 394.681 1535.66 394.681Z" fill="white"/>
<path d="M1487.17 394.681C1485.37 394.681 1485.37 396.476 1485.37 396.476C1485.37 398.27 1487.17 398.27 1487.17 398.27L1490.76 396.476C1490.76 394.681 1488.96 394.681 1487.17 394.681Z" fill="white"/>
<path d="M1440.46 394.681C1438.66 394.681 1438.66 396.476 1438.66 396.476C1438.66 398.27 1440.46 398.27 1440.46 398.27C1442.25 398.27 1442.25 396.476 1442.25 396.476C1442.25 394.681 1440.46 394.681 1440.46 394.681Z" fill="white"/>
<path d="M1391.96 394.681C1390.17 394.681 1390.17 396.476 1390.17 396.476C1390.17 398.27 1391.96 398.27 1391.96 398.27C1393.76 398.27 1393.76 396.476 1393.76 396.476C1393.76 394.681 1393.76 394.681 1391.96 394.681Z" fill="white"/>
<path d="M1343.47 394.681C1341.67 394.681 1341.67 394.681 1341.67 396.476C1341.67 398.27 1343.47 398.27 1343.47 398.27C1345.27 398.27 1345.27 398.27 1345.27 396.476C1345.27 394.681 1345.27 394.681 1343.47 394.681Z" fill="white"/>
<path d="M1296.77 394.681C1294.97 394.681 1294.97 394.681 1294.97 396.476C1294.97 398.27 1294.97 398.27 1296.77 398.27C1298.57 398.27 1298.57 398.27 1298.57 396.476C1298.57 394.681 1296.77 394.681 1296.77 394.681Z" fill="white"/>
<path d="M1248.28 394.681C1246.48 394.681 1246.48 394.681 1246.48 396.476C1246.48 398.27 1246.48 398.27 1248.28 398.27C1250.07 398.27 1250.07 398.27 1250.07 396.476C1250.07 394.681 1248.28 394.681 1248.28 394.681Z" fill="white"/>
<path d="M1199.79 394.681C1199.79 394.681 1197.99 394.681 1199.79 394.681C1197.99 398.27 1197.99 398.27 1199.79 398.27C1201.58 398.27 1201.58 396.476 1199.79 394.681C1201.58 394.681 1201.58 394.681 1199.79 394.681Z" fill="white"/>
<path d="M1151.27 394.681C1150.28 394.681 1149.48 395.485 1149.48 396.476C1149.48 397.466 1150.28 398.27 1151.27 398.27C1152.27 398.27 1153.07 397.466 1153.07 396.476C1153.07 395.485 1152.27 394.681 1151.27 394.681Z" fill="white"/>
<path d="M1104.56 394.681C1102.77 394.681 1102.77 394.681 1104.56 394.681C1102.77 396.476 1104.56 398.27 1104.56 398.27C1104.56 398.27 1106.36 396.476 1104.56 394.681C1104.56 394.681 1106.36 394.681 1104.56 394.681Z" fill="white"/>
<path d="M1056.07 394.718C1056.07 394.718 1054.27 394.718 1056.07 394.718C1054.27 396.512 1056.07 396.512 1056.07 396.512C1056.07 396.512 1057.86 396.512 1056.07 394.718C1056.07 394.718 1057.86 394.718 1056.07 394.718Z" fill="white"/>
<path d="M1007.59 394.718L1007.59 396.512L1009.38 396.512L1007.59 394.718Z" fill="white"/>
<path d="M960.891 394.718L959.095 396.512L960.891 396.512L960.891 394.718Z" fill="white"/>
<path d="M912.383 394.718L910.587 396.512L912.383 396.512L912.383 394.718Z" fill="white"/>
<path d="M863.887 394.718L863.887 396.512L865.684 396.512L863.887 394.718Z" fill="white"/>
<path d="M815.434 394.718L815.434 396.512L817.23 396.512L815.434 394.718Z" fill="white"/>
<path d="M768.738 394.718L766.942 396.512L768.738 396.512L768.738 394.718Z" fill="white"/>
<path d="M671.733 394.718L671.733 396.512L673.529 396.512L671.733 394.718Z" fill="white"/>
<path d="M625.037 394.718L623.241 396.512L625.037 396.512L625.037 394.718Z" fill="white"/>
<path d="M432.842 394.718L431.046 396.512L432.842 396.512L432.842 394.718Z" fill="white"/>
<path d="M335.852 394.718L335.852 396.512L337.648 396.512L335.852 394.718Z" fill="white"/>
<path d="M289.154 394.718L287.358 396.512L289.154 396.512L289.154 394.718Z" fill="white"/>
<path d="M1727.82 346.318C1727.82 346.318 1726.03 348.112 1727.82 346.318C1726.03 348.112 1727.82 349.906 1727.82 349.906C1729.62 349.906 1729.62 348.112 1727.82 346.318C1729.62 346.318 1729.62 348.112 1727.82 346.318Z" fill="white"/>
<path d="M1679.31 346.318C1678.32 346.318 1677.51 347.121 1677.51 348.112C1677.51 349.103 1678.32 349.906 1679.31 349.906C1680.3 349.906 1681.11 349.103 1681.11 348.112C1681.11 347.121 1680.3 346.318 1679.31 346.318Z" fill="white"/>
<path d="M1632.61 346.318C1630.81 346.318 1630.81 348.112 1630.81 348.112C1630.81 349.906 1632.61 349.906 1632.61 349.906C1634.41 349.906 1634.41 348.112 1634.41 348.112C1634.41 346.318 1632.61 346.318 1632.61 346.318Z" fill="white"/>
<path d="M1584.11 344.488C1582.32 344.488 1580.52 346.282 1580.52 348.076C1580.52 349.87 1582.32 351.664 1584.11 351.664C1585.91 351.664 1587.71 349.87 1587.71 348.076C1587.71 346.282 1585.91 344.488 1584.11 344.488Z" fill="white"/>
<path d="M1535.62 344.488C1533.82 344.488 1532.03 346.282 1532.03 348.076C1532.03 349.87 1533.82 351.664 1535.62 351.664C1537.42 351.664 1539.21 349.87 1539.21 348.076C1539.21 346.282 1537.42 344.488 1535.62 344.488Z" fill="white"/>
<path d="M1487.17 344.488C1485.18 344.488 1483.58 346.094 1483.58 348.076C1483.58 350.058 1485.18 351.664 1487.17 351.664C1489.15 351.664 1490.76 350.058 1490.76 348.076C1490.76 346.094 1489.15 344.488 1487.17 344.488Z" fill="white"/>
<path d="M1440.47 344.488C1438.67 344.488 1436.88 346.282 1436.88 348.076C1436.88 349.87 1438.67 351.664 1440.47 351.664C1442.26 351.664 1444.06 349.87 1444.06 348.076C1442.26 346.282 1442.26 344.488 1440.47 344.488Z" fill="white"/>
<path d="M1391.97 344.488C1390.18 344.488 1388.38 346.282 1388.38 348.076C1388.38 349.87 1390.18 351.664 1391.97 351.664C1393.77 351.664 1395.57 349.87 1395.57 348.076C1395.57 346.282 1393.77 344.488 1391.97 344.488Z" fill="white"/>
<path d="M1343.47 344.488C1341.67 344.488 1339.87 346.282 1339.87 348.076C1339.87 349.87 1341.67 351.664 1343.47 351.664C1345.26 351.664 1347.06 349.87 1347.06 348.076C1347.06 346.282 1345.26 344.488 1343.47 344.488Z" fill="white"/>
<path d="M1296.77 346.318C1295.78 346.318 1294.97 347.121 1294.97 348.112C1294.97 349.103 1295.78 349.906 1296.77 349.906C1297.76 349.906 1298.57 349.103 1298.57 348.112C1298.57 347.121 1297.76 346.318 1296.77 346.318Z" fill="white"/>
<path d="M1248.28 346.318C1246.48 346.318 1246.48 348.112 1246.48 348.112C1246.48 349.906 1248.28 349.906 1248.28 349.906C1250.07 349.906 1250.07 348.112 1250.07 348.112C1250.07 346.318 1250.07 346.318 1248.28 346.318Z" fill="white"/>
<path d="M1199.78 346.318C1197.98 346.318 1197.98 348.112 1197.98 348.112C1197.98 349.906 1199.78 349.906 1199.78 349.906C1201.58 349.906 1203.37 349.906 1203.37 348.112C1203.37 346.318 1201.58 346.318 1199.78 346.318Z" fill="white"/>
<path d="M1151.27 346.318C1149.48 346.318 1149.48 348.112 1149.48 348.112C1149.48 349.906 1151.27 349.906 1151.27 349.906C1153.07 349.906 1153.07 348.112 1153.07 348.112C1154.87 346.318 1153.07 346.318 1151.27 346.318Z" fill="white"/>
<path d="M1104.58 346.318C1102.78 346.318 1102.78 348.112 1102.78 348.112C1102.78 349.906 1104.58 349.906 1104.58 349.906C1106.37 349.906 1106.37 348.112 1106.37 348.112C1106.37 346.318 1104.58 346.318 1104.58 346.318Z" fill="white"/>
<path d="M1056.08 346.318C1054.28 346.318 1054.28 346.318 1054.28 348.112C1054.28 349.906 1056.08 349.906 1056.08 349.906C1057.88 349.906 1057.88 349.906 1057.88 348.112C1057.88 346.318 1057.88 346.318 1056.08 346.318Z" fill="white"/>
<path d="M1007.59 346.318C1005.79 346.318 1005.79 346.318 1005.79 348.112C1005.79 349.906 1005.79 349.906 1007.59 349.906C1009.38 349.906 1009.38 349.906 1009.38 348.112C1009.38 346.318 1009.38 346.318 1007.59 346.318Z" fill="white"/>
<path d="M960.915 346.318C959.119 346.318 959.119 346.318 960.915 346.318C959.119 348.112 959.119 349.906 960.915 349.906C960.915 349.906 962.711 349.906 960.915 346.318C960.915 346.318 962.711 346.318 960.915 346.318Z" fill="white"/>
<path d="M912.422 346.318C910.626 346.318 910.626 346.318 912.422 346.318C910.626 348.112 912.422 349.906 912.422 349.906C912.422 349.906 914.219 348.112 912.422 346.318C912.422 346.318 914.219 346.318 912.422 346.318Z" fill="white"/>
<path d="M863.891 346.318C863.891 346.318 862.095 346.318 863.891 346.318C862.095 348.112 863.891 349.906 863.891 349.906C863.891 349.906 865.687 348.112 863.891 346.318C865.687 346.318 865.687 346.318 863.891 346.318Z" fill="white"/>
<path d="M815.397 346.318C815.397 348.112 815.397 346.318 815.397 346.318C813.601 348.112 815.397 349.906 815.397 349.906C815.397 349.906 817.193 348.112 815.397 346.318C817.193 346.318 817.193 348.112 815.397 346.318Z" fill="white"/>
<path d="M768.721 346.318C766.925 348.112 766.925 346.318 768.721 346.318C766.925 348.112 768.721 349.906 768.721 349.906C768.721 349.906 770.517 348.112 768.721 346.318C768.721 346.318 770.517 348.112 768.721 346.318Z" fill="white"/>
<path d="M720.227 346.314C720.227 346.314 718.431 348.108 720.227 346.314C718.431 348.108 720.227 348.108 720.227 348.108C720.227 349.902 722.023 348.108 720.227 346.314C720.227 346.314 722.023 348.108 720.227 346.314Z" fill="white"/>
<path d="M671.733 346.318C670.741 346.318 669.937 347.121 669.937 348.112C669.937 349.103 670.741 349.906 671.733 349.906C672.725 349.906 673.529 349.103 673.529 348.112C673.529 347.121 672.725 346.318 671.733 346.318Z" fill="white"/>
<path d="M625.037 346.318L623.241 348.112L625.037 349.906L625.037 348.112L625.037 346.318Z" fill="white"/>
<path d="M576.54 346.318C575.548 346.318 574.744 347.121 574.744 348.112C574.744 349.103 575.548 349.906 576.54 349.906C577.532 349.906 578.336 349.103 578.336 348.112C578.336 347.121 577.532 346.318 576.54 346.318Z" fill="white"/>
<path d="M528.048 346.318L528.048 348.112L528.048 349.906L529.844 348.112L528.048 346.318Z" fill="white"/>
<path d="M479.552 346.318C478.56 346.318 477.756 347.121 477.756 348.112C477.756 349.103 478.56 349.906 479.552 349.906C480.543 349.906 481.348 349.103 481.348 348.112C481.348 347.121 480.543 346.318 479.552 346.318Z" fill="white"/>
<path d="M1824.81 299.591L1823.01 299.591L1824.81 301.385L1824.81 299.591Z" fill="white"/>
<path d="M1776.3 299.591C1774.5 299.591 1774.5 299.591 1776.3 299.591C1774.5 301.385 1776.3 301.385 1776.3 301.385C1776.3 301.385 1778.09 301.385 1776.3 299.591C1776.3 299.591 1778.09 299.591 1776.3 299.591Z" fill="white"/>
<path d="M1727.8 297.797C1726.01 297.797 1726.01 297.797 1726.01 299.591C1726.01 301.385 1726.01 301.385 1727.8 301.385C1729.6 301.385 1729.6 301.385 1729.6 299.591C1729.6 299.591 1729.6 297.797 1727.8 297.797Z" fill="white"/>
<path d="M1679.31 297.797C1678.32 297.797 1677.51 298.6 1677.51 299.591C1677.51 300.582 1678.32 301.385 1679.31 301.385C1680.3 301.385 1681.11 300.582 1681.11 299.591C1681.11 298.6 1680.3 297.797 1679.31 297.797Z" fill="white"/>
<path d="M1632.62 295.961C1630.82 295.961 1629.03 297.755 1629.03 299.549C1629.03 301.343 1630.82 303.137 1632.62 303.137C1634.42 303.137 1636.21 301.343 1636.21 299.549C1636.21 297.755 1634.42 295.961 1632.62 295.961Z" fill="white"/>
<path d="M1584.11 295.961C1582.32 295.961 1580.52 297.755 1580.52 299.549C1580.52 301.343 1582.32 303.137 1584.11 303.137C1585.91 303.137 1587.71 301.343 1587.71 299.549C1587.71 297.755 1585.91 295.961 1584.11 295.961Z" fill="white"/>
<path d="M1535.62 295.961C1533.82 295.961 1532.03 297.755 1532.03 299.549C1532.03 301.343 1533.82 303.137 1535.62 303.137C1537.42 303.137 1541.01 303.137 1541.01 299.549C1541.01 297.755 1539.21 295.961 1535.62 295.961Z" fill="white"/>
<path d="M1487.17 296.09C1485.37 296.09 1481.78 297.884 1481.78 301.472C1481.78 305.061 1485.37 305.061 1487.17 305.061C1488.96 305.061 1492.55 303.267 1492.55 299.678C1492.55 296.09 1490.76 296.09 1487.17 296.09Z" fill="white"/>
<path d="M1440.47 296.052C1438.67 296.052 1435.08 297.846 1435.08 301.434C1435.08 303.228 1436.88 306.816 1440.47 306.816C1442.26 306.816 1445.86 305.022 1445.86 301.434C1444.06 297.846 1442.26 296.052 1440.47 296.052Z" fill="white"/>
<path d="M1391.97 295.961C1390.18 295.961 1388.38 297.755 1388.38 299.549C1388.38 301.343 1390.18 303.137 1391.97 303.137C1393.77 303.137 1397.36 303.137 1397.36 299.549C1397.36 297.755 1393.77 295.961 1391.97 295.961Z" fill="white"/>
<path d="M1343.47 295.961C1341.48 295.961 1339.87 297.567 1339.87 299.549C1339.87 301.53 1341.48 303.137 1343.47 303.137C1345.45 303.137 1347.06 301.53 1347.06 299.549C1347.06 297.567 1345.45 295.961 1343.47 295.961Z" fill="white"/>
<path d="M1296.78 295.961C1294.98 295.961 1293.19 297.755 1293.19 299.549C1293.19 301.343 1294.98 303.137 1296.78 303.137C1298.58 303.137 1300.37 301.343 1300.37 299.549C1300.37 297.755 1298.58 295.961 1296.78 295.961Z" fill="white"/>
<path d="M1248.27 295.961C1246.48 295.961 1244.68 297.755 1244.68 299.549C1244.68 301.343 1246.48 303.137 1248.27 303.137C1250.07 303.137 1251.87 301.343 1251.87 299.549C1251.87 297.755 1250.07 295.961 1248.27 295.961Z" fill="white"/>
<path d="M1199.78 295.961C1197.98 295.961 1196.19 297.755 1196.19 299.549C1196.19 301.343 1197.98 303.137 1199.78 303.137C1201.58 303.137 1203.37 301.343 1203.37 299.549C1203.37 297.755 1201.58 295.961 1199.78 295.961Z" fill="white"/>
<path d="M1151.29 295.961C1149.49 295.961 1147.69 297.755 1147.69 299.549C1147.69 301.343 1149.49 303.137 1151.29 303.137C1153.08 303.137 1154.88 301.343 1154.88 299.549C1154.88 297.755 1153.08 295.961 1151.29 295.961Z" fill="white"/>
<path d="M1104.57 297.884C1102.78 297.884 1100.98 299.678 1100.98 301.472C1100.98 303.267 1102.78 305.061 1104.57 305.061C1106.37 305.061 1108.17 303.267 1108.17 301.472C1106.37 297.884 1106.37 297.884 1104.57 297.884Z" fill="white"/>
<path d="M1056.08 297.755C1054.28 297.755 1052.49 299.549 1052.49 301.343C1052.49 303.137 1054.28 303.137 1056.08 303.137C1057.88 303.137 1059.67 301.343 1059.67 299.549C1059.67 297.755 1057.88 297.755 1056.08 297.755Z" fill="white"/>
<path d="M1007.59 297.797C1005.79 297.797 1005.79 299.591 1005.79 299.591C1005.79 301.385 1007.59 301.385 1007.59 301.385C1009.38 301.385 1009.38 299.591 1009.38 299.591C1011.18 297.797 1009.38 297.797 1007.59 297.797Z" fill="white"/>
<path d="M960.887 297.797C959.091 297.797 959.091 299.591 959.091 299.591C959.091 301.385 960.887 301.385 960.887 301.385C962.684 301.385 962.684 299.591 962.684 299.591C962.684 297.797 960.887 297.797 960.887 297.797Z" fill="white"/>
<path d="M912.38 297.797C911.388 297.797 910.584 298.6 910.584 299.591C910.584 300.582 911.388 301.385 912.38 301.385C913.372 301.385 914.176 300.582 914.176 299.591C914.176 298.6 913.372 297.797 912.38 297.797Z" fill="white"/>
<path d="M863.887 297.797C862.091 297.797 862.091 299.591 862.091 299.591C862.091 301.385 863.887 301.385 863.887 301.385C865.684 301.385 865.684 299.591 865.684 299.591C865.684 299.591 865.684 297.797 863.887 297.797Z" fill="white"/>
<path d="M815.433 297.797C813.637 297.797 813.637 299.591 813.637 299.591C813.637 301.385 815.433 301.385 815.433 301.385C817.229 301.385 817.229 299.591 817.229 299.591C819.025 299.591 817.229 297.797 815.433 297.797Z" fill="white"/>
<path d="M768.735 297.797C766.939 297.797 766.939 297.797 766.939 299.591C766.939 301.385 768.735 301.385 768.735 301.385C770.531 301.385 770.531 301.385 770.531 299.591L768.735 297.797Z" fill="white"/>
<path d="M720.241 297.797C718.445 297.797 718.445 297.797 718.445 299.591C718.445 301.385 718.445 301.385 720.241 301.385C722.037 301.385 722.037 301.385 722.037 299.591C722.037 299.591 722.037 297.797 720.241 297.797Z" fill="white"/>
<path d="M671.751 297.797C671.751 297.797 669.955 299.591 671.751 297.797C669.955 301.385 669.955 301.385 671.751 301.385C673.547 301.385 673.547 301.385 671.751 297.797C673.547 297.797 673.547 299.591 671.751 297.797Z" fill="white"/>
<path d="M625.034 297.797C623.238 299.591 623.238 297.797 625.034 297.797C623.238 301.385 623.238 301.385 625.034 301.385C625.034 301.385 626.83 301.385 625.034 297.797C625.034 297.797 626.83 299.591 625.034 297.797Z" fill="white"/>
<path d="M576.526 297.797C574.73 299.591 574.73 297.797 576.526 297.797C574.73 299.591 576.526 301.385 576.526 301.385C576.526 301.385 578.322 301.385 576.526 297.797C576.526 297.797 578.322 299.591 576.526 297.797Z" fill="white"/>
<path d="M528.049 297.797C528.049 297.797 526.253 299.591 528.049 297.797C526.253 299.591 528.049 301.385 528.049 301.385C528.049 301.385 529.846 301.385 528.049 297.797C529.846 297.797 529.846 299.591 528.049 297.797Z" fill="white"/>
<path d="M479.557 297.797C479.557 299.591 479.557 297.797 479.557 297.797C477.761 299.591 479.557 301.385 479.557 301.385C481.353 301.385 481.353 301.385 479.557 297.797C481.353 297.797 481.353 299.591 479.557 297.797Z" fill="white"/>
<path d="M432.854 297.797C431.863 297.797 431.058 298.6 431.058 299.591C431.058 300.582 431.863 301.385 432.854 301.385C433.846 301.385 434.65 300.582 434.65 299.591C434.65 298.6 433.846 297.797 432.854 297.797Z" fill="white"/>
<path d="M384.36 299.591L382.564 299.591L384.36 301.385L386.156 299.591L384.36 299.591Z" fill="white"/>
<path d="M335.852 299.591L335.852 301.385L337.648 299.591L335.852 299.591Z" fill="white"/>
<path d="M289.154 299.591L287.358 299.591L289.154 301.385L289.154 299.591Z" fill="white"/>
<path d="M240.662 299.591L238.866 299.591L240.662 301.385L240.662 299.591Z" fill="white"/>
<path d="M192.165 299.591L192.165 301.385L193.961 299.591L192.165 299.591Z" fill="white"/>
<path d="M143.712 299.591L143.712 301.385L145.508 299.591L143.712 299.591Z" fill="white"/>
<path d="M1824.81 251.233L1823.01 253.027L1824.81 253.027L1824.81 251.233Z" fill="white"/>
<path d="M1776.3 251.193C1774.5 251.193 1774.5 251.193 1776.3 251.193C1774.5 252.987 1774.5 254.781 1776.3 254.781C1776.3 254.781 1778.09 252.987 1776.3 251.193C1776.3 251.193 1778.09 251.193 1776.3 251.193Z" fill="white"/>
<path d="M1727.82 249.439C1726.02 249.439 1726.02 251.233 1726.02 251.233C1726.02 253.027 1727.82 253.027 1727.82 253.027C1729.61 253.027 1729.61 251.233 1729.61 251.233C1731.41 251.233 1729.61 249.439 1727.82 249.439Z" fill="white"/>
<path d="M1679.31 249.361C1677.51 249.361 1675.72 251.155 1675.72 252.949C1675.72 254.743 1677.51 256.537 1679.31 256.537C1681.1 256.537 1682.9 254.743 1682.9 252.949C1682.9 249.361 1681.1 249.361 1679.31 249.361Z" fill="white"/>
<path d="M1632.62 247.527C1630.82 247.527 1627.23 249.321 1627.23 252.909C1627.23 254.703 1629.03 258.291 1632.62 258.291C1634.42 258.291 1638.01 256.497 1638.01 252.909C1636.21 249.321 1634.42 247.527 1632.62 247.527Z" fill="white"/>
<path d="M1584.11 247.527C1580.52 247.527 1578.72 249.321 1578.72 252.909C1578.72 256.497 1580.52 258.291 1584.11 258.291C1587.7 258.291 1589.5 256.497 1589.5 252.909C1589.5 249.321 1587.7 247.527 1584.11 247.527Z" fill="white"/>
<path d="M1535.62 245.733C1532.03 245.733 1530.23 247.527 1530.23 251.115C1530.23 254.703 1532.03 258.291 1535.62 258.291C1539.21 258.291 1541.01 256.497 1541.01 252.909C1541.01 249.321 1539.21 245.733 1535.62 245.733Z" fill="white"/>
<path d="M1487.12 245.773C1483.53 245.773 1481.74 247.567 1481.74 251.155C1481.74 254.743 1483.53 256.537 1487.12 256.537C1490.72 256.537 1494.31 254.743 1494.31 252.949C1494.31 249.361 1490.72 245.773 1487.12 245.773Z" fill="white"/>
<path d="M1440.47 245.733C1436.88 245.733 1435.08 247.527 1435.08 251.115C1435.08 254.703 1436.88 258.291 1440.47 258.291C1444.06 258.291 1445.86 256.497 1445.86 252.909C1445.86 249.321 1444.06 245.733 1440.47 245.733Z" fill="white"/>
<path d="M1391.97 245.773C1388.38 245.773 1386.58 247.567 1386.58 251.155C1386.58 254.743 1388.38 256.537 1391.97 256.537C1395.57 256.537 1397.36 254.743 1397.36 251.155C1397.36 249.361 1395.57 245.773 1391.97 245.773Z" fill="white"/>
<path d="M1343.48 247.527C1339.89 247.527 1338.09 249.321 1338.09 252.909C1338.09 256.497 1339.89 258.291 1343.48 258.291C1347.07 258.291 1348.87 256.497 1348.87 252.909C1348.87 249.321 1347.07 247.527 1343.48 247.527Z" fill="white"/>
<path d="M1296.78 247.527C1293.19 247.527 1291.39 249.321 1291.39 252.909C1291.39 256.497 1293.19 258.291 1296.78 258.291C1300.37 258.291 1302.17 256.497 1302.17 252.909C1300.37 249.321 1298.57 247.527 1296.78 247.527Z" fill="white"/>
<path d="M1248.27 247.527C1246.48 247.527 1242.88 249.321 1242.88 252.909C1242.88 254.703 1244.68 258.291 1248.27 258.291C1250.07 258.291 1253.66 256.497 1253.66 252.909C1253.66 249.321 1250.07 247.527 1248.27 247.527Z" fill="white"/>
<path d="M1199.78 247.527C1197.98 247.527 1194.39 249.321 1194.39 252.909C1194.39 254.703 1196.19 258.291 1199.78 258.291C1201.57 258.291 1205.17 256.497 1205.17 252.909C1205.17 249.321 1203.37 247.527 1199.78 247.527Z" fill="white"/>
<path d="M1151.28 247.605C1149.49 247.605 1147.69 249.399 1147.69 251.193C1147.69 252.987 1149.49 254.781 1151.28 254.781C1153.08 254.781 1156.67 254.781 1156.67 252.987C1156.67 249.399 1154.88 247.605 1151.28 247.605Z" fill="white"/>
<path d="M1104.57 247.605C1102.78 247.605 1100.98 249.399 1100.98 251.193C1100.98 252.987 1102.78 254.781 1104.57 254.781C1106.37 254.781 1108.17 252.987 1108.17 251.193C1108.17 249.399 1106.37 247.605 1104.57 247.605Z" fill="white"/>
<path d="M1056.08 247.605C1054.28 247.605 1052.49 249.399 1052.49 251.193C1052.49 252.987 1054.28 254.781 1056.08 254.781C1057.88 254.781 1059.67 252.987 1059.67 251.193C1059.67 249.399 1057.88 247.605 1056.08 247.605Z" fill="white"/>
<path d="M1007.59 249.361C1005.79 249.361 1004 251.155 1004 252.949C1004 254.743 1005.79 256.537 1007.59 256.537C1009.38 256.537 1011.18 254.743 1011.18 252.949C1011.18 249.361 1009.38 249.361 1007.59 249.361Z" fill="white"/>
<path d="M960.886 249.361C959.09 249.361 957.294 251.155 957.294 252.949C957.294 254.743 959.09 256.537 960.886 256.537C962.682 256.537 964.479 254.743 964.479 252.949C962.682 251.155 962.682 249.361 960.886 249.361Z" fill="white"/>
<path d="M912.392 249.361C910.596 249.361 908.8 251.155 908.8 252.949C908.8 254.743 910.596 256.537 912.392 256.537C914.188 254.743 915.984 252.949 915.984 252.949C915.984 251.155 914.188 249.361 912.392 249.361Z" fill="white"/>
<path d="M863.886 249.361C862.09 249.361 860.294 251.155 860.294 252.949C860.294 254.743 862.09 256.537 863.886 256.537C865.682 256.537 867.479 254.743 867.479 252.949C867.479 251.155 865.682 249.361 863.886 249.361Z" fill="white"/>
<path d="M815.433 249.439C813.637 249.439 813.637 251.233 813.637 251.233C813.637 253.027 815.433 253.027 815.433 253.027C817.229 253.027 817.229 251.233 817.229 251.233C819.025 251.233 817.229 249.439 815.433 249.439Z" fill="white"/>
<path d="M768.735 249.439C766.939 249.439 766.939 251.233 766.939 251.233C766.939 253.027 768.735 253.027 768.735 253.027L770.531 253.027C770.531 251.233 770.531 249.439 768.735 249.439Z" fill="white"/>
<path d="M720.241 249.439C718.445 249.439 718.445 251.233 718.445 251.233C718.445 253.027 720.241 253.027 720.241 253.027C722.037 253.027 722.037 251.233 722.037 251.233C722.037 251.233 722.037 249.439 720.241 249.439Z" fill="white"/>
<path d="M671.733 251.193C670.741 251.193 669.937 251.996 669.937 252.987C669.937 253.978 670.741 254.781 671.733 254.781C672.725 254.781 673.529 253.978 673.529 252.987C673.529 251.996 672.725 251.193 671.733 251.193Z" fill="white"/>
<path d="M625.048 249.339C623.252 249.339 623.252 251.133 623.252 251.133C623.252 252.927 625.048 252.927 625.048 252.927C625.048 254.721 626.844 252.927 626.844 252.927C626.844 251.133 625.048 249.339 625.048 249.339Z" fill="white"/>
<path d="M576.54 249.439C574.744 249.439 574.744 251.233 574.744 251.233C574.744 253.027 576.54 253.027 576.54 253.027C578.336 253.027 578.336 251.233 578.336 251.233C578.336 251.233 578.336 249.439 576.54 249.439Z" fill="white"/>
<path d="M528.048 249.439C526.252 249.439 526.252 249.439 526.252 251.233C526.252 253.027 528.048 253.027 528.048 253.027C529.844 253.027 529.844 253.027 529.844 251.233C529.844 251.233 529.844 249.439 528.048 249.439Z" fill="white"/>
<path d="M479.552 251.193C477.755 251.193 477.756 251.193 477.756 252.987C477.756 254.781 477.755 254.781 479.552 254.781C481.348 254.781 481.348 254.781 481.348 252.987C481.348 251.193 481.348 251.193 479.552 251.193Z" fill="white"/>
<path d="M432.838 251.193C431.042 251.193 431.042 251.193 432.838 251.193C431.042 252.987 432.838 254.781 432.838 254.781C432.838 252.987 434.635 252.987 432.838 251.193C432.838 251.193 434.635 251.193 432.838 251.193Z" fill="white"/>
<path d="M384.364 251.193C384.364 251.193 382.568 251.193 384.364 251.193C382.568 252.987 384.364 254.781 384.364 254.781C384.364 254.781 386.16 252.987 384.364 251.193C386.16 251.193 386.16 251.193 384.364 251.193Z" fill="white"/>
<path d="M335.87 251.193C334.074 252.987 335.87 254.781 335.87 254.781C337.666 252.987 337.666 252.987 335.87 251.193C337.666 251.193 337.666 251.193 335.87 251.193Z" fill="white"/>
<path d="M289.154 251.233L287.358 253.027L289.154 253.027L289.154 251.233Z" fill="white"/>
<path d="M240.662 251.233L238.866 253.027L240.662 253.027L240.662 251.233Z" fill="white"/>
<path d="M192.165 251.233L192.165 253.027L193.961 253.027L192.165 251.233Z" fill="white"/>
<path d="M143.712 251.233L143.712 253.027L145.508 253.027L143.712 251.233Z" fill="white"/>
<path d="M97 251.233L95.2039 253.027L97 253.027L97 251.233Z" fill="white"/>
<path d="M1824.81 202.708L1823.01 204.502L1824.81 204.502L1824.81 202.708Z" fill="white"/>
<path d="M1776.31 202.66C1774.52 202.66 1774.52 204.454 1774.52 204.454C1774.52 206.248 1776.31 206.248 1776.31 206.248C1778.11 206.248 1778.11 204.454 1778.11 204.454C1778.11 202.66 1776.31 202.66 1776.31 202.66Z" fill="white"/>
<path d="M1727.81 201C1726.02 201 1724.22 202.794 1724.22 204.588C1724.22 206.382 1726.02 208.176 1727.81 208.176C1729.61 208.176 1731.41 206.382 1731.41 204.588C1731.41 202.794 1729.61 201 1727.81 201Z" fill="white"/>
<path d="M1679.32 199.206C1677.52 199.206 1673.93 201 1673.93 204.588C1673.93 206.382 1675.73 208.176 1679.32 208.176C1681.12 208.176 1684.71 206.382 1684.71 204.588C1684.71 201 1682.91 199.206 1679.32 199.206Z" fill="white"/>
<path d="M1632.62 199.169C1629.03 199.169 1627.23 200.963 1627.23 204.552C1627.23 208.14 1629.03 209.934 1632.62 209.934C1636.21 209.934 1638.01 208.14 1638.01 204.552C1638.01 200.963 1634.42 199.169 1632.62 199.169Z" fill="white"/>
<path d="M1584.12 197.333C1580.53 197.333 1576.94 200.921 1576.94 204.509C1576.94 208.098 1580.53 211.686 1584.12 211.686C1587.72 211.686 1591.31 208.098 1591.31 204.509C1591.31 200.921 1587.72 197.333 1584.12 197.333Z" fill="white"/>
<path d="M1535.62 197.333C1532.02 197.333 1528.43 200.921 1528.43 204.509C1528.43 208.098 1532.02 211.686 1535.62 211.686C1539.21 211.686 1542.8 208.098 1542.8 204.509C1542.8 200.921 1539.21 197.333 1535.62 197.333Z" fill="white"/>
<path d="M1487.14 197.333C1483.55 197.333 1479.96 200.921 1479.96 204.509C1479.96 208.098 1483.55 211.686 1487.14 211.686C1490.74 211.686 1494.33 208.098 1494.33 204.509C1496.12 200.921 1492.53 197.333 1487.14 197.333Z" fill="white"/>
<path d="M1440.46 197.333C1436.87 197.333 1433.28 200.921 1433.28 204.509C1433.28 208.098 1436.87 211.686 1440.46 211.686C1444.06 211.686 1447.65 208.098 1447.65 204.509C1447.65 200.921 1444.06 197.333 1440.46 197.333Z" fill="white"/>
<path d="M1391.97 197.333C1388.38 197.333 1384.79 200.921 1384.79 204.509C1384.79 208.098 1388.38 211.686 1391.97 211.686C1395.56 211.686 1399.15 208.098 1399.15 204.509C1399.15 200.921 1395.56 197.333 1391.97 197.333Z" fill="white"/>
<path d="M1343.48 197.333C1339.89 197.333 1336.29 200.921 1336.29 204.509C1336.29 208.098 1339.89 211.686 1343.48 211.686C1347.07 211.686 1350.66 208.098 1350.66 204.509C1350.66 200.921 1347.07 197.333 1343.48 197.333Z" fill="white"/>
<path d="M1296.78 197.412C1293.19 197.412 1291.39 201 1291.39 202.794C1291.39 206.382 1294.98 208.176 1296.78 208.176C1300.37 208.176 1302.17 204.588 1302.17 202.794C1302.17 201 1300.37 197.412 1296.78 197.412Z" fill="white"/>
<path d="M1248.27 199.169C1244.68 199.169 1242.88 200.963 1242.88 204.552C1242.88 208.14 1244.68 209.934 1248.27 209.934C1251.86 209.934 1253.66 208.14 1253.66 204.552C1253.66 200.963 1251.86 199.169 1248.27 199.169Z" fill="white"/>
<path d="M1199.78 199.169C1196.19 199.169 1194.39 200.963 1194.39 204.552C1194.39 208.14 1196.19 209.934 1199.78 209.934C1203.37 209.934 1205.17 208.14 1205.17 204.552C1205.17 200.963 1203.37 199.169 1199.78 199.169Z" fill="white"/>
<path d="M1151.28 199.169C1147.69 199.169 1145.9 200.963 1145.9 204.552C1145.9 208.14 1147.69 209.934 1151.28 209.934C1154.88 209.934 1156.67 208.14 1156.67 204.552C1156.67 200.963 1154.88 199.169 1151.28 199.169Z" fill="white"/>
<path d="M1104.58 199.169C1102.79 199.169 1099.2 200.963 1099.2 204.552C1099.2 206.346 1100.99 209.934 1104.58 209.934C1106.38 209.934 1109.97 208.14 1109.97 204.552C1108.18 200.963 1106.38 199.169 1104.58 199.169Z" fill="white"/>
<path d="M1056.08 199.206C1054.28 199.206 1050.69 201 1050.69 204.588C1050.69 206.382 1052.48 208.176 1056.08 208.176C1057.87 208.176 1061.46 206.382 1061.46 204.588C1061.46 201 1057.87 199.206 1056.08 199.206Z" fill="white"/>
<path d="M1007.58 199.072C1005.79 199.072 1003.99 200.866 1003.99 202.66C1003.99 204.454 1005.79 206.248 1007.58 206.248C1009.38 206.248 1011.17 204.454 1011.17 202.66C1012.97 202.66 1011.17 199.072 1007.58 199.072Z" fill="white"/>
<path d="M960.886 201C959.09 201 957.294 202.794 957.294 204.588C957.294 206.382 959.09 208.176 960.886 208.176C962.682 208.176 964.479 206.382 964.479 204.588C964.479 202.794 962.682 201 960.886 201Z" fill="white"/>
<path d="M912.392 201C910.596 201 908.8 202.794 908.8 204.588C908.8 206.382 910.596 208.176 912.392 208.176C914.188 208.176 915.984 206.382 915.984 204.588C915.984 202.794 914.188 201 912.392 201Z" fill="white"/>
<path d="M863.886 201C862.09 201 860.294 202.794 860.294 204.588C860.294 206.382 862.09 208.176 863.886 208.176C865.682 208.176 867.479 206.382 867.479 204.588C867.479 202.794 865.682 201 863.886 201Z" fill="white"/>
<path d="M815.433 201C813.637 201 811.841 202.794 811.841 204.588C811.841 206.382 813.637 208.176 815.433 208.176C817.229 208.176 819.025 206.382 819.025 204.588C819.025 202.794 817.229 201 815.433 201Z" fill="white"/>
<path d="M768.735 201C766.939 201 765.143 202.794 765.143 204.588C765.143 206.382 766.939 208.176 768.735 208.176C770.531 208.176 770.531 206.382 770.531 204.588C770.531 202.794 770.531 201 768.735 201Z" fill="white"/>
<path d="M720.238 201C718.442 201 716.646 202.794 716.646 204.588C716.646 206.382 718.442 208.176 720.238 208.176C722.034 208.176 723.83 206.382 723.83 204.588C723.83 202.794 722.034 201 720.238 201Z" fill="white"/>
<path d="M671.746 201C669.95 201 668.154 202.794 668.154 204.588C668.154 206.382 669.95 208.176 671.746 208.176C673.542 208.176 675.338 206.382 675.338 204.588C675.338 202.794 673.542 201 671.746 201Z" fill="white"/>
<path d="M625.048 200.914C623.252 200.914 623.252 202.708 623.252 202.708C623.252 204.502 625.048 204.502 625.048 204.502C626.844 204.502 626.844 202.708 626.844 202.708L625.048 200.914Z" fill="white"/>
<path d="M576.54 200.914C574.744 200.914 574.744 202.708 574.744 202.708C574.744 204.502 576.54 204.502 576.54 204.502C578.336 204.502 578.336 202.708 578.336 202.708C578.336 202.708 578.336 200.914 576.54 200.914Z" fill="white"/>
<path d="M528.048 202.66C526.252 202.66 526.252 204.454 526.252 204.454C526.252 206.248 528.048 206.248 528.048 206.248C529.844 206.248 529.844 204.454 529.844 204.454C529.844 202.66 529.844 202.66 528.048 202.66Z" fill="white"/>
<path d="M479.55 202.66C477.754 202.66 477.754 204.454 477.754 204.454C477.754 206.248 479.55 206.248 479.55 206.248C481.346 206.248 483.143 204.454 483.143 204.454C483.143 202.66 481.346 202.66 479.55 202.66Z" fill="white"/>
<path d="M432.854 202.66C431.058 202.66 431.058 202.66 431.058 204.454C431.058 206.248 432.854 206.248 432.854 206.248C434.651 206.248 434.65 206.248 434.65 204.454C434.65 202.66 432.854 202.66 432.854 202.66Z" fill="white"/>
<path d="M384.36 202.66C382.564 202.66 382.564 202.66 382.564 204.454C382.564 206.248 382.564 206.248 384.36 206.248C386.156 206.248 386.156 206.248 386.156 204.454C386.156 202.66 386.156 202.66 384.36 202.66Z" fill="white"/>
<path d="M335.87 202.66C335.87 202.66 334.074 202.66 335.87 202.66C334.074 204.454 335.87 206.248 335.87 206.248C337.666 206.248 337.666 204.454 335.87 202.66C337.666 202.66 337.666 202.66 335.87 202.66Z" fill="white"/>
<path d="M289.154 202.66C287.358 202.66 287.358 202.66 289.154 202.66C287.358 204.454 289.154 206.248 289.154 206.248C289.154 206.248 289.154 204.454 289.154 202.66Z" fill="white"/>
<path d="M240.659 202.66L238.863 204.454L240.659 206.248L242.455 204.454L240.659 202.66Z" fill="white"/>
<path d="M192.165 202.708L192.165 204.502L193.961 204.502L192.165 202.708Z" fill="white"/>
<path d="M143.712 202.708L143.712 204.502L145.508 204.502L143.712 202.708Z" fill="white"/>
<path d="M1824.8 154.308C1823.81 154.308 1823.01 155.112 1823.01 156.102C1823.01 157.093 1823.81 157.896 1824.8 157.896C1825.8 157.896 1826.6 157.093 1826.6 156.102C1826.6 155.112 1825.8 154.308 1824.8 154.308Z" fill="white"/>
<path d="M1776.31 154.308C1774.52 154.308 1774.52 156.102 1774.52 156.102C1774.52 157.896 1776.31 157.896 1776.31 157.896C1778.11 157.896 1778.11 156.102 1778.11 156.102C1778.11 154.308 1778.11 154.308 1776.31 154.308Z" fill="white"/>
<path d="M1727.81 152.478C1726.02 152.478 1724.22 154.272 1724.22 156.066C1724.22 157.86 1726.02 159.654 1727.81 159.654C1729.61 159.654 1731.41 157.86 1731.41 156.066C1731.41 154.272 1729.61 152.478 1727.81 152.478Z" fill="white"/>
<path d="M1679.32 150.636C1675.73 150.636 1673.93 152.43 1673.93 156.018C1673.93 159.606 1677.52 161.4 1679.32 161.4C1682.91 161.4 1684.71 159.606 1684.71 156.018C1684.71 152.43 1682.91 150.636 1679.32 150.636Z" fill="white"/>
<path d="M1632.62 148.978C1629.02 148.978 1625.43 152.566 1625.43 156.154C1625.43 159.742 1629.02 163.33 1632.62 163.33C1636.21 163.33 1639.8 159.742 1639.8 156.154C1639.8 152.566 1636.21 148.978 1632.62 148.978Z" fill="white"/>
<path d="M1584.12 148.936C1580.53 148.936 1576.94 152.524 1576.94 156.112C1576.94 159.7 1578.74 165.082 1584.12 165.082C1587.72 165.082 1591.31 161.494 1591.31 157.906C1591.31 154.318 1587.72 148.936 1584.12 148.936Z" fill="white"/>
<path d="M1535.63 147.142C1530.24 147.142 1526.65 150.73 1526.65 156.112C1526.65 161.494 1530.24 165.082 1535.63 165.082C1541.02 165.082 1544.61 161.494 1544.61 156.112C1544.61 152.524 1541.02 147.142 1535.63 147.142Z" fill="white"/>
<path d="M1487.13 147.142C1482.18 147.142 1478.15 151.158 1478.15 156.112C1478.15 161.066 1482.18 165.082 1487.13 165.082C1492.09 165.082 1496.12 161.066 1496.12 156.112C1496.12 151.158 1492.09 147.142 1487.13 147.142Z" fill="white"/>
<path d="M1440.44 147.142C1435.05 147.142 1431.46 150.73 1431.46 156.112C1431.46 161.494 1435.05 165.082 1440.44 165.082C1445.82 165.082 1449.42 161.494 1449.42 156.112C1449.42 152.524 1444.03 147.142 1440.44 147.142Z" fill="white"/>
<path d="M1391.97 147.142C1387.01 147.142 1382.99 151.158 1382.99 156.112C1382.99 161.066 1387.01 165.082 1391.97 165.082C1396.93 165.082 1400.95 161.066 1400.95 156.112C1400.95 151.158 1396.93 147.142 1391.97 147.142Z" fill="white"/>
<path d="M1343.44 148.978C1339.85 148.978 1336.26 152.566 1336.26 156.154C1336.26 159.742 1339.85 163.33 1343.44 163.33C1347.03 163.33 1350.63 159.742 1350.63 156.154C1352.42 152.566 1348.83 148.978 1343.44 148.978Z" fill="white"/>
<path d="M1296.78 148.978C1293.18 148.978 1289.59 152.566 1289.59 156.154C1289.59 159.742 1291.39 163.33 1296.78 163.33C1300.37 163.33 1303.96 159.742 1303.96 156.154C1303.96 152.566 1300.37 148.978 1296.78 148.978Z" fill="white"/>
<path d="M1248.28 148.978C1244.69 148.978 1241.1 152.566 1241.1 156.154C1241.1 159.742 1244.69 163.33 1248.28 163.33C1251.88 163.33 1255.47 159.742 1255.47 156.154C1255.47 152.566 1251.88 148.978 1248.28 148.978Z" fill="white"/>
<path d="M1199.78 150.772C1196.18 150.772 1192.59 154.36 1192.59 157.948C1192.59 161.536 1196.18 163.33 1199.78 163.33C1203.37 163.33 1206.96 159.742 1206.96 156.154C1206.96 152.566 1203.37 150.772 1199.78 150.772Z" fill="white"/>
<path d="M1151.28 150.636C1147.69 150.636 1145.9 152.43 1145.9 156.018C1145.9 159.606 1149.49 161.4 1151.28 161.4C1154.88 161.4 1156.67 159.606 1156.67 156.018C1156.67 152.43 1154.88 150.636 1151.28 150.636Z" fill="white"/>
<path d="M1104.58 150.636C1101.61 150.636 1099.2 153.046 1099.2 156.018C1099.2 158.991 1101.61 161.4 1104.58 161.4C1107.56 161.4 1109.97 158.991 1109.97 156.018C1109.97 153.046 1107.56 150.636 1104.58 150.636Z" fill="white"/>
<path d="M1056.08 150.636C1052.48 150.636 1050.69 152.43 1050.69 156.018C1050.69 159.606 1052.48 161.4 1056.08 161.4C1059.67 161.4 1061.46 159.606 1061.46 156.018C1061.46 152.43 1059.67 150.636 1056.08 150.636Z" fill="white"/>
<path d="M1007.58 150.636C1004.61 150.636 1002.2 153.046 1002.2 156.018C1002.2 158.991 1004.61 161.4 1007.58 161.4C1010.56 161.4 1012.97 158.991 1012.97 156.018C1012.97 153.046 1010.56 150.636 1007.58 150.636Z" fill="white"/>
<path d="M960.883 152.43C959.087 152.43 955.495 154.224 955.495 157.812C955.495 161.4 957.291 161.4 960.883 161.4C962.679 161.4 966.271 159.606 966.271 156.018C966.271 152.43 962.679 152.43 960.883 152.43Z" fill="white"/>
<path d="M912.392 152.43C910.596 152.43 908.8 154.224 908.8 156.018C908.8 157.812 910.596 161.4 912.392 161.4C914.188 161.4 915.984 159.606 915.984 157.812C915.984 156.018 914.188 152.43 912.392 152.43Z" fill="white"/>
<path d="M863.886 152.478C861.902 152.478 860.294 154.085 860.294 156.066C860.294 158.048 861.902 159.654 863.886 159.654C865.87 159.654 867.479 158.048 867.479 156.066C867.479 154.085 865.87 152.478 863.886 152.478Z" fill="white"/>
<path d="M815.43 152.478C813.634 152.478 811.838 154.272 811.838 156.066C811.838 157.86 813.634 159.654 815.43 159.654C817.226 159.654 819.022 157.86 819.022 156.066C820.818 154.272 819.022 152.478 815.43 152.478Z" fill="white"/>
<path d="M768.732 152.478C766.748 152.478 765.14 154.085 765.14 156.066C765.14 158.048 766.748 159.654 768.732 159.654C770.716 159.654 772.324 158.048 772.324 156.066C772.324 154.085 770.716 152.478 768.732 152.478Z" fill="white"/>
<path d="M720.238 152.478C718.254 152.478 716.646 154.085 716.646 156.066C716.646 158.048 718.254 159.654 720.238 159.654C722.222 159.654 723.83 158.048 723.83 156.066C723.83 154.085 722.222 152.478 720.238 152.478Z" fill="white"/>
<path d="M671.746 152.478C669.762 152.478 668.154 154.085 668.154 156.066C668.154 158.048 669.762 159.654 671.746 159.654C673.73 159.654 675.338 158.048 675.338 156.066C675.338 154.085 673.73 152.478 671.746 152.478Z" fill="white"/>
<path d="M625.048 152.478C623.252 152.478 621.455 154.272 621.455 156.066C621.455 157.86 623.252 159.654 625.048 159.654C626.844 159.654 626.844 157.86 626.844 156.066C626.844 154.272 626.844 152.478 625.048 152.478Z" fill="white"/>
<path d="M576.552 154.272C574.756 154.272 572.96 156.066 572.96 157.86C572.96 159.654 574.756 159.654 576.552 159.654C578.348 159.654 580.145 157.86 580.145 156.066C580.145 154.272 578.348 154.272 576.552 154.272Z" fill="white"/>
<path d="M528.045 154.272C526.249 154.272 524.452 156.066 524.452 157.86C524.452 159.654 526.249 159.654 528.045 159.654C529.841 159.654 531.637 157.86 531.637 156.066C531.637 154.272 529.841 154.272 528.045 154.272Z" fill="white"/>
<path d="M479.552 154.308C478.56 154.308 477.756 155.112 477.756 156.102C477.756 157.093 478.56 157.896 479.552 157.896C480.543 157.896 481.348 157.093 481.348 156.102C481.348 155.112 480.543 154.308 479.552 154.308Z" fill="white"/>
<path d="M432.854 154.308C431.058 154.308 431.058 156.102 431.058 156.102C431.058 156.102 431.058 157.896 432.854 157.896C434.651 157.896 434.65 156.102 434.65 156.102L432.854 154.308Z" fill="white"/>
<path d="M384.36 154.308C383.368 154.308 382.564 155.112 382.564 156.102C382.564 157.093 383.368 157.896 384.36 157.896C385.352 157.896 386.156 157.093 386.156 156.102C386.156 155.112 385.352 154.308 384.36 154.308Z" fill="white"/>
<path d="M335.852 154.308C334.056 154.308 334.056 154.308 334.056 156.102C334.056 157.896 335.852 157.896 335.852 157.896C337.649 157.896 337.648 156.102 337.648 156.102C337.648 156.102 337.649 154.308 335.852 154.308Z" fill="white"/>
<path d="M289.192 154.308C287.396 156.102 287.396 154.308 289.192 154.308C287.396 156.102 287.396 157.896 289.192 157.896C289.192 157.896 290.988 157.896 289.192 154.308C289.192 154.308 290.988 156.102 289.192 154.308Z" fill="white"/>
<path d="M240.686 154.308C238.89 156.102 238.89 154.308 240.686 154.308C238.89 156.102 240.686 157.896 240.686 157.896C240.686 157.896 242.482 157.896 240.686 154.308C240.686 154.308 242.482 156.102 240.686 154.308Z" fill="white"/>
<path d="M192.165 154.308L192.165 156.102L192.165 157.896L193.961 156.102L192.165 154.308Z" fill="white"/>
<path d="M143.712 154.308C142.72 154.308 141.916 155.112 141.916 156.102C141.916 157.093 142.72 157.896 143.712 157.896C144.704 157.896 145.508 157.093 145.508 156.102C145.508 155.112 144.704 154.308 143.712 154.308Z" fill="white"/>
<path d="M97 156.104L95.2039 156.104L97 157.898L97 156.104Z" fill="white"/>
<path d="M1871.5 107.569L1871.5 109.363L1873.3 107.569L1871.5 107.569Z" fill="white"/>
<path d="M1824.81 107.705C1823.01 107.705 1823.01 107.705 1824.81 107.705C1823.01 109.499 1824.81 111.293 1824.81 111.293C1824.81 109.499 1824.81 109.499 1824.81 107.705Z" fill="white"/>
<path d="M1776.31 104.115C1774.33 104.115 1772.72 105.721 1772.72 107.703C1772.72 109.685 1774.33 111.291 1776.31 111.291C1778.29 111.291 1779.9 109.685 1779.9 107.703C1779.9 105.721 1778.29 104.115 1776.31 104.115Z" fill="white"/>
<path d="M1727.81 104.039C1726.02 104.039 1722.42 105.833 1722.42 109.421C1722.42 111.215 1724.22 114.803 1727.81 114.803C1731.41 114.803 1733.2 111.215 1733.2 107.627C1733.2 105.833 1731.41 104.039 1727.81 104.039Z" fill="white"/>
<path d="M1679.33 102.245C1675.74 102.245 1673.94 105.833 1673.94 107.627C1673.94 111.215 1677.53 114.803 1679.33 114.803C1682.92 114.803 1684.72 111.215 1684.72 107.627C1686.51 104.039 1682.92 102.245 1679.33 102.245Z" fill="white"/>
<path d="M1632.62 100.451C1629.02 100.451 1625.43 104.039 1625.43 107.627C1625.43 111.215 1629.02 114.803 1632.62 114.803C1636.21 114.803 1639.8 111.215 1639.8 107.627C1639.8 104.039 1636.21 100.451 1632.62 100.451Z" fill="white"/>
<path d="M1584.12 98.6027C1578.73 98.6027 1575.14 102.191 1575.14 107.573C1575.14 112.955 1578.73 116.543 1584.12 116.543C1589.51 116.543 1593.1 112.955 1593.1 107.573C1593.1 103.985 1589.51 98.6027 1584.12 98.6027Z" fill="white"/>
<path d="M1535.63 98.7002C1530.24 98.7002 1524.85 102.288 1524.85 109.464C1524.85 114.846 1528.44 120.229 1535.63 120.229C1541.01 120.229 1546.4 114.846 1546.4 109.464C1546.4 102.288 1541.01 98.7002 1535.63 98.7002Z" fill="white"/>
<path d="M1487.13 98.7423C1481.75 98.7423 1476.36 104.124 1476.36 109.506C1476.36 114.888 1481.75 118.477 1487.13 118.477C1492.52 118.477 1497.91 114.888 1497.91 107.712C1497.91 100.536 1494.32 98.7423 1487.13 98.7423Z" fill="white"/>
<path d="M1440.43 98.7002C1435.04 98.7002 1429.66 102.288 1429.66 109.464C1429.66 114.846 1433.25 120.229 1440.43 120.229C1445.82 120.229 1451.21 114.846 1451.21 109.464C1449.41 102.288 1445.82 98.7002 1440.43 98.7002Z" fill="white"/>
<path d="M1391.97 98.6027C1386.58 98.6027 1382.99 102.191 1382.99 107.573C1382.99 112.955 1386.58 116.543 1391.97 116.543C1397.36 116.543 1400.95 112.955 1400.95 107.573C1400.95 102.191 1397.36 98.6027 1391.97 98.6027Z" fill="white"/>
<path d="M1343.47 98.6027C1338.09 98.6027 1334.49 102.191 1334.49 107.573C1334.49 112.955 1338.09 116.543 1343.47 116.543C1348.86 116.543 1352.46 112.955 1352.46 107.573C1352.46 103.985 1348.86 98.6027 1343.47 98.6027Z" fill="white"/>
<path d="M1296.78 100.536C1291.39 100.536 1287.8 104.124 1287.8 109.506C1287.8 114.888 1291.39 118.477 1296.78 118.477C1302.16 118.477 1305.76 114.888 1305.76 109.506C1303.96 104.124 1300.37 100.536 1296.78 100.536Z" fill="white"/>
<path d="M1248.28 100.451C1244.69 100.451 1241.1 104.039 1241.1 107.627C1241.1 111.215 1244.69 114.803 1248.28 114.803C1251.88 114.803 1255.47 111.215 1255.47 107.627C1255.47 104.039 1251.88 100.451 1248.28 100.451Z" fill="white"/>
<path d="M1199.78 100.451C1196.18 100.451 1192.59 104.039 1192.59 107.627C1192.59 111.215 1196.18 114.803 1199.78 114.803C1203.37 114.803 1206.96 113.009 1206.96 107.627C1206.96 104.039 1203.37 100.451 1199.78 100.451Z" fill="white"/>
<path d="M1151.28 100.451C1147.69 100.451 1144.1 104.039 1144.1 107.627C1144.1 111.215 1147.69 114.803 1151.28 114.803C1154.87 114.803 1158.47 113.009 1158.47 107.627C1158.47 104.039 1156.67 100.451 1151.28 100.451Z" fill="white"/>
<path d="M1104.58 102.191C1100.99 102.191 1097.4 105.779 1097.4 109.367C1097.4 112.955 1100.99 116.543 1104.58 116.543C1108.18 116.543 1111.77 112.955 1111.77 109.367C1109.97 103.985 1108.18 102.191 1104.58 102.191Z" fill="white"/>
<path d="M1056.09 102.245C1052.49 102.245 1050.7 105.833 1050.7 107.627C1050.7 111.215 1054.29 114.803 1056.09 114.803C1059.68 114.803 1061.47 111.215 1061.47 107.627C1063.27 104.039 1059.68 102.245 1056.09 102.245Z" fill="white"/>
<path d="M1007.59 102.287C1004 102.287 1002.2 104.081 1002.2 107.669C1002.2 111.257 1004 113.051 1007.59 113.051C1011.19 113.051 1012.98 111.257 1012.98 107.669C1014.78 105.875 1011.19 102.287 1007.59 102.287Z" fill="white"/>
<path d="M960.883 102.287C957.291 102.287 955.495 104.081 955.495 107.669C955.495 111.257 957.291 113.051 960.883 113.051C964.475 113.051 966.271 111.257 966.271 107.669C966.271 105.875 962.679 102.287 960.883 102.287Z" fill="white"/>
<path d="M912.391 104.039C908.799 104.039 907.003 105.833 907.003 109.421C907.003 113.009 908.799 114.803 912.391 114.803C915.983 114.803 917.779 113.009 917.779 109.421C917.779 105.833 915.983 104.039 912.391 104.039Z" fill="white"/>
<path d="M863.897 104.039C860.305 104.039 858.509 105.833 858.509 109.421C858.509 113.009 860.305 114.803 863.897 114.803C867.489 114.803 869.285 111.215 869.285 107.627C869.285 105.833 867.489 104.039 863.897 104.039Z" fill="white"/>
<path d="M815.389 104.039C813.593 104.039 810.001 105.833 810.001 109.421C810.001 111.215 811.797 114.803 815.389 114.803C817.185 114.803 820.777 113.009 820.777 109.421C820.777 105.833 818.981 104.039 815.389 104.039Z" fill="white"/>
<path d="M768.745 104.039C766.949 104.039 763.356 105.833 763.356 109.421C763.356 111.215 765.153 114.803 768.745 114.803C770.541 114.803 774.133 113.009 774.133 109.421C772.337 105.833 770.541 104.039 768.745 104.039Z" fill="white"/>
<path d="M720.238 104.117C718.442 104.117 716.646 105.911 716.646 107.705C716.646 109.499 718.442 111.293 720.238 111.293C722.034 111.293 723.83 109.499 723.83 107.705C723.83 105.911 722.034 104.117 720.238 104.117Z" fill="white"/>
<path d="M671.742 104.117C669.946 104.117 668.15 105.911 668.15 107.705C668.15 109.499 669.946 111.293 671.742 111.293C673.538 111.293 675.334 109.499 675.334 107.705C677.131 105.911 675.334 104.117 671.742 104.117Z" fill="white"/>
<path d="M625.045 104.115C623.249 104.115 621.452 105.909 621.452 107.703C621.452 109.497 623.249 111.291 625.045 111.291C626.841 111.291 628.637 109.497 628.637 107.703C628.637 105.909 626.841 104.115 625.045 104.115Z" fill="white"/>
<path d="M576.552 104.117C574.756 104.117 572.96 105.911 572.96 107.705C572.96 109.499 574.756 111.293 576.552 111.293C578.348 111.293 580.145 109.499 580.145 107.705C580.145 105.911 578.348 104.117 576.552 104.117Z" fill="white"/>
<path d="M528.045 105.875C526.249 105.875 524.452 107.669 524.452 109.463C524.452 111.257 526.249 113.051 528.045 113.051C529.841 113.051 531.637 111.257 531.637 109.463C531.637 105.875 529.841 105.875 528.045 105.875Z" fill="white"/>
<path d="M479.55 105.875C477.754 105.875 475.958 107.669 475.958 109.463C475.958 111.257 477.754 113.051 479.55 113.051C481.346 113.051 483.143 109.463 483.143 107.669C483.143 105.875 481.346 105.875 479.55 105.875Z" fill="white"/>
<path d="M432.851 105.875C431.055 105.875 429.259 107.669 429.259 109.463C429.259 111.257 431.055 113.051 432.851 113.051C434.647 113.051 436.443 111.257 436.443 109.463C434.647 107.669 434.647 105.875 432.851 105.875Z" fill="white"/>
<path d="M384.36 105.775C382.564 105.775 382.564 107.569 382.564 107.569C382.564 109.363 384.36 109.363 384.36 109.363C386.156 109.363 386.156 107.569 386.156 107.569C386.156 107.569 386.156 105.775 384.36 105.775Z" fill="white"/>
<path d="M335.851 105.907C334.055 105.907 334.055 107.701 334.055 107.701C334.055 109.495 335.851 109.495 335.851 109.495C337.647 111.289 339.443 109.495 339.443 107.701C339.443 107.701 337.647 105.907 335.851 105.907Z" fill="white"/>
<path d="M289.153 105.775C287.357 105.775 287.357 107.569 287.357 107.569C287.357 109.363 287.357 109.363 289.153 109.363C290.949 109.363 290.949 109.363 290.949 107.569L289.153 105.775Z" fill="white"/>
<path d="M240.686 105.775C238.89 107.569 238.89 105.775 240.686 105.775C238.89 107.569 238.89 109.363 240.686 109.363C240.686 109.363 242.482 109.363 240.686 105.775C240.686 105.775 242.482 107.569 240.686 105.775Z" fill="white"/>
<path d="M192.171 107.705C192.171 107.705 190.374 107.705 192.171 107.705C190.374 109.499 192.171 111.293 192.171 111.293C193.967 109.499 193.967 109.499 192.171 107.705C193.967 107.705 193.967 107.705 192.171 107.705Z" fill="white"/>
<path d="M143.712 107.569L143.712 109.363L145.508 107.569L143.712 107.569Z" fill="white"/>
<path d="M97 107.571L95.2039 107.571L97 109.365L97 107.571Z" fill="white"/>
<path d="M1871.5 59.2197L1871.5 61.0137L1873.3 61.0137L1871.5 59.2197Z" fill="white"/>
<path d="M1824.81 59.1717C1823.01 59.1717 1823.01 59.1717 1824.81 59.1717C1823.01 60.9657 1823.01 62.7598 1824.81 62.7598C1824.81 62.7598 1824.81 60.9657 1824.81 59.1717Z" fill="white"/>
<path d="M1776.31 57.3415C1774.51 57.3415 1772.72 59.1355 1772.72 60.9295C1772.72 62.7236 1774.51 64.5176 1776.31 64.5176C1778.11 64.5176 1779.9 62.7236 1779.9 60.9295C1779.9 59.1355 1778.11 57.3415 1776.31 57.3415Z" fill="white"/>
<path d="M1727.81 55.6812C1724.22 55.6812 1722.42 57.4752 1722.42 61.0633C1722.42 64.6513 1724.22 66.4453 1727.81 66.4453C1731.41 66.4453 1733.2 64.6513 1733.2 61.0633C1733.2 57.4752 1731.41 55.6812 1727.81 55.6812Z" fill="white"/>
<path d="M1679.32 53.851C1675.35 53.851 1672.13 57.0638 1672.13 61.027C1672.13 64.9903 1675.35 68.2031 1679.32 68.2031C1683.29 68.2031 1686.5 64.9903 1686.5 61.027C1686.5 57.0638 1683.29 53.851 1679.32 53.851Z" fill="white"/>
<path d="M1632.62 51.9973C1627.23 51.9973 1623.63 55.5853 1623.63 60.9674C1623.63 66.3494 1627.23 69.9375 1632.62 69.9375C1638 69.9375 1641.6 66.3494 1641.6 60.9674C1641.6 55.5853 1636.21 51.9973 1632.62 51.9973Z" fill="white"/>
<path d="M1584.12 50.167C1578.73 50.167 1573.34 55.5491 1573.34 60.9312C1573.34 66.3132 1578.73 71.6953 1584.12 71.6953C1589.51 71.6953 1594.9 66.3132 1594.9 60.9312C1594.9 55.5491 1589.51 50.167 1584.12 50.167Z" fill="white"/>
<path d="M1535.63 48.4092C1530.24 48.4092 1524.85 53.7913 1524.85 59.1733C1524.85 64.5554 1530.24 69.9375 1535.63 69.9375C1541.01 69.9375 1546.4 64.5554 1546.4 59.1733C1546.4 53.7913 1542.81 48.4092 1535.63 48.4092Z" fill="white"/>
<path d="M1487.14 48.4092C1479.95 48.4092 1476.36 53.7913 1476.36 59.1733C1476.36 66.3494 1481.75 69.9375 1487.14 69.9375C1494.32 69.9375 1497.91 64.5554 1497.91 59.1733C1499.71 53.7913 1494.32 48.4092 1487.14 48.4092Z" fill="white"/>
<path d="M1440.43 48.4092C1435.04 48.4092 1429.66 53.7913 1429.66 59.1733C1429.66 64.5554 1435.04 69.9375 1440.43 69.9375C1445.82 69.9375 1451.21 64.5554 1451.21 59.1733C1451.21 53.7913 1445.82 48.4092 1440.43 48.4092Z" fill="white"/>
<path d="M1391.98 50.167C1386.59 50.167 1381.2 53.7551 1381.2 60.9312C1381.2 66.3132 1386.59 71.6953 1391.98 71.6953C1397.37 71.6953 1402.76 66.3132 1402.76 60.9312C1402.76 53.7551 1397.37 50.167 1391.98 50.167Z" fill="white"/>
<path d="M1343.47 50.167C1338.09 50.167 1332.7 55.5491 1332.7 60.9312C1332.7 66.3132 1338.09 71.6953 1343.47 71.6953C1348.86 71.6953 1354.25 66.3132 1354.25 60.9312C1354.25 55.5491 1350.66 50.167 1343.47 50.167Z" fill="white"/>
<path d="M1296.78 51.9973C1291.82 51.9973 1287.8 56.0133 1287.8 60.9674C1287.8 65.9214 1291.82 69.9375 1296.78 69.9375C1301.74 69.9375 1305.76 65.9214 1305.76 60.9674C1305.76 56.0133 1301.74 51.9973 1296.78 51.9973Z" fill="white"/>
<path d="M1248.28 51.9973C1242.89 51.9973 1239.3 55.5853 1239.3 60.9674C1239.3 66.3494 1242.89 69.9375 1248.28 69.9375C1253.67 69.9375 1257.26 66.3494 1257.26 60.9674C1257.26 55.5853 1253.67 51.9973 1248.28 51.9973Z" fill="white"/>
<path d="M1199.79 51.9973C1194.4 51.9973 1190.81 55.5853 1190.81 60.9674C1190.81 66.3494 1194.4 69.9375 1199.79 69.9375C1205.18 69.9375 1208.77 66.3494 1208.77 60.9674C1208.77 55.5853 1205.18 51.9973 1199.79 51.9973Z" fill="white"/>
<path d="M1151.28 51.9973C1146.32 51.9973 1142.3 56.0133 1142.3 60.9674C1142.3 65.9214 1146.32 69.9375 1151.28 69.9375C1156.24 69.9375 1160.26 65.9214 1160.26 60.9674C1160.26 56.0133 1156.24 51.9973 1151.28 51.9973Z" fill="white"/>
<path d="M1104.58 52.0932C1100.99 52.0932 1097.4 55.6812 1097.4 59.2692C1097.4 62.8573 1100.99 66.4453 1104.58 66.4453C1108.18 66.4453 1111.77 62.8573 1111.77 59.2692C1111.77 55.6812 1108.18 52.0932 1104.58 52.0932Z" fill="white"/>
<path d="M1056.09 53.851C1052.5 53.851 1048.9 57.439 1048.9 61.027C1048.9 64.6151 1052.5 68.2031 1056.09 68.2031C1059.68 68.2031 1063.27 64.6151 1063.27 61.027C1063.27 55.645 1059.68 53.851 1056.09 53.851Z" fill="white"/>
<path d="M1007.58 53.851C1003.99 53.851 1000.4 57.439 1000.4 61.027C1000.4 64.6151 1003.99 68.2031 1007.58 68.2031C1011.18 68.2031 1014.77 64.6151 1014.77 61.027C1014.77 57.439 1011.18 53.851 1007.58 53.851Z" fill="white"/>
<path d="M960.882 53.851C957.29 53.851 953.698 57.439 953.698 61.027C953.698 64.6151 957.29 68.2031 960.882 68.2031C964.474 68.2031 968.066 64.6151 968.066 61.027C966.27 57.439 964.474 53.851 960.882 53.851Z" fill="white"/>
<path d="M912.391 53.7535C908.799 53.7535 907.003 55.5475 907.003 59.1355C907.003 62.7236 908.799 64.5176 912.391 64.5176C915.983 64.5176 917.779 62.7236 917.779 59.1355C917.779 57.3415 915.983 53.7535 912.391 53.7535Z" fill="white"/>
<path d="M863.897 55.6812C860.305 55.6812 858.509 57.4752 858.509 61.0633C858.509 64.6513 860.305 66.4453 863.897 66.4453C867.489 66.4453 869.285 62.8573 869.285 61.0633C869.285 57.4752 867.489 55.6812 863.897 55.6812Z" fill="white"/>
<path d="M815.398 55.6812C811.806 55.6812 810.01 57.4752 810.01 61.0633C810.01 64.6513 811.806 66.4453 815.398 66.4453C818.99 66.4453 820.786 64.6513 820.786 61.0633C822.582 57.4752 818.99 55.6812 815.398 55.6812Z" fill="white"/>
<path d="M768.745 55.6812C765.769 55.6812 763.356 58.0908 763.356 61.0633C763.356 64.0357 765.769 66.4453 768.745 66.4453C771.72 66.4453 774.133 64.0357 774.133 61.0633C774.133 58.0908 771.72 55.6812 768.745 55.6812Z" fill="white"/>
<path d="M720.237 55.6812C716.645 55.6812 714.849 57.4752 714.849 61.0633C714.849 64.6513 716.645 66.4453 720.237 66.4453C723.829 66.4453 725.625 64.6513 725.625 61.0633C725.625 57.4752 723.829 55.6812 720.237 55.6812Z" fill="white"/>
<path d="M671.745 55.6812C669.949 55.6812 666.356 57.4752 666.356 61.0633C666.356 62.8573 668.153 66.4453 671.745 66.4453C673.541 66.4453 677.133 64.6513 677.133 61.0633C677.133 57.4752 675.337 55.6812 671.745 55.6812Z" fill="white"/>
<path d="M625.043 55.6812C623.247 55.6812 619.655 57.4752 619.655 61.0633C619.655 62.8573 621.451 66.4453 625.043 66.4453C626.839 66.4453 630.432 64.6513 630.432 61.0633C628.636 57.4752 626.839 55.6812 625.043 55.6812Z" fill="white"/>
<path d="M576.552 55.5837C574.756 55.5837 572.96 57.3777 572.96 59.1717C572.96 60.9657 574.756 62.7598 576.552 62.7598C578.348 62.7598 580.145 62.7598 580.145 60.9657C580.145 57.3777 578.348 55.5837 576.552 55.5837Z" fill="white"/>
<path d="M528.045 57.3415C526.061 57.3415 524.452 58.9479 524.452 60.9295C524.452 62.9112 526.061 64.5176 528.045 64.5176C530.028 64.5176 531.637 62.9112 531.637 60.9295C531.637 58.9479 530.028 57.3415 528.045 57.3415Z" fill="white"/>
<path d="M479.55 57.3415C477.566 57.3415 475.958 58.9479 475.958 60.9295C475.958 62.9112 477.566 64.5176 479.55 64.5176C481.534 64.5176 483.143 62.9112 483.143 60.9295C483.143 58.9479 481.534 57.3415 479.55 57.3415Z" fill="white"/>
<path d="M432.851 57.3415C431.055 57.3415 429.259 59.1355 429.259 60.9295C429.259 62.7236 431.055 64.5176 432.851 64.5176C434.647 64.5176 436.443 62.7236 436.443 60.9295C436.443 59.1355 434.647 57.3415 432.851 57.3415Z" fill="white"/>
<path d="M384.359 57.3415C382.375 57.3415 380.767 58.9479 380.767 60.9295C380.767 62.9112 382.375 64.5176 384.359 64.5176C386.343 64.5176 387.951 62.9112 387.951 60.9295C387.951 58.9479 386.343 57.3415 384.359 57.3415Z" fill="white"/>
<path d="M335.864 57.4256C334.068 57.4256 334.068 59.2197 334.068 59.2197C334.068 61.0137 335.864 61.0137 335.864 61.0137C337.66 61.0137 337.66 59.2197 337.66 59.2197C339.456 59.2197 337.66 57.4256 335.864 57.4256Z" fill="white"/>
<path d="M289.153 59.1717C288.161 59.1717 287.357 59.9749 287.357 60.9657C287.357 61.9566 288.161 62.7598 289.153 62.7598C290.145 62.7598 290.949 61.9566 290.949 60.9657C290.949 59.9749 290.145 59.1717 289.153 59.1717Z" fill="white"/>
<path d="M240.659 59.1717C239.667 59.1717 238.863 59.9749 238.863 60.9657C238.863 61.9566 239.667 62.7598 240.659 62.7598C241.651 62.7598 242.455 61.9566 242.455 60.9657C242.455 59.9749 241.651 59.1717 240.659 59.1717Z" fill="white"/>
<path d="M192.171 59.1717C192.171 59.1717 190.374 59.1717 192.171 59.1717C190.374 60.9657 190.374 62.7598 192.171 62.7598C193.967 62.7598 193.967 60.9657 192.171 59.1717C193.967 59.1717 193.967 59.1717 192.171 59.1717Z" fill="white"/>
<path d="M143.712 59.1717C142.72 59.1717 141.916 59.9749 141.916 60.9657C141.916 61.9566 142.72 62.7598 143.712 62.7598C144.704 62.7598 145.508 61.9566 145.508 60.9657C145.508 59.9749 144.704 59.1717 143.712 59.1717Z" fill="white"/>
<path d="M97 59.2197L95.2039 61.0137L97 61.0137L97 59.2197Z" fill="white"/>
<path d="M1824.8 10.826C1823.81 10.826 1823.01 11.6292 1823.01 12.62C1823.01 13.6109 1823.81 14.4141 1824.8 14.4141C1825.8 14.4141 1826.6 13.6109 1826.6 12.62C1826.6 11.6292 1825.8 10.826 1824.8 10.826Z" fill="white"/>
<path d="M1776.31 8.98896C1774.51 8.98896 1772.72 10.783 1772.72 12.577C1772.72 14.371 1774.51 16.165 1776.31 16.165C1778.11 16.165 1779.9 14.371 1779.9 12.577C1779.9 10.783 1778.11 8.98896 1776.31 8.98896Z" fill="white"/>
<path d="M1727.81 7.14799C1724.22 7.14799 1722.42 8.94201 1722.42 12.5301C1722.42 16.1181 1724.22 17.9121 1727.81 17.9121C1731.41 17.9121 1733.2 16.1181 1733.2 12.5301C1733.2 8.94201 1731.41 7.14799 1727.81 7.14799Z" fill="white"/>
<path d="M1679.32 3.65844C1674.36 3.65844 1670.34 7.67449 1670.34 12.6285C1670.34 17.5826 1674.36 21.5986 1679.32 21.5986C1684.28 21.5986 1688.3 17.5826 1688.3 12.6285C1688.3 7.67448 1684.28 3.65844 1679.32 3.65844Z" fill="white"/>
<path d="M1632.63 1.80477C1627.24 1.80477 1621.85 7.18683 1621.85 12.5689C1621.85 17.951 1627.24 23.333 1632.63 23.333C1638.02 23.333 1643.4 17.951 1643.4 12.5689C1641.61 7.18683 1638.02 1.80477 1632.63 1.80477Z" fill="white"/>
<path d="M1584.12 -0.0245168C1576.93 -0.0245155 1571.55 5.35754 1571.55 12.5336C1571.55 19.7097 1576.93 25.0918 1584.12 25.0918C1591.3 25.0918 1596.69 19.7097 1596.69 12.5336C1596.69 5.35753 1591.3 -0.024518 1584.12 -0.0245168Z" fill="white"/>
<path d="M1535.62 -0.0245168C1528.44 -0.0245155 1523.05 5.35754 1523.05 12.5336C1523.05 19.7097 1528.44 25.0918 1535.62 25.0918C1542.81 25.0918 1548.2 19.7097 1548.2 12.5336C1548.2 5.35753 1542.81 -0.024518 1535.62 -0.0245168Z" fill="white"/>
<path d="M1487.16 -0.0245167C1479.98 -0.0245155 1474.59 5.35754 1474.59 12.5336C1474.59 19.7097 1479.98 25.0918 1487.16 25.0918C1494.35 25.0918 1499.73 19.7097 1499.73 12.5336C1501.53 5.35753 1494.35 -0.024518 1487.16 -0.0245167Z" fill="white"/>
<path d="M1440.43 -0.0245168C1433.25 -0.0245155 1427.86 5.35754 1427.86 12.5336C1427.86 19.7097 1433.25 25.0918 1440.43 25.0918C1447.62 25.0918 1453 19.7097 1453 12.5336C1453 5.35753 1447.62 -0.024518 1440.43 -0.0245168Z" fill="white"/>
<path d="M1391.94 -0.0245168C1384.75 -0.0245155 1379.36 5.35754 1379.36 12.5336C1379.36 19.7097 1384.75 25.0918 1391.94 25.0918C1399.12 25.0918 1404.51 19.7097 1404.51 12.5336C1404.51 5.35753 1399.12 -0.024518 1391.94 -0.0245168Z" fill="white"/>
<path d="M1343.48 1.80477C1336.3 1.80477 1332.71 7.18683 1332.71 12.5689C1332.71 19.745 1338.1 23.333 1343.48 23.333C1348.87 23.333 1356.06 19.745 1356.06 12.5689C1356.06 5.3928 1350.67 1.80477 1343.48 1.80477Z" fill="white"/>
<path d="M1296.77 1.80477C1291.38 1.80477 1286 7.18683 1286 12.5689C1286 17.951 1291.38 23.333 1296.77 23.333C1302.16 23.333 1307.55 17.951 1307.55 12.5689C1307.55 7.18682 1302.16 1.80477 1296.77 1.80477Z" fill="white"/>
<path d="M1248.28 1.80477C1242.89 1.80477 1237.5 7.18683 1237.5 12.5689C1237.5 17.951 1242.89 23.333 1248.28 23.333C1253.67 23.333 1259.06 17.951 1259.06 12.5689C1259.06 7.18682 1253.67 1.80477 1248.28 1.80477Z" fill="white"/>
<path d="M1199.79 3.65844C1194.4 3.65844 1190.81 7.24648 1190.81 12.6285C1190.81 18.0106 1194.4 21.5986 1199.79 21.5986C1205.17 21.5986 1208.77 18.0106 1208.77 12.6285C1210.56 7.24647 1205.17 3.65844 1199.79 3.65844Z" fill="white"/>
<path d="M1151.29 3.65844C1145.9 3.65844 1142.31 7.24648 1142.31 12.6285C1142.31 18.0106 1145.9 21.5986 1151.29 21.5986C1156.68 21.5986 1162.07 18.0106 1162.07 12.6285C1162.07 7.24647 1156.68 3.65844 1151.29 3.65844Z" fill="white"/>
<path d="M1104.58 3.65844C1099.19 3.65844 1095.6 7.24648 1095.6 12.6285C1095.6 18.0106 1099.19 21.5986 1104.58 21.5986C1109.97 21.5986 1113.56 18.0106 1113.56 12.6285C1113.56 7.24647 1108.17 3.65844 1104.58 3.65844Z" fill="white"/>
<path d="M1056.09 3.65844C1050.7 3.65844 1047.11 7.24648 1047.11 12.6285C1047.11 18.0106 1050.7 21.5986 1056.09 21.5986C1061.48 21.5986 1065.07 18.0106 1065.07 12.6285C1065.07 7.24647 1061.48 3.65844 1056.09 3.65844Z" fill="white"/>
<path d="M1007.6 5.30605C1004.01 5.30605 1000.42 8.89408 1000.42 12.4821C1000.42 16.0702 1004.01 19.6582 1007.6 19.6582C1011.19 19.6582 1014.78 16.0702 1014.78 12.4821C1016.58 8.89408 1012.99 5.30605 1007.6 5.30605Z" fill="white"/>
<path d="M960.882 5.30605C957.29 5.30605 953.698 8.89408 953.698 12.4821C953.698 16.0702 957.29 19.6582 960.882 19.6582C964.474 19.6582 968.066 16.0702 968.066 12.4821C968.066 8.89408 964.474 5.30605 960.882 5.30605Z" fill="white"/>
<path d="M912.39 5.30605C908.798 5.30605 905.206 8.89408 905.206 12.4821C905.206 16.0702 908.798 19.6582 912.39 19.6582C915.982 19.6582 919.574 16.0702 919.574 12.4821C919.574 8.89408 915.982 5.30605 912.39 5.30605Z" fill="white"/>
<path d="M863.894 5.30605C860.302 5.30605 856.71 8.89408 856.71 12.4821C856.71 16.0702 860.302 19.6582 863.894 19.6582C867.486 19.6582 871.078 16.0702 871.078 12.4821C871.078 8.89408 867.486 5.30605 863.894 5.30605Z" fill="white"/>
<path d="M815.398 7.14897C811.806 7.14897 810.01 10.737 810.01 12.531C810.01 16.1191 813.602 17.9131 815.398 17.9131C818.99 17.9131 820.786 14.325 820.786 12.531C822.582 8.94298 818.99 7.14897 815.398 7.14897Z" fill="white"/>
<path d="M768.745 7.14897C765.153 7.14897 763.356 8.94299 763.356 12.531C763.356 16.1191 765.153 17.9131 768.745 17.9131C772.337 17.9131 774.133 16.1191 774.133 12.531C774.133 8.94298 772.337 7.14897 768.745 7.14897Z" fill="white"/>
<path d="M720.237 7.14897C716.645 7.14897 714.849 8.94299 714.849 12.531C714.849 16.1191 716.645 17.9131 720.237 17.9131C723.829 17.9131 725.625 16.1191 725.625 12.531C725.625 8.94298 723.829 7.14897 720.237 7.14897Z" fill="white"/>
<path d="M671.745 7.14897C668.153 7.14897 666.356 8.94299 666.356 12.531C666.356 16.1191 668.153 17.9131 671.745 17.9131C675.337 17.9131 677.133 16.1191 677.133 12.531C677.133 8.94298 675.337 7.14897 671.745 7.14897Z" fill="white"/>
<path d="M625.043 7.14897C621.451 7.14897 619.655 8.94299 619.655 12.531C619.655 16.1191 621.451 17.9131 625.043 17.9131C628.636 17.9131 630.432 16.1191 630.432 12.531C628.636 8.94298 626.839 7.14897 625.043 7.14897Z" fill="white"/>
<path d="M576.551 7.14897C574.755 7.14897 571.163 8.94299 571.163 12.531C571.163 14.3251 572.959 17.9131 576.551 17.9131C578.347 17.9131 581.939 16.1191 581.939 12.531C580.143 10.737 578.347 7.14897 576.551 7.14897Z" fill="white"/>
<path d="M528.045 8.99091C526.249 8.99091 524.452 10.7849 524.452 12.579C524.452 14.373 526.249 16.167 528.045 16.167C529.841 16.167 531.637 14.373 531.637 12.579C531.637 10.7849 531.637 8.99091 528.045 8.99091Z" fill="white"/>
<path d="M479.547 8.99091C477.751 8.99091 475.955 10.7849 475.955 12.579C475.955 14.373 477.751 16.167 479.547 16.167C481.343 16.167 484.936 14.373 484.936 12.579C484.936 10.7849 483.139 8.99091 479.547 8.99091Z" fill="white"/>
<path d="M432.851 8.99091C430.867 8.99091 429.259 10.5973 429.259 12.579C429.259 14.5606 430.867 16.167 432.851 16.167C434.835 16.167 436.443 14.5606 436.443 12.579C436.443 10.5973 434.835 8.99091 432.851 8.99091Z" fill="white"/>
<path d="M384.359 8.99091C382.563 8.99091 380.767 10.7849 380.767 12.579C380.767 14.373 382.563 16.167 384.359 16.167C386.155 16.167 387.951 14.373 387.951 12.579C387.951 10.7849 386.155 8.99091 384.359 8.99091Z" fill="white"/>
<path d="M335.851 8.99091C334.055 8.99091 332.259 10.7849 332.259 12.579C332.259 14.373 334.055 16.167 335.851 16.167C337.647 16.167 339.443 14.373 339.443 12.579C339.443 10.7849 337.647 8.99091 335.851 8.99091Z" fill="white"/>
<path d="M289.153 10.826C287.357 10.826 287.357 12.62 287.357 12.62C287.357 14.4141 289.153 14.4141 289.153 14.4141C290.949 14.4141 290.949 12.62 290.949 12.62C290.949 10.826 289.153 10.826 289.153 10.826Z" fill="white"/>
<path d="M240.659 10.826C238.863 10.826 238.863 12.62 238.863 12.62C238.863 14.4141 240.659 14.4141 240.659 14.4141C242.455 14.4141 242.455 12.62 242.455 12.62C242.455 10.826 242.455 10.826 240.659 10.826Z" fill="white"/>
<path d="M192.171 10.826C192.171 10.826 190.374 10.826 192.171 10.826C190.374 14.4141 190.374 14.4141 192.171 14.4141C193.967 14.4141 193.967 14.4141 192.171 10.826C193.967 10.826 193.967 10.826 192.171 10.826Z" fill="white"/>
<path d="M143.712 10.826L143.712 12.62L143.712 14.4141L145.508 12.62L143.712 10.826Z" fill="white"/>
</g>
<defs>
<clipPath id="clip0_8471_9327">
<rect width="1920" height="540" fill="white" transform="translate(1920 540) rotate(180)"/>
</clipPath>
</defs>
</svg>
