<svg viewBox="0 0 48 48" fill="none" xmlns="http://www.w3.org/2000/svg"><path d="M18.65 13.124a1.529 1.529 0 1 0 0-3.057 1.529 1.529 0 0 0 0 3.057zM29.232 13.124a1.529 1.529 0 1 1 0-3.057 1.529 1.529 0 0 1 0 3.057zM22.177 9.597a1.529 1.529 0 1 0 0-3.058 1.529 1.529 0 0 0 0 3.058zM32.76 9.597a1.528 1.528 0 1 0 0-3.057 1.528 1.528 0 0 0 0 3.057zM15.122 16.651a1.529 1.529 0 1 0 0-3.057 1.529 1.529 0 0 0 0 3.057zM32.76 16.651a1.529 1.529 0 1 1 0-3.057 1.529 1.529 0 0 1 0 3.057zM25.704 34.288a1.529 1.529 0 1 0 0-3.057 1.529 1.529 0 0 0 0 3.057zM25.704 37.816a1.528 1.528 0 1 0 0-3.057 1.528 1.528 0 0 0 0 3.056zM25.704 41.343a1.529 1.529 0 1 0 0-3.057 1.529 1.529 0 0 0 0 3.057zM32.76 34.288a1.528 1.528 0 1 0 0-3.057 1.528 1.528 0 0 0 0 3.057zM32.76 37.816a1.529 1.529 0 1 0 0-3.057 1.529 1.529 0 0 0 0 3.057zM15.122 20.179a1.528 1.528 0 1 0 0-3.057 1.528 1.528 0 0 0 0 3.057zM32.76 20.179a1.529 1.529 0 1 1 0-3.058 1.529 1.529 0 0 1 0 3.058zM15.122 23.706a1.528 1.528 0 1 0 0-3.057 1.528 1.528 0 0 0 0 3.057zM32.76 23.706a1.529 1.529 0 1 1 0-3.057 1.529 1.529 0 0 1 0 3.057zM18.65 16.651a1.529 1.529 0 1 0 0-3.057 1.529 1.529 0 0 0 0 3.057zM29.232 16.651a1.529 1.529 0 1 1 0-3.057 1.529 1.529 0 0 1 0 3.057zM25.705 12.771a1.176 1.176 0 1 1 0-2.351 1.176 1.176 0 0 1 0 2.351zM29.584 19.826a1.176 1.176 0 1 1 0-2.352 1.176 1.176 0 0 1 0 2.352zM32.76 26.88a1.176 1.176 0 1 1 0-2.351 1.176 1.176 0 0 1 0 2.352zM36.287 37.463a1.176 1.176 0 1 1 0-2.352 1.176 1.176 0 0 1 0 2.352zM11.595 37.463a1.176 1.176 0 1 1 0-2.352 1.176 1.176 0 0 1 0 2.352zM18.65 5.481a.94.94 0 1 1 0-1.881.94.94 0 0 1 0 1.881zM29.232 5.481a.94.94 0 1 1 0-1.881.94.94 0 0 1 0 1.881zM25.704 5.481a.94.94 0 1 1 0-1.881.94.94 0 0 1 0 1.881zM22.177 5.481a.94.94 0 1 1 0-1.881.94.94 0 0 1 0 1.881zM22.177 12.771a1.176 1.176 0 1 1 0-2.351 1.176 1.176 0 0 1 0 2.351zM18.65 19.826a1.176 1.176 0 1 1 0-2.352 1.176 1.176 0 0 1 0 2.352zM15.123 26.88a1.176 1.176 0 1 1 0-2.35 1.176 1.176 0 0 1 0 2.35zM15.122 30.173a.94.94 0 1 1 0-1.881.94.94 0 0 1 0 1.88zM18.65 22.883a.706.706 0 1 1 0-1.411.706.706 0 0 1 0 1.411zM29.585 22.883a.705.705 0 1 1 0-1.411.705.705 0 0 1 0 1.411zM32.76 5.246a.705.705 0 1 1 0-1.41.705.705 0 0 1 0 1.41zM15.122 5.246a.705.705 0 1 1 0-1.41.705.705 0 0 1 0 1.41zM4.54 19.356a.705.705 0 1 1 0-1.411.705.705 0 0 1 0 1.41zM43.341 19.356a.705.705 0 1 1 0-1.411.705.705 0 0 1 0 1.41zM4.54 26.41a.706.706 0 1 1 0-1.41.706.706 0 0 1 0 1.41zM43.341 26.41a.705.705 0 1 1 0-1.41.705.705 0 0 1 0 1.41zM29.585 29.938a.705.705 0 1 1 0-1.411.705.705 0 0 1 0 1.41zM18.65 29.938a.705.705 0 1 1 0-1.411.705.705 0 0 1 0 1.41zM22.177 29.938a.705.705 0 1 1 0-1.411.705.705 0 0 1 0 1.41zM25.705 29.938a.705.705 0 1 1 0-1.411.705.705 0 0 1 0 1.41zM22.177 16.063a.94.94 0 1 1 0-1.88.94.94 0 0 1 0 1.88zM4.54 23.118a.94.94 0 1 1 0-1.881.94.94 0 0 1 0 1.881zM43.341 23.118a.94.94 0 1 1 0-1.881.94.94 0 0 1 0 1.881zM39.814 33.7a.94.94 0 1 1 0-1.881.94.94 0 0 1 0 1.881zM32.76 40.755a.94.94 0 1 1 0-1.881.94.94 0 0 1 0 1.881zM15.122 40.755a.94.94 0 1 1 0-1.881.94.94 0 0 1 0 1.881zM8.068 33.7a.94.94 0 1 1 0-1.881.94.94 0 0 1 0 1.881zM11.595 9.009a.94.94 0 1 1 0-1.882.94.94 0 0 1 0 1.882zM36.287 9.009a.94.94 0 1 1 0-1.882.94.94 0 0 1 0 1.882zM8.068 12.536a.94.94 0 1 1 0-1.881.94.94 0 0 1 0 1.881zM39.814 12.536a.94.94 0 1 1 0-1.881.94.94 0 0 1 0 1.881zM25.704 16.063a.94.94 0 1 1 0-1.881.94.94 0 0 1 0 1.881zM32.76 30.173a.94.94 0 1 1 0-1.881.94.94 0 0 1 0 1.88zM29.232 34.288a1.529 1.529 0 1 0 0-3.057 1.529 1.529 0 0 0 0 3.057zM29.232 37.816a1.529 1.529 0 1 0 0-3.058 1.529 1.529 0 0 0 0 3.057zM29.232 41.343a1.529 1.529 0 1 0 0-3.057 1.529 1.529 0 0 0 0 3.057zM36.287 34.288a1.529 1.529 0 1 0 0-3.057 1.529 1.529 0 0 0 0 3.057zM15.122 13.124a1.529 1.529 0 1 0 0-3.057 1.529 1.529 0 0 0 0 3.057zM32.76 13.124a1.529 1.529 0 1 1 0-3.057 1.529 1.529 0 0 1 0 3.057zM18.65 9.597a1.529 1.529 0 1 0 0-3.058 1.529 1.529 0 0 0 0 3.058zM29.232 9.596a1.529 1.529 0 1 0 0-3.057 1.529 1.529 0 0 0 0 3.057zM11.595 16.651a1.529 1.529 0 1 0 0-3.057 1.529 1.529 0 0 0 0 3.057zM36.286 16.651a1.529 1.529 0 1 1 0-3.057 1.529 1.529 0 0 1 0 3.057zM22.177 34.288a1.529 1.529 0 1 0 0-3.057 1.529 1.529 0 0 0 0 3.057zM22.177 37.816a1.529 1.529 0 1 0 0-3.058 1.529 1.529 0 0 0 0 3.058zM22.177 41.343a1.529 1.529 0 1 0 0-3.057 1.529 1.529 0 0 0 0 3.057zM11.595 20.179a1.529 1.529 0 1 0 0-3.058 1.529 1.529 0 0 0 0 3.058zM36.286 20.179a1.528 1.528 0 1 1 0-3.057 1.528 1.528 0 0 1 0 3.057zM11.595 23.706a1.529 1.529 0 1 0 0-3.057 1.529 1.529 0 0 0 0 3.057zM36.286 23.706a1.528 1.528 0 1 1 0-3.057 1.528 1.528 0 0 1 0 3.057zM11.595 27.233a1.529 1.529 0 1 0 0-3.057 1.529 1.529 0 0 0 0 3.057zM36.286 27.233a1.529 1.529 0 1 1 0-3.057 1.529 1.529 0 0 1 0 3.057zM11.595 30.76a1.529 1.529 0 1 0 0-3.056 1.529 1.529 0 0 0 0 3.057zM36.286 30.76a1.529 1.529 0 1 1 0-3.056 1.529 1.529 0 0 1 0 3.057zM15.122 34.288a1.528 1.528 0 1 0 0-3.057 1.528 1.528 0 0 0 0 3.057zM15.122 37.816a1.528 1.528 0 1 0 0-3.057 1.528 1.528 0 0 0 0 3.056zM11.595 13.124a1.529 1.529 0 1 0 0-3.057 1.529 1.529 0 0 0 0 3.057zM36.286 13.124a1.529 1.529 0 1 1 0-3.057 1.529 1.529 0 0 1 0 3.057zM15.122 9.596a1.528 1.528 0 1 0 0-3.057 1.528 1.528 0 0 0 0 3.057zM25.704 9.596a1.528 1.528 0 1 0 0-3.057 1.528 1.528 0 0 0 0 3.057zM8.068 16.651a1.529 1.529 0 1 0 0-3.057 1.529 1.529 0 0 0 0 3.057zM39.814 16.651a1.529 1.529 0 1 1 0-3.057 1.529 1.529 0 0 1 0 3.057zM18.65 34.288a1.529 1.529 0 1 0 0-3.057 1.529 1.529 0 0 0 0 3.057zM18.65 37.816a1.529 1.529 0 1 0 0-3.058 1.529 1.529 0 0 0 0 3.057zM18.65 41.343a1.529 1.529 0 1 0 0-3.057 1.529 1.529 0 0 0 0 3.057zM8.068 20.179a1.528 1.528 0 1 0 0-3.057 1.528 1.528 0 0 0 0 3.057zM39.814 20.179a1.529 1.529 0 1 1 0-3.057 1.529 1.529 0 0 1 0 3.057zM8.068 23.706a1.528 1.528 0 1 0 0-3.057 1.528 1.528 0 0 0 0 3.057zM39.814 23.706a1.529 1.529 0 1 1 0-3.057 1.529 1.529 0 0 1 0 3.057zM8.068 27.233a1.529 1.529 0 1 0 0-3.057 1.529 1.529 0 0 0 0 3.057zM39.814 27.233a1.529 1.529 0 1 1 0-3.057 1.529 1.529 0 0 1 0 3.057zM8.068 30.76a1.529 1.529 0 1 0 0-3.056 1.529 1.529 0 0 0 0 3.057zM39.814 30.76a1.529 1.529 0 1 1 0-3.056 1.529 1.529 0 0 1 0 3.057zM11.595 34.288a1.529 1.529 0 1 0 0-3.057 1.529 1.529 0 0 0 0 3.057zM22.177 26.058a.353.353 0 1 0 0-.706.353.353 0 0 0 0 .706zM22.177 22.53a.353.353 0 1 0 0-.705.353.353 0 0 0 0 .705zM22.177 19.003a.353.353 0 1 0 0-.705.353.353 0 0 0 0 .705zM25.704 26.058a.353.353 0 1 0 0-.706.353.353 0 0 0 0 .706zM29.467 26.293a.588.588 0 1 0 0-1.176.588.588 0 0 0 0 1.176zM4.54 29.82a.588.588 0 1 0 0-1.176.588.588 0 0 0 0 1.176zM8.067 36.875a.588.588 0 1 0 0-1.176.588.588 0 0 0 0 1.176zM39.814 36.875a.588.588 0 1 1 0-1.176.588.588 0 0 1 0 1.176zM39.814 8.656a.588.588 0 1 1 0-1.176.588.588 0 0 1 0 1.176zM8.068 8.656a.588.588 0 1 1 0-1.176.588.588 0 0 1 0 1.176zM11.595 40.402a.588.588 0 1 0 0-1.175.588.588 0 0 0 0 1.175zM36.287 40.402a.588.588 0 1 1 0-1.175.588.588 0 0 1 0 1.175zM25.705 44.4a.588.588 0 1 1 0-1.176.588.588 0 0 1 0 1.176zM22.177 44.4a.588.588 0 1 1 0-1.176.588.588 0 0 1 0 1.176zM36.287 5.129a.588.588 0 1 1 0-1.176.588.588 0 0 1 0 1.176zM11.595 5.128a.588.588 0 1 1 0-1.175.588.588 0 0 1 0 1.175zM43.342 29.82a.588.588 0 1 0 0-1.176.588.588 0 0 0 0 1.176zM43.342 15.71a.588.588 0 1 0 0-1.175.588.588 0 0 0 0 1.176zM4.54 15.71a.588.588 0 1 0 0-1.175.588.588 0 0 0 0 1.176zM18.65 26.293a.588.588 0 1 0 0-1.176.588.588 0 0 0 0 1.176zM25.704 22.53a.353.353 0 1 0 0-.705.353.353 0 0 0 0 .705zM25.704 19.003a.353.353 0 1 0 0-.705.353.353 0 0 0 0 .705zM4.54 33.112a.353.353 0 1 0 0-.705.353.353 0 0 0 0 .705zM4.54 36.64a.353.353 0 1 0 0-.706.353.353 0 0 0 0 .706zM4.54 40.167a.353.353 0 1 0 0-.705.353.353 0 0 0 0 .705zM8.068 40.167a.353.353 0 1 0 0-.705.353.353 0 0 0 0 .705zM8.068 43.93a.353.353 0 1 0 0-.706.353.353 0 0 0 0 .706zM39.814 43.93a.353.353 0 1 1 0-.706.353.353 0 0 1 0 .706zM39.814 40.167a.353.353 0 1 1 0-.705.353.353 0 0 1 0 .705zM15.123 43.93a.353.353 0 1 0 0-.706.353.353 0 0 0 0 .706zM32.76 43.93a.353.353 0 1 1 0-.706.353.353 0 0 1 0 .706zM18.65 43.93a.353.353 0 1 0 0-.706.353.353 0 0 0 0 .706zM29.232 43.93a.353.353 0 1 1 0-.706.353.353 0 0 1 0 .706zM4.54 43.93a.353.353 0 1 0 0-.706.353.353 0 0 0 0 .706zM43.342 43.93a.353.353 0 1 1 0-.706.353.353 0 0 1 0 .706zM43.342 33.112a.353.353 0 1 1 0-.705.353.353 0 0 1 0 .705zM43.342 11.948a.353.353 0 1 1 0-.705.353.353 0 0 1 0 .705zM43.342 8.42a.353.353 0 1 1 0-.705.353.353 0 0 1 0 .706zM43.342 4.893a.353.353 0 1 1 0-.705.353.353 0 0 1 0 .705zM8.067 4.893a.353.353 0 1 1 0-.705.353.353 0 0 1 0 .705zM39.814 4.893a.353.353 0 1 1 0-.705.353.353 0 0 1 0 .705zM4.54 4.893a.353.353 0 1 1 0-.705.353.353 0 0 1 0 .705zM4.54 8.42a.353.353 0 1 1 0-.705.353.353 0 0 1 0 .706zM4.54 11.948a.353.353 0 1 1 0-.705.353.353 0 0 1 0 .705zM43.342 36.64a.353.353 0 1 1 0-.706.353.353 0 0 1 0 .706zM43.342 40.167a.353.353 0 1 1 0-.705.353.353 0 0 1 0 .705zM11.595 43.93a.353.353 0 1 0 0-.706.353.353 0 0 0 0 .706zM36.287 43.93a.353.353 0 1 1 0-.706.353.353 0 0 1 0 .706z" fill="#fff"/></svg>