<svg viewBox="0 0 49 48" fill="none" xmlns="http://www.w3.org/2000/svg"><path d="M36.974 26.84a1.397 1.397 0 1 1 1.4-1.392 1.407 1.407 0 0 1-1.4 1.392zM20.229 28.508a1.398 1.398 0 1 1 1.383 1.408 1.407 1.407 0 0 1-1.383-1.408zM30.858 26.84a1.398 1.398 0 1 1 1.395-1.396 1.407 1.407 0 0 1-1.395 1.396zM21.62 20.968a1.398 1.398 0 1 1-1.391 1.4 1.406 1.406 0 0 1 1.391-1.4zM38.373 19.33a1.398 1.398 0 1 1-1.387-1.405 1.407 1.407 0 0 1 1.387 1.404zM29.178 22.372a1.398 1.398 0 1 1-1.387-1.404 1.407 1.407 0 0 1 1.387 1.404zM40.05 11.49a1.397 1.397 0 1 1 1.4-1.392 1.406 1.406 0 0 1-1.4 1.392zM33.94 20.968a1.398 1.398 0 1 1-1.405 1.386 1.407 1.407 0 0 1 1.405-1.386z" fill="#fff"/><path d="M38.373 22.37a1.398 1.398 0 1 1-1.388-1.402 1.406 1.406 0 0 1 1.388 1.402zM41.45 22.36a1.398 1.398 0 1 1-1.399-1.392 1.406 1.406 0 0 1 1.399 1.392zM18.544 26.84a1.398 1.398 0 1 1 1.404-1.387 1.407 1.407 0 0 1-1.404 1.387zM15.467 27.121a1.397 1.397 0 1 1-1.392 1.399 1.406 1.406 0 0 1 1.393-1.399zM26.1 25.45a1.397 1.397 0 1 1-1.384-1.406 1.406 1.406 0 0 1 1.384 1.407zM41.45 31.592a1.397 1.397 0 1 1-1.397-1.394 1.406 1.406 0 0 1 1.397 1.394zM36.98 32.993a1.397 1.397 0 1 1 1.393-1.398 1.407 1.407 0 0 1-1.394 1.398zM19.948 31.604a1.398 1.398 0 1 1-1.385-1.407 1.407 1.407 0 0 1 1.385 1.407zM13.793 37.755a1.397 1.397 0 1 1-1.387-1.405 1.407 1.407 0 0 1 1.387 1.405zM36.99 11.772a1.398 1.398 0 1 1-1.412 1.379 1.407 1.407 0 0 1 1.412-1.38zM13.794 31.592a1.398 1.398 0 1 1-1.397-1.395 1.408 1.408 0 0 1 1.397 1.395zM40.051 33.274a1.398 1.398 0 1 1-1.397 1.394 1.407 1.407 0 0 1 1.397-1.394zM26.1 16.24a1.397 1.397 0 1 1-1.399-1.392 1.407 1.407 0 0 1 1.4 1.392zM30.852 17.643a1.397 1.397 0 1 1 1.401-1.389 1.407 1.407 0 0 1-1.401 1.39zM16.87 34.67a1.398 1.398 0 1 1-1.394-1.396 1.406 1.406 0 0 1 1.394 1.396zM41.45 25.436a1.398 1.398 0 1 1-1.4-1.392 1.407 1.407 0 0 1 1.4 1.392zM9.32 33.274a1.397 1.397 0 1 1-1.397 1.394 1.406 1.406 0 0 1 1.397-1.394zM41.45 16.25a1.397 1.397 0 1 1-1.389-1.402 1.406 1.406 0 0 1 1.389 1.403z" fill="#fff"/><path d="M40.06 29.916a1.397 1.397 0 1 1 1.39-1.401 1.406 1.406 0 0 1-1.39 1.401zM19.948 10.088a1.398 1.398 0 1 1-1.398-1.393 1.407 1.407 0 0 1 1.398 1.393zM38.373 28.516a1.397 1.397 0 1 1-1.396-1.395 1.407 1.407 0 0 1 1.396 1.395zM26.1 10.1a1.398 1.398 0 1 1-1.387-1.405A1.407 1.407 0 0 1 26.1 10.1zM33.926 29.916a1.398 1.398 0 1 1 1.404-1.387 1.407 1.407 0 0 1-1.404 1.387zM32.253 10.095a1.397 1.397 0 1 1-1.392-1.4 1.407 1.407 0 0 1 1.392 1.4zM33.956 11.772a1.398 1.398 0 1 1-1.42 1.37 1.407 1.407 0 0 1 1.42-1.37zM35.33 19.331a1.398 1.398 0 1 1-1.384-1.406 1.406 1.406 0 0 1 1.384 1.406zM15.475 11.49a1.397 1.397 0 1 1 1.396-1.395 1.406 1.406 0 0 1-1.396 1.395zM23.024 10.095a1.398 1.398 0 1 1-1.39-1.4 1.406 1.406 0 0 1 1.39 1.4zM29.177 10.093a1.399 1.399 0 1 1-1.393-1.398 1.406 1.406 0 0 1 1.393 1.398zM33.931 11.49a1.397 1.397 0 1 1 1.4-1.391 1.407 1.407 0 0 1-1.4 1.391zM21.622 14.848a1.398 1.398 0 1 1-1.393 1.398 1.406 1.406 0 0 1 1.393-1.398z" fill="#fff"/><path d="M27.783 14.567a1.397 1.397 0 1 1 1.395-1.396 1.407 1.407 0 0 1-1.395 1.396zM29.177 16.243a1.397 1.397 0 1 1-1.396-1.395 1.407 1.407 0 0 1 1.396 1.395zM23.024 13.17a1.398 1.398 0 1 1-1.393-1.398 1.407 1.407 0 0 1 1.393 1.397zM27.787 17.925a1.398 1.398 0 1 1-1.405 1.386 1.407 1.407 0 0 1 1.405-1.386zM35.33 16.24a1.397 1.397 0 1 1-1.399-1.392 1.407 1.407 0 0 1 1.4 1.392zM26.1 19.323a1.398 1.398 0 1 1-1.392-1.398 1.407 1.407 0 0 1 1.393 1.398zM30.85 17.925a1.398 1.398 0 1 1-1.392 1.4 1.407 1.407 0 0 1 1.392-1.4zM27.786 24.044a1.398 1.398 0 1 1-1.404 1.388 1.407 1.407 0 0 1 1.404-1.388zM21.627 26.84a1.397 1.397 0 1 1 1.397-1.394 1.406 1.406 0 0 1-1.397 1.394zM35.33 25.442a1.397 1.397 0 1 1-1.393-1.398 1.407 1.407 0 0 1 1.394 1.398zM16.87 37.771a1.397 1.397 0 1 1-1.37-1.42 1.406 1.406 0 0 1 1.37 1.42zM10.718 37.748a1.398 1.398 0 1 1-1.394-1.398 1.407 1.407 0 0 1 1.394 1.398zM15.468 30.198a1.397 1.397 0 1 1-1.393 1.397 1.407 1.407 0 0 1 1.393-1.397zM36.977 11.49a1.397 1.397 0 1 1 1.396-1.395 1.406 1.406 0 0 1-1.396 1.396zM24.706 14.567a1.398 1.398 0 1 1 1.395-1.396 1.407 1.407 0 0 1-1.395 1.396zM32.253 13.174a1.398 1.398 0 1 1-1.389-1.402 1.406 1.406 0 0 1 1.39 1.402zM38.373 16.243a1.397 1.397 0 1 1-1.396-1.395 1.407 1.407 0 0 1 1.396 1.395zM23.024 31.592a1.398 1.398 0 1 1-1.396-1.394 1.407 1.407 0 0 1 1.396 1.394zM19.948 13.168a1.398 1.398 0 1 1-1.394-1.396 1.407 1.407 0 0 1 1.394 1.396zM26.1 22.364a1.398 1.398 0 1 1-1.394-1.396 1.407 1.407 0 0 1 1.395 1.396z" fill="#fff"/><path d="M30.85 23.763a1.398 1.398 0 1 1 1.404-1.387 1.407 1.407 0 0 1-1.404 1.387zM40.059 11.772a1.398 1.398 0 1 1-1.405 1.386 1.408 1.408 0 0 1 1.405-1.386zM24.702 27.12a1.398 1.398 0 1 1-1.397 1.395 1.407 1.407 0 0 1 1.397-1.394zM12.394 33.274a1.397 1.397 0 1 1-1.396 1.396 1.408 1.408 0 0 1 1.396-1.396zM18.55 33.274a1.398 1.398 0 1 1-1.397 1.394 1.407 1.407 0 0 1 1.397-1.394zM41.45 19.321a1.399 1.399 0 1 1-1.395-1.396 1.407 1.407 0 0 1 1.395 1.396zM18.558 27.12a1.399 1.399 0 1 1-1.405 1.387 1.407 1.407 0 0 1 1.405-1.386zM21.647 17.93a1.393 1.393 0 1 1-.04 2.785 1.393 1.393 0 0 1 .04-2.785zM32.195 28.526a1.34 1.34 0 1 1-2.678-.015 1.34 1.34 0 0 1 2.678.015zM36.98 33.336a1.337 1.337 0 1 1-.009 2.673 1.337 1.337 0 0 1 .009-2.673zM33.926 32.93a1.335 1.335 0 1 1 .012-2.669 1.335 1.335 0 0 1-.012 2.67zM40.044 39.084a1.335 1.335 0 1 1 .016-2.67 1.335 1.335 0 0 1-.016 2.67zM15.474 14.483a1.315 1.315 0 1 1 1.216-.81 1.305 1.305 0 0 1-1.216.81zM19.864 16.253a1.314 1.314 0 1 1-.804-1.22 1.306 1.306 0 0 1 .804 1.22zM12.396 8.779a1.314 1.314 0 1 1-1.215.81 1.307 1.307 0 0 1 1.215-.81zM29.083 28.521a1.304 1.304 0 1 1-2.607-.005 1.304 1.304 0 0 1 2.607.005zM16.755 25.435a1.283 1.283 0 1 1-2.566.014 1.283 1.283 0 0 1 2.566-.014zM9.323 30.312a1.283 1.283 0 1 1-.004 2.566 1.283 1.283 0 0 1 .004-2.566zM19.833 22.375a1.282 1.282 0 1 1-.782-1.193 1.277 1.277 0 0 1 .782 1.193zM12.396 27.236a1.283 1.283 0 1 1 .001 2.567 1.283 1.283 0 0 1-.001-2.567zM13.67 40.833a1.273 1.273 0 1 1-2.546-.017 1.273 1.273 0 0 1 2.546.017zM9.307 42.098a1.273 1.273 0 1 1 .026-2.547 1.273 1.273 0 0 1-.026 2.547zM22.895 34.68a1.267 1.267 0 1 1-2.535-.017 1.267 1.267 0 0 1 2.535.018zM24.697 32.863a1.268 1.268 0 1 1 .01-2.536 1.268 1.268 0 0 1-.01 2.536zM19.818 37.757a1.27 1.27 0 1 1-1.255-1.277 1.274 1.274 0 0 1 1.255 1.277zM32.082 7.018a1.226 1.226 0 1 1-1.22-1.227 1.232 1.232 0 0 1 1.22 1.227zM41.277 7.021a1.226 1.226 0 1 1-1.216-1.23 1.232 1.232 0 0 1 1.216 1.23zM36.968 5.79a1.226 1.226 0 1 1-1.218 1.23 1.232 1.232 0 0 1 1.218-1.23zM13.623 7.009a1.226 1.226 0 1 1-1.23-1.218 1.232 1.232 0 0 1 1.23 1.218zM15.468 5.79a1.226 1.226 0 1 1-1.22 1.227 1.231 1.231 0 0 1 1.22-1.226zM19.775 7.012a1.225 1.225 0 1 1-2.45.008 1.225 1.225 0 0 1 2.45-.008zM21.621 8.242a1.225 1.225 0 1 1 .012-2.451 1.225 1.225 0 0 1-.012 2.45zM27.778 5.79a1.225 1.225 0 1 1-1.224 1.223 1.232 1.232 0 0 1 1.224-1.222zM24.695 8.242a1.226 1.226 0 1 1 1.233-1.214 1.231 1.231 0 0 1-1.233 1.214zM33.926 8.242a1.226 1.226 0 1 1 .011-2.452 1.226 1.226 0 0 1-.01 2.452zM15.477 42.016a1.19 1.19 0 1 1-.009-2.381 1.19 1.19 0 0 1 .009 2.38zM10.45 7.023a1.13 1.13 0 1 1-1.12-1.138 1.14 1.14 0 0 1 1.12 1.138zM19.633 19.347a1.084 1.084 0 1 1-2.168-.049 1.084 1.084 0 0 1 2.168.049zM6.237 36.731a1.017 1.017 0 1 1 .015 2.034 1.017 1.017 0 0 1-.015-2.034zM7.25 34.665a1.005 1.005 0 1 1-2.01.013 1.005 1.005 0 0 1 2.01-.013zM34.935 34.677a1.001 1.001 0 1 1-2.003-.01 1.001 1.001 0 0 1 2.003.01zM31.858 31.6a1.002 1.002 0 1 1-2.004-.009 1.002 1.002 0 0 1 2.004.008zM35.978 37.74a.998.998 0 1 1 .993 1.006 1.007 1.007 0 0 1-.993-1.007zM15.471 15.279a.967.967 0 1 1-.964.97.973.973 0 0 1 .964-.97zM13.358 13.167a.962.962 0 1 1-.96-.96.97.97 0 0 1 .96.96zM10.282 10.096a.961.961 0 1 1-.955-.965.97.97 0 0 1 .955.965zM40.996 40.83a.943.943 0 1 1-.577-.877.935.935 0 0 1 .577.877zM7.175 40.825a.93.93 0 1 1-.926-.93.94.94 0 0 1 .926.93zM12.392 24.53a.912.912 0 1 1-.841.567.905.905 0 0 1 .841-.567zM10.232 28.524a.912.912 0 1 1-.557-.848.904.904 0 0 1 .557.848zM14.56 22.35a.912.912 0 1 1 .548.854.905.905 0 0 1-.547-.854zM44.03 37.771a.903.903 0 1 1-1.805-.046.903.903 0 0 1 1.806.046zM43.135 35.574a.903.903 0 1 1-.012-1.806.903.903 0 0 1 .012 1.806zM43.127 12.267a.902.902 0 1 1 .003 1.805.902.902 0 0 1-.004-1.805zM42.226 19.315a.902.902 0 1 1 1.805.015.902.902 0 0 1-1.805-.015zM44.03 31.602a.902.902 0 1 1-1.804-.014.902.902 0 0 1 1.805.014zM44.03 16.243a.902.902 0 1 1-1.803.006.902.902 0 0 1 1.804-.006zM43.13 10.995a.903.903 0 1 1-.002-1.806.903.903 0 0 1 .002 1.806zM44.03 25.44a.902.902 0 1 1-1.804.005.902.902 0 0 1 1.805-.006zM44.03 28.526a.902.902 0 1 1-1.803-.015.902.902 0 0 1 1.804.015zM44.03 22.366a.903.903 0 1 1-1.805 0 .903.903 0 0 1 1.806 0zM21.631 36.858a.89.89 0 1 1-.01 1.78.89.89 0 0 1 .01-1.78zM28.67 31.587a.89.89 0 1 1-1.78.016.89.89 0 0 1 1.78-.016zM24.7 33.781a.89.89 0 1 1 .005 1.781.89.89 0 0 1-.004-1.78zM19.385 40.819a.835.835 0 1 1-1.67.012.835.835 0 0 1 1.67-.013zM43.133 7.809a.793.793 0 1 1 .788-.789.8.8 0 0 1-.788.789zM43.127 40.044a.78.78 0 1 1 .004 1.561.78.78 0 0 1-.004-1.56zM6.996 31.6a.751.751 0 1 1-1.503-.01.751.751 0 0 1 1.503.01zM12.389 15.51a.736.736 0 1 1 .016 1.472.736.736 0 0 1-.016-1.472zM10.056 13.177a.736.736 0 1 1-1.471-.015.736.736 0 0 1 1.47.015zM34.668 37.742a.735.735 0 1 1-1.471.013.735.735 0 0 1 1.47-.013zM16.209 19.33a.736.736 0 1 1-1.473-.015.736.736 0 0 1 1.473.014zM31.592 34.668a.736.736 0 1 1-1.47.007.736.736 0 0 1 1.47-.007zM24.7 37.017a.73.73 0 1 1-.728.725.74.74 0 0 1 .729-.725zM9.315 21.635a.73.73 0 1 1-.726.726.739.739 0 0 1 .726-.726zM10.05 16.254a.73.73 0 1 1-.714-.739.738.738 0 0 1 .714.739zM10.05 25.439a.73.73 0 1 1-.726-.727.738.738 0 0 1 .726.727zM13.127 22.37a.731.731 0 1 1-.718-.735.74.74 0 0 1 .718.735zM10.05 19.318a.73.73 0 1 1-.726-.726.739.739 0 0 1 .726.726zM31.587 37.753a.73.73 0 1 1-.718-.736.74.74 0 0 1 .718.736zM28.51 37.747a.73.73 0 1 1-.723-.73.74.74 0 0 1 .723.73zM28.51 34.667a.73.73 0 1 1-.727-.726.739.739 0 0 1 .727.726zM12.4 18.592a.732.732 0 0 1 .508 1.252.73.73 0 0 1-1.242-.533.74.74 0 0 1 .734-.72zM37.644 40.825a.67.67 0 1 1-1.338-.001.67.67 0 0 1 1.338.001zM22.294 40.828a.67.67 0 1 1-1.338-.007.67.67 0 0 1 1.338.007zM25.371 40.83a.67.67 0 1 1-1.338-.012.67.67 0 0 1 1.338.013zM28.449 40.825a.668.668 0 1 1-1.337 0 .668.668 0 0 1 1.337 0zM31.524 40.824a.669.669 0 1 1-1.337.001.669.669 0 0 1 1.337-.001zM34.601 40.827a.67.67 0 1 1-1.338-.005.67.67 0 0 1 1.338.005zM6.87 7.016a.626.626 0 1 1-.63-.625.634.634 0 0 1 .63.625zM6.776 25.438a.533.533 0 1 1-1.066.008.533.533 0 0 1 1.066-.008zM6.244 16.779a.533.533 0 1 1-.002-1.066.533.533 0 0 1 .002 1.066zM6.25 22.898a.533.533 0 1 1-.013-1.065.533.533 0 0 1 .013 1.066zM6.243 9.56a.533.533 0 1 1 0 1.066.533.533 0 0 1 0-1.066zM6.243 29.052a.533.533 0 1 1 .001-1.067.533.533 0 0 1 0 1.067zM6.776 19.327a.533.533 0 1 1-1.066-.01.533.533 0 0 1 1.066.01zM6.236 12.636a.533.533 0 1 1 .015 1.066.533.533 0 0 1-.015-1.066zM9.323 43.402a.5.5 0 1 1-.502.495.505.505 0 0 1 .502-.495zM12.398 43.402a.5.5 0 1 1-.5.498.505.505 0 0 1 .5-.498zM15.877 43.894a.403.403 0 1 1-.407-.396.398.398 0 0 1 .407.396zM6.248 44.263a.363.363 0 1 1 .358-.366.371.371 0 0 1-.358.366zM37.315 3.939a.339.339 0 1 1-.336-.339.332.332 0 0 1 .336.339zM33.929 3.6a.34.34 0 1 1-.337.338.33.33 0 0 1 .337-.338zM31.196 3.954a.34.34 0 1 1-.322-.353.333.333 0 0 1 .322.353zM27.773 3.6a.34.34 0 1 1-.333.341.333.333 0 0 1 .333-.34zM24.697 4.28a.34.34 0 1 1 .345-.33.332.332 0 0 1-.345.33zM21.966 3.937a.34.34 0 1 1-.338-.337.332.332 0 0 1 .338.337zM18.557 4.28a.34.34 0 1 1 .332-.344.332.332 0 0 1-.332.343zM15.479 4.28a.34.34 0 1 1 .334-.342.333.333 0 0 1-.334.341zM12.736 3.947a.34.34 0 1 1-.328-.347.331.331 0 0 1 .328.347zM8.982 3.916a.34.34 0 1 1 .31.362.333.333 0 0 1-.31-.362zM40.392 3.936a.34.34 0 1 1-.34-.336.332.332 0 0 1 .34.336zM18.563 43.635a.267.267 0 1 1-.279.253.27.27 0 0 1 .279-.253zM21.618 44.167a.266.266 0 1 1 .274-.258.27.27 0 0 1-.274.258zM24.969 43.895a.267.267 0 1 1-.273-.26.27.27 0 0 1 .273.26zM27.774 44.167a.265.265 0 1 1 .011-.53.265.265 0 0 1-.011.53zM31.122 43.897a.266.266 0 1 1-.27-.262.27.27 0 0 1 .27.262zM34.198 43.9a.266.266 0 1 1-.267-.265.27.27 0 0 1 .267.265zM37.241 43.895a.266.266 0 1 1-.272-.26.27.27 0 0 1 .272.26zM40.318 43.902a.266.266 0 1 1-.265-.267.27.27 0 0 1 .265.267zM43.136 44.167a.266.266 0 1 1 .258-.274.27.27 0 0 1-.258.274z" fill="#fff"/></svg>