<svg viewBox="0 0 49 48" fill="none" xmlns="http://www.w3.org/2000/svg"><path d="M17.792 25.593a1.518 1.518 0 1 1 1.408-.924 1.509 1.509 0 0 1-1.408.924zM19.511 30.526a1.517 1.517 0 1 1 1.505 1.525 1.509 1.509 0 0 1-1.505-1.525zM22.546 33.773a1.518 1.518 0 1 1-.923-1.41 1.508 1.508 0 0 1 .923 1.41z" fill="#fff"/><path d="M19.317 33.77a1.518 1.518 0 1 1-.925-1.408 1.508 1.508 0 0 1 .925 1.408z" fill="#fff"/><path d="M16.123 33.77a1.517 1.517 0 1 1-1.505-1.525 1.509 1.509 0 0 1 1.505 1.526z" fill="#fff"/><path d="M14.616 29.016a1.518 1.518 0 1 1-1.41.923 1.51 1.51 0 0 1 1.41-.923zM22.546 24.086a1.518 1.518 0 1 1-1.503-1.527 1.509 1.509 0 0 1 1.503 1.527zM16.282 30.526a1.517 1.517 0 1 1 1.506 1.525 1.507 1.507 0 0 1-1.506-1.525zM16.124 20.859a1.517 1.517 0 1 1-1.502-1.53 1.51 1.51 0 0 1 1.502 1.53zM17.79 22.365a1.517 1.517 0 1 1 1.527-1.504 1.509 1.509 0 0 1-1.526 1.504z" fill="#fff"/><path d="M22.546 20.85a1.517 1.517 0 1 1-1.51-1.52 1.508 1.508 0 0 1 1.51 1.52zM17.81 25.787a1.518 1.518 0 1 1-1.528 1.504 1.51 1.51 0 0 1 1.527-1.504zM14.615 22.559a1.517 1.517 0 1 1-1.526 1.504 1.509 1.509 0 0 1 1.526-1.504zM25.969 7.96a1.518 1.518 0 1 1 .925 1.407 1.51 1.51 0 0 1-.925-1.407z" fill="#fff"/><path d="M30.722 6.45a1.518 1.518 0 1 1-1.525 1.505 1.509 1.509 0 0 1 1.525-1.505zM32.426 7.955a1.518 1.518 0 1 1 .922 1.41 1.51 1.51 0 0 1-.922-1.41z" fill="#fff"/><path d="M37.166 9.485a1.517 1.517 0 1 1 1.524-1.507 1.509 1.509 0 0 1-1.524 1.507zM21.039 25.787a1.518 1.518 0 1 1-1.41.923 1.508 1.508 0 0 1 1.41-.923zM14.597 28.822a1.518 1.518 0 1 1 1.409-.923 1.508 1.508 0 0 1-1.41.923zM37.164 41.737a1.517 1.517 0 1 1 1.526-1.504 1.509 1.509 0 0 1-1.526 1.505zM35.461 40.223a1.518 1.518 0 1 1-.93-1.405 1.508 1.508 0 0 1 .93 1.405z" fill="#fff"/><path d="M30.705 41.737a1.518 1.518 0 1 1 1.409-.923 1.507 1.507 0 0 1-1.409.923zM27.477 41.737a1.517 1.517 0 1 1 1.527-1.503 1.508 1.508 0 0 1-1.527 1.503zM14.605 19.136a1.518 1.518 0 1 1 1.404-.931 1.51 1.51 0 0 1-1.404.93z" fill="#fff"/><path d="M19.317 17.63a1.517 1.517 0 1 1-1.501-1.529 1.508 1.508 0 0 1 1.501 1.529zM21.04 16.101a1.517 1.517 0 1 1-1.529 1.501 1.51 1.51 0 0 1 1.53-1.501zM19.307 14.432a1.509 1.509 0 1 1-3.017-.015 1.509 1.509 0 0 1 3.017.015zM14.607 15.933a1.508 1.508 0 1 1-.002-3.016 1.508 1.508 0 0 1 .002 3.016zM22.538 14.417a1.508 1.508 0 1 1-3.017.015 1.508 1.508 0 0 1 3.017-.015zM40.41 35.26a1.497 1.497 0 1 1 1.488-1.505 1.503 1.503 0 0 1-1.489 1.504z" fill="#fff"/><path d="M41.898 30.557a1.497 1.497 0 1 1-1.474-1.52 1.502 1.502 0 0 1 1.474 1.52zM41.898 20.848a1.497 1.497 0 1 1-1.496-1.497 1.503 1.503 0 0 1 1.496 1.497zM40.4 9.464a1.497 1.497 0 1 1 1.498-1.496A1.503 1.503 0 0 1 40.4 9.464zM41.898 14.45a1.497 1.497 0 1 1-1.471-1.522 1.502 1.502 0 0 1 1.47 1.522zM40.404 28.802a1.498 1.498 0 1 1 1.494-1.5 1.503 1.503 0 0 1-1.494 1.5zM41.898 40.243a1.497 1.497 0 1 1-1.474-1.52 1.502 1.502 0 0 1 1.474 1.52zM41.898 11.198a1.496 1.496 0 1 1-2.992-.004 1.496 1.496 0 0 1 2.992.004zM40.402 38.488a1.496 1.496 0 1 1-.001-2.992 1.496 1.496 0 0 1 0 2.992z" fill="#fff"/><path d="M40.377 25.572a1.496 1.496 0 1 1 .049-2.991 1.496 1.496 0 0 1-.05 2.991zM41.898 17.622a1.496 1.496 0 1 1-2.992-.007 1.496 1.496 0 0 1 2.992.007zM37.165 12.679a1.483 1.483 0 1 1 1.376-.905 1.476 1.476 0 0 1-1.376.905zM38.651 36.987a1.479 1.479 0 1 1-.918-1.367 1.471 1.471 0 0 1 .918 1.367zM38.566 14.42a1.394 1.394 0 1 1-1.404-1.39 1.403 1.403 0 0 1 1.404 1.39zM38.558 27.331a1.386 1.386 0 1 1-2.77-.052 1.386 1.386 0 0 1 2.77.052zM37.17 22.234a1.387 1.387 0 1 1 .006-2.774 1.387 1.387 0 0 1-.006 2.774zM37.199 22.69a1.386 1.386 0 1 1-.052 2.772 1.386 1.386 0 0 1 .052-2.772zM38.56 30.532a1.386 1.386 0 1 1-2.772.004 1.386 1.386 0 0 1 2.771-.004zM37.147 35.148a1.386 1.386 0 1 1 .052-2.772 1.386 1.386 0 0 1-.052 2.772zM38.56 17.615a1.387 1.387 0 1 1-2.774.006 1.387 1.387 0 0 1 2.773-.006zM35.315 11.195a1.37 1.37 0 1 1-2.742.001 1.37 1.37 0 0 1 2.742 0zM27.488 12.56a1.366 1.366 0 1 1 1.363-1.362 1.373 1.373 0 0 1-1.363 1.363zM30.72 9.83a1.365 1.365 0 1 1-1.37 1.358 1.373 1.373 0 0 1 1.37-1.357zM33.919 38.345a1.355 1.355 0 1 1 .051-2.71 1.355 1.355 0 0 1-.051 2.71zM25.599 7.973a1.34 1.34 0 1 1-.816-1.242 1.332 1.332 0 0 1 .816 1.242zM30.718 35.65a1.34 1.34 0 1 1-1.343 1.33 1.33 1.33 0 0 1 1.343-1.33zM28.826 36.997A1.34 1.34 0 1 1 27.5 35.65a1.332 1.332 0 0 1 1.326 1.346zM25.599 40.222a1.34 1.34 0 1 1-1.33-1.342 1.333 1.333 0 0 1 1.33 1.342zM11.39 16.32a1.299 1.299 0 1 1-.026 2.597 1.299 1.299 0 0 1 .027-2.598zM11.39 19.548a1.299 1.299 0 1 1-.025 2.598 1.299 1.299 0 0 1 .026-2.598zM12.676 24.082a1.299 1.299 0 1 1-2.598-.013 1.299 1.299 0 0 1 2.598.014zM11.39 28.604a1.299 1.299 0 1 1-.025-2.597 1.299 1.299 0 0 1 .025 2.597zM11.37 31.832a1.3 1.3 0 1 1 .016-2.598 1.3 1.3 0 0 1-.017 2.598zM11.362 35.061a1.298 1.298 0 1 1 .031-2.596 1.298 1.298 0 0 1-.031 2.596zM11.383 13.133a1.292 1.292 0 1 1-1.298 1.29 1.301 1.301 0 0 1 1.298-1.29zM24.262 9.93a1.267 1.267 0 1 1-1.176.778 1.26 1.26 0 0 1 1.177-.779zM25.52 36.996a1.264 1.264 0 1 1-2.528-.01 1.264 1.264 0 0 1 2.529.01zM27.494 5.876a1.138 1.138 0 1 1-.016-2.276 1.138 1.138 0 0 1 .016 2.276zM31.853 4.744a1.139 1.139 0 1 1-2.277-.012 1.139 1.139 0 0 1 2.277.012zM32.806 4.744a1.138 1.138 0 1 1 2.277-.012 1.138 1.138 0 0 1-2.277.012zM37.196 3.6a1.138 1.138 0 1 1-.046 2.276 1.138 1.138 0 0 1 .046-2.276zM40.395 3.615a1.123 1.123 0 1 1 .013 2.246 1.123 1.123 0 0 1-.013-2.246zM25.317 14.431a1.06 1.06 0 1 1-1.048-1.066 1.052 1.052 0 0 1 1.048 1.066zM16.748 36.989a1.052 1.052 0 1 1 2.105.006 1.052 1.052 0 0 1-2.105-.006zM23.206 33.76a1.052 1.052 0 1 1 2.103.006 1.052 1.052 0 0 1-2.103-.007zM15.657 36.993a1.051 1.051 0 1 1-2.102-.003 1.051 1.051 0 0 1 2.102.003zM23.206 17.615a1.052 1.052 0 1 1 2.103.007 1.052 1.052 0 0 1-2.103-.007zM25.309 24.073a1.051 1.051 0 1 1-2.103.006 1.051 1.051 0 0 1 2.103-.006zM24.253 28.356a1.052 1.052 0 1 1 .009-2.103 1.052 1.052 0 0 1-.01 2.103zM24.253 21.899a1.053 1.053 0 1 1 .009-2.106 1.053 1.053 0 0 1-.009 2.106zM25.309 30.532a1.05 1.05 0 1 1-2.102.004 1.05 1.05 0 0 1 2.102-.004zM22.08 36.993a1.051 1.051 0 1 1-2.103-.003 1.051 1.051 0 0 1 2.103.003zM15.628 11.19a1.023 1.023 0 1 1-.636-.944 1.015 1.015 0 0 1 .636.943zM17.809 10.173a1.023 1.023 0 1 1-.953.622 1.016 1.016 0 0 1 .953-.622zM22.052 11.191a1.022 1.022 0 1 1-1.027-1.018 1.015 1.015 0 0 1 1.027 1.018zM25.266 4.739a1.01 1.01 0 0 1-2 .193 1.009 1.009 0 0 1 .996-1.203 1.018 1.018 0 0 1 1.004 1.01zM11.377 36.034a.957.957 0 1 1-.957.958.95.95 0 0 1 .957-.958zM38.125 43.46a.951.951 0 1 1-.57-.885.945.945 0 0 1 .57.884zM33.937 44.4a.951.951 0 1 1 .882-.573.946.946 0 0 1-.883.573zM30.725 42.498a.95.95 0 1 1-.884.57.945.945 0 0 1 .884-.57zM27.477 44.4a.952.952 0 1 1 .019-1.903.952.952 0 0 1-.02 1.903zM41.344 43.445a.943.943 0 1 1-.941-.938.952.952 0 0 1 .941.938zM12.32 11.197a.942.942 0 1 1-.937-.943.951.951 0 0 1 .937.943zM33.969 13.565a.86.86 0 1 1-.05 1.718.86.86 0 0 1 .05-1.718zM33.949 34.602a.839.839 0 1 1 .834-.84.847.847 0 0 1-.834.84zM34.783 30.532a.839.839 0 1 1-.836-.838.846.846 0 0 1 .836.838zM33.942 18.458a.84.84 0 1 1 .841-.833.846.846 0 0 1-.841.833zM33.105 27.29a.84.84 0 1 1 .82.854.846.846 0 0 1-.82-.854zM24.265 44.288a.838.838 0 1 1-.016-1.677.838.838 0 0 1 .016 1.677zM34.783 20.845a.84.84 0 1 1-.837-.837.846.846 0 0 1 .837.837zM34.783 24.07a.84.84 0 1 1-.84-.833.846.846 0 0 1 .84.833zM31.515 14.42a.8.8 0 1 1-.795-.796.81.81 0 0 1 .795.797zM28.287 14.425a.8.8 0 1 1-.792-.8.81.81 0 0 1 .791.8zM43.632 16.846a.772.772 0 1 1-.003 1.545.772.772 0 0 1 .003-1.545zM44.403 33.755a.773.773 0 1 1-1.546.015.773.773 0 0 1 1.546-.015zM43.623 24.848a.772.772 0 1 1 .015-1.543.772.772 0 0 1-.014 1.543zM44.403 14.428a.773.773 0 1 1-1.545-.007.773.773 0 0 1 1.545.007zM44.403 27.312a.772.772 0 1 1-1.545-.014.772.772 0 0 1 1.545.014zM43.624 31.306a.773.773 0 1 1 .014-1.546.773.773 0 0 1-.014 1.546zM44.403 20.845a.772.772 0 1 1-1.545.004.772.772 0 0 1 1.545-.004zM44.403 36.99a.772.772 0 1 1-1.544.003.772.772 0 0 1 1.544-.003zM43.624 11.968a.773.773 0 1 1 .014-1.546.773.773 0 0 1-.014 1.546zM44.403 40.224a.773.773 0 1 1-1.545-.008.773.773 0 0 1 1.545.008zM43.63 7.195a.772.772 0 1 1 0 1.545.772.772 0 0 1 0-1.545zM30.73 16.852a.766.766 0 1 1-.781.743.776.776 0 0 1 .78-.743zM30.71 26.538a.767.767 0 1 1-.762.764.776.776 0 0 1 .761-.764zM8.914 33.768a.767.767 0 1 1-.752-.772.776.776 0 0 1 .752.772zM30.714 34.53a.767.767 0 1 1 .768-.758.776.776 0 0 1-.768.757zM8.914 14.425a.767.767 0 1 1-.757-.767.776.776 0 0 1 .757.767zM28.253 27.311a.767.767 0 1 1-.752-.773.775.775 0 0 1 .752.773zM8.15 26.538a.766.766 0 1 1-.77.755.776.776 0 0 1 .77-.755zM8.914 20.841a.767.767 0 1 1-.763-.76.776.776 0 0 1 .763.76zM28.253 20.852a.767.767 0 1 1-.753-.772.776.776 0 0 1 .753.772zM30.721 21.614a.766.766 0 1 1 .76-.764.776.776 0 0 1-.76.764zM8.153 23.31a.767.767 0 1 1-.772.752.776.776 0 0 1 .772-.753zM28.253 30.53a.766.766 0 1 1-.761-.763.775.775 0 0 1 .76.763zM8.914 36.988a.767.767 0 1 1-.761-.764.776.776 0 0 1 .761.764zM8.141 18.385a.767.767 0 1 1 .773-.751.776.776 0 0 1-.773.751zM8.133 31.3a.768.768 0 1 1 .781-.743.776.776 0 0 1-.78.744zM8.142 8.734a.767.767 0 1 1 .773-.753.776.776 0 0 1-.773.753zM27.489 16.852a.766.766 0 1 1-.77.755.776.776 0 0 1 .77-.755zM28.253 33.766a.766.766 0 1 1-.755-.77.776.776 0 0 1 .755.77zM8.121 11.962a.767.767 0 1 1 .793-.731.775.775 0 0 1-.793.731zM8.156 40.987a.767.767 0 1 1 .759-.767.776.776 0 0 1-.759.767zM30.717 31.3a.767.767 0 1 1 .765-.76.775.775 0 0 1-.765.76zM15.373 40.213a.767.767 0 1 1-.766-.76.776.776 0 0 1 .766.76zM18.566 40.218a.766.766 0 1 1-.76-.765.776.776 0 0 1 .76.765zM21.795 40.217a.766.766 0 1 1-.76-.764.776.776 0 0 1 .76.764zM14.605 7.2a.767.767 0 1 1-.766.759.775.775 0 0 1 .766-.759zM11.383 7.2a.767.767 0 1 1-.772.753.776.776 0 0 1 .772-.753zM31.482 24.071a.768.768 0 1 1-.763-.762.775.775 0 0 1 .763.762zM28.253 24.07a.767.767 0 1 1-.764-.76.776.776 0 0 1 .764.76zM17.806 8.734a.767.767 0 1 1 .76-.765.776.776 0 0 1-.76.765zM21.02 7.2a.767.767 0 1 1-.758.766.776.776 0 0 1 .759-.766zM12.144 40.229a.767.767 0 1 1-.75-.776.776.776 0 0 1 .75.776zM4.922 8.593a.626.626 0 1 1 .624-.629.636.636 0 0 1-.624.63zM5.546 36.994a.626.626 0 1 1-.624-.629.635.635 0 0 1 .624.629zM5.546 24.08a.626.626 0 1 1-.622-.63.635.635 0 0 1 .622.63zM4.922 20.22a.627.627 0 1 1-.629.624.636.636 0 0 1 .63-.623zM4.914 40.846a.627.627 0 1 1 .632-.62.635.635 0 0 1-.632.62zM4.926 11.822a.627.627 0 1 1 .62-.633.636.636 0 0 1-.62.633zM5.546 27.312a.626.626 0 1 1-.62-.634.636.636 0 0 1 .62.634zM4.922 34.389a.626.626 0 1 1 .624-.63.636.636 0 0 1-.624.63zM4.927 16.992a.626.626 0 1 1-.634.62.636.636 0 0 1 .634-.62zM5.546 30.528a.627.627 0 1 1-.632-.62.636.636 0 0 1 .632.62zM4.914 13.798a.627.627 0 1 1-.621.632.635.635 0 0 1 .62-.632zM18.381 4.744a.581.581 0 1 1-1.162-.012.581.581 0 0 1 1.162.012zM15.188 4.734a.582.582 0 1 1-1.163.009.582.582 0 0 1 1.163-.01zM11.373 4.157a.581.581 0 1 1 .009 1.163.581.581 0 0 1-.01-1.163zM8.73 4.743a.581.581 0 1 1-1.163-.01.581.581 0 0 1 1.163.01zM44.212 4.742a.582.582 0 1 1-1.164-.007.582.582 0 0 1 1.163.007zM21.61 4.732a.582.582 0 1 1-1.164.012.582.582 0 0 1 1.164-.012zM44.116 43.44a.486.486 0 1 1-.485-.476.494.494 0 0 1 .485.476zM4.913 5.204a.466.466 0 1 1 .437-.28.46.46 0 0 1-.437.28zM8.145 42.993a.456.456 0 1 1 .008.912.456.456 0 0 1-.008-.912zM11.833 43.444a.455.455 0 1 1-.91.01.455.455 0 0 1 .91-.01zM14.6 43.905a.456.456 0 1 1 .011-.913.456.456 0 0 1-.012.913zM17.795 43.905a.456.456 0 1 1 .01-.912.456.456 0 0 1-.01.912zM21.034 43.905a.456.456 0 1 1-.01-.913.456.456 0 0 1 .01.913zM4.912 43.829a.38.38 0 1 1 .386-.374.39.39 0 0 1-.386.374z" fill="#fff"/></svg>