<svg viewBox="0 0 49 48" fill="none" xmlns="http://www.w3.org/2000/svg"><path d="M4.518 4.333a.366.366 0 1 0 0-.733.366.366 0 0 0 0 .733zM4.518 37.315a.366.366 0 1 0 0-.733.366.366 0 0 0 0 .733zM4.518 33.895a.366.366 0 1 0 0-.733.366.366 0 0 0 0 .733zM41.165 33.895a.367.367 0 1 0 0-.733.367.367 0 0 0 0 .733zM4.518 11.418a.366.366 0 1 0 0-.733.366.366 0 0 0 0 .733zM4.518 44.4a.366.366 0 1 0 0-.733.366.366 0 0 0 0 .733zM4.518 7.875a.366.366 0 1 0 0-.733.366.366 0 0 0 0 .733zM4.518 40.858a.366.366 0 1 0 0-.733.366.366 0 0 0 0 .733zM4.518 14.96a.366.366 0 1 0 0-.732.366.366 0 0 0 0 .732zM11.847 4.333a.366.366 0 1 0 0-.733.366.366 0 0 0 0 .733zM11.847 37.315a.366.366 0 1 0 0-.733.366.366 0 0 0 0 .733zM11.847 11.418a.366.366 0 1 0 0-.733.366.366 0 0 0 0 .733zM11.847 44.4a.367.367 0 1 0 0-.733.367.367 0 0 0 0 .733zM11.847 7.875a.366.366 0 1 0 0-.733.366.366 0 0 0 0 .733zM11.847 40.857a.366.366 0 1 0 0-.732.366.366 0 0 0 0 .732zM19.177 4.333a.366.366 0 1 0 0-.733.366.366 0 0 0 0 .733zM19.177 11.418a.367.367 0 1 0 0-.733.367.367 0 0 0 0 .733zM19.177 44.4a.367.367 0 1 0 0-.733.367.367 0 0 0 0 .733zM19.177 7.875a.366.366 0 1 0 0-.733.366.366 0 0 0 0 .733zM19.177 40.858a.367.367 0 1 0 0-.734.367.367 0 0 0 0 .733zM22.842 4.333a.366.366 0 1 0 0-.733.366.366 0 0 0 0 .733zM22.842 11.418a.366.366 0 1 0 0-.733.366.366 0 0 0 0 .733zM22.842 44.4a.366.366 0 1 0 0-.733.366.366 0 0 0 0 .733zM22.842 7.875a.366.366 0 1 0 0-.732.366.366 0 0 0 0 .732zM22.842 40.858a.366.366 0 1 0 0-.733.366.366 0 0 0 0 .733zM26.505 4.333a.366.366 0 1 0 0-.733.366.366 0 0 0 0 .733zM26.505 11.418a.366.366 0 1 0 0-.733.366.366 0 0 0 0 .733zM26.505 44.4a.367.367 0 1 0 0-.733.367.367 0 0 0 0 .733zM26.505 7.875a.366.366 0 1 0 0-.733.366.366 0 0 0 0 .733zM26.505 40.857a.366.366 0 1 0 0-.732.366.366 0 0 0 0 .732zM8.182 4.333a.366.366 0 1 0 0-.733.366.366 0 0 0 0 .733zM8.182 37.315a.366.366 0 1 0 0-.733.366.366 0 0 0 0 .733zM8.182 33.895a.366.366 0 1 0 0-.733.366.366 0 0 0 0 .733zM44.829 33.895a.366.366 0 1 0 0-.733.366.366 0 0 0 0 .733zM44.829 26.32a.366.366 0 1 0 0-.732.366.366 0 0 0 0 .733zM4.518 26.32a.366.366 0 1 0 0-.732.366.366 0 0 0 0 .733zM8.182 11.418a.366.366 0 1 0 0-.733.366.366 0 0 0 0 .733zM8.182 44.4a.366.366 0 1 0 0-.733.366.366 0 0 0 0 .733zM8.182 7.875a.366.366 0 1 0 0-.732.366.366 0 0 0 0 .732zM8.182 40.858a.366.366 0 1 0 0-.733.366.366 0 0 0 0 .733zM8.183 15.205a.61.61 0 1 0 0-1.222.61.61 0 0 0 0 1.222zM4.518 18.992a.61.61 0 1 0 0-1.222.61.61 0 0 0 0 1.222zM4.518 22.778a.61.61 0 1 0 0-1.221.61.61 0 0 0 0 1.221zM44.829 22.778a.61.61 0 1 0 0-1.221.61.61 0 0 0 0 1.221zM41.163 30.352a.61.61 0 1 0 0-1.222.61.61 0 0 0 0 1.222zM8.183 30.352a.61.61 0 1 0 0-1.222.61.61 0 0 0 0 1.222zM11.848 34.139a.61.61 0 1 0 0-1.222.61.61 0 0 0 0 1.222zM19.177 37.56a.61.61 0 1 0 0-1.222.61.61 0 0 0 0 1.221zM30.17 37.56a.61.61 0 1 0 0-1.222.61.61 0 0 0 0 1.221zM37.5 34.139a.61.61 0 1 0 0-1.222.61.61 0 0 0 0 1.222zM8.182 19.847a1.466 1.466 0 1 0 0-2.932 1.466 1.466 0 0 0 0 2.932zM8.182 23.634a1.466 1.466 0 1 0 0-2.932 1.466 1.466 0 0 0 0 2.931zM22.841 19.847a1.466 1.466 0 1 0 0-2.932 1.466 1.466 0 0 0 0 2.932zM22.841 23.634a1.466 1.466 0 1 0 0-2.932 1.466 1.466 0 0 0 0 2.931zM22.841 27.42a1.466 1.466 0 1 0 0-2.931 1.466 1.466 0 0 0 0 2.931zM22.841 31.207a1.466 1.466 0 1 0 0-2.932 1.466 1.466 0 0 0 0 2.932zM22.841 34.994a1.466 1.466 0 1 0 0-2.932 1.466 1.466 0 0 0 0 2.932zM15.512 19.847a1.466 1.466 0 1 0 0-2.932 1.466 1.466 0 0 0 0 2.932zM15.512 23.634a1.466 1.466 0 1 0 0-2.932 1.466 1.466 0 0 0 0 2.931zM15.512 27.42a1.466 1.466 0 1 0 0-2.931 1.466 1.466 0 0 0 0 2.931zM15.512 31.207a1.466 1.466 0 1 0 0-2.932 1.466 1.466 0 0 0 0 2.932zM30.17 19.847a1.466 1.466 0 1 0 0-2.932 1.466 1.466 0 0 0 0 2.932zM30.17 23.634a1.466 1.466 0 1 0 .001-2.932 1.466 1.466 0 0 0 0 2.931zM30.17 27.42a1.466 1.466 0 1 0 .001-2.931 1.466 1.466 0 0 0 0 2.931zM30.17 31.207a1.466 1.466 0 1 0 0-2.932 1.466 1.466 0 0 0 0 2.932zM30.17 34.994a1.466 1.466 0 1 0 0-2.932 1.466 1.466 0 0 0 0 2.932zM37.5 19.847a1.466 1.466 0 1 0 0-2.932 1.466 1.466 0 0 0 0 2.932zM37.5 23.634a1.466 1.466 0 1 0 0-2.932 1.466 1.466 0 0 0 0 2.931zM37.5 27.42a1.466 1.466 0 1 0 0-2.931 1.466 1.466 0 0 0 0 2.931zM37.5 31.207a1.466 1.466 0 1 0 0-2.932 1.466 1.466 0 0 0 0 2.932zM11.848 19.847a1.466 1.466 0 1 0 0-2.932 1.466 1.466 0 0 0 0 2.932zM11.848 23.634a1.466 1.466 0 1 0 0-2.932 1.466 1.466 0 0 0 0 2.931zM11.848 27.42a1.466 1.466 0 1 0 0-2.931 1.466 1.466 0 0 0 0 2.931zM11.848 31.207a1.466 1.466 0 1 0 0-2.932 1.466 1.466 0 0 0 0 2.932zM26.505 19.847a1.466 1.466 0 1 0 0-2.932 1.466 1.466 0 0 0 0 2.932zM26.505 23.634a1.466 1.466 0 1 0 0-2.932 1.466 1.466 0 0 0 0 2.931zM26.505 27.42a1.466 1.466 0 1 0 0-2.931 1.466 1.466 0 0 0 0 2.931zM26.505 31.207a1.466 1.466 0 1 0 0-2.932 1.466 1.466 0 0 0 0 2.932zM26.505 34.994a1.466 1.466 0 1 0 0-2.932 1.466 1.466 0 0 0 0 2.932zM19.176 19.847a1.466 1.466 0 1 0 0-2.932 1.466 1.466 0 0 0 0 2.932zM19.176 23.634a1.466 1.466 0 1 0 0-2.932 1.466 1.466 0 0 0 0 2.931zM19.176 27.42a1.466 1.466 0 1 0 0-2.931 1.466 1.466 0 0 0 0 2.931zM19.176 31.207a1.466 1.466 0 1 0 0-2.932 1.466 1.466 0 0 0 0 2.932zM19.176 34.994a1.466 1.466 0 1 0 0-2.932 1.466 1.466 0 0 0 0 2.932zM33.834 19.847a1.466 1.466 0 1 0 0-2.932 1.466 1.466 0 0 0 0 2.932zM33.834 23.634a1.466 1.466 0 1 0 0-2.932 1.466 1.466 0 0 0 0 2.931zM33.834 27.42a1.466 1.466 0 1 0 0-2.931 1.466 1.466 0 0 0 0 2.931zM33.834 31.207a1.466 1.466 0 1 0 0-2.932 1.466 1.466 0 0 0 0 2.932zM41.164 19.847a1.466 1.466 0 1 0 0-2.932 1.466 1.466 0 0 0 0 2.932zM41.164 23.634a1.466 1.466 0 1 0 0-2.932 1.466 1.466 0 0 0 0 2.931zM41.164 27.054a1.1 1.1 0 1 0 0-2.199 1.1 1.1 0 0 0 0 2.199zM8.182 27.054a1.1 1.1 0 1 0 0-2.199 1.1 1.1 0 0 0 0 2.199zM15.512 34.628a1.1 1.1 0 1 0 0-2.2 1.1 1.1 0 0 0 0 2.2zM33.835 34.627a1.1 1.1 0 1 0 0-2.198 1.1 1.1 0 0 0 0 2.198zM26.506 37.926a.977.977 0 1 0 0-1.955.977.977 0 0 0 0 1.955zM22.841 37.926a.977.977 0 1 0 0-1.955.977.977 0 0 0 0 1.955zM44.829 18.992a.61.61 0 1 0 0-1.222.61.61 0 0 0 0 1.222zM41.163 15.205a.61.61 0 1 0 0-1.222.61.61 0 0 0 0 1.222zM30.17 15.205a.61.61 0 1 0 0-1.222.61.61 0 0 0 0 1.222zM19.177 15.205a.61.61 0 1 0 0-1.222.61.61 0 0 0 0 1.222zM37.5 15.205a.61.61 0 1 0 0-1.222.61.61 0 0 0 0 1.222zM26.505 15.205a.61.61 0 1 0 0-1.222.61.61 0 0 0 0 1.222zM15.511 15.205a.61.61 0 1 0 0-1.222.61.61 0 0 0 0 1.222zM33.834 15.205a.61.61 0 1 0 0-1.222.61.61 0 0 0 0 1.222zM22.84 15.205a.61.61 0 1 0 0-1.222.61.61 0 0 0 0 1.222zM11.848 15.205a.61.61 0 1 0 0-1.222.61.61 0 0 0 0 1.222zM15.511 4.333a.366.366 0 1 0 0-.733.366.366 0 0 0 0 .733zM15.511 37.315a.367.367 0 1 0 0-.733.367.367 0 0 0 0 .733zM15.511 11.418a.367.367 0 1 0 0-.733.367.367 0 0 0 0 .733zM15.511 44.4a.367.367 0 1 0 0-.733.367.367 0 0 0 0 .733zM15.511 7.875a.366.366 0 1 0 0-.733.366.366 0 0 0 0 .733zM15.511 40.858a.367.367 0 1 0 0-.734.367.367 0 0 0 0 .733zM44.829 4.333a.366.366 0 1 0 0-.733.366.366 0 0 0 0 .733zM44.829 37.315a.366.366 0 1 0 0-.733.366.366 0 0 0 0 .733zM44.829 30.108a.366.366 0 1 0 0-.733.366.366 0 0 0 0 .733zM4.518 30.108a.366.366 0 1 0 0-.733.366.366 0 0 0 0 .733zM44.829 11.418a.366.366 0 1 0 0-.733.366.366 0 0 0 0 .733zM44.829 44.4a.366.366 0 1 0 0-.733.366.366 0 0 0 0 .733zM44.829 7.875a.366.366 0 1 0 0-.732.366.366 0 0 0 0 .732zM44.829 40.858a.366.366 0 1 0 0-.733.366.366 0 0 0 0 .733zM44.829 14.96a.366.366 0 1 0 0-.732.366.366 0 0 0 0 .732zM37.5 4.333a.366.366 0 1 0 0-.733.366.366 0 0 0 0 .733zM37.5 37.315a.366.366 0 1 0 0-.733.366.366 0 0 0 0 .733zM37.5 11.418a.366.366 0 1 0 0-.733.366.366 0 0 0 0 .733zM37.5 44.4a.366.366 0 1 0 0-.733.366.366 0 0 0 0 .733zM37.5 7.875a.366.366 0 1 0 0-.732.366.366 0 0 0 0 .732zM37.5 40.857a.366.366 0 1 0 0-.732.366.366 0 0 0 0 .732zM41.165 4.333a.366.366 0 1 0 0-.733.366.366 0 0 0 0 .733zM41.165 37.315a.367.367 0 1 0 0-.733.367.367 0 0 0 0 .733zM41.165 11.418a.367.367 0 1 0 0-.733.367.367 0 0 0 0 .733zM41.165 44.4a.367.367 0 1 0 0-.733.367.367 0 0 0 0 .733zM41.165 7.875a.366.366 0 1 0 0-.733.366.366 0 0 0 0 .733zM41.165 40.858a.367.367 0 1 0 0-.734.367.367 0 0 0 0 .733zM33.834 4.333a.366.366 0 1 0 0-.733.366.366 0 0 0 0 .733zM33.834 37.315a.367.367 0 1 0 0-.733.367.367 0 0 0 0 .733zM33.834 11.418a.367.367 0 1 0 0-.733.367.367 0 0 0 0 .733zM33.834 44.4a.367.367 0 1 0 0-.733.367.367 0 0 0 0 .733zM33.834 7.875a.366.366 0 1 0 0-.733.366.366 0 0 0 0 .733zM33.834 40.858a.367.367 0 1 0 0-.734.367.367 0 0 0 0 .733zM30.17 4.333a.366.366 0 1 0 0-.733.366.366 0 0 0 0 .733zM30.17 11.418a.366.366 0 1 0 0-.733.366.366 0 0 0 0 .733zM30.17 44.4a.366.366 0 1 0 0-.733.366.366 0 0 0 0 .733zM30.17 7.875a.366.366 0 1 0 0-.732.366.366 0 0 0 0 .732zM30.17 40.857a.366.366 0 1 0 0-.732.366.366 0 0 0 0 .732z" fill="#fff"/></svg>