<svg viewBox="0 0 48 48" fill="none" xmlns="http://www.w3.org/2000/svg"><path d="M22.374 22.426a1.41 1.41 0 1 1-1.397-1.416 1.418 1.418 0 0 1 1.397 1.416zM25.477 22.413a1.41 1.41 0 1 1-1.41-1.403 1.418 1.418 0 0 1 1.41 1.403zM27.163 21.01a1.408 1.408 0 1 1-1.401 1.413 1.419 1.419 0 0 1 1.4-1.413z" fill="#fff"/><path d="M27.164 26.93a1.409 1.409 0 1 1 1.416-1.398 1.419 1.419 0 0 1-1.416 1.398zM24.065 26.93a1.41 1.41 0 1 1 1.412-1.402 1.418 1.418 0 0 1-1.412 1.402zM25.477 28.623a1.408 1.408 0 1 1-1.404-1.41 1.418 1.418 0 0 1 1.404 1.41zM24.065 20.76a1.41 1.41 0 1 1 1.412-1.401 1.418 1.418 0 0 1-1.412 1.4zM20.967 26.93a1.41 1.41 0 1 1 1.407-1.408 1.419 1.419 0 0 1-1.407 1.408zM22.363 28.6a1.396 1.396 0 1 1-2.791.046 1.396 1.396 0 0 1 2.79-.046zM22.356 19.358a1.39 1.39 0 1 1-.85-1.291 1.382 1.382 0 0 1 .85 1.29zM19.233 25.528a1.369 1.369 0 1 1-2.738-.015 1.369 1.369 0 0 1 2.738.015zM19.226 22.442a1.361 1.361 0 1 1-2.722-.047 1.361 1.361 0 0 1 2.722.047zM27.176 27.28a1.344 1.344 0 1 1-1.349 1.333 1.352 1.352 0 0 1 1.349-1.334zM27.168 18.019a1.332 1.332 0 1 1 .002 2.664 1.332 1.332 0 0 1-.002-2.664zM29.095 25.525a1.177 1.177 0 1 1 1.184 1.172 1.184 1.184 0 0 1-1.184-1.172zM17.86 29.794a1.172 1.172 0 1 1 1.175-1.163 1.18 1.18 0 0 1-1.175 1.163zM30.275 21.247a1.171 1.171 0 1 1-1.175 1.164 1.18 1.18 0 0 1 1.175-1.164zM19.016 19.353a1.15 1.15 0 1 1-1.153-1.153 1.142 1.142 0 0 1 1.153 1.153zM24.056 32.806a1.081 1.081 0 1 1 .025-2.162 1.081 1.081 0 0 1-.025 2.162zM25.137 16.243a1.07 1.07 0 1 1-1.08-1.064 1.077 1.077 0 0 1 1.08 1.064zM20.959 30.7a1.026 1.026 0 1 1 .013 2.052 1.026 1.026 0 0 1-.013-2.053zM20.963 17.259a1.01 1.01 0 1 1 .004-2.02 1.01 1.01 0 0 1-.004 2.02zM31.23 28.618a.96.96 0 1 1-1.919.01.96.96 0 0 1 1.92-.01zM29.325 19.343a.946.946 0 1 1 1.892.015.946.946 0 0 1-1.892-.015zM28.089 31.721a.919.919 0 1 1-.923-.916.912.912 0 0 1 .923.916zM15.681 25.528a.92.92 0 1 1-.56-.856.91.91 0 0 1 .56.856zM14.752 23.332a.914.914 0 1 1 .02-1.827.914.914 0 0 1-.02 1.827zM28.075 16.246a.905.905 0 1 1-.904-.902.914.914 0 0 1 .904.902zM18.67 31.718a.806.806 0 1 1-.808-.8.813.813 0 0 1 .808.8zM18.664 16.24a.798.798 0 1 1-.799-.79.808.808 0 0 1 .8.79zM14.764 18.576a.774.774 0 1 1-.004 1.549.774.774 0 0 1 .004-1.549zM14.762 29.397a.775.775 0 1 1 0-1.55.775.775 0 0 1 0 1.55zM30.274 32.466a.742.742 0 1 1-.004-1.483.742.742 0 0 1 .004 1.483zM30.265 16.99a.741.741 0 1 1 .015-1.482.741.741 0 0 1-.015 1.483zM21.704 34.822a.737.737 0 1 1-.733-.732.745.745 0 0 1 .733.731zM24.804 34.822a.737.737 0 1 1-.733-.732.745.745 0 0 1 .733.732zM27.164 35.563a.736.736 0 1 1 .742-.723.746.746 0 0 1-.742.723zM30.28 34.09a.737.737 0 1 1-.744.72.745.745 0 0 1 .744-.72zM34.11 34.82a.737.737 0 1 1-.733-.73.745.745 0 0 1 .733.73zM36.438 35.563a.738.738 0 1 1 .74-.726.745.745 0 0 1-.74.726zM39.541 35.563a.736.736 0 1 1 .74-.726.745.745 0 0 1-.74.726zM9.296 37.934a.736.736 0 1 1-.723-.742.745.745 0 0 1 .723.742zM12.397 37.934a.738.738 0 1 1-.723-.742.746.746 0 0 1 .723.742zM15.498 37.924a.736.736 0 1 1-.732-.733.745.745 0 0 1 .732.733zM17.86 38.665a.736.736 0 1 1 .741-.724.746.746 0 0 1-.741.724zM21.704 37.932a.737.737 0 1 1-.725-.74.746.746 0 0 1 .725.74zM24.804 37.922a.737.737 0 1 1-.734-.73.745.745 0 0 1 .734.73zM27.906 37.92a.737.737 0 1 1-.736-.729.745.745 0 0 1 .736.73zM30.272 38.665a.737.737 0 1 1 .737-.728.745.745 0 0 1-.737.728zM33.38 38.665a.736.736 0 1 1 .73-.734.745.745 0 0 1-.73.734zM36.446 37.191a.736.736 0 1 1-.742.723.746.746 0 0 1 .742-.723zM39.542 38.665a.736.736 0 1 1 .738-.726.746.746 0 0 1-.738.726zM24.804 13.143a.737.737 0 1 1-.732-.733.746.746 0 0 1 .732.733zM9.296 10.042a.737.737 0 1 1-.732-.734.745.745 0 0 1 .732.734zM12.397 10.049a.736.736 0 1 1-.725-.74.746.746 0 0 1 .725.74zM15.498 10.041a.736.736 0 1 1-.732-.733.745.745 0 0 1 .732.733zM17.858 9.308a.737.737 0 1 1-.73.735.745.745 0 0 1 .73-.735zM21.704 10.04a.737.737 0 1 1-.734-.732.745.745 0 0 1 .734.732zM24.064 10.782a.737.737 0 1 1 .74-.724.746.746 0 0 1-.74.724zM27.906 10.047a.737.737 0 1 1-.726-.739.745.745 0 0 1 .726.74zM30.264 10.782a.737.737 0 1 1 .745-.72.745.745 0 0 1-.745.72zM33.37 9.308a.737.737 0 1 1-.733.733.745.745 0 0 1 .733-.733zM37.177 10.05a.737.737 0 1 1-.722-.741.745.745 0 0 1 .722.742zM39.55 9.308a.737.737 0 1 1-.743.723.745.745 0 0 1 .742-.723zM9.296 13.14a.737.737 0 1 1-.735-.73.745.745 0 0 1 .735.73zM12.397 13.148a.736.736 0 1 1-.727-.738.745.745 0 0 1 .727.738zM14.754 12.41a.737.737 0 1 1-.73.736.745.745 0 0 1 .73-.736zM18.601 13.152a.736.736 0 1 1-.723-.742.746.746 0 0 1 .723.742zM20.971 13.884a.736.736 0 1 1 .733-.732.745.745 0 0 1-.733.732zM27.906 13.152a.736.736 0 1 1-.723-.742.746.746 0 0 1 .723.742zM30.27 13.884a.736.736 0 1 1 .739-.726.746.746 0 0 1-.74.726zM34.11 13.148a.737.737 0 1 1-.726-.738.746.746 0 0 1 .727.738zM37.177 13.147a.738.738 0 1 1-.728-.737.745.745 0 0 1 .728.737zM40.28 13.15a.736.736 0 1 1-.725-.74.746.746 0 0 1 .725.74zM8.567 15.512a.737.737 0 1 1-.745.72.745.745 0 0 1 .745-.72zM11.652 16.985a.737.737 0 1 1 .745-.72.745.745 0 0 1-.745.72zM15.498 16.251a.737.737 0 1 1-.725-.739.745.745 0 0 1 .725.74zM33.381 15.512a.736.736 0 1 1-.744.721.745.745 0 0 1 .744-.72zM36.435 16.985a.737.737 0 1 1 .742-.722.746.746 0 0 1-.742.722zM38.807 16.255a.736.736 0 1 1 .734.73.745.745 0 0 1-.734-.73zM9.296 19.355a.737.737 0 1 1-.725-.741.746.746 0 0 1 .725.74zM12.397 19.351a.736.736 0 1 1-.728-.737.746.746 0 0 1 .728.737zM33.378 18.614a.737.737 0 1 1-.74.724.746.746 0 0 1 .74-.724zM37.177 19.353a.737.737 0 1 1-.725-.739.745.745 0 0 1 .725.74zM39.537 20.087a.737.737 0 1 1 .743-.722.745.745 0 0 1-.743.722zM8.566 23.155a.737.737 0 1 1 .73-.735.745.745 0 0 1-.73.735zM11.656 21.682a.737.737 0 1 1-.733.732.745.745 0 0 1 .733-.732zM33.375 23.155a.737.737 0 1 1 .736-.73.745.745 0 0 1-.736.73zM36.444 21.682a.736.736 0 1 1-.74.725.745.745 0 0 1 .74-.725zM38.807 22.41a.737.737 0 1 1 .72.745.745.745 0 0 1-.72-.745zM36.446 29.36a.738.738 0 1 1 .731-.734.745.745 0 0 1-.73.733zM9.296 25.516a.737.737 0 1 1-.733-.732.745.745 0 0 1 .733.732zM11.654 24.784a.737.737 0 1 1-.73.734.745.745 0 0 1 .73-.734zM33.368 26.257a.736.736 0 1 1 .742-.722.745.745 0 0 1-.742.722zM36.448 24.784a.736.736 0 1 1-.744.721.745.745 0 0 1 .744-.72zM39.549 26.257a.737.737 0 1 1 .731-.733.745.745 0 0 1-.731.733zM8.554 29.36a.737.737 0 1 1 .741-.724.746.746 0 0 1-.741.723zM11.668 27.886a.737.737 0 1 1-.744.72.745.745 0 0 1 .744-.72zM33.37 27.886a.736.736 0 1 1-.733.732.745.745 0 0 1 .733-.732zM39.548 29.36a.736.736 0 1 1 .732-.733.745.745 0 0 1-.732.732zM9.296 31.719a.737.737 0 1 1-.734-.731.745.745 0 0 1 .734.73zM11.661 30.988a.737.737 0 1 1-.738.727.745.745 0 0 1 .738-.727zM15.498 31.73a.737.737 0 1 1-.721-.742.746.746 0 0 1 .721.743zM34.11 31.728a.737.737 0 1 1-.724-.74.746.746 0 0 1 .724.74zM36.444 30.988a.736.736 0 1 1-.74.725.745.745 0 0 1 .74-.725zM40.28 31.72a.736.736 0 1 1-.733-.732.745.745 0 0 1 .733.732zM9.296 34.825a.737.737 0 1 1-.73-.735.745.745 0 0 1 .73.735zM11.667 35.563a.736.736 0 1 1 .73-.735.745.745 0 0 1-.73.735zM14.756 35.563a.737.737 0 1 1 .742-.723.746.746 0 0 1-.742.723zM17.86 35.563a.736.736 0 1 1 .741-.723.746.746 0 0 1-.741.723zM15.437 41.03a.675.675 0 1 1-1.35 0 .675.675 0 0 1 1.35 0zM11.654 41.704a.673.673 0 1 1 .014-1.347.673.673 0 0 1-.014 1.347zM8.563 41.704a.674.674 0 1 1-.01-1.347.674.674 0 0 1 .01 1.347zM21.64 41.032a.675.675 0 1 1-1.35-.005.675.675 0 0 1 1.35.005zM17.863 40.356a.674.674 0 1 1 .001 1.347.674.674 0 0 1-.002-1.347zM30.945 41.025a.674.674 0 1 1-1.348.01.674.674 0 0 1 1.348-.01zM24.076 40.356a.674.674 0 1 1-.014 1.347.674.674 0 0 1 .014-1.347zM27.16 41.704a.674.674 0 1 1 .02-1.348.674.674 0 0 1-.02 1.348zM34.048 41.038a.675.675 0 1 1-1.35-.016.675.675 0 0 1 1.35.016zM37.115 41.031a.674.674 0 1 1-1.347-.002.674.674 0 0 1 1.347.002zM39.544 40.356a.674.674 0 1 1-.003 1.347.674.674 0 0 1 .003-1.347zM24.074 6.288a.655.655 0 1 1-.01 1.31.655.655 0 0 1 .01-1.31zM30.267 6.288a.655.655 0 1 1 .007 1.31.655.655 0 0 1-.007-1.31zM34.029 6.942a.655.655 0 1 1-1.31.003.655.655 0 0 1 1.31-.003zM21.622 6.94a.655.655 0 1 1-1.31.006.655.655 0 0 1 1.31-.006zM27.825 6.95a.656.656 0 1 1-1.311-.014.656.656 0 0 1 1.311.014zM37.097 6.941a.656.656 0 1 1-1.311.004.656.656 0 0 1 1.311-.004zM39.543 7.598a.656.656 0 1 1-.001-1.31.656.656 0 0 1 .001 1.31zM9.213 6.943a.655.655 0 1 1-1.31 0 .655.655 0 0 1 1.31 0zM12.316 6.948a.655.655 0 1 1-1.309-.01.655.655 0 0 1 1.31.01zM15.418 6.938a.656.656 0 1 1-1.311.01.656.656 0 0 1 1.31-.01zM17.865 6.288a.655.655 0 1 1-.003 1.31.655.655 0 0 1 .003-1.31zM5.994 10.043a.537.537 0 1 1-1.074.004.537.537 0 0 1 1.074-.004zM5.454 32.262a.538.538 0 1 1 .006-1.075.538.538 0 0 1-.006 1.075zM5.994 22.416a.537.537 0 1 1-1.075.006.537.537 0 0 1 1.075-.006zM5.482 28.086a.537.537 0 1 1-.05 1.073.537.537 0 0 1 .05-1.073zM5.994 34.826a.537.537 0 1 1-1.075 0 .537.537 0 0 1 1.075 0zM5.454 13.684a.537.537 0 1 1 .006-1.073.537.537 0 0 1-.006 1.073zM5.451 37.39a.537.537 0 1 1 .011 1.074.537.537 0 0 1-.01-1.073zM5.994 25.525a.537.537 0 1 1-1.074-.009.537.537 0 0 1 1.074.01zM5.452 15.711a.538.538 0 1 1 .009 1.076.538.538 0 0 1-.009-1.075zM5.994 19.354a.537.537 0 1 1-1.075-.007.537.537 0 0 1 1.075.007zM5.946 41.03a.489.489 0 1 1-.977 0 .489.489 0 0 1 .977 0zM5.932 6.947a.475.475 0 1 1-.95-.008.475.475 0 0 1 .95.008zM43.11 34.828a.467.467 0 1 1-.455-.468.475.475 0 0 1 .456.468zM42.631 10.511a.467.467 0 1 1 .48-.444.475.475 0 0 1-.48.444zM43.111 31.725a.466.466 0 1 1-.457-.467.475.475 0 0 1 .457.467zM43.111 22.415a.467.467 0 1 1-.462-.462.474.474 0 0 1 .462.462zM43.111 25.516a.466.466 0 1 1-.463-.462.474.474 0 0 1 .463.462zM43.111 37.92a.466.466 0 1 1-.466-.458.475.475 0 0 1 .466.458zM43.111 16.244a.467.467 0 1 1-.463-.461.474.474 0 0 1 .463.461zM42.65 13.613a.466.466 0 1 1 .461-.462.474.474 0 0 1-.462.462zM42.62 29.088a.466.466 0 1 1 .49-.432.474.474 0 0 1-.49.432zM43.111 19.342a.466.466 0 1 1-.466-.458.475.475 0 0 1 .466.458zM42.648 7.368a.424.424 0 1 1-.007-.849.424.424 0 0 1 .007.849zM42.653 41.454a.424.424 0 1 1-.017-.848.424.424 0 0 1 .017.848zM18.133 44.138a.268.268 0 1 1-.262-.274.271.271 0 0 1 .262.274zM8.827 44.133a.268.268 0 1 1-.267-.27.272.272 0 0 1 .267.27zM11.666 43.864a.268.268 0 1 1-.274.262.271.271 0 0 1 .274-.262zM15.03 44.135a.268.268 0 1 1-.266-.271.271.271 0 0 1 .266.27zM20.97 43.864a.269.269 0 0 1 .186.459.269.269 0 0 1-.457-.193.271.271 0 0 1 .27-.266zM24.055 44.4a.269.269 0 1 1 .28-.255.273.273 0 0 1-.28.255zM27.438 44.127a.268.268 0 1 1-.273-.263.271.271 0 0 1 .273.263zM30.54 44.125a.269.269 0 1 1-.274-.261.272.272 0 0 1 .275.261zM33.643 44.138a.268.268 0 1 1-.263-.274.272.272 0 0 1 .263.274zM36.436 43.864a.268.268 0 1 1-.263.273.272.272 0 0 1 .263-.273zM39.812 44.136a.268.268 0 1 1-.535-.007.268.268 0 0 1 .535.007zM21.206 3.847a.241.241 0 1 1-.24-.246.235.235 0 0 1 .24.246zM17.864 4.082a.24.24 0 1 1 .242-.244.236.236 0 0 1-.242.244zM15.004 3.845a.24.24 0 1 1-.242-.244.235.235 0 0 1 .242.244zM11.9 3.838a.242.242 0 0 1-.407.177.24.24 0 0 1 .16-.414.234.234 0 0 1 .247.237zM36.683 3.834a.24.24 0 0 1-.28.245.241.241 0 0 1 .028-.478.234.234 0 0 1 .252.233zM8.8 3.836a.24.24 0 1 1-.25-.235.234.234 0 0 1 .25.235zM39.541 3.6a.241.241 0 1 1-.237.249.236.236 0 0 1 .143-.23.235.235 0 0 1 .094-.018zM33.365 3.6a.24.24 0 1 1-.233.253.236.236 0 0 1 .233-.252zM30.513 3.842a.241.241 0 1 1-.244-.241.234.234 0 0 1 .244.241zM27.163 3.6a.24.24 0 1 1-.234.253.234.234 0 0 1 .234-.252zM24.06 4.082a.24.24 0 1 1 .248-.237.234.234 0 0 1-.248.237zM5.492 3.624c.051.073.144.148.142.22a.26.26 0 0 1-.173.177.155.155 0 0 1-.185-.181c.01-.076.09-.142.14-.213l.076-.003zM5.673 44.17c-.074.05-.15.142-.222.138a.26.26 0 0 1-.175-.175.155.155 0 0 1 .185-.183c.076.012.14.093.21.144l.002.076zM42.863 44.168c-.073.051-.149.143-.22.14a.26.26 0 0 1-.177-.173.155.155 0 0 1 .183-.185c.076.012.141.092.211.141l.003.077zM42.859 3.85c-.1.066-.168.146-.214.134-.06-.015-.103-.101-.153-.157.054-.046.107-.126.163-.129.053-.002.11.077.204.151z" fill="#fff"/></svg>