<svg width="2402" height="677" viewBox="0 0 2402 677" fill="none" xmlns="http://www.w3.org/2000/svg">
<g clip-path="url(#clip0_2596_42406)">
<path d="M1860.49 615.718L1860.49 617.965L1862.74 615.718L1860.49 615.718Z" fill="white"/>
<path d="M2282.91 554.945L2280.66 554.945L2282.91 557.191L2282.91 554.945Z" fill="white"/>
<path d="M2100.89 554.945L2100.89 557.191L2103.13 554.945L2100.89 554.945Z" fill="white"/>
<path d="M2042.47 554.945L2040.22 554.945L2042.47 557.191L2042.47 554.945Z" fill="white"/>
<path d="M1981.8 554.945L1979.55 554.945L1981.8 557.191L1984.04 554.945L1981.8 554.945Z" fill="white"/>
<path d="M1921.18 554.945L1921.18 557.191L1923.43 554.945L1921.18 554.945Z" fill="white"/>
<path d="M1860.49 554.945L1860.49 557.191L1862.74 554.945L1860.49 554.945Z" fill="white"/>
<path d="M1802.07 554.945L1799.83 554.945L1802.07 557.191L1802.07 554.945Z" fill="white"/>
<path d="M1741.4 554.945L1739.16 554.945L1741.4 557.191L1743.65 554.945L1741.4 554.945Z" fill="white"/>
<path d="M1680.74 554.945L1680.74 557.191L1682.98 554.945L1680.74 554.945Z" fill="white"/>
<path d="M1622.31 554.945L1620.07 554.945L1622.31 557.191L1622.31 554.945Z" fill="white"/>
<path d="M1561.64 554.947L1559.4 554.947L1561.64 557.194L1563.89 554.947L1561.64 554.947Z" fill="white"/>
<path d="M1500.98 554.947L1500.98 557.194L1503.22 554.947L1500.98 554.947Z" fill="white"/>
<path d="M1440.29 554.947L1440.29 557.194L1442.54 554.947L1440.29 554.947Z" fill="white"/>
<path d="M1381.87 554.947L1379.63 554.947L1381.87 557.194L1381.87 554.947Z" fill="white"/>
<path d="M1202.11 554.947L1199.87 554.947L1202.11 557.194L1202.11 554.947Z" fill="white"/>
<path d="M1080.76 554.947L1080.76 557.194L1083.01 554.947L1080.76 554.947Z" fill="white"/>
<path d="M1020.14 554.947L1020.14 557.194L1022.39 554.947L1020.14 554.947Z" fill="white"/>
<path d="M420.164 554.947L420.164 557.194L422.411 554.947L420.164 554.947Z" fill="white"/>
<path d="M361.744 554.947L359.497 554.947L361.744 557.194L361.744 554.947Z" fill="white"/>
<path d="M179.79 554.947L179.79 557.194L182.037 554.947L179.79 554.947Z" fill="white"/>
<path d="M2282.91 494.372L2280.66 496.619L2282.91 496.619L2282.91 494.372Z" fill="white"/>
<path d="M2222.24 494.372L2220 496.619L2222.24 496.619L2222.24 494.372Z" fill="white"/>
<path d="M2161.55 494.372L2161.55 496.619L2163.8 496.619L2161.55 494.372Z" fill="white"/>
<path d="M2100.89 494.372L2100.89 496.619L2103.13 496.619L2100.89 494.372Z" fill="white"/>
<path d="M2042.46 494.327C2041.22 494.327 2040.22 495.333 2040.22 496.574C2040.22 497.815 2041.22 498.821 2042.46 498.821C2043.7 498.821 2044.71 497.815 2044.71 496.574C2044.71 495.333 2043.7 494.327 2042.46 494.327Z" fill="white"/>
<path d="M1981.8 494.327C1979.55 494.327 1979.55 494.327 1979.55 496.574C1979.55 498.821 1979.55 498.821 1981.8 498.821C1984.04 498.821 1984.04 498.821 1984.04 496.574C1984.04 494.327 1981.8 494.327 1981.8 494.327Z" fill="white"/>
<path d="M1921.18 494.327C1918.93 494.327 1918.93 494.327 1918.93 496.574C1918.93 498.821 1918.93 498.821 1921.18 498.821C1923.43 498.821 1923.43 498.821 1923.43 496.574C1923.43 494.327 1923.43 494.327 1921.18 494.327Z" fill="white"/>
<path d="M1860.51 494.327C1858.26 494.327 1858.26 496.574 1858.26 496.574C1858.26 498.821 1860.51 498.821 1860.51 498.821L1865 496.574C1865 494.327 1862.76 494.327 1860.51 494.327Z" fill="white"/>
<path d="M1802.07 494.327C1799.82 494.327 1799.82 496.574 1799.82 496.574C1799.82 498.821 1802.07 498.821 1802.07 498.821C1804.32 498.821 1804.32 496.574 1804.32 496.574C1804.32 494.327 1802.07 494.327 1802.07 494.327Z" fill="white"/>
<path d="M1741.4 494.327C1739.16 494.327 1739.16 496.574 1739.16 496.574C1739.16 498.821 1741.4 498.821 1741.4 498.821C1743.65 498.821 1743.65 496.574 1743.65 496.574C1743.65 494.327 1743.65 494.327 1741.4 494.327Z" fill="white"/>
<path d="M1680.74 494.327C1678.49 494.327 1678.49 494.327 1678.49 496.574C1678.49 498.821 1680.74 498.821 1680.74 498.821C1682.98 498.821 1682.98 498.821 1682.98 496.574C1682.98 494.327 1682.98 494.327 1680.74 494.327Z" fill="white"/>
<path d="M1622.31 494.327C1620.07 494.327 1620.07 494.327 1620.07 496.574C1620.07 498.821 1620.07 498.821 1622.31 498.821C1624.56 498.821 1624.56 498.821 1624.56 496.574C1624.56 494.327 1622.31 494.327 1622.31 494.327Z" fill="white"/>
<path d="M1561.65 494.327C1559.4 494.327 1559.4 494.327 1559.4 496.574C1559.4 498.821 1559.4 498.821 1561.65 498.821C1563.89 498.821 1563.89 498.821 1563.89 496.574C1563.89 494.327 1561.65 494.327 1561.65 494.327Z" fill="white"/>
<path d="M1500.98 494.327C1500.98 494.327 1498.74 494.327 1500.98 494.327C1498.74 498.821 1498.74 498.821 1500.98 498.821C1503.23 498.821 1503.23 496.574 1500.98 494.327C1503.23 494.327 1503.23 494.327 1500.98 494.327Z" fill="white"/>
<path d="M1440.29 494.327C1439.05 494.327 1438.05 495.333 1438.05 496.574C1438.05 497.815 1439.05 498.821 1440.29 498.821C1441.53 498.821 1442.54 497.815 1442.54 496.574C1442.54 495.333 1441.53 494.327 1440.29 494.327Z" fill="white"/>
<path d="M1381.85 494.327C1379.6 494.327 1379.6 494.327 1381.85 494.327C1379.6 496.574 1381.85 498.821 1381.85 498.821C1381.85 498.821 1384.1 496.574 1381.85 494.327C1381.85 494.327 1384.1 494.327 1381.85 494.327Z" fill="white"/>
<path d="M1321.18 494.374C1321.18 494.374 1318.94 494.374 1321.18 494.374C1318.94 496.621 1321.18 496.621 1321.18 496.621C1321.18 496.621 1323.43 496.621 1321.18 494.374C1321.18 494.374 1323.43 494.374 1321.18 494.374Z" fill="white"/>
<path d="M1260.53 494.374L1260.53 496.621L1262.78 496.621L1260.53 494.374Z" fill="white"/>
<path d="M1202.11 494.374L1199.87 496.621L1202.11 496.621L1202.11 494.374Z" fill="white"/>
<path d="M1141.43 494.374L1139.18 496.621L1141.43 496.621L1141.43 494.374Z" fill="white"/>
<path d="M1080.76 494.374L1080.76 496.621L1083.01 496.621L1080.76 494.374Z" fill="white"/>
<path d="M1020.14 494.374L1020.14 496.621L1022.39 496.621L1020.14 494.374Z" fill="white"/>
<path d="M961.722 494.374L959.475 496.621L961.722 496.621L961.722 494.374Z" fill="white"/>
<path d="M840.367 494.374L840.367 496.621L842.613 496.621L840.367 494.374Z" fill="white"/>
<path d="M781.947 494.374L779.7 496.621L781.947 496.621L781.947 494.374Z" fill="white"/>
<path d="M541.504 494.374L539.257 496.621L541.504 496.621L541.504 494.374Z" fill="white"/>
<path d="M420.164 494.374L420.164 496.621L422.411 496.621L420.164 494.374Z" fill="white"/>
<path d="M361.744 494.374L359.497 496.621L361.744 496.621L361.744 494.374Z" fill="white"/>
<path d="M2161.58 433.755C2161.58 433.755 2159.33 436.002 2161.58 433.755C2159.33 436.002 2161.58 438.248 2161.58 438.248C2163.82 438.248 2163.82 436.002 2161.58 433.755C2163.82 433.755 2163.82 436.002 2161.58 433.755Z" fill="white"/>
<path d="M2100.89 433.755C2099.65 433.755 2098.64 434.761 2098.64 436.002C2098.64 437.242 2099.65 438.248 2100.89 438.248C2102.13 438.248 2103.13 437.242 2103.13 436.002C2103.13 434.761 2102.13 433.755 2100.89 433.755Z" fill="white"/>
<path d="M2042.46 433.755C2040.22 433.755 2040.22 436.002 2040.22 436.002C2040.22 438.248 2042.46 438.249 2042.46 438.249C2044.71 438.249 2044.71 436.002 2044.71 436.002C2044.71 433.755 2042.46 433.755 2042.46 433.755Z" fill="white"/>
<path d="M1981.79 431.463C1979.55 431.463 1977.3 433.71 1977.3 435.957C1977.3 438.204 1979.55 440.451 1981.79 440.451C1984.04 440.451 1986.29 438.204 1986.29 435.957C1986.29 433.71 1984.04 431.463 1981.79 431.463Z" fill="white"/>
<path d="M1921.13 431.463C1918.88 431.463 1916.63 433.71 1916.63 435.957C1916.63 438.204 1918.88 440.451 1921.13 440.451C1923.37 440.451 1925.62 438.204 1925.62 435.957C1925.62 433.71 1923.37 431.463 1921.13 431.463Z" fill="white"/>
<path d="M1860.51 431.463C1858.03 431.463 1856.01 433.475 1856.01 435.957C1856.01 438.439 1858.03 440.451 1860.51 440.451C1862.99 440.451 1865 438.439 1865 435.957C1865 433.475 1862.99 431.463 1860.51 431.463Z" fill="white"/>
<path d="M1802.09 431.463C1799.84 431.463 1797.59 433.71 1797.59 435.957C1797.59 438.204 1799.84 440.451 1802.09 440.451C1804.33 440.451 1806.58 438.204 1806.58 435.957C1804.33 433.71 1804.33 431.463 1802.09 431.463Z" fill="white"/>
<path d="M1741.42 431.463C1739.17 431.463 1736.92 433.71 1736.92 435.957C1736.92 438.204 1739.17 440.451 1741.42 440.451C1743.67 440.451 1745.91 438.204 1745.91 435.957C1745.91 433.71 1743.67 431.463 1741.42 431.463Z" fill="white"/>
<path d="M1680.73 431.463C1678.49 431.463 1676.24 433.71 1676.24 435.957C1676.24 438.204 1678.49 440.451 1680.73 440.451C1682.98 440.451 1685.23 438.204 1685.23 435.957C1685.23 433.71 1682.98 431.463 1680.73 431.463Z" fill="white"/>
<path d="M1622.31 433.755C1621.07 433.755 1620.07 434.761 1620.07 436.002C1620.07 437.242 1621.07 438.249 1622.31 438.249C1623.55 438.249 1624.56 437.242 1624.56 436.002C1624.56 434.761 1623.55 433.755 1622.31 433.755Z" fill="white"/>
<path d="M1561.65 433.755C1559.4 433.755 1559.4 436.002 1559.4 436.002C1559.4 438.248 1561.65 438.248 1561.65 438.248C1563.89 438.248 1563.89 436.002 1563.89 436.002C1563.89 433.755 1563.89 433.755 1561.65 433.755Z" fill="white"/>
<path d="M1500.98 433.755C1498.73 433.755 1498.73 436.002 1498.73 436.002C1498.73 438.248 1500.98 438.248 1500.98 438.248C1503.22 438.248 1505.47 438.248 1505.47 436.002C1505.47 433.755 1503.22 433.755 1500.98 433.755Z" fill="white"/>
<path d="M1440.29 433.755C1438.04 433.755 1438.04 436.002 1438.04 436.002C1438.04 438.248 1440.29 438.249 1440.29 438.249C1442.54 438.249 1442.54 436.002 1442.54 436.002C1444.79 433.755 1442.54 433.755 1440.29 433.755Z" fill="white"/>
<path d="M1381.87 433.755C1379.62 433.755 1379.62 436.002 1379.62 436.002C1379.62 438.248 1381.87 438.248 1381.87 438.248C1384.12 438.248 1384.12 436.002 1384.12 436.002C1384.12 433.755 1381.87 433.755 1381.87 433.755Z" fill="white"/>
<path d="M1321.2 433.755C1318.95 433.755 1318.95 433.755 1318.95 436.002C1318.95 438.248 1321.2 438.248 1321.2 438.248C1323.45 438.248 1323.45 438.248 1323.45 436.002C1323.45 433.755 1323.45 433.755 1321.2 433.755Z" fill="white"/>
<path d="M1260.53 433.755C1258.29 433.755 1258.29 433.755 1258.29 436.002C1258.29 438.248 1258.29 438.249 1260.53 438.249C1262.78 438.249 1262.78 438.248 1262.78 436.002C1262.78 433.755 1262.78 433.755 1260.53 433.755Z" fill="white"/>
<path d="M1202.14 433.755C1199.9 433.755 1199.9 433.755 1202.14 433.755C1199.9 436.002 1199.9 438.248 1202.14 438.248C1202.14 438.248 1204.39 438.248 1202.14 433.755C1202.14 433.755 1204.39 433.755 1202.14 433.755Z" fill="white"/>
<path d="M1141.48 433.755C1139.23 433.755 1139.23 433.755 1141.48 433.755C1139.23 436.002 1141.48 438.248 1141.48 438.248C1141.48 438.248 1143.72 436.002 1141.48 433.755C1141.48 433.755 1143.72 433.755 1141.48 433.755Z" fill="white"/>
<path d="M1080.76 433.755C1080.76 433.755 1078.52 433.755 1080.76 433.755C1078.52 436.002 1080.76 438.249 1080.76 438.249C1080.76 438.249 1083.01 436.002 1080.76 433.755C1083.01 433.755 1083.01 433.755 1080.76 433.755Z" fill="white"/>
<path d="M1020.1 433.755C1020.1 436.002 1020.1 433.755 1020.1 433.755C1017.85 436.002 1020.1 438.249 1020.1 438.249C1020.1 438.249 1022.34 436.002 1020.1 433.755C1022.34 433.755 1022.34 436.002 1020.1 433.755Z" fill="white"/>
<path d="M961.702 433.755C959.455 436.002 959.455 433.755 961.702 433.755C959.455 436.002 961.702 438.248 961.702 438.248C961.702 438.248 963.949 436.002 961.702 433.755C961.702 433.755 963.949 436.002 961.702 433.755Z" fill="white"/>
<path d="M901.035 433.75C901.035 433.75 898.788 435.997 901.035 433.75C898.788 435.997 901.035 435.997 901.035 435.997C901.035 438.244 903.282 435.997 901.035 433.75C901.035 433.75 903.282 435.997 901.035 433.75Z" fill="white"/>
<path d="M840.367 433.755C839.126 433.755 838.12 434.761 838.12 436.002C838.12 437.242 839.126 438.249 840.367 438.249C841.608 438.249 842.614 437.242 842.614 436.002C842.614 434.761 841.608 433.755 840.367 433.755Z" fill="white"/>
<path d="M781.947 433.755L779.7 436.002L781.947 438.248L781.947 436.002L781.947 433.755Z" fill="white"/>
<path d="M721.276 433.755C720.035 433.755 719.029 434.761 719.029 436.002C719.029 437.242 720.035 438.249 721.276 438.249C722.517 438.249 723.523 437.242 723.523 436.002C723.523 434.761 722.517 433.755 721.276 433.755Z" fill="white"/>
<path d="M660.609 433.755L660.609 436.002L660.609 438.249L662.856 436.002L660.609 433.755Z" fill="white"/>
<path d="M599.94 433.755C598.699 433.755 597.693 434.761 597.693 436.002C597.693 437.242 598.699 438.248 599.94 438.248C601.181 438.248 602.187 437.242 602.187 436.002C602.187 434.761 601.181 433.755 599.94 433.755Z" fill="white"/>
<path d="M2282.91 375.23L2280.66 375.23L2282.91 377.477L2282.91 375.23Z" fill="white"/>
<path d="M2222.22 375.23C2219.97 375.23 2219.97 375.23 2222.22 375.23C2219.97 377.477 2222.22 377.477 2222.22 377.477C2222.22 377.477 2224.47 377.477 2222.22 375.23C2222.22 375.23 2224.47 375.23 2222.22 375.23Z" fill="white"/>
<path d="M2161.55 372.983C2159.31 372.983 2159.31 372.983 2159.31 375.23C2159.31 377.477 2159.31 377.477 2161.55 377.477C2163.8 377.477 2163.8 377.477 2163.8 375.23C2163.8 375.23 2163.8 372.983 2161.55 372.983Z" fill="white"/>
<path d="M2100.89 372.983C2099.65 372.983 2098.64 373.989 2098.64 375.23C2098.64 376.471 2099.65 377.477 2100.89 377.477C2102.13 377.477 2103.13 376.471 2103.13 375.23C2103.13 373.989 2102.13 372.983 2100.89 372.983Z" fill="white"/>
<path d="M2042.48 370.683C2040.23 370.683 2037.98 372.93 2037.98 375.177C2037.98 377.424 2040.23 379.671 2042.48 379.671C2044.72 379.671 2046.97 377.424 2046.97 375.177C2046.97 372.93 2044.72 370.683 2042.48 370.683Z" fill="white"/>
<path d="M1981.79 370.683C1979.55 370.683 1977.3 372.93 1977.3 375.177C1977.3 377.424 1979.55 379.671 1981.79 379.671C1984.04 379.671 1986.29 377.424 1986.29 375.177C1986.29 372.93 1984.04 370.683 1981.79 370.683Z" fill="white"/>
<path d="M1921.12 370.683C1918.88 370.683 1916.63 372.93 1916.63 375.177C1916.63 377.424 1918.88 379.671 1921.12 379.671C1923.37 379.671 1927.86 379.671 1927.86 375.177C1927.86 372.93 1925.62 370.683 1921.12 370.683Z" fill="white"/>
<path d="M1860.51 370.845C1858.26 370.845 1853.77 373.092 1853.77 377.586C1853.77 382.08 1858.26 382.08 1860.51 382.08C1862.75 382.08 1867.25 379.833 1867.25 375.339C1867.25 370.845 1865 370.845 1860.51 370.845Z" fill="white"/>
<path d="M1802.08 370.798C1799.84 370.798 1795.34 373.045 1795.34 377.539C1795.34 379.786 1797.59 384.28 1802.08 384.28C1804.33 384.28 1808.82 382.033 1808.82 377.539C1806.58 373.045 1804.33 370.798 1802.08 370.798Z" fill="white"/>
<path d="M1741.42 370.683C1739.17 370.683 1736.92 372.93 1736.92 375.177C1736.92 377.424 1739.17 379.671 1741.42 379.671C1743.66 379.671 1748.16 379.671 1748.16 375.177C1748.16 372.93 1743.66 370.683 1741.42 370.683Z" fill="white"/>
<path d="M1680.73 370.683C1678.25 370.683 1676.24 372.695 1676.24 375.177C1676.24 377.659 1678.25 379.671 1680.73 379.671C1683.21 379.671 1685.23 377.659 1685.23 375.177C1685.23 372.695 1683.21 370.683 1680.73 370.683Z" fill="white"/>
<path d="M1622.33 370.683C1620.08 370.683 1617.83 372.93 1617.83 375.177C1617.83 377.424 1620.08 379.671 1622.33 379.671C1624.57 379.671 1626.82 377.424 1626.82 375.177C1626.82 372.93 1624.57 370.683 1622.33 370.683Z" fill="white"/>
<path d="M1561.64 370.683C1559.4 370.683 1557.15 372.93 1557.15 375.177C1557.15 377.424 1559.4 379.671 1561.64 379.671C1563.89 379.671 1566.14 377.424 1566.14 375.177C1566.14 372.93 1563.89 370.683 1561.64 370.683Z" fill="white"/>
<path d="M1500.98 370.683C1498.73 370.683 1496.48 372.93 1496.48 375.177C1496.48 377.424 1498.73 379.671 1500.98 379.671C1503.22 379.671 1505.47 377.424 1505.47 375.177C1505.47 372.93 1503.22 370.683 1500.98 370.683Z" fill="white"/>
<path d="M1440.31 370.683C1438.06 370.683 1435.81 372.93 1435.81 375.177C1435.81 377.424 1438.06 379.671 1440.31 379.671C1442.55 379.671 1444.8 377.424 1444.8 375.177C1444.8 372.93 1442.55 370.683 1440.31 370.683Z" fill="white"/>
<path d="M1381.87 373.092C1379.62 373.092 1377.37 375.339 1377.37 377.586C1377.37 379.833 1379.62 382.08 1381.87 382.08C1384.11 382.08 1386.36 379.833 1386.36 377.586C1384.11 373.092 1384.11 373.092 1381.87 373.092Z" fill="white"/>
<path d="M1321.2 372.93C1318.95 372.93 1316.71 375.177 1316.71 377.424C1316.71 379.671 1318.95 379.671 1321.2 379.671C1323.45 379.671 1325.69 377.424 1325.69 375.177C1325.69 372.93 1323.45 372.93 1321.2 372.93Z" fill="white"/>
<path d="M1260.53 372.983C1258.28 372.983 1258.28 375.23 1258.28 375.23C1258.28 377.477 1260.53 377.477 1260.53 377.477C1262.78 377.477 1262.78 375.23 1262.78 375.23C1265.03 372.983 1262.78 372.983 1260.53 372.983Z" fill="white"/>
<path d="M1202.11 372.983C1199.86 372.983 1199.86 375.23 1199.86 375.23C1199.86 377.477 1202.11 377.477 1202.11 377.477C1204.36 377.477 1204.36 375.23 1204.36 375.23C1204.36 372.983 1202.11 372.983 1202.11 372.983Z" fill="white"/>
<path d="M1141.43 372.983C1140.18 372.983 1139.18 373.989 1139.18 375.23C1139.18 376.471 1140.18 377.477 1141.43 377.477C1142.67 377.477 1143.67 376.471 1143.67 375.23C1143.67 373.989 1142.67 372.983 1141.43 372.983Z" fill="white"/>
<path d="M1080.76 372.983C1078.51 372.983 1078.51 375.23 1078.51 375.23C1078.51 377.477 1080.76 377.477 1080.76 377.477C1083.01 377.477 1083.01 375.23 1083.01 375.23C1083.01 375.23 1083.01 372.983 1080.76 372.983Z" fill="white"/>
<path d="M1020.14 372.983C1017.89 372.983 1017.89 375.23 1017.89 375.23C1017.89 377.477 1020.14 377.477 1020.14 377.477C1022.39 377.477 1022.39 375.23 1022.39 375.23C1024.63 375.23 1022.39 372.983 1020.14 372.983Z" fill="white"/>
<path d="M961.719 372.983C959.472 372.983 959.472 372.983 959.472 375.23C959.472 377.477 961.719 377.477 961.719 377.477C963.966 377.477 963.966 377.477 963.966 375.23L961.719 372.983Z" fill="white"/>
<path d="M901.052 372.983C898.805 372.983 898.805 372.983 898.805 375.23C898.805 377.477 898.805 377.477 901.052 377.477C903.299 377.477 903.299 377.477 903.299 375.23C903.299 375.23 903.299 372.983 901.052 372.983Z" fill="white"/>
<path d="M840.388 372.983C840.388 372.983 838.141 375.23 840.388 372.983C838.141 377.477 838.141 377.477 840.388 377.477C842.635 377.477 842.635 377.477 840.388 372.983C842.635 372.983 842.635 375.23 840.388 372.983Z" fill="white"/>
<path d="M781.944 372.983C779.697 375.23 779.697 372.983 781.944 372.983C779.697 377.477 779.697 377.477 781.944 377.477C781.944 377.477 784.191 377.477 781.944 372.983C781.944 372.983 784.191 375.23 781.944 372.983Z" fill="white"/>
<path d="M721.259 372.983C719.012 375.23 719.012 372.983 721.259 372.983C719.012 375.23 721.259 377.477 721.259 377.477C721.259 377.477 723.506 377.477 721.259 372.983C721.259 372.983 723.506 375.23 721.259 372.983Z" fill="white"/>
<path d="M660.612 372.983C660.612 372.983 658.365 375.23 660.612 372.983C658.365 375.23 660.612 377.477 660.612 377.477C660.612 377.477 662.859 377.477 660.612 372.983C662.859 372.983 662.859 375.23 660.612 372.983Z" fill="white"/>
<path d="M599.945 372.983C599.945 375.23 599.945 372.983 599.945 372.983C597.698 375.23 599.945 377.477 599.945 377.477C602.192 377.477 602.192 377.477 599.945 372.983C602.192 372.983 602.192 375.23 599.945 372.983Z" fill="white"/>
<path d="M541.519 372.983C540.278 372.983 539.272 373.989 539.272 375.23C539.272 376.471 540.278 377.477 541.519 377.477C542.76 377.477 543.765 376.471 543.765 375.23C543.765 373.989 542.76 372.983 541.519 372.983Z" fill="white"/>
<path d="M480.849 375.23L478.602 375.23L480.849 377.477L483.096 375.23L480.849 375.23Z" fill="white"/>
<path d="M420.165 375.23L420.165 377.477L422.411 375.23L420.165 375.23Z" fill="white"/>
<path d="M361.744 375.23L359.497 375.23L361.744 377.477L361.744 375.23Z" fill="white"/>
<path d="M301.078 375.23L298.831 375.23L301.078 377.477L301.078 375.23Z" fill="white"/>
<path d="M240.407 375.23L240.407 377.477L242.654 375.23L240.407 375.23Z" fill="white"/>
<path d="M179.79 375.23L179.79 377.477L182.037 375.23L179.79 375.23Z" fill="white"/>
<path d="M2282.91 314.664L2280.66 316.911L2282.91 316.911L2282.91 314.664Z" fill="white"/>
<path d="M2222.22 314.613C2219.97 314.613 2219.97 314.613 2222.22 314.613C2219.97 316.86 2219.97 319.107 2222.22 319.107C2222.22 319.107 2224.47 316.86 2222.22 314.613C2222.22 314.613 2224.47 314.613 2222.22 314.613Z" fill="white"/>
<path d="M2161.57 312.417C2159.32 312.417 2159.32 314.664 2159.32 314.664C2159.32 316.911 2161.57 316.911 2161.57 316.911C2163.82 316.911 2163.82 314.664 2163.82 314.664C2166.06 314.664 2163.82 312.417 2161.57 312.417Z" fill="white"/>
<path d="M2100.89 312.319C2098.64 312.319 2096.39 314.566 2096.39 316.813C2096.39 319.06 2098.64 321.307 2100.89 321.307C2103.13 321.307 2105.38 319.06 2105.38 316.813C2105.38 312.319 2103.13 312.319 2100.89 312.319Z" fill="white"/>
<path d="M2042.48 310.021C2040.23 310.021 2035.73 312.268 2035.73 316.762C2035.73 319.009 2037.98 323.503 2042.48 323.503C2044.72 323.503 2049.22 321.256 2049.22 316.762C2046.97 312.268 2044.72 310.021 2042.48 310.021Z" fill="white"/>
<path d="M1981.79 310.021C1977.3 310.021 1975.05 312.268 1975.05 316.762C1975.05 321.256 1977.3 323.503 1981.79 323.503C1986.28 323.503 1988.53 321.256 1988.53 316.762C1988.53 312.268 1986.28 310.021 1981.79 310.021Z" fill="white"/>
<path d="M1921.12 307.774C1916.63 307.774 1914.38 310.021 1914.38 314.515C1914.38 319.009 1916.63 323.503 1921.12 323.503C1925.62 323.503 1927.86 321.256 1927.86 316.762C1927.86 312.268 1925.62 307.774 1921.12 307.774Z" fill="white"/>
<path d="M1860.45 307.825C1855.96 307.825 1853.71 310.072 1853.71 314.566C1853.71 319.06 1855.96 321.307 1860.45 321.307C1864.95 321.307 1869.44 319.06 1869.44 316.813C1869.44 312.319 1864.95 307.825 1860.45 307.825Z" fill="white"/>
<path d="M1802.08 307.774C1797.59 307.774 1795.34 310.021 1795.34 314.515C1795.34 319.009 1797.59 323.503 1802.08 323.503C1806.58 323.503 1808.82 321.256 1808.82 316.762C1808.82 312.268 1806.58 307.774 1802.08 307.774Z" fill="white"/>
<path d="M1741.42 307.825C1736.92 307.825 1734.68 310.072 1734.68 314.566C1734.68 319.06 1736.92 321.307 1741.42 321.307C1745.91 321.307 1748.16 319.06 1748.16 314.566C1748.16 312.319 1745.91 307.825 1741.42 307.825Z" fill="white"/>
<path d="M1680.75 310.021C1676.25 310.021 1674.01 312.268 1674.01 316.762C1674.01 321.256 1676.25 323.503 1680.75 323.503C1685.24 323.503 1687.49 321.256 1687.49 316.762C1687.49 312.268 1685.24 310.021 1680.75 310.021Z" fill="white"/>
<path d="M1622.32 310.021C1617.83 310.021 1615.58 312.268 1615.58 316.762C1615.58 321.256 1617.83 323.503 1622.32 323.503C1626.82 323.503 1629.06 321.256 1629.06 316.762C1626.82 312.268 1624.57 310.021 1622.32 310.021Z" fill="white"/>
<path d="M1561.64 310.021C1559.39 310.021 1554.9 312.268 1554.9 316.762C1554.9 319.009 1557.15 323.503 1561.64 323.503C1563.89 323.503 1568.38 321.256 1568.38 316.762C1568.38 312.268 1563.89 310.021 1561.64 310.021Z" fill="white"/>
<path d="M1500.97 310.021C1498.72 310.021 1494.23 312.268 1494.23 316.762C1494.23 319.009 1496.48 323.503 1500.97 323.503C1503.22 323.503 1507.71 321.256 1507.71 316.762C1507.71 312.268 1505.47 310.021 1500.97 310.021Z" fill="white"/>
<path d="M1440.3 310.119C1438.06 310.119 1435.81 312.366 1435.81 314.613C1435.81 316.86 1438.06 319.107 1440.3 319.107C1442.55 319.107 1447.05 319.107 1447.05 316.86C1447.05 312.366 1444.8 310.119 1440.3 310.119Z" fill="white"/>
<path d="M1381.87 310.119C1379.62 310.119 1377.37 312.366 1377.37 314.613C1377.37 316.86 1379.62 319.107 1381.87 319.107C1384.11 319.107 1386.36 316.86 1386.36 314.613C1386.36 312.366 1384.11 310.119 1381.87 310.119Z" fill="white"/>
<path d="M1321.2 310.119C1318.95 310.119 1316.71 312.366 1316.71 314.613C1316.71 316.86 1318.95 319.107 1321.2 319.107C1323.45 319.107 1325.69 316.86 1325.69 314.613C1325.69 312.366 1323.45 310.119 1321.2 310.119Z" fill="white"/>
<path d="M1260.53 312.319C1258.29 312.319 1256.04 314.566 1256.04 316.813C1256.04 319.06 1258.29 321.307 1260.53 321.307C1262.78 321.307 1265.03 319.06 1265.03 316.813C1265.03 312.319 1262.78 312.319 1260.53 312.319Z" fill="white"/>
<path d="M1202.11 312.319C1199.86 312.319 1197.62 314.566 1197.62 316.813C1197.62 319.06 1199.86 321.307 1202.11 321.307C1204.36 321.307 1206.6 319.06 1206.6 316.813C1204.36 314.566 1204.36 312.319 1202.11 312.319Z" fill="white"/>
<path d="M1141.44 312.319C1139.19 312.319 1136.95 314.566 1136.95 316.813C1136.95 319.06 1139.19 321.307 1141.44 321.307C1143.69 319.06 1145.93 316.813 1145.93 316.813C1145.93 314.566 1143.69 312.319 1141.44 312.319Z" fill="white"/>
<path d="M1080.76 312.319C1078.51 312.319 1076.26 314.566 1076.26 316.813C1076.26 319.06 1078.51 321.307 1080.76 321.307C1083 321.307 1085.25 319.06 1085.25 316.813C1085.25 314.566 1083 312.319 1080.76 312.319Z" fill="white"/>
<path d="M1020.14 312.417C1017.89 312.417 1017.89 314.664 1017.89 314.664C1017.89 316.911 1020.14 316.911 1020.14 316.911C1022.39 316.911 1022.39 314.664 1022.39 314.664C1024.63 314.664 1022.39 312.417 1020.14 312.417Z" fill="white"/>
<path d="M961.719 312.417C959.472 312.417 959.472 314.664 959.472 314.664C959.472 316.911 961.719 316.911 961.719 316.911L963.966 316.911C963.966 314.664 963.966 312.417 961.719 312.417Z" fill="white"/>
<path d="M901.052 312.417C898.805 312.417 898.805 314.664 898.805 314.664C898.805 316.911 901.052 316.911 901.052 316.911C903.299 316.911 903.299 314.664 903.299 314.664C903.299 314.664 903.299 312.417 901.052 312.417Z" fill="white"/>
<path d="M840.367 314.613C839.126 314.613 838.12 315.619 838.12 316.86C838.12 318.101 839.126 319.107 840.367 319.107C841.608 319.107 842.614 318.101 842.614 316.86C842.614 315.619 841.608 314.613 840.367 314.613Z" fill="white"/>
<path d="M781.961 312.292C779.714 312.292 779.714 314.539 779.714 314.539C779.714 316.786 781.961 316.786 781.961 316.786C781.961 319.032 784.208 316.786 784.208 316.786C784.208 314.539 781.961 312.292 781.961 312.292Z" fill="white"/>
<path d="M721.276 312.417C719.029 312.417 719.029 314.664 719.029 314.664C719.029 316.911 721.276 316.911 721.276 316.911C723.523 316.911 723.523 314.664 723.523 314.664C723.523 314.664 723.523 312.417 721.276 312.417Z" fill="white"/>
<path d="M660.609 312.417C658.362 312.417 658.362 312.417 658.362 314.664C658.362 316.911 660.609 316.911 660.609 316.911C662.856 316.911 662.856 316.911 662.856 314.664C662.856 314.664 662.856 312.417 660.609 312.417Z" fill="white"/>
<path d="M599.94 314.613C597.693 314.613 597.693 314.613 597.693 316.86C597.693 319.107 597.693 319.107 599.94 319.107C602.187 319.107 602.187 319.107 602.187 316.86C602.187 314.613 602.187 314.613 599.94 314.613Z" fill="white"/>
<path d="M541.499 314.613C539.252 314.613 539.252 314.613 541.499 314.613C539.252 316.86 541.499 319.107 541.499 319.107C541.499 316.86 543.746 316.86 541.499 314.613C541.499 314.613 543.746 314.613 541.499 314.613Z" fill="white"/>
<path d="M480.855 314.613C480.855 314.613 478.608 314.613 480.855 314.613C478.608 316.86 480.855 319.107 480.855 319.107C480.855 319.107 483.102 316.86 480.855 314.613C483.102 314.613 483.102 314.613 480.855 314.613Z" fill="white"/>
<path d="M420.188 314.613C417.941 316.86 420.188 319.107 420.188 319.107C422.435 316.86 422.435 316.86 420.188 314.613C422.435 314.613 422.435 314.613 420.188 314.613Z" fill="white"/>
<path d="M361.744 314.664L359.497 316.911L361.744 316.911L361.744 314.664Z" fill="white"/>
<path d="M301.078 314.664L298.831 316.911L301.078 316.911L301.078 314.664Z" fill="white"/>
<path d="M240.407 314.664L240.407 316.911L242.654 316.911L240.407 314.664Z" fill="white"/>
<path d="M179.79 314.664L179.79 316.911L182.037 316.911L179.79 314.664Z" fill="white"/>
<path d="M121.352 314.664L119.105 316.911L121.352 316.911L121.352 314.664Z" fill="white"/>
<path d="M2282.91 253.887L2280.66 256.134L2282.91 256.134L2282.91 253.887Z" fill="white"/>
<path d="M2222.24 253.827C2219.99 253.827 2219.99 256.074 2219.99 256.074C2219.99 258.321 2222.24 258.321 2222.24 258.321C2224.49 258.321 2224.49 256.074 2224.49 256.074C2224.49 253.827 2222.24 253.827 2222.24 253.827Z" fill="white"/>
<path d="M2161.57 251.747C2159.32 251.747 2157.07 253.994 2157.07 256.241C2157.07 258.487 2159.32 260.734 2161.57 260.734C2163.81 260.734 2166.06 258.487 2166.06 256.241C2166.06 253.994 2163.81 251.747 2161.57 251.747Z" fill="white"/>
<path d="M2100.9 249.5C2098.65 249.5 2094.16 251.747 2094.16 256.241C2094.16 258.488 2096.41 260.734 2100.9 260.734C2103.15 260.734 2107.64 258.488 2107.64 256.241C2107.64 251.747 2105.39 249.5 2100.9 249.5Z" fill="white"/>
<path d="M2042.48 249.455C2037.98 249.455 2035.73 251.702 2035.73 256.196C2035.73 260.69 2037.98 262.937 2042.48 262.937C2046.97 262.937 2049.22 260.69 2049.22 256.196C2049.22 251.702 2044.72 249.455 2042.48 249.455Z" fill="white"/>
<path d="M1981.81 247.155C1977.31 247.155 1972.82 251.649 1972.82 256.143C1972.82 260.636 1977.31 265.13 1981.81 265.13C1986.3 265.13 1990.79 260.636 1990.79 256.143C1990.79 251.649 1986.3 247.155 1981.81 247.155Z" fill="white"/>
<path d="M1921.12 247.155C1916.63 247.155 1912.13 251.649 1912.13 256.143C1912.13 260.636 1916.63 265.13 1921.12 265.13C1925.61 265.13 1930.11 260.636 1930.11 256.143C1930.11 251.649 1925.61 247.155 1921.12 247.155Z" fill="white"/>
<path d="M1860.48 247.155C1855.98 247.155 1851.49 251.649 1851.49 256.143C1851.49 260.636 1855.98 265.13 1860.48 265.13C1864.97 265.13 1869.47 260.636 1869.47 256.143C1871.71 251.649 1867.22 247.155 1860.48 247.155Z" fill="white"/>
<path d="M1802.08 247.155C1797.59 247.155 1793.09 251.649 1793.09 256.143C1793.09 260.636 1797.59 265.13 1802.08 265.13C1806.57 265.13 1811.07 260.636 1811.07 256.143C1811.07 251.649 1806.57 247.155 1802.08 247.155Z" fill="white"/>
<path d="M1741.41 247.155C1736.92 247.155 1732.42 251.649 1732.42 256.143C1732.42 260.636 1736.92 265.13 1741.41 265.13C1745.91 265.13 1750.4 260.636 1750.4 256.143C1750.4 251.649 1745.91 247.155 1741.41 247.155Z" fill="white"/>
<path d="M1680.75 247.155C1676.25 247.155 1671.76 251.649 1671.76 256.143C1671.76 260.636 1676.25 265.13 1680.75 265.13C1685.24 265.13 1689.73 260.636 1689.73 256.143C1689.73 251.649 1685.24 247.155 1680.75 247.155Z" fill="white"/>
<path d="M1622.32 247.253C1617.83 247.253 1615.58 251.747 1615.58 253.994C1615.58 258.487 1620.08 260.734 1622.32 260.734C1626.82 260.734 1629.06 256.241 1629.06 253.994C1629.06 251.747 1626.82 247.253 1622.32 247.253Z" fill="white"/>
<path d="M1561.64 249.455C1557.15 249.455 1554.9 251.702 1554.9 256.196C1554.9 260.69 1557.15 262.937 1561.64 262.937C1566.13 262.937 1568.38 260.69 1568.38 256.196C1568.38 251.702 1566.13 249.455 1561.64 249.455Z" fill="white"/>
<path d="M1500.97 249.455C1496.48 249.455 1494.23 251.702 1494.23 256.196C1494.23 260.69 1496.48 262.937 1500.97 262.937C1505.47 262.937 1507.71 260.69 1507.71 256.196C1507.71 251.702 1505.47 249.455 1500.97 249.455Z" fill="white"/>
<path d="M1440.3 249.455C1435.81 249.455 1433.56 251.702 1433.56 256.196C1433.56 260.69 1435.81 262.937 1440.3 262.937C1444.8 262.937 1447.05 260.69 1447.05 256.196C1447.05 251.702 1444.8 249.455 1440.3 249.455Z" fill="white"/>
<path d="M1381.88 249.455C1379.63 249.455 1375.14 251.702 1375.14 256.196C1375.14 258.443 1377.39 262.937 1381.88 262.937C1384.13 262.937 1388.62 260.69 1388.62 256.196C1386.38 251.702 1384.13 249.455 1381.88 249.455Z" fill="white"/>
<path d="M1321.2 249.5C1318.95 249.5 1314.46 251.747 1314.46 256.241C1314.46 258.488 1316.7 260.734 1321.2 260.734C1323.44 260.734 1327.94 258.488 1327.94 256.241C1327.94 251.747 1323.44 249.5 1321.2 249.5Z" fill="white"/>
<path d="M1260.53 249.333C1258.28 249.333 1256.03 251.58 1256.03 253.827C1256.03 256.074 1258.28 258.321 1260.53 258.321C1262.77 258.321 1265.02 256.074 1265.02 253.827C1267.27 253.827 1265.02 249.333 1260.53 249.333Z" fill="white"/>
<path d="M1202.11 251.747C1199.86 251.747 1197.62 253.994 1197.62 256.241C1197.62 258.488 1199.86 260.734 1202.11 260.734C1204.36 260.734 1206.6 258.488 1206.6 256.241C1206.6 253.994 1204.36 251.747 1202.11 251.747Z" fill="white"/>
<path d="M1141.44 251.747C1139.19 251.747 1136.95 253.994 1136.95 256.241C1136.95 258.488 1139.19 260.734 1141.44 260.734C1143.69 260.734 1145.93 258.488 1145.93 256.241C1145.93 253.994 1143.69 251.747 1141.44 251.747Z" fill="white"/>
<path d="M1080.76 251.747C1078.51 251.747 1076.26 253.994 1076.26 256.241C1076.26 258.487 1078.51 260.734 1080.76 260.734C1083 260.734 1085.25 258.487 1085.25 256.241C1085.25 253.994 1083 251.747 1080.76 251.747Z" fill="white"/>
<path d="M1020.14 251.747C1017.89 251.747 1015.65 253.994 1015.65 256.241C1015.65 258.488 1017.89 260.734 1020.14 260.734C1022.39 260.734 1024.63 258.488 1024.63 256.241C1024.63 253.994 1022.39 251.747 1020.14 251.747Z" fill="white"/>
<path d="M961.719 251.747C959.472 251.747 957.225 253.994 957.225 256.241C957.225 258.487 959.472 260.734 961.719 260.734C963.966 260.734 963.965 258.487 963.965 256.241C963.965 253.994 963.966 251.747 961.719 251.747Z" fill="white"/>
<path d="M901.048 251.747C898.801 251.747 896.554 253.994 896.554 256.241C896.554 258.487 898.801 260.734 901.048 260.734C903.295 260.734 905.542 258.487 905.542 256.241C905.542 253.994 903.295 251.747 901.048 251.747Z" fill="white"/>
<path d="M840.381 251.747C838.134 251.747 835.887 253.994 835.887 256.241C835.887 258.488 838.134 260.734 840.381 260.734C842.628 260.734 844.875 258.488 844.875 256.241C844.875 253.994 842.628 251.747 840.381 251.747Z" fill="white"/>
<path d="M781.961 251.64C779.714 251.64 779.714 253.887 779.714 253.887C779.714 256.134 781.961 256.134 781.961 256.134C784.208 256.134 784.208 253.887 784.208 253.887L781.961 251.64Z" fill="white"/>
<path d="M721.276 251.64C719.029 251.64 719.029 253.887 719.029 253.887C719.029 256.134 721.276 256.134 721.276 256.134C723.523 256.134 723.523 253.887 723.523 253.887C723.523 253.887 723.523 251.64 721.276 251.64Z" fill="white"/>
<path d="M660.609 253.827C658.362 253.827 658.362 256.074 658.362 256.074C658.362 258.321 660.609 258.321 660.609 258.321C662.856 258.321 662.856 256.074 662.856 256.074C662.856 253.827 662.856 253.827 660.609 253.827Z" fill="white"/>
<path d="M599.938 253.827C597.691 253.827 597.692 256.074 597.692 256.074C597.692 258.321 599.938 258.321 599.938 258.321C602.185 258.321 604.432 256.074 604.432 256.074C604.432 253.827 602.185 253.827 599.938 253.827Z" fill="white"/>
<path d="M541.519 253.827C539.272 253.827 539.272 253.827 539.272 256.074C539.272 258.321 541.519 258.321 541.519 258.321C543.766 258.321 543.766 258.321 543.766 256.074C543.766 253.827 541.519 253.827 541.519 253.827Z" fill="white"/>
<path d="M480.849 253.827C478.602 253.827 478.602 253.827 478.602 256.074C478.602 258.321 478.602 258.321 480.849 258.321C483.096 258.321 483.096 258.321 483.096 256.074C483.096 253.827 483.096 253.827 480.849 253.827Z" fill="white"/>
<path d="M420.188 253.827C420.188 253.827 417.941 253.827 420.188 253.827C417.941 256.074 420.188 258.321 420.188 258.321C422.435 258.321 422.435 256.074 420.188 253.827C422.435 253.827 422.435 253.827 420.188 253.827Z" fill="white"/>
<path d="M361.744 253.827C359.497 253.827 359.497 253.827 361.744 253.827C359.497 256.074 361.744 258.321 361.744 258.321C361.744 258.321 361.744 256.074 361.744 253.827Z" fill="white"/>
<path d="M301.074 253.827L298.827 256.074L301.074 258.321L303.321 256.074L301.074 253.827Z" fill="white"/>
<path d="M240.407 253.887L240.407 256.134L242.654 256.134L240.407 253.887Z" fill="white"/>
<path d="M179.79 253.887L179.79 256.134L182.037 256.134L179.79 253.887Z" fill="white"/>
<path d="M2282.91 193.267C2281.66 193.267 2280.66 194.273 2280.66 195.514C2280.66 196.755 2281.66 197.761 2282.91 197.761C2284.15 197.761 2285.15 196.755 2285.15 195.514C2285.15 194.273 2284.15 193.267 2282.91 193.267Z" fill="white"/>
<path d="M2222.24 193.267C2219.99 193.267 2219.99 195.514 2219.99 195.514C2219.99 197.761 2222.24 197.761 2222.24 197.761C2224.49 197.761 2224.49 195.514 2224.49 195.514C2224.49 193.267 2224.49 193.267 2222.24 193.267Z" fill="white"/>
<path d="M2161.57 190.975C2159.32 190.975 2157.07 193.222 2157.07 195.469C2157.07 197.716 2159.32 199.963 2161.57 199.963C2163.81 199.963 2166.06 197.716 2166.06 195.469C2166.06 193.222 2163.81 190.975 2161.57 190.975Z" fill="white"/>
<path d="M2100.9 188.669C2096.41 188.669 2094.16 190.916 2094.16 195.41C2094.16 199.904 2098.65 202.151 2100.9 202.151C2105.39 202.151 2107.64 199.904 2107.64 195.41C2107.64 190.916 2105.39 188.669 2100.9 188.669Z" fill="white"/>
<path d="M2042.47 186.59C2037.98 186.59 2033.48 191.084 2033.48 195.578C2033.48 200.072 2037.98 204.566 2042.47 204.566C2046.97 204.566 2051.46 200.072 2051.46 195.578C2051.46 191.084 2046.97 186.59 2042.47 186.59Z" fill="white"/>
<path d="M1981.81 186.537C1977.31 186.537 1972.82 191.031 1972.82 195.525C1972.82 200.019 1975.06 206.76 1981.81 206.76C1986.3 206.76 1990.79 202.266 1990.79 197.772C1990.79 193.278 1986.3 186.537 1981.81 186.537Z" fill="white"/>
<path d="M1921.13 184.29C1914.39 184.29 1909.9 188.784 1909.9 195.525C1909.9 202.266 1914.39 206.76 1921.13 206.76C1927.88 206.76 1932.37 202.266 1932.37 195.525C1932.37 191.031 1927.88 184.29 1921.13 184.29Z" fill="white"/>
<path d="M1860.47 184.29C1854.26 184.29 1849.23 189.32 1849.23 195.525C1849.23 201.73 1854.26 206.76 1860.47 206.76C1866.67 206.76 1871.7 201.73 1871.7 195.525C1871.7 189.32 1866.67 184.29 1860.47 184.29Z" fill="white"/>
<path d="M1802.04 184.29C1795.3 184.29 1790.81 188.784 1790.81 195.525C1790.81 202.266 1795.3 206.76 1802.04 206.76C1808.78 206.76 1813.28 202.266 1813.28 195.525C1813.28 191.031 1806.54 184.29 1802.04 184.29Z" fill="white"/>
<path d="M1741.41 184.29C1735.21 184.29 1730.18 189.32 1730.18 195.525C1730.18 201.73 1735.21 206.76 1741.41 206.76C1747.62 206.76 1752.65 201.73 1752.65 195.525C1752.65 189.32 1747.62 184.29 1741.41 184.29Z" fill="white"/>
<path d="M1680.7 186.59C1676.21 186.59 1671.71 191.084 1671.71 195.578C1671.71 200.072 1676.21 204.566 1680.7 204.566C1685.2 204.566 1689.69 200.072 1689.69 195.578C1691.94 191.084 1687.44 186.59 1680.7 186.59Z" fill="white"/>
<path d="M1622.32 186.59C1617.83 186.59 1613.33 191.084 1613.33 195.578C1613.33 200.072 1615.58 204.566 1622.32 204.566C1626.82 204.566 1631.31 200.072 1631.31 195.578C1631.31 191.084 1626.82 186.59 1622.32 186.59Z" fill="white"/>
<path d="M1561.66 186.59C1557.16 186.59 1552.67 191.084 1552.67 195.578C1552.67 200.072 1557.16 204.566 1561.66 204.566C1566.15 204.566 1570.64 200.072 1570.64 195.578C1570.64 191.084 1566.15 186.59 1561.66 186.59Z" fill="white"/>
<path d="M1500.97 188.837C1496.48 188.837 1491.98 193.331 1491.98 197.825C1491.98 202.319 1496.48 204.566 1500.97 204.566C1505.46 204.566 1509.96 200.072 1509.96 195.578C1509.96 191.084 1505.46 188.837 1500.97 188.837Z" fill="white"/>
<path d="M1440.3 188.669C1435.81 188.669 1433.56 190.916 1433.56 195.41C1433.56 199.904 1438.06 202.151 1440.3 202.151C1444.8 202.151 1447.05 199.904 1447.05 195.41C1447.05 190.916 1444.8 188.669 1440.3 188.669Z" fill="white"/>
<path d="M1381.88 188.669C1378.16 188.669 1375.14 191.687 1375.14 195.41C1375.14 199.133 1378.16 202.151 1381.88 202.151C1385.6 202.151 1388.62 199.133 1388.62 195.41C1388.62 191.687 1385.6 188.669 1381.88 188.669Z" fill="white"/>
<path d="M1321.2 188.669C1316.7 188.669 1314.46 190.916 1314.46 195.41C1314.46 199.904 1316.7 202.151 1321.2 202.151C1325.69 202.151 1327.94 199.904 1327.94 195.41C1327.94 190.916 1325.69 188.669 1321.2 188.669Z" fill="white"/>
<path d="M1260.53 188.669C1256.81 188.669 1253.79 191.687 1253.79 195.41C1253.79 199.133 1256.81 202.151 1260.53 202.151C1264.25 202.151 1267.27 199.133 1267.27 195.41C1267.27 191.687 1264.25 188.669 1260.53 188.669Z" fill="white"/>
<path d="M1202.11 190.916C1199.86 190.916 1195.36 193.163 1195.36 197.657C1195.36 202.151 1197.61 202.151 1202.11 202.151C1204.35 202.151 1208.85 199.904 1208.85 195.41C1208.85 190.916 1204.35 190.916 1202.11 190.916Z" fill="white"/>
<path d="M1141.44 190.916C1139.19 190.916 1136.95 193.163 1136.95 195.41C1136.95 197.657 1139.19 202.151 1141.44 202.151C1143.69 202.151 1145.93 199.904 1145.93 197.657C1145.93 195.41 1143.69 190.916 1141.44 190.916Z" fill="white"/>
<path d="M1080.76 190.975C1078.28 190.975 1076.26 192.987 1076.26 195.469C1076.26 197.951 1078.28 199.963 1080.76 199.963C1083.24 199.963 1085.25 197.951 1085.25 195.469C1085.25 192.987 1083.24 190.975 1080.76 190.975Z" fill="white"/>
<path d="M1020.14 190.975C1017.89 190.975 1015.64 193.222 1015.64 195.469C1015.64 197.716 1017.89 199.963 1020.14 199.963C1022.38 199.963 1024.63 197.716 1024.63 195.469C1026.88 193.222 1024.63 190.975 1020.14 190.975Z" fill="white"/>
<path d="M961.717 190.975C959.235 190.975 957.223 192.987 957.223 195.469C957.223 197.951 959.235 199.963 961.717 199.963C964.199 199.963 966.211 197.951 966.211 195.469C966.211 192.987 964.199 190.975 961.717 190.975Z" fill="white"/>
<path d="M901.048 190.975C898.566 190.975 896.554 192.987 896.554 195.469C896.554 197.951 898.566 199.963 901.048 199.963C903.53 199.963 905.542 197.951 905.542 195.469C905.542 192.987 903.53 190.975 901.048 190.975Z" fill="white"/>
<path d="M840.381 190.975C837.899 190.975 835.887 192.987 835.887 195.469C835.887 197.951 837.899 199.963 840.381 199.963C842.863 199.963 844.875 197.951 844.875 195.469C844.875 192.987 842.863 190.975 840.381 190.975Z" fill="white"/>
<path d="M781.961 190.975C779.714 190.975 777.467 193.222 777.467 195.469C777.467 197.716 779.714 199.963 781.961 199.963C784.208 199.963 784.208 197.716 784.208 195.469C784.208 193.222 784.208 190.975 781.961 190.975Z" fill="white"/>
<path d="M721.29 193.222C719.043 193.222 716.797 195.469 716.797 197.716C716.797 199.963 719.043 199.963 721.29 199.963C723.537 199.963 725.784 197.716 725.784 195.469C725.784 193.222 723.537 193.222 721.29 193.222Z" fill="white"/>
<path d="M660.605 193.222C658.358 193.222 656.111 195.469 656.111 197.716C656.111 199.963 658.358 199.963 660.605 199.963C662.852 199.963 665.099 197.716 665.099 195.469C665.099 193.222 662.852 193.222 660.605 193.222Z" fill="white"/>
<path d="M599.94 193.267C598.699 193.267 597.693 194.273 597.693 195.514C597.693 196.755 598.699 197.761 599.94 197.761C601.181 197.761 602.187 196.755 602.187 195.514C602.187 194.273 601.181 193.267 599.94 193.267Z" fill="white"/>
<path d="M541.519 193.267C539.272 193.267 539.272 195.514 539.272 195.514C539.272 195.514 539.272 197.761 541.519 197.761C543.766 197.761 543.766 195.514 543.766 195.514L541.519 193.267Z" fill="white"/>
<path d="M480.849 193.267C479.608 193.267 478.602 194.273 478.602 195.514C478.602 196.755 479.608 197.761 480.849 197.761C482.09 197.761 483.096 196.755 483.096 195.514C483.096 194.273 482.09 193.267 480.849 193.267Z" fill="white"/>
<path d="M420.165 193.267C417.918 193.267 417.918 193.267 417.918 195.514C417.918 197.761 420.165 197.761 420.165 197.761C422.411 197.761 422.411 195.514 422.411 195.514C422.411 195.514 422.411 193.267 420.165 193.267Z" fill="white"/>
<path d="M361.792 193.267C359.545 195.514 359.545 193.267 361.792 193.267C359.545 195.514 359.545 197.761 361.792 197.761C361.792 197.761 364.039 197.761 361.792 193.267C361.792 193.267 364.039 195.514 361.792 193.267Z" fill="white"/>
<path d="M301.107 193.267C298.86 195.514 298.86 193.267 301.107 193.267C298.86 195.514 301.107 197.761 301.107 197.761C301.107 197.761 303.354 197.761 301.107 193.267C301.107 193.267 303.354 195.514 301.107 193.267Z" fill="white"/>
<path d="M240.407 193.267L240.407 195.514L240.407 197.761L242.654 195.514L240.407 193.267Z" fill="white"/>
<path d="M179.79 193.267C178.549 193.267 177.543 194.273 177.543 195.514C177.543 196.755 178.549 197.761 179.79 197.761C181.031 197.761 182.037 196.755 182.037 195.514C182.037 194.273 181.031 193.267 179.79 193.267Z" fill="white"/>
<path d="M121.352 195.516L119.105 195.516L121.352 197.763L121.352 195.516Z" fill="white"/>
<path d="M2341.33 134.728L2341.33 136.975L2343.58 134.728L2341.33 134.728Z" fill="white"/>
<path d="M2282.91 134.897C2280.66 134.897 2280.66 134.897 2282.91 134.897C2280.66 137.144 2282.91 139.391 2282.91 139.391C2282.91 137.144 2282.91 137.144 2282.91 134.897Z" fill="white"/>
<path d="M2222.24 130.403C2219.76 130.403 2217.74 132.415 2217.74 134.897C2217.74 137.378 2219.76 139.39 2222.24 139.39C2224.72 139.39 2226.73 137.378 2226.73 134.897C2226.73 132.415 2224.72 130.403 2222.24 130.403Z" fill="white"/>
<path d="M2161.57 130.305C2159.32 130.305 2154.83 132.552 2154.83 137.046C2154.83 139.293 2157.07 143.787 2161.57 143.787C2166.06 143.787 2168.31 139.293 2168.31 134.799C2168.31 132.552 2166.06 130.305 2161.57 130.305Z" fill="white"/>
<path d="M2100.91 128.058C2096.41 128.058 2094.17 132.552 2094.17 134.799C2094.17 139.293 2098.66 143.787 2100.91 143.787C2105.4 143.787 2107.65 139.293 2107.65 134.799C2109.9 130.305 2105.4 128.058 2100.91 128.058Z" fill="white"/>
<path d="M2042.47 125.811C2037.98 125.811 2033.48 130.305 2033.48 134.799C2033.48 139.293 2037.98 143.787 2042.47 143.787C2046.97 143.787 2051.46 139.293 2051.46 134.799C2051.46 130.305 2046.97 125.811 2042.47 125.811Z" fill="white"/>
<path d="M1981.8 123.498C1975.06 123.498 1970.57 127.992 1970.57 134.733C1970.57 141.474 1975.06 145.968 1981.8 145.968C1988.54 145.968 1993.04 141.474 1993.04 134.733C1993.04 130.239 1988.54 123.498 1981.8 123.498Z" fill="white"/>
<path d="M1921.13 123.62C1914.39 123.62 1907.65 128.114 1907.65 137.101C1907.65 143.842 1912.15 150.583 1921.13 150.583C1927.87 150.583 1934.61 143.842 1934.61 137.101C1934.61 128.114 1927.87 123.62 1921.13 123.62Z" fill="white"/>
<path d="M1860.47 123.673C1853.73 123.673 1846.98 130.414 1846.98 137.155C1846.98 143.896 1853.73 148.389 1860.47 148.389C1867.21 148.389 1873.95 143.896 1873.95 134.908C1873.95 125.92 1869.45 123.673 1860.47 123.673Z" fill="white"/>
<path d="M1802.04 123.62C1795.3 123.62 1788.56 128.114 1788.56 137.102C1788.56 143.842 1793.05 150.583 1802.04 150.583C1808.78 150.583 1815.52 143.842 1815.52 137.101C1813.28 128.114 1808.78 123.62 1802.04 123.62Z" fill="white"/>
<path d="M1741.41 123.498C1734.67 123.498 1730.18 127.992 1730.18 134.733C1730.18 141.474 1734.67 145.968 1741.41 145.968C1748.15 145.968 1752.65 141.474 1752.65 134.733C1752.65 127.992 1748.15 123.498 1741.41 123.498Z" fill="white"/>
<path d="M1680.74 123.498C1674 123.498 1669.51 127.992 1669.51 134.733C1669.51 141.474 1674 145.968 1680.74 145.968C1687.48 145.968 1691.98 141.474 1691.98 134.733C1691.98 130.239 1687.48 123.498 1680.74 123.498Z" fill="white"/>
<path d="M1622.32 125.92C1615.58 125.92 1611.09 130.414 1611.09 137.155C1611.09 143.896 1615.58 148.389 1622.32 148.389C1629.06 148.389 1633.56 143.896 1633.56 137.155C1631.31 130.414 1626.81 125.92 1622.32 125.92Z" fill="white"/>
<path d="M1561.66 125.811C1557.16 125.811 1552.67 130.305 1552.67 134.799C1552.67 139.293 1557.16 143.787 1561.66 143.787C1566.15 143.787 1570.64 139.293 1570.64 134.799C1570.64 130.305 1566.15 125.811 1561.66 125.811Z" fill="white"/>
<path d="M1500.97 125.811C1496.48 125.811 1491.98 130.305 1491.98 134.799C1491.98 139.293 1496.48 143.787 1500.97 143.787C1505.46 143.787 1509.96 141.54 1509.96 134.799C1509.96 130.305 1505.46 125.811 1500.97 125.811Z" fill="white"/>
<path d="M1440.3 125.811C1435.81 125.811 1431.32 130.305 1431.32 134.799C1431.32 139.293 1435.81 143.787 1440.3 143.787C1444.8 143.787 1449.29 141.54 1449.29 134.799C1449.29 130.305 1447.04 125.811 1440.3 125.811Z" fill="white"/>
<path d="M1381.88 127.992C1377.39 127.992 1372.89 132.486 1372.89 136.98C1372.89 141.474 1377.39 145.968 1381.88 145.968C1386.37 145.968 1390.87 141.474 1390.87 136.98C1388.62 130.239 1386.37 127.992 1381.88 127.992Z" fill="white"/>
<path d="M1321.21 128.058C1316.71 128.058 1314.47 132.552 1314.47 134.799C1314.47 139.293 1318.96 143.787 1321.21 143.787C1325.7 143.787 1327.95 139.293 1327.95 134.799C1330.19 130.305 1325.7 128.058 1321.21 128.058Z" fill="white"/>
<path d="M1260.54 128.111C1256.05 128.111 1253.8 130.358 1253.8 134.852C1253.8 139.346 1256.05 141.593 1260.54 141.593C1265.03 141.593 1267.28 139.346 1267.28 134.852C1269.53 132.605 1265.03 128.111 1260.54 128.111Z" fill="white"/>
<path d="M1202.11 128.111C1197.61 128.111 1195.36 130.358 1195.36 134.852C1195.36 139.346 1197.61 141.593 1202.11 141.593C1206.6 141.593 1208.85 139.346 1208.85 134.852C1208.85 132.605 1204.35 128.111 1202.11 128.111Z" fill="white"/>
<path d="M1141.44 130.305C1136.94 130.305 1134.7 132.552 1134.7 137.046C1134.7 141.54 1136.94 143.787 1141.44 143.787C1145.93 143.787 1148.18 141.54 1148.18 137.046C1148.18 132.552 1145.93 130.305 1141.44 130.305Z" fill="white"/>
<path d="M1080.77 130.305C1076.28 130.305 1074.03 132.552 1074.03 137.046C1074.03 141.54 1076.28 143.787 1080.77 143.787C1085.27 143.787 1087.51 139.293 1087.51 134.799C1087.51 132.552 1085.27 130.305 1080.77 130.305Z" fill="white"/>
<path d="M1020.09 130.305C1017.84 130.305 1013.35 132.552 1013.35 137.046C1013.35 139.293 1015.59 143.787 1020.09 143.787C1022.33 143.787 1026.83 141.54 1026.83 137.046C1026.83 132.552 1024.58 130.305 1020.09 130.305Z" fill="white"/>
<path d="M961.731 130.305C959.484 130.305 954.99 132.552 954.99 137.046C954.99 139.293 957.237 143.787 961.731 143.787C963.978 143.787 968.472 141.54 968.472 137.046C966.225 132.552 963.978 130.305 961.731 130.305Z" fill="white"/>
<path d="M901.048 130.403C898.801 130.403 896.554 132.65 896.554 134.897C896.554 137.144 898.801 139.391 901.048 139.391C903.295 139.391 905.542 137.144 905.542 134.897C905.542 132.65 903.295 130.403 901.048 130.403Z" fill="white"/>
<path d="M840.377 130.403C838.13 130.403 835.883 132.65 835.883 134.897C835.883 137.144 838.13 139.391 840.377 139.391C842.624 139.391 844.871 137.144 844.871 134.897C847.118 132.65 844.871 130.403 840.377 130.403Z" fill="white"/>
<path d="M781.957 130.403C779.71 130.403 777.463 132.65 777.463 134.897C777.463 137.144 779.71 139.39 781.957 139.39C784.204 139.39 786.451 137.144 786.451 134.897C786.451 132.65 784.204 130.403 781.957 130.403Z" fill="white"/>
<path d="M721.29 130.403C719.043 130.403 716.796 132.65 716.797 134.897C716.797 137.144 719.043 139.391 721.29 139.391C723.537 139.391 725.784 137.144 725.784 134.897C725.784 132.65 723.537 130.403 721.29 130.403Z" fill="white"/>
<path d="M660.605 132.605C658.358 132.605 656.111 134.852 656.111 137.099C656.111 139.346 658.358 141.593 660.605 141.593C662.852 141.593 665.099 139.346 665.099 137.099C665.099 132.605 662.852 132.605 660.605 132.605Z" fill="white"/>
<path d="M599.938 132.605C597.691 132.605 595.445 134.852 595.445 137.099C595.445 139.346 597.691 141.593 599.938 141.593C602.185 141.593 604.432 137.099 604.432 134.852C604.432 132.605 602.185 132.605 599.938 132.605Z" fill="white"/>
<path d="M541.515 132.605C539.268 132.605 537.021 134.852 537.021 137.099C537.021 139.346 539.268 141.593 541.515 141.593C543.762 141.593 546.009 139.346 546.009 137.099C543.762 134.852 543.762 132.605 541.515 132.605Z" fill="white"/>
<path d="M480.849 132.481C478.602 132.481 478.602 134.728 478.602 134.728C478.602 136.975 480.849 136.975 480.849 136.975C483.096 136.975 483.096 134.728 483.096 134.728C483.096 134.728 483.096 132.481 480.849 132.481Z" fill="white"/>
<path d="M420.163 132.645C417.916 132.645 417.916 134.892 417.916 134.892C417.916 137.139 420.163 137.139 420.163 137.139C422.41 139.386 424.657 137.139 424.657 134.892C424.657 134.892 422.41 132.645 420.163 132.645Z" fill="white"/>
<path d="M361.743 132.481C359.496 132.481 359.496 134.728 359.496 134.728C359.496 136.975 359.496 136.975 361.743 136.975C363.99 136.975 363.99 136.975 363.99 134.728L361.743 132.481Z" fill="white"/>
<path d="M301.107 132.481C298.86 134.728 298.86 132.481 301.107 132.481C298.86 134.728 298.86 136.975 301.107 136.975C301.107 136.975 303.354 136.975 301.107 132.481C301.107 132.481 303.354 134.728 301.107 132.481Z" fill="white"/>
<path d="M240.412 134.897C240.412 134.897 238.165 134.897 240.412 134.897C238.165 137.144 240.412 139.391 240.412 139.391C242.659 137.144 242.659 137.144 240.412 134.897C242.659 134.897 242.659 134.897 240.412 134.897Z" fill="white"/>
<path d="M179.79 134.728L179.79 136.975L182.037 134.728L179.79 134.728Z" fill="white"/>
<path d="M121.352 134.731L119.105 134.731L121.352 136.978L121.352 134.731Z" fill="white"/>
<path d="M2341.33 74.1706L2341.33 76.4175L2343.58 76.4175L2341.33 74.1706Z" fill="white"/>
<path d="M2282.91 74.1109C2280.66 74.1109 2280.66 74.1109 2282.91 74.1109C2280.66 76.3579 2280.66 78.6048 2282.91 78.6048C2282.91 78.6048 2282.91 76.3579 2282.91 74.1109Z" fill="white"/>
<path d="M2222.24 71.8193C2219.99 71.8193 2217.74 74.0663 2217.74 76.3132C2217.74 78.5602 2219.99 80.8072 2222.24 80.8072C2224.48 80.8072 2226.73 78.5602 2226.73 76.3132C2226.73 74.0663 2224.48 71.8193 2222.24 71.8193Z" fill="white"/>
<path d="M2161.57 69.7387C2157.07 69.7387 2154.83 71.9857 2154.83 76.4796C2154.83 80.9735 2157.07 83.2204 2161.57 83.2204C2166.06 83.2204 2168.31 80.9735 2168.31 76.4796C2168.31 71.9857 2166.06 69.7387 2161.57 69.7387Z" fill="white"/>
<path d="M2100.9 67.4468C2095.93 67.4468 2091.91 71.4708 2091.91 76.4346C2091.91 81.3985 2095.93 85.4225 2100.9 85.4225C2105.86 85.4225 2109.88 81.3985 2109.88 76.4346C2109.88 71.4708 2105.86 67.4468 2100.9 67.4468Z" fill="white"/>
<path d="M2042.47 65.1256C2035.73 65.1256 2031.24 69.6195 2031.24 76.3604C2031.24 83.1013 2035.73 87.5952 2042.47 87.5952C2049.21 87.5952 2053.71 83.1013 2053.71 76.3604C2053.71 69.6195 2046.96 65.1256 2042.47 65.1256Z" fill="white"/>
<path d="M1981.8 62.8341C1975.06 62.8341 1968.32 69.5749 1968.32 76.3158C1968.32 83.0567 1975.06 89.7976 1981.8 89.7976C1988.54 89.7976 1995.28 83.0567 1995.28 76.3158C1995.28 69.5749 1988.54 62.8341 1981.8 62.8341Z" fill="white"/>
<path d="M1921.13 60.6317C1914.39 60.6317 1907.65 67.3726 1907.65 74.1134C1907.65 80.8543 1914.39 87.5952 1921.13 87.5952C1927.87 87.5952 1934.61 80.8543 1934.61 74.1134C1934.61 67.3726 1930.12 60.6317 1921.13 60.6317Z" fill="white"/>
<path d="M1860.47 60.6317C1851.48 60.6317 1846.99 67.3726 1846.99 74.1135C1846.99 83.1013 1853.73 87.5952 1860.47 87.5952C1869.46 87.5952 1873.95 80.8543 1873.95 74.1134C1876.2 67.3726 1869.46 60.6317 1860.47 60.6317Z" fill="white"/>
<path d="M1802.04 60.6317C1795.3 60.6317 1788.56 67.3726 1788.56 74.1135C1788.56 80.8543 1795.3 87.5953 1802.04 87.5953C1808.78 87.5953 1815.52 80.8543 1815.52 74.1135C1815.52 67.3726 1808.78 60.6317 1802.04 60.6317Z" fill="white"/>
<path d="M1741.43 62.834C1734.68 62.834 1727.94 67.328 1727.94 76.3158C1727.94 83.0567 1734.68 89.7976 1741.43 89.7976C1748.17 89.7976 1754.91 83.0567 1754.91 76.3158C1754.91 67.328 1748.17 62.834 1741.43 62.834Z" fill="white"/>
<path d="M1680.74 62.8341C1674 62.8341 1667.26 69.5749 1667.26 76.3158C1667.26 83.0567 1674 89.7976 1680.74 89.7976C1687.48 89.7976 1694.22 83.0567 1694.22 76.3158C1694.22 69.5749 1689.73 62.8341 1680.74 62.8341Z" fill="white"/>
<path d="M1622.32 65.1256C1616.12 65.1256 1611.09 70.1556 1611.09 76.3604C1611.09 82.5652 1616.12 87.5952 1622.32 87.5952C1628.53 87.5952 1633.56 82.5652 1633.56 76.3604C1633.56 70.1556 1628.53 65.1256 1622.32 65.1256Z" fill="white"/>
<path d="M1561.65 65.1256C1554.91 65.1256 1550.42 69.6195 1550.42 76.3604C1550.42 83.1013 1554.91 87.5952 1561.65 87.5952C1568.39 87.5952 1572.89 83.1013 1572.89 76.3604C1572.89 69.6195 1568.39 65.1256 1561.65 65.1256Z" fill="white"/>
<path d="M1500.98 65.1256C1494.24 65.1256 1489.75 69.6195 1489.75 76.3604C1489.75 83.1013 1494.24 87.5952 1500.98 87.5952C1507.73 87.5952 1512.22 83.1013 1512.22 76.3604C1512.22 69.6195 1507.73 65.1256 1500.98 65.1256Z" fill="white"/>
<path d="M1440.3 65.1256C1434.09 65.1256 1429.06 70.1556 1429.06 76.3604C1429.06 82.5652 1434.09 87.5953 1440.3 87.5953C1446.5 87.5953 1451.53 82.5652 1451.53 76.3604C1451.53 70.1556 1446.5 65.1256 1440.3 65.1256Z" fill="white"/>
<path d="M1381.88 65.2447C1377.39 65.2447 1372.89 69.7386 1372.89 74.2326C1372.89 78.7265 1377.39 83.2204 1381.88 83.2204C1386.37 83.2204 1390.87 78.7265 1390.87 74.2326C1390.87 69.7386 1386.37 65.2447 1381.88 65.2447Z" fill="white"/>
<path d="M1321.21 67.4468C1316.72 67.4468 1312.22 71.9407 1312.22 76.4347C1312.22 80.9286 1316.72 85.4225 1321.21 85.4225C1325.7 85.4225 1330.2 80.9286 1330.2 76.4347C1330.2 69.6938 1325.7 67.4468 1321.21 67.4468Z" fill="white"/>
<path d="M1260.53 67.4468C1256.03 67.4468 1251.54 71.9408 1251.54 76.4347C1251.54 80.9286 1256.03 85.4225 1260.53 85.4225C1265.02 85.4225 1269.52 80.9286 1269.52 76.4347C1269.52 71.9407 1265.02 67.4468 1260.53 67.4468Z" fill="white"/>
<path d="M1202.1 67.4469C1197.61 67.4469 1193.12 71.9408 1193.12 76.4347C1193.12 80.9286 1197.61 85.4225 1202.1 85.4225C1206.6 85.4225 1211.09 80.9286 1211.09 76.4347C1208.84 71.9408 1206.6 67.4469 1202.1 67.4469Z" fill="white"/>
<path d="M1141.44 67.3254C1136.94 67.3254 1134.7 69.5724 1134.7 74.0663C1134.7 78.5602 1136.94 80.8072 1141.44 80.8072C1145.93 80.8072 1148.18 78.5602 1148.18 74.0663C1148.18 71.8193 1145.93 67.3254 1141.44 67.3254Z" fill="white"/>
<path d="M1080.77 69.7407C1076.28 69.7407 1074.03 71.9876 1074.03 76.4815C1074.03 80.9754 1076.28 83.2224 1080.77 83.2224C1085.27 83.2224 1087.51 78.7285 1087.51 76.4815C1087.51 71.9876 1085.27 69.7407 1080.77 69.7407Z" fill="white"/>
<path d="M1020.1 69.7407C1015.6 69.7407 1013.35 71.9876 1013.35 76.4815C1013.35 80.9755 1015.6 83.2224 1020.1 83.2224C1024.59 83.2224 1026.84 80.9755 1026.84 76.4815C1029.08 71.9876 1024.59 69.7407 1020.1 69.7407Z" fill="white"/>
<path d="M961.731 69.7407C958.009 69.7407 954.991 72.7587 954.991 76.4815C954.991 80.2044 958.009 83.2224 961.731 83.2224C965.454 83.2224 968.472 80.2044 968.472 76.4815C968.472 72.7587 965.454 69.7407 961.731 69.7407Z" fill="white"/>
<path d="M901.046 69.7407C896.552 69.7407 894.305 71.9876 894.305 76.4816C894.305 80.9755 896.552 83.2224 901.046 83.2224C905.54 83.2224 907.787 80.9755 907.787 76.4816C907.787 71.9876 905.54 69.7407 901.046 69.7407Z" fill="white"/>
<path d="M840.379 69.7407C838.132 69.7407 833.639 71.9877 833.639 76.4816C833.639 78.7285 835.886 83.2224 840.379 83.2224C842.626 83.2224 847.12 80.9755 847.12 76.4816C847.12 71.9876 844.873 69.7407 840.379 69.7407Z" fill="white"/>
<path d="M781.956 69.7406C779.709 69.7406 775.215 71.9876 775.215 76.4815C775.215 78.7285 777.462 83.2224 781.956 83.2224C784.203 83.2224 788.697 80.9754 788.697 76.4815C786.45 71.9876 784.203 69.7406 781.956 69.7406Z" fill="white"/>
<path d="M721.29 69.617C719.043 69.617 716.796 71.8639 716.797 74.1109C716.797 76.3578 719.043 78.6048 721.29 78.6048C723.537 78.6048 725.784 78.6048 725.784 76.3578C725.784 71.8639 723.537 69.617 721.29 69.617Z" fill="white"/>
<path d="M660.605 71.8194C658.123 71.8194 656.111 73.8314 656.111 76.3133C656.111 78.7952 658.123 80.8072 660.605 80.8072C663.087 80.8072 665.099 78.7952 665.099 76.3133C665.099 73.8314 663.087 71.8194 660.605 71.8194Z" fill="white"/>
<path d="M599.938 71.8194C597.456 71.8194 595.445 73.8314 595.445 76.3133C595.445 78.7952 597.456 80.8072 599.938 80.8072C602.42 80.8072 604.432 78.7952 604.432 76.3133C604.432 73.8314 602.42 71.8194 599.938 71.8194Z" fill="white"/>
<path d="M541.515 71.8194C539.268 71.8194 537.021 74.0663 537.021 76.3133C537.021 78.5603 539.268 80.8072 541.515 80.8072C543.762 80.8072 546.009 78.5603 546.009 76.3133C546.009 74.0663 543.762 71.8194 541.515 71.8194Z" fill="white"/>
<path d="M480.848 71.8193C478.366 71.8193 476.354 73.8313 476.354 76.3132C476.354 78.7952 478.366 80.8072 480.848 80.8072C483.33 80.8072 485.342 78.7952 485.342 76.3132C485.342 73.8313 483.33 71.8193 480.848 71.8193Z" fill="white"/>
<path d="M420.18 71.9234C417.933 71.9234 417.933 74.1703 417.933 74.1703C417.933 76.4173 420.18 76.4173 420.18 76.4173C422.427 76.4173 422.427 74.1703 422.427 74.1703C424.674 74.1703 422.427 71.9234 420.18 71.9234Z" fill="white"/>
<path d="M361.743 74.1109C360.502 74.1109 359.496 75.1169 359.496 76.3578C359.496 77.5988 360.502 78.6048 361.743 78.6048C362.984 78.6048 363.99 77.5988 363.99 76.3578C363.99 75.1169 362.984 74.1109 361.743 74.1109Z" fill="white"/>
<path d="M301.074 74.1109C299.833 74.1109 298.827 75.1169 298.827 76.3578C298.827 77.5988 299.833 78.6048 301.074 78.6048C302.315 78.6048 303.321 77.5988 303.321 76.3578C303.321 75.1169 302.315 74.1109 301.074 74.1109Z" fill="white"/>
<path d="M240.412 74.1109C240.412 74.1109 238.165 74.1109 240.412 74.1109C238.165 76.3578 238.165 78.6048 240.412 78.6048C242.659 78.6048 242.659 76.3578 240.412 74.1109C242.659 74.1109 242.659 74.1109 240.412 74.1109Z" fill="white"/>
<path d="M179.79 74.1109C178.549 74.1109 177.543 75.1169 177.543 76.3579C177.543 77.5988 178.549 78.6048 179.79 78.6048C181.031 78.6048 182.037 77.5988 182.037 76.3579C182.037 75.1169 181.031 74.1109 179.79 74.1109Z" fill="white"/>
<path d="M121.352 74.1703L119.105 76.4173L121.352 76.4173L121.352 74.1703Z" fill="white"/>
<path d="M2282.91 13.5595C2281.66 13.5595 2280.66 14.5655 2280.66 15.8064C2280.66 17.0474 2281.66 18.0534 2282.91 18.0534C2284.15 18.0534 2285.15 17.0474 2285.15 15.8064C2285.15 14.5655 2284.15 13.5595 2282.91 13.5595Z" fill="white"/>
<path d="M2222.24 11.2593C2219.99 11.2593 2217.74 13.5063 2217.74 15.7532C2217.74 18.0002 2219.99 20.2472 2222.24 20.2472C2224.48 20.2472 2226.73 18.0002 2226.73 15.7532C2226.73 13.5063 2224.48 11.2593 2222.24 11.2593Z" fill="white"/>
<path d="M2161.57 8.95267C2157.07 8.95267 2154.83 11.1996 2154.83 15.6935C2154.83 20.1875 2157.07 22.4344 2161.57 22.4344C2166.06 22.4344 2168.31 20.1875 2168.31 15.6935C2168.31 11.1996 2166.06 8.95267 2161.57 8.95267Z" fill="white"/>
<path d="M2100.89 4.58249C2094.69 4.58249 2089.66 9.61247 2089.66 15.8173C2089.66 22.0221 2094.69 27.0521 2100.89 27.0521C2107.1 27.0521 2112.13 22.0221 2112.13 15.8173C2112.13 9.61247 2107.1 4.58249 2100.89 4.58249Z" fill="white"/>
<path d="M2042.48 2.2613C2035.74 2.2613 2029 9.00217 2029 15.7431C2029 22.4839 2035.74 29.2248 2042.48 29.2248C2049.23 29.2248 2055.97 22.4839 2055.97 15.743C2053.72 9.00217 2049.23 2.2613 2042.48 2.2613Z" fill="white"/>
<path d="M1981.8 -0.0302707C1972.81 -0.0302691 1966.07 6.7106 1966.07 15.6984C1966.07 24.6863 1972.81 31.4272 1981.8 31.4272C1990.79 31.4272 1997.53 24.6863 1997.53 15.6984C1997.53 6.71059 1990.79 -0.0302723 1981.8 -0.0302707Z" fill="white"/>
<path d="M1921.13 -0.0303012C1912.14 -0.0302996 1905.4 6.71057 1905.4 15.6984C1905.4 24.6862 1912.14 31.4272 1921.13 31.4272C1930.12 31.4272 1936.86 24.6862 1936.86 15.6984C1936.86 6.71056 1930.12 -0.0303028 1921.13 -0.0303012Z" fill="white"/>
<path d="M1860.5 -0.0303011C1851.51 -0.0302996 1844.77 6.71057 1844.77 15.6984C1844.77 24.6862 1851.51 31.4272 1860.5 31.4272C1869.49 31.4272 1876.23 24.6862 1876.23 15.6984C1878.48 6.71056 1869.49 -0.0303027 1860.5 -0.0303011Z" fill="white"/>
<path d="M1802.04 -0.0303012C1793.05 -0.0302996 1786.31 6.71057 1786.31 15.6984C1786.31 24.6862 1793.05 31.4272 1802.04 31.4272C1811.03 31.4272 1817.77 24.6862 1817.77 15.6984C1817.77 6.71056 1811.03 -0.0303028 1802.04 -0.0303012Z" fill="white"/>
<path d="M1741.37 -0.0302707C1732.38 -0.0302691 1725.64 6.7106 1725.64 15.6984C1725.64 24.6863 1732.38 31.4272 1741.37 31.4272C1750.36 31.4272 1757.1 24.6863 1757.1 15.6984C1757.1 6.71059 1750.36 -0.0302723 1741.37 -0.0302707Z" fill="white"/>
<path d="M1680.75 2.2613C1671.77 2.2613 1667.27 9.00217 1667.27 15.7431C1667.27 24.7309 1674.01 29.2248 1680.75 29.2248C1687.5 29.2248 1696.48 24.7309 1696.48 15.743C1696.48 6.75521 1689.74 2.2613 1680.75 2.2613Z" fill="white"/>
<path d="M1622.32 2.2613C1615.58 2.2613 1608.84 9.00217 1608.84 15.7431C1608.84 22.4839 1615.58 29.2248 1622.32 29.2248C1629.06 29.2248 1635.8 22.4839 1635.8 15.743C1635.8 9.00216 1629.06 2.2613 1622.32 2.2613Z" fill="white"/>
<path d="M1561.65 2.26133C1554.91 2.26133 1548.17 9.0022 1548.17 15.7431C1548.17 22.484 1554.91 29.2248 1561.65 29.2248C1568.39 29.2248 1575.13 22.484 1575.13 15.7431C1575.13 9.0022 1568.39 2.26133 1561.65 2.26133Z" fill="white"/>
<path d="M1500.98 4.58246C1494.24 4.58246 1489.75 9.07637 1489.75 15.8172C1489.75 22.5581 1494.24 27.052 1500.98 27.052C1507.72 27.052 1512.22 22.5581 1512.22 15.8172C1514.46 9.07637 1507.72 4.58246 1500.98 4.58246Z" fill="white"/>
<path d="M1440.31 4.58246C1433.57 4.58246 1429.08 9.07637 1429.08 15.8172C1429.08 22.5581 1433.57 27.052 1440.31 27.052C1447.05 27.052 1453.8 22.5581 1453.8 15.8172C1453.8 9.07637 1447.05 4.58246 1440.31 4.58246Z" fill="white"/>
<path d="M1381.88 4.58249C1375.13 4.58249 1370.64 9.0764 1370.64 15.8173C1370.64 22.5582 1375.13 27.0521 1381.88 27.0521C1388.62 27.0521 1393.11 22.5582 1393.11 15.8173C1393.11 9.0764 1386.37 4.58249 1381.88 4.58249Z" fill="white"/>
<path d="M1321.21 4.58249C1314.47 4.58249 1309.97 9.0764 1309.97 15.8173C1309.97 22.5582 1314.47 27.0521 1321.21 27.0521C1327.95 27.0521 1332.44 22.5582 1332.44 15.8173C1332.44 9.0764 1327.95 4.58249 1321.21 4.58249Z" fill="white"/>
<path d="M1260.55 6.64635C1256.06 6.64635 1251.56 11.1403 1251.56 15.6342C1251.56 20.1281 1256.06 24.622 1260.55 24.622C1265.04 24.622 1269.54 20.1281 1269.54 15.6342C1271.78 11.1403 1267.29 6.64635 1260.55 6.64635Z" fill="white"/>
<path d="M1202.1 6.64638C1197.61 6.64638 1193.12 11.1403 1193.12 15.6342C1193.12 20.1281 1197.61 24.622 1202.1 24.622C1206.6 24.622 1211.09 20.1281 1211.09 15.6342C1211.09 11.1403 1206.6 6.64638 1202.1 6.64638Z" fill="white"/>
<path d="M1141.44 6.64632C1136.94 6.64632 1132.45 11.1402 1132.45 15.6342C1132.45 20.1281 1136.94 24.622 1141.44 24.622C1145.93 24.622 1150.42 20.1281 1150.42 15.6341C1150.42 11.1402 1145.93 6.64632 1141.44 6.64632Z" fill="white"/>
<path d="M1080.77 6.64635C1076.27 6.64635 1071.78 11.1403 1071.78 15.6342C1071.78 20.1281 1076.27 24.622 1080.77 24.622C1085.26 24.622 1089.76 20.1281 1089.76 15.6342C1089.76 11.1403 1085.26 6.64635 1080.77 6.64635Z" fill="white"/>
<path d="M1020.1 8.95496C1015.6 8.95496 1013.35 13.4489 1013.35 15.6958C1013.35 20.1898 1017.85 22.4367 1020.1 22.4367C1024.59 22.4367 1026.84 17.9428 1026.84 15.6958C1029.08 11.2019 1024.59 8.95496 1020.1 8.95496Z" fill="white"/>
<path d="M961.731 8.95496C957.238 8.95496 954.991 11.2019 954.991 15.6958C954.991 20.1898 957.238 22.4367 961.731 22.4367C966.225 22.4367 968.472 20.1898 968.472 15.6958C968.472 11.2019 966.225 8.95496 961.731 8.95496Z" fill="white"/>
<path d="M901.046 8.95499C896.552 8.95499 894.305 11.2019 894.305 15.6959C894.305 20.1898 896.552 22.4367 901.046 22.4367C905.54 22.4367 907.787 20.1898 907.787 15.6959C907.787 11.2019 905.54 8.95499 901.046 8.95499Z" fill="white"/>
<path d="M840.379 8.95499C835.885 8.95499 833.638 11.2019 833.638 15.6959C833.638 20.1898 835.885 22.4367 840.379 22.4367C844.873 22.4367 847.12 20.1898 847.12 15.6959C847.12 11.2019 844.873 8.95499 840.379 8.95499Z" fill="white"/>
<path d="M781.956 8.95499C777.462 8.95499 775.215 11.2019 775.215 15.6959C775.215 20.1898 777.462 22.4367 781.956 22.4367C786.45 22.4367 788.697 20.1898 788.697 15.6959C786.45 11.2019 784.203 8.95499 781.956 8.95499Z" fill="white"/>
<path d="M721.289 8.95502C719.042 8.95502 714.548 11.202 714.548 15.6959C714.548 17.9429 716.795 22.4368 721.289 22.4368C723.536 22.4368 728.03 20.1898 728.03 15.6959C725.783 13.4489 723.536 8.95502 721.289 8.95502Z" fill="white"/>
<path d="M660.605 11.2613C658.358 11.2613 656.111 13.5083 656.111 15.7552C656.111 18.0022 658.358 20.2491 660.605 20.2491C662.852 20.2491 665.099 18.0022 665.099 15.7552C665.099 13.5083 665.099 11.2613 660.605 11.2613Z" fill="white"/>
<path d="M599.935 11.2613C597.688 11.2613 595.441 13.5083 595.441 15.7552C595.441 18.0022 597.688 20.2491 599.935 20.2491C602.181 20.2491 606.676 18.0022 606.676 15.7552C606.676 13.5083 604.428 11.2613 599.935 11.2613Z" fill="white"/>
<path d="M541.515 11.2613C539.033 11.2613 537.021 13.2733 537.021 15.7553C537.021 18.2372 539.033 20.2492 541.515 20.2492C543.997 20.2492 546.009 18.2372 546.009 15.7553C546.009 13.2733 543.997 11.2613 541.515 11.2613Z" fill="white"/>
<path d="M480.848 11.2613C478.601 11.2613 476.354 13.5083 476.354 15.7553C476.354 18.0022 478.601 20.2492 480.848 20.2492C483.095 20.2492 485.342 18.0022 485.342 15.7553C485.342 13.5083 483.095 11.2613 480.848 11.2613Z" fill="white"/>
<path d="M420.163 11.2613C417.916 11.2613 415.669 13.5083 415.669 15.7553C415.669 18.0022 417.916 20.2492 420.163 20.2492C422.41 20.2492 424.657 18.0022 424.657 15.7553C424.657 13.5083 422.41 11.2613 420.163 11.2613Z" fill="white"/>
<path d="M361.743 13.5594C359.496 13.5594 359.496 15.8064 359.496 15.8064C359.496 18.0533 361.743 18.0533 361.743 18.0533C363.99 18.0533 363.99 15.8064 363.99 15.8064C363.99 13.5594 361.743 13.5594 361.743 13.5594Z" fill="white"/>
<path d="M301.074 13.5594C298.827 13.5594 298.827 15.8064 298.827 15.8064C298.827 18.0533 301.074 18.0533 301.074 18.0533C303.321 18.0533 303.321 15.8064 303.321 15.8064C303.321 13.5594 303.321 13.5594 301.074 13.5594Z" fill="white"/>
<path d="M240.412 13.5594C240.412 13.5594 238.165 13.5594 240.412 13.5594C238.165 18.0533 238.165 18.0533 240.412 18.0533C242.659 18.0533 242.659 18.0533 240.412 13.5594C242.659 13.5594 242.659 13.5594 240.412 13.5594Z" fill="white"/>
<path d="M179.79 13.5595L179.79 15.8064L179.79 18.0534L182.037 15.8064L179.79 13.5595Z" fill="white"/>
</g>
<defs>
<clipPath id="clip0_2596_42406">
<rect width="2402" height="676.335" fill="white" transform="translate(2402 676.335) rotate(180)"/>
</clipPath>
</defs>
</svg>
