<svg width="968" height="289" viewBox="0 0 968 289" fill="none" xmlns="http://www.w3.org/2000/svg">
<path d="M680.257 231.605H445.937C406.679 231.81 327.55 231.605 318.349 231.605C310.483 231.605 307.921 225.475 307.308 223.023L292.586 223.025C293.852 234.527 293.618 244.809 292.586 251.338H697.432L697.422 251.056C697.269 246.453 697.217 239.414 697.432 231.605H680.257Z" stroke="white"/>
<path d="M647.114 101.648C649.119 105.116 650.792 109.311 650.792 110.23C650.792 112.069 648.338 115.747 640.977 116.36M647.114 101.648C646.099 99.8928 645.3 98.9899 643.988 97.4043C643.773 97.1444 643.431 96.7439 643.431 96.7439M647.114 101.648C647.114 101.648 679.624 96.1631 680.237 95.8405C680.851 95.5179 680.851 94.9049 680.237 94.2919C679.624 93.6789 673.265 89.7835 667.356 86.323C659.716 81.8489 649.843 75.5188 640.98 70.385M640.98 70.385V82.032M640.98 70.385C626.365 61.9205 615.191 55.5903 604.789 50.1561C577.799 36.0572 558.784 29.9273 525.66 23.1843C500.633 16.3187 451.438 14.6023 429.969 14.6023M640.98 82.032C644.648 86.0395 647.111 91.2463 647.111 93.0659C647.111 95.5179 643.431 96.7439 643.431 96.7439M640.98 82.032C638.469 79.2893 635.898 77.6455 631.163 75.902C619.508 71.611 618.281 72.837 616.441 74.676C614.601 76.515 610.307 94.2919 613.988 97.9699C616.932 100.912 624.211 103.282 627.482 104.1M643.431 96.7439C643.431 96.7439 634.929 103.772 633.619 104.1M627.482 104.1C628.709 104.305 631.656 104.59 633.619 104.1M627.482 104.1C627.521 104.368 627.473 105.077 627.485 105.326C627.504 105.746 627.487 106.133 627.443 106.49M627.482 104.1H627.485M627.482 104.1C627.612 105.004 627.578 105.799 627.443 106.49M627.482 104.1C627.335 104.142 627.14 104.237 626.895 104.357M640.977 116.36C633.617 116.973 627.482 118.199 626.256 116.36M640.977 116.36C639.313 116.498 637.712 116.668 636.216 116.827C631.094 117.37 627.205 117.783 626.256 116.36M626.256 116.36C625.274 114.889 625.029 111.661 625.029 110.23M625.029 110.23C625.029 110.23 626.94 109.084 627.443 106.49M625.029 110.23C625.029 110.23 627.096 109.311 627.443 106.49M633.619 104.1C631.657 104.59 628.712 104.305 627.485 104.1M444.691 97.9699C493.968 100.422 595.588 105.326 607.856 105.326H623.804C623.98 105.307 624.149 105.283 624.312 105.255C625.052 105.127 625.667 104.91 626.165 104.696C626.438 104.579 626.675 104.463 626.879 104.364M444.691 97.9699L429.969 14.6023M444.691 97.9699C444.691 97.9699 451.201 138.562 451.438 164.787C451.674 190.968 445.917 231.603 445.917 231.603H680.237C680.848 229.048 681.651 225.926 682.57 222.352C686.574 206.778 692.786 182.614 694.959 159.27C696.579 141.863 697.413 132.298 696.186 114.521C695.658 106.875 691.279 95.5179 691.279 95.5179C655.214 71.9776 613.486 40.6755 555.103 23.7973C507.659 10.0813 481.613 8.69795 428.742 7.85938L429.969 14.6023M627.485 104.1C627.337 104.142 627.141 104.237 626.895 104.357M626.879 104.364L626.895 104.357M626.879 104.364C626.884 104.362 626.89 104.359 626.895 104.357M486.402 126.779C486.402 128.414 489.592 132.909 497.443 132.909C505.295 132.909 506.439 129.231 506.031 128.005M486.402 126.779H474.134C471.68 126.167 471.067 125.554 470.454 124.328C469.963 123.347 470.25 121.467 470.454 120.65C470.634 119.928 470.974 119.765 471.472 119.525C471.539 119.493 471.608 119.46 471.68 119.424C472.645 118.942 478.153 118.839 487.61 119.115M486.402 126.779C487.101 126.779 487.977 126.603 489.063 126.383C490.837 126.025 493.173 125.554 496.217 125.554C498.846 125.554 500.419 126.258 501.879 126.911C503.143 127.477 504.323 128.005 506.031 128.005M506.031 128.005C509.711 128.005 521.979 126.779 519.526 124.328C517.715 122.518 513.9 121.043 506.107 120.147M506.107 120.147C503.341 119.829 500.074 119.584 496.217 119.424C493.062 119.292 490.189 119.189 487.61 119.115M506.107 120.147C506.098 118.195 502.958 114.97 496.217 114.521C489.251 114.056 487.594 117.216 487.61 119.115" stroke="white"/>
<path d="M194.391 44.6328C188.87 46.4718 134.891 64.2487 102.381 73.4437C98.4953 76.9169 89.3764 84.4776 83.9785 86.9296C77.2311 89.9946 69.2568 89.9946 52.0815 93.0596C38.3413 95.5115 34.9062 99.8025 34.9062 101.642H50.8547C55.762 101.642 68.653 99.9569 70.4836 107.771C71.2558 111.068 69.2568 118.192 69.2568 118.192C69.2568 118.192 66.8032 132.904 56.9888 132.291C63.1228 143.121 76.863 165.148 82.7517 166.619C90.1125 168.458 132.437 167.845 142.865 170.297C151.207 172.259 156.155 174.588 157.587 175.201C172.679 156.631 197.57 146.042 223.834 148.229C256.958 150.988 278.433 171.925 286.402 194.817C289.627 204.083 291.634 213.938 292.536 223.015H307.257C305.212 216.272 294.498 185.254 287.628 173.975C279.041 159.876 251.832 140.503 236.102 113.901C228.128 100.416 225.511 94.9461 223.834 82.0256C222.88 74.6661 222.506 70.7986 224.448 63.6357C225.542 59.6004 228.742 53.8278 228.742 53.8278C228.742 53.8278 216.474 58.7317 206.046 54.4408C195.229 49.9899 194.391 44.6328 194.391 44.6328Z" stroke="white"/>
<path d="M194.406 44.6328C194.406 44.6328 195.244 49.9899 206.061 54.4408C216.489 58.7317 228.757 53.8278 228.757 53.8278" stroke="white" stroke-dasharray="2 2"/>
<path d="M95.0553 69.7731L102.416 73.4511C128.648 66.1265 166.177 54.0182 194.427 44.6403C211.097 39.1063 227.022 33.724 228.777 32.9933C236.138 29.9283 228.777 25.6374 227.55 24.4114M95.0553 69.7731C68.5771 70.6926 15.5585 73.451 14.0863 77.129C12.6141 80.807 13.4729 86.0175 14.0863 88.163C14.5464 93.6799 14.086 105.327 14.086 105.327M95.0553 69.7731C124.167 58.456 174.825 39.1466 227.55 24.4114M227.55 24.4114C265.736 13.7391 305.006 5.75046 337.963 3.56941C369.767 1.46438 399.873 0.678521 427.52 1.11743C480.391 1.95601 524.277 6.93722 553.881 13.3774C589.949 21.2237 671.246 70.7943 707.232 94.2929L720.727 93.0669L739.129 91.841C750.784 92.5557 786.729 95.0285 836.047 101.649C897.694 109.924 933.578 126.475 950.14 135.977C966.702 145.478 963.634 161.722 963.634 161.722M14.086 105.327C14.086 105.327 17.0795 105.427 18.9933 105.327C25.3765 104.994 27.5809 101.649 34.9417 101.649M14.086 105.327L17.7664 126.169M769.799 144.559C732.075 147.624 715.82 168.466 704.779 191.146C699.259 202.486 697.783 218.325 697.418 231.604C697.203 239.413 697.255 246.336 697.408 250.937L697.418 251.22H292.571C294.412 239.573 293.798 215.973 286.437 194.824C278.469 171.933 256.994 150.995 223.87 148.237C197.606 146.049 172.715 156.637 157.623 175.209M858.128 144.559L939.097 162.949C942.164 162.949 942.164 161.723 941.551 160.497C941.078 159.552 933.685 150.759 926.83 143.333C924.144 140.423 921.541 138.105 919.469 135.977M919.469 135.977C909.654 134.546 887.326 131.318 876.53 129.847M919.469 135.977L957.5 142.107M919.469 135.977C919.673 135.159 920.451 133.525 921.923 133.525C923.763 133.525 937.258 135.364 940.325 134.751C942.779 134.26 944.619 133.73 945.232 133.525M282.757 221.796C282.757 258.36 253.097 288 216.509 288C179.922 288 150.262 258.36 150.262 221.796C150.262 185.233 179.922 155.593 216.509 155.593C253.097 155.593 282.757 185.233 282.757 221.796ZM843.407 221.796C843.407 258.36 813.747 288 777.16 288C740.572 288 710.912 258.36 710.912 221.796C710.912 185.233 740.572 155.593 777.16 155.593C813.747 155.593 843.407 185.233 843.407 221.796ZM266.808 221.796C266.808 249.557 244.289 272.062 216.509 272.062C188.73 272.062 166.21 249.557 166.21 221.796C166.21 194.035 188.73 171.531 216.509 171.531C244.289 171.531 266.808 194.035 266.808 221.796ZM827.459 221.796C827.459 249.557 804.939 272.062 777.16 272.062C749.38 272.062 726.861 249.557 726.861 221.796C726.861 194.035 749.38 171.531 777.16 171.531C804.939 171.531 827.459 194.035 827.459 221.796ZM217.123 208.31L218.716 209.23V211.069L217.123 211.988L215.529 211.069V209.23L217.123 208.31ZM779 208.31L780.594 209.23V211.069L779 211.988L777.406 211.069V209.23L779 208.31ZM226.937 215.666L228.531 216.586V218.425L226.937 219.344L225.343 218.425V216.586L226.937 215.666ZM788.814 215.666L790.408 216.586V218.425L788.814 219.344L787.221 218.425V216.586L788.814 215.666ZM223.257 227.926L224.85 228.846V230.685L223.257 231.604L221.663 230.685V228.846L223.257 227.926ZM785.134 227.926L786.728 228.846V230.685L785.134 231.604L783.54 230.685V228.846L785.134 227.926ZM209.762 227.926L211.355 228.846V230.685L209.762 231.604L208.168 230.685V228.846L209.762 227.926ZM771.639 227.926L773.233 228.846V230.685L771.639 231.604L770.046 230.685V228.846L771.639 227.926ZM206.081 215.666L207.675 216.586V218.425L206.081 219.344L204.488 218.425V216.586L206.081 215.666ZM767.959 215.666L769.552 216.586V218.425L767.959 219.344L766.365 218.425V216.586L767.959 215.666Z" stroke="white"/>
<path d="M149.043 188.698C151.348 183.752 154.242 179.38 157.631 175.212C156.199 174.599 151.251 172.269 142.909 170.308C132.481 167.856 90.1562 168.469 82.7954 166.63C76.9067 165.158 63.1665 143.131 57.0325 132.302C49.1809 131.811 27.5894 127.806 17.7749 126.172C17.7749 126.172 14.6474 154.37 12.8677 156.822C9.48034 161.489 4.69097 161.625 1.82643 166.63C-0.629759 170.921 3.05324 227.163 4.28004 227.929C5.50685 228.696 137.389 247.085 139.229 245.093C139.229 245.093 135.854 216.987 149.043 188.698Z" stroke="white"/>
<path d="M429.974 14.5998L428.747 7.85685C428.747 7.85685 398.087 7.44063 378.448 7.85689C365.028 8.14136 357.476 7.99233 344.097 9.08289C330.86 10.1619 323.333 10.5299 310.36 13.3739C290.669 17.6906 279.734 21.7545 261.901 31.1508C248.149 38.3972 233.073 47.7016 228.778 53.8316C228.778 53.8316 225.516 59.588 224.483 63.6396C222.709 70.603 222.918 74.6699 223.872 82.0295C225.548 94.9504 228.166 100.419 236.139 113.905C251.866 140.508 279.077 159.88 287.664 173.979C294.535 185.258 305.248 216.276 307.293 223.019C307.907 225.471 310.468 231.601 318.335 231.601C327.536 231.601 406.665 231.805 445.922 231.601C445.922 231.601 451.68 190.965 451.443 164.784C451.207 138.559 444.696 97.9674 444.696 97.9674M429.974 14.5998L444.696 97.9674M429.974 14.5998L367.407 15.8258C367.407 15.8258 324.469 14.5998 291.345 28.0858M444.696 97.9674C411.367 96.7414 336.491 93.799 303.613 91.8374C302.779 91.7884 302.127 91.8374 301.159 91.8374M301.159 91.8374C261.725 89.0777 242.222 77.7017 239.819 75.8995C237.365 74.0605 235.525 67.9305 239.819 61.1876C244.113 54.4446 258.221 41.5717 291.345 28.0858M301.159 91.8374L291.345 28.0858M274.151 107.466C264.694 107.191 259.185 107.294 258.221 107.775C257.608 108.083 257.199 108.184 256.994 109.001C256.791 109.819 256.504 111.699 256.994 112.679C257.608 113.905 258.221 114.518 260.675 115.131H272.943M274.151 107.466C276.73 107.541 279.603 107.644 282.757 107.775C286.614 107.936 289.881 108.181 292.648 108.499M274.151 107.466C274.135 105.567 275.791 102.408 282.757 102.873C289.499 103.321 292.639 106.547 292.648 108.499M292.648 108.499C300.44 109.395 304.256 110.87 306.067 112.679C308.52 115.131 296.252 116.357 292.572 116.357M272.943 115.131C272.943 116.766 276.132 121.261 283.984 121.261C291.836 121.261 292.98 117.583 292.572 116.357M272.943 115.131C273.642 115.131 274.518 114.954 275.604 114.735C277.378 114.377 279.714 113.905 282.757 113.905C285.387 113.905 286.96 114.609 288.42 115.263C289.684 115.829 290.864 116.357 292.572 116.357" stroke="white"/>
<path d="M939.085 162.944L858.116 144.554L822.539 159.266C832.595 166.449 841.375 176.718 847.075 189.916C859.65 219.033 854.027 243.042 853.209 251.216C888.991 250.807 946.446 243.86 950.127 242.021C955.783 239.194 958.101 234.665 959.941 229.148C961.782 223.631 967.302 176.92 967.302 173.978C967.302 171.036 965.155 164.68 963.622 161.718C962.781 160.095 962.886 159.021 957.488 153.136C952.09 147.251 934.792 144.146 926.818 143.328C933.672 150.754 941.065 159.547 941.538 160.492C942.152 161.718 942.152 162.944 939.085 162.944Z" stroke="white"/>
<path d="M680.227 231.615C683.498 217.925 692.277 187.984 694.948 159.282C696.568 141.875 697.402 131.697 696.175 114.533C695.629 106.888 691.268 95.5301 691.268 95.5301L707.216 94.3041L720.711 93.0781C720.711 93.0781 808.569 94.454 856.887 118.824C864.738 122.784 876.516 129.858 876.516 129.858C863.021 128.019 859.954 127.406 856.887 128.019C854.894 128.417 854.173 129.91 853.206 131.697C850.647 136.43 850.958 140.688 858.114 144.57L822.536 159.282C805.703 147.257 785.295 143.311 769.783 144.57C732.059 147.635 715.804 168.477 704.763 191.158C699.243 202.497 697.767 218.337 697.402 231.615H680.227Z" stroke="white"/>
</svg>
