<svg width="20" height="20" viewBox="0 0 20 20" fill="none" xmlns="http://www.w3.org/2000/svg">
<path d="M4.16602 15.8333V5.16667C4.16602 4.23325 4.16602 3.76654 4.34767 3.41002C4.50746 3.09641 4.76243 2.84144 5.07603 2.68166C5.43255 2.5 5.89926 2.5 6.83268 2.5H13.166C14.0994 2.5 14.5661 2.5 14.9227 2.68166C15.2363 2.84144 15.4912 3.09641 15.651 3.41002C15.8327 3.76654 15.8327 4.23325 15.8327 5.16667V14.1667H5.83268C4.91221 14.1667 4.16602 14.9129 4.16602 15.8333ZM4.16602 15.8333C4.16602 16.7538 4.91221 17.5 5.83268 17.5H15.8327M14.9993 14.1667V17.5" stroke="#151515" stroke-width="1.5" stroke-linecap="round" stroke-linejoin="round"/>
</svg>
