<svg width="19" height="20" fill="none" xmlns="http://www.w3.org/2000/svg"><path d="M.829 8.757a1 1 0 1 0 1.414 1.414L.829 8.757zm7.6-6.187.708.707-.707-.707zm7.425 7.424-.707-.707.707.707zM7.9 17.95l.708.707-.708-.707zM2.95 13l.708.708L2.95 13zm7.956-7.954-.707-.707.707.707zM13.38 7.52l.707.707-.707-.707zm-7.602 6.187a1 1 0 1 0 1.414 1.414l-1.414-1.414zm7.602-8.662.707-.707-.707.707zM2.95 17.95l-.707.707.707-.707zm-.707-7.779 6.894-6.894-1.414-1.414L.829 8.757l1.414 1.414zm12.904-.884-7.955 7.955 1.415 1.415 7.954-7.955-1.414-1.415zm-11.49 4.42 7.955-7.955-1.414-1.414-7.955 7.955 1.414 1.414zm9.015-6.894-6.894 6.894 1.414 1.414 6.895-6.894-1.415-1.414zm0-1.061a.75.75 0 0 1 0 1.06l1.415 1.415a2.75 2.75 0 0 0 0-3.89l-1.414 1.415zm-1.06 0a.75.75 0 0 1 1.06 0l1.415-1.414a2.75 2.75 0 0 0-3.89 0l1.415 1.414zm-7.955 11.49a2.5 2.5 0 0 1 0-3.535l-1.414-1.414a4.5 4.5 0 0 0 0 6.364l1.414-1.415zm3.535 0a2.5 2.5 0 0 1-3.535 0l-1.414 1.415a4.5 4.5 0 0 0 6.364 0l-1.415-1.415zm7.955-13.965a4.25 4.25 0 0 1 0 6.01l1.414 1.415a6.25 6.25 0 0 0 0-8.84l-1.414 1.415zm-6.01 0a4.25 4.25 0 0 1 6.01 0l1.415-1.414a6.25 6.25 0 0 0-8.84 0l1.415 1.414z" fill="currentColor"/></svg>