<?xml version="1.0" encoding="utf-8"?><svg viewBox="0 0 24 24" xmlns="http://www.w3.org/2000/svg" xmlns:xlink="http://www.w3.org/1999/xlink"><style>:root>svg{display:none}:root>svg:target{display:block}</style><svg fill="none" viewBox="0 0 24 24" id="arrow-down" xmlns="http://www.w3.org/2000/svg"><path d="M16.707 10.707a1 1 0 00-1.414-1.414l1.414 1.414zM12 14l-.707.707a1 1 0 001.414 0L12 14zM8.707 9.293a1 1 0 00-1.414 1.414l1.414-1.414zm6.586 0l-4 4 1.414 1.414 4-4-1.414-1.414zm-2.586 4l-4-4-1.414 1.414 4 4 1.414-1.414z" fill="currentColor"/></svg><svg fill="none" viewBox="0 0 24 24" id="arrow-up" xmlns="http://www.w3.org/2000/svg"><path d="M7.293 13.293a1 1 0 101.414 1.414l-1.414-1.414zM12 10l.707-.707a1 1 0 00-1.414 0L12 10zm3.293 4.707a1 1 0 001.414-1.414l-1.414 1.414zm-6.586 0l4-4-1.414-1.414-4 4 1.414 1.414zm2.586-4l4 4 1.414-1.414-4-4-1.414 1.414z" fill="currentColor"/></svg><svg fill="none" viewBox="0 0 24 24" id="book" xmlns="http://www.w3.org/2000/svg"><path d="M5 19V6.2c0-1.12 0-1.68.218-2.108a2 2 0 01.874-.874C6.52 3 7.08 3 8.2 3h7.6c1.12 0 1.68 0 2.108.218a2 2 0 01.874.874C19 4.52 19 5.08 19 6.2V17H7a2 2 0 00-2 2zm0 0a2 2 0 002 2h12m-1-4v4" stroke="#43BCBC" stroke-width="2" stroke-linecap="round" stroke-linejoin="round"/></svg><svg fill="none" viewBox="0 0 24 24" id="check" xmlns="http://www.w3.org/2000/svg"><path d="M4 12.611L8.923 17.5 20 6.5" stroke="#43BCBC" stroke-width="2" stroke-linecap="round" stroke-linejoin="round"/></svg><svg fill="none" viewBox="0 0 24 24" id="checkbox-checked" xmlns="http://www.w3.org/2000/svg"><rect width="24" height="24" rx="4" fill="#E2591C"/><path d="M17.334 8L10 15.333 6.667 12" stroke="#fff" stroke-width="2" stroke-linecap="round" stroke-linejoin="round"/></svg><svg fill="none" viewBox="0 0 24 24" id="checkbox-unchecked" xmlns="http://www.w3.org/2000/svg"><rect x=".5" y=".5" width="23" height="23" rx="3.5" stroke="#999"/></svg><svg fill="none" viewBox="0 0 24 24" id="close" xmlns="http://www.w3.org/2000/svg"><path d="M18 18L6 6m12 0L6 18" stroke="currentColor" stroke-width="2" stroke-linecap="round" stroke-linejoin="round"/></svg><svg fill="none" viewBox="0 0 24 24" id="lock" xmlns="http://www.w3.org/2000/svg"><path d="M12 14.5v2m-5-6.471C7.471 10 8.053 10 8.8 10h6.4c.747 0 1.329 0 1.8.029m-10 0c-.588.036-1.006.117-1.362.298a3 3 0 00-1.311 1.311C4 12.28 4 13.12 4 14.8v1.4c0 1.68 0 2.52.327 3.162a3 3 0 001.311 1.311C6.28 21 7.12 21 8.8 21h6.4c1.68 0 2.52 0 3.162-.327a3 3 0 001.311-1.311C20 18.72 20 17.88 20 16.2v-1.4c0-1.68 0-2.52-.327-3.162a3 3 0 00-1.311-1.311c-.356-.181-.774-.262-1.362-.298m-10 0V8a5 5 0 0110 0v2.029" stroke="#000" stroke-width="2" stroke-linecap="round" stroke-linejoin="round"/></svg><svg fill="none" viewBox="0 0 24 24" id="success" xmlns="http://www.w3.org/2000/svg"><path d="M4 12.611L8.923 17.5 20 6.5" stroke="currentColor" stroke-width="2.8" stroke-linecap="round" stroke-linejoin="round"/></svg><svg fill="none" viewBox="0 0 24 24" id="warning" xmlns="http://www.w3.org/2000/svg"><path d="M12 17h.01M12 10v4m-5.588 7h11.176c1.781 0 2.672 0 3.195-.374a2 2 0 00.82-1.388c.077-.638-.353-1.419-1.211-2.98l-5.588-10.16c-.914-1.662-1.372-2.493-1.976-2.768a2 2 0 00-1.657 0c-.604.275-1.06 1.106-1.975 2.768l-5.588 10.16C2.75 17.82 2.32 18.6 2.397 19.238a2 2 0 00.82 1.388C3.739 21 4.63 21 6.412 21z" stroke="currentColor" stroke-width="2.8" stroke-linecap="round" stroke-linejoin="round"/></svg><svg fill="none" viewBox="0 0 24 24" id="watch" xmlns="http://www.w3.org/2000/svg"><path d="M12 14v-3m0-5a7.5 7.5 0 105.547 2.453M12 6a7.48 7.48 0 015.547 2.453M12 6V3m7.5 3.5l-1.953 1.953M12 3H9m3 0h3" stroke="#43BCBC" stroke-width="2" stroke-linecap="round" stroke-linejoin="round"/></svg></svg>