<svg width="1437" height="328" fill="none" xmlns="http://www.w3.org/2000/svg"><path d="M210.266 144.567c60.32 0 105.946 11.794 136.879 35.382 30.933 23.588 46.399 58.39 46.399 104.405 0 93.578-65.732 140.367-197.198 140.367-125.665 0-190.817-46.209-195.457-138.627h95.699c1.933 21.268 10.439 36.735 25.519 46.402 15.467 9.281 39.44 13.921 71.919 13.921 34.8 0 60.32-4.834 76.56-14.501 16.626-9.667 24.939-25.134 24.939-46.402 0-42.149-33.446-63.223-100.339-63.223-32.866 0-62.059 4.64-87.579 13.921l-86.419-7.541 20.3-218.67h320.157v81.784H127.907l-6.38 64.383c28.613-7.734 58.193-11.601 88.739-11.601z" fill="url(#a)"/><path d="M656.816 424.721c-71.919 0-124.892-17.401-158.918-52.203-33.64-35.188-50.46-89.904-50.46-164.147 0-71.151 16.82-123.546 50.46-157.188C531.924 17.541 584.897.721 656.816.721c71.146 0 123.538 16.82 157.178 50.462s50.459 86.037 50.459 157.188c0 74.243-16.819 128.959-50.459 164.147-33.64 34.802-86.032 52.203-157.178 52.203zm0-81.784c39.439 0 67.666-10.247 84.679-30.742 17.013-20.881 25.52-55.489 25.52-103.824 0-45.243-8.7-77.531-26.1-96.865-17.013-19.721-45.046-29.581-84.099-29.581-39.826 0-68.439 9.86-85.839 29.581-17.4 19.334-26.1 51.622-26.1 96.865 0 48.335 8.7 82.943 26.1 103.824 17.4 20.495 46.013 30.742 85.839 30.742z" fill="url(#b)"/><path d="M910.255 103.966c0-35.575 8.506-61.677 25.519-78.304C952.788 9.034 979.661.72 1016.39.72c36.74 0 63.61 8.313 80.62 24.94 17.4 16.628 26.1 42.73 26.1 78.305 0 35.961-8.7 62.643-26.1 80.043-17.01 17.014-43.88 25.522-80.62 25.522-36.729 0-63.602-8.508-80.616-25.522-17.013-17.4-25.519-44.082-25.519-80.043zM1036.69 414.86h-81.196L1310.45 10.581h82.94l-356.7 404.279zm15.66-310.894c0-19.721-2.9-33.835-8.7-42.342-5.41-8.894-14.5-13.341-27.26-13.341-12.76 0-22.036 4.447-27.836 13.34-5.8 8.508-8.7 22.622-8.7 42.343 0 20.494 2.9 35.188 8.7 44.082 5.8 8.893 15.076 13.34 27.836 13.34 12.76 0 21.85-4.447 27.26-13.34 5.8-8.894 8.7-23.588 8.7-44.082zm278.98 320.755c-36.73 0-63.8-8.507-81.2-25.522-17.01-17.4-25.52-44.275-25.52-80.623 0-35.575 8.51-61.677 25.52-78.304 17.4-16.627 44.47-24.941 81.2-24.941 36.35 0 63.03 8.314 80.04 24.941 17.01 16.627 25.52 42.729 25.52 78.304 0 36.348-8.51 63.223-25.52 80.623-17.01 17.015-43.69 25.522-80.04 25.522zm0-48.143c12.37 0 21.27-4.446 26.68-13.34 5.41-9.281 8.12-24.168 8.12-44.662 0-20.108-2.71-34.415-8.12-42.922-5.41-8.507-14.31-12.761-26.68-12.761-13.15 0-22.62 4.447-28.42 13.341-5.8 8.507-8.7 22.621-8.7 42.342 0 20.494 2.9 35.381 8.7 44.662 5.8 8.894 15.27 13.34 28.42 13.34z" fill="url(#c)"/><defs><linearGradient id="a" x1="713.992" y1="-111.164" x2="713.992" y2="630.871" gradientUnits="userSpaceOnUse"><stop stop-color="#232323"/><stop offset=".844" stop-color="#2E2E2E" stop-opacity="0"/></linearGradient><linearGradient id="b" x1="713.992" y1="-111.164" x2="713.992" y2="630.871" gradientUnits="userSpaceOnUse"><stop stop-color="#232323"/><stop offset=".844" stop-color="#2E2E2E" stop-opacity="0"/></linearGradient><linearGradient id="c" x1="713.992" y1="-111.164" x2="713.992" y2="630.871" gradientUnits="userSpaceOnUse"><stop stop-color="#232323"/><stop offset=".844" stop-color="#2E2E2E" stop-opacity="0"/></linearGradient></defs></svg>