<svg width="246" height="44" fill="none" xmlns="http://www.w3.org/2000/svg"><rect x=".666" y=".538" width="244.764" height="42" rx="7.5" fill="#43BCBC"/><path d="M26.93 21.538c0 3.236-2.153 5.393-5.382 5.393-3.23 0-5.382-2.157-5.382-5.393 0-3.236 2.153-5.393 5.382-5.393 3.23 0 5.382 3.236 5.382 5.393z" fill="#000"/><path d="M46.052 14.038H58.64v13.714h-3.443v-10.94h-5.704v2.578c0 2.964-.533 5.148-1.6 6.552-1.055 1.404-2.71 2.105-4.964 2.105v-2.774c1.08-.092 1.868-.603 2.361-1.535.507-.931.76-2.38.76-4.348v-5.352zM73.955 22.518v.807h-9.787c.107.866.414 1.476.921 1.83.507.354 1.308.531 2.402.531 1.881 0 2.909-.4 3.082-1.2h3.182c-.227 2.4-2.335 3.6-6.324 3.6-2.282 0-3.956-.452-5.024-1.357-1.067-.905-1.6-2.322-1.6-4.25 0-1.863.526-3.233 1.58-4.112 1.068-.88 2.736-1.319 5.004-1.319 2.268 0 3.93.433 4.983 1.3 1.054.852 1.581 2.242 1.581 4.17zm-6.544-3.069c-1.041 0-1.808.15-2.302.452-.48.302-.78.82-.9 1.555h6.364c-.027-.708-.294-1.22-.8-1.535-.494-.315-1.281-.472-2.362-.472zM82.35 27.752h-3.363V19.98h-3.822v-2.597h11.047v2.597H82.35v7.772zM95.972 21.062v-3.679h3.362v10.37h-3.362v-4.074h-4.704v4.073h-3.362V17.383h3.362v3.68h4.704zM109.909 17.383h4.523v10.37h-3.363v-7.399h-.38l-4.363 7.398h-4.543V17.383h3.362v7.379h.34l4.424-7.379zM129.581 22.518v.807h-9.787c.106.866.413 1.476.92 1.83.507.354 1.308.531 2.402.531 1.881 0 2.909-.4 3.082-1.2h3.182c-.226 2.4-2.334 3.6-6.324 3.6-2.282 0-3.956-.452-5.024-1.357-1.067-.905-1.601-2.322-1.601-4.25 0-1.863.527-3.233 1.581-4.112 1.068-.88 2.736-1.319 5.004-1.319 2.268 0 3.929.433 4.984 1.3 1.054.852 1.581 2.242 1.581 4.17zm-6.545-3.069c-1.041 0-1.808.15-2.302.452-.48.302-.78.82-.9 1.555h6.364c-.026-.708-.293-1.22-.8-1.535-.494-.315-1.281-.472-2.362-.472zM143.932 28.087c-2.295 0-3.983-.446-5.064-1.338-1.081-.905-1.621-2.316-1.621-4.23 0-1.876.54-3.254 1.621-4.132 1.081-.893 2.769-1.338 5.064-1.338 1.961 0 3.482.38 4.563 1.14 1.094.748 1.694 1.844 1.801 3.287h-3.342c-.147-1.207-1.141-1.81-2.982-1.81-1.201 0-2.062.216-2.582.649-.507.433-.761 1.174-.761 2.223 0 1.063.254 1.817.761 2.263.507.446 1.367.669 2.582.669 1.881 0 2.888-.676 3.022-2.027h3.362c-.12 1.509-.734 2.663-1.841 3.463-1.094.787-2.622 1.18-4.583 1.18zM164.114 27.752h-3.642l-2.382-4.073h-2.382v4.073h-3.362V17.383h3.362v3.68h2.682l2.002-3.68h3.562l-2.842 5.175 3.002 5.194zM173.801 17.383h4.524v10.37h-3.363v-7.399h-.38l-4.363 7.398h-4.543V17.383h3.362v7.379h.34l4.423-7.379zM192.613 17.383v7.811h1.521v5.844h-3.262v-3.286h-7.726v3.286h-3.282v-5.844h1.281c.974-.918 1.461-2.557 1.461-4.919v-2.892h10.007zm-7.926 7.811h4.624v-5.273h-3.443v1.043a8.081 8.081 0 0 1-1.181 4.23zM207.719 27.752h-3.642l-2.382-4.073h-2.382v4.073h-3.362V17.383h3.362v3.68h2.682l2.002-3.68h3.562l-2.842 5.175 3.002 5.194zM217.406 17.383h4.524v10.37h-3.363v-7.399h-.38l-4.363 7.398h-4.543V17.383h3.362v7.379h.34l4.423-7.379z" fill="#fff"/><rect x=".666" y=".538" width="244.764" height="42" rx="7.5" stroke="#43BCBC"/></svg>