<svg width="100" height="18" viewBox="0 0 100 18" fill="none" xmlns="http://www.w3.org/2000/svg">
<path d="M15.6125 0.5H22.9348V17.5H18.9634V3.89024H18.3677L13.7757 17.5H9.18383L4.56709 3.89024H3.94657V17.5H0V0.5H7.32224L11.4426 13.5L15.6125 0.5Z" fill="black"/>
<path d="M37.6611 17.5H29.4205V0.5H37.2143C40.5403 0.5 42.9811 1.18293 44.5365 2.54878C46.092 3.89837 46.8697 6.00406 46.8697 8.86585C46.8697 11.8252 46.1251 14.0041 44.6358 15.4024C43.1466 16.8008 40.8216 17.5 37.6611 17.5ZM33.5656 4.01219V13.9878H37.5866C39.4068 13.9878 40.7141 13.5894 41.5084 12.7927C42.3192 11.9959 42.7246 10.687 42.7246 8.86585C42.7246 7.14228 42.3026 5.9065 41.4587 5.15854C40.6148 4.39431 39.2248 4.01219 37.2888 4.01219H33.5656Z" fill="black"/>
<path d="M62.9675 6.91463V0.5H67.1127V17.5H62.9675V10.4512H54.8543V17.5H50.7091V0.5H54.8543V6.91463H62.9675Z" fill="black"/>
<path d="M77.205 0.5H78.1091V4.11531H77.7025V0.844813H77.4725L75.8408 4.11531H75.3808L73.7491 0.844813H73.5191V4.11531H73.1179V0.5H74.0166L75.6161 3.71826L77.205 0.5Z" fill="black"/>
<path d="M82.9404 4.11531H82.5285L82.1326 3.03385H79.8483L79.4525 4.11531H79.0405L80.3619 0.5H81.6191L82.9404 4.11531ZM80.6454 0.844813L79.9714 2.68904H82.0096L81.3355 0.844813H80.6454Z" fill="black"/>
<path d="M87.2415 4.11531H86.7761L85.5296 2.40692H84.2831V4.11531H83.8819V0.5H84.2831V2.05688H85.5724L86.7333 0.5H87.1987L85.8827 2.26064L87.2415 4.11531Z" fill="black"/>
<path d="M91.1554 4.11531H88.2452V0.5H91.1179V0.844813H88.6464V2.05688H90.9414V2.40692H88.6464V3.7705H91.1554V4.11531Z" fill="black"/>
<path d="M75.0437 10.7293H73.1179V7.11398H74.9795C75.7392 7.11398 76.3045 7.262 76.6754 7.55805C77.0498 7.85411 77.2371 8.30341 77.2371 8.90596C77.2371 10.1215 76.506 10.7293 75.0437 10.7293ZM73.5191 7.45879V10.3845H75.033C75.6429 10.3845 76.094 10.2643 76.3865 10.024C76.6825 9.78367 76.8305 9.41099 76.8305 8.90596C76.8305 8.41138 76.6807 8.04741 76.3811 7.81405C76.0851 7.57721 75.6233 7.45879 74.9956 7.45879H73.5191Z" fill="black"/>
<path d="M78.7339 10.7293H78.3327V7.11398H78.7339V10.7293Z" fill="black"/>
<path d="M81.9742 9.37093V9.02612H84.1836V9.11494C84.1836 9.68614 84.0035 10.1111 83.6433 10.3897C83.2831 10.6683 82.7392 10.8077 82.0116 10.8077C80.5565 10.8077 79.829 10.1738 79.829 8.90596C79.829 7.65906 80.5547 7.03561 82.0063 7.03561C83.2153 7.03561 83.909 7.45182 84.0873 8.28425H83.6861C83.5184 7.6817 82.9639 7.38042 82.0223 7.38042C81.416 7.38042 80.9649 7.50407 80.6689 7.75136C80.3764 7.99517 80.2302 8.37829 80.2302 8.90073C80.2302 9.44059 80.3746 9.83591 80.6635 10.0867C80.9524 10.3375 81.4035 10.4628 82.017 10.4628C83.1618 10.4628 83.7538 10.0989 83.793 9.37093H81.9742Z" fill="black"/>
<path d="M85.6843 10.7293H85.2831V7.11398H85.6843V10.7293Z" fill="black"/>
<path d="M88.506 10.7293H88.1048V7.45879H86.6711V7.11398H89.945V7.45879H88.506V10.7293Z" fill="black"/>
<path d="M93.9573 10.7293H93.5454L93.1495 9.64783H90.8652L90.4694 10.7293H90.0574L91.3788 7.11398H92.6359L93.9573 10.7293ZM91.6623 7.45879L90.9883 9.30302H93.0265L92.3524 7.45879H91.6623Z" fill="black"/>
<path d="M97.5255 10.7293H94.8988V7.11398H95.3V10.3845H97.5255V10.7293Z" fill="black"/>
<path d="M75.9906 15.3632V13.8063H76.3972V17.4216H75.9906V15.7132H73.5191V17.4216H73.1179V13.8063H73.5191V15.3632H75.9906Z" fill="black"/>
<path d="M78.0652 17.4216H77.664V13.8063H78.0652V17.4216Z" fill="black"/>
<path d="M80.808 17.5C80.2373 17.5 79.8201 17.4042 79.5561 17.2127C79.2958 17.0176 79.1549 16.7041 79.1335 16.2723H79.5187C79.5401 16.5927 79.6507 16.8208 79.8504 16.9567C80.0501 17.089 80.3711 17.1552 80.8133 17.1552C81.1878 17.1552 81.4731 17.0925 81.6693 16.9671C81.869 16.8417 81.9688 16.6641 81.9688 16.4342C81.9688 16.0755 81.7138 15.856 81.2038 15.7759L80.2141 15.6244C79.5793 15.5269 79.2619 15.2256 79.2619 14.7206C79.2619 14.4036 79.3903 14.1598 79.6471 13.9892C79.9039 13.815 80.2676 13.728 80.7384 13.728C81.2341 13.728 81.6068 13.8185 81.8565 13.9996C82.1061 14.1773 82.2541 14.4611 82.3005 14.8512H81.9046C81.869 14.5795 81.7566 14.3827 81.5676 14.2608C81.3822 14.1355 81.1058 14.0728 80.7384 14.0728C80.3925 14.0728 80.125 14.1285 79.936 14.2399C79.747 14.3479 79.6524 14.5047 79.6524 14.7101C79.6524 15.0236 79.8807 15.2152 80.3372 15.2848L81.3055 15.4311C82.0116 15.5391 82.3647 15.87 82.3647 16.4238C82.3647 16.7686 82.2292 17.035 81.9581 17.2231C81.6907 17.4077 81.3073 17.5 80.808 17.5Z" fill="black"/>
<path d="M84.9368 17.4216H84.5356V14.1511H83.1019V13.8063H86.3758V14.1511H84.9368V17.4216Z" fill="black"/>
<path d="M89.2236 17.5C87.7578 17.5 87.0249 16.8713 87.0249 15.614C87.0249 14.3566 87.7578 13.728 89.2236 13.728C89.9618 13.728 90.5128 13.8847 90.8766 14.1982C91.2404 14.5081 91.4223 14.9801 91.4223 15.614C91.4223 16.2479 91.2404 16.7216 90.8766 17.035C90.5128 17.345 89.9618 17.5 89.2236 17.5ZM89.2236 17.1552C89.837 17.1552 90.2881 17.0315 90.577 16.7843C90.8695 16.5335 91.0157 16.1434 91.0157 15.614C91.0157 15.0811 90.8695 14.691 90.577 14.4437C90.2881 14.1964 89.837 14.0728 89.2236 14.0728C88.6101 14.0728 88.1572 14.1964 87.8647 14.4437C87.5759 14.691 87.4314 15.0811 87.4314 15.614C87.4314 16.1434 87.5777 16.5335 87.8701 16.7843C88.1626 17.0315 88.6137 17.1552 89.2236 17.1552Z" fill="black"/>
<path d="M94.0454 16.1207L95.8856 17.4216H95.2811L93.4248 16.1207H92.9273V17.4216H92.5207V13.8063H94.0026C95.1046 13.8063 95.6556 14.1755 95.6556 14.9139C95.6556 15.708 95.1189 16.1103 94.0454 16.1207ZM94.0026 14.1511H92.9273V15.7707H94.0026C94.4234 15.7707 94.7355 15.701 94.9388 15.5617C95.142 15.4224 95.2437 15.2065 95.2437 14.9139C95.2437 14.6527 95.142 14.4611 94.9388 14.3392C94.7355 14.2138 94.4234 14.1511 94.0026 14.1511Z" fill="black"/>
<path d="M99.556 13.8063H100L98.4219 16.4812V17.4216H98.0206V16.4865L96.4425 13.8063H96.8919L98.1758 16.0058H98.2667L99.556 13.8063Z" fill="black"/>
</svg>
