<svg width="180" height="32" viewBox="0 0 180 32" fill="none" xmlns="http://www.w3.org/2000/svg">
<path d="M28.1025 0.700195H41.2826V31.3002H34.1341V6.80263H33.0618L24.7963 31.3002H16.5309L8.22077 6.80263H7.10382V31.3002H0V0.700195H13.18L20.5966 24.1002L28.1025 0.700195Z" fill="#E4E3DD"/>
<path d="M67.7899 31.3002H52.9568V0.700195H66.9857C72.9726 0.700195 77.366 1.92946 80.1658 4.388C82.9656 6.81727 84.3655 10.6075 84.3655 15.7587C84.3655 21.0856 83.0252 25.0075 80.3445 27.5246C77.6638 30.0417 73.479 31.3002 67.7899 31.3002ZM60.4181 7.02215V24.9782H67.6559C70.9323 24.9782 73.2853 24.2612 74.715 22.827C76.1745 21.3929 76.9043 19.0368 76.9043 15.7587C76.9043 12.6563 76.1447 10.4319 74.6257 9.08556C73.1066 7.70995 70.6047 7.02215 67.1198 7.02215H60.4181Z" fill="#E4E3DD"/>
<path d="M113.342 12.2465V0.700195H120.803V31.3002H113.342V18.6124H98.7377V31.3002H91.2764V0.700195H98.7377V12.2465H113.342Z" fill="#E4E3DD"/>
<path d="M138.969 0.700195H140.596V7.20776H139.865V1.32086H139.45L136.513 7.20776H135.685L132.748 1.32086H132.334V7.20776H131.612V0.700195H133.23L136.109 6.49306L138.969 0.700195Z" fill="#E4E3DD"/>
<path d="M149.293 7.20776H148.551L147.839 5.26113H143.727L143.014 7.20776H142.273L144.651 0.700195H146.914L149.293 7.20776ZM145.162 1.32086L143.948 4.64047H147.617L146.404 1.32086H145.162Z" fill="#E4E3DD"/>
<path d="M157.035 7.20776H156.197L153.953 4.13265H151.71V7.20776H150.987V0.700195H151.71V3.50259H154.03L156.12 0.700195H156.958L154.589 3.86934L157.035 7.20776Z" fill="#E4E3DD"/>
<path d="M164.08 7.20776H158.841V0.700195H164.012V1.32086H159.564V3.50259H163.695V4.13265H159.564V6.5871H164.08V7.20776Z" fill="#E4E3DD"/>
<path d="M135.079 19.1129H131.612V12.6054H134.963C136.331 12.6054 137.348 12.8718 138.016 13.4047C138.69 13.9376 139.027 14.7463 139.027 15.8309C139.027 18.0189 137.711 19.1129 135.079 19.1129ZM132.334 13.226V18.4923H135.059C136.157 18.4923 136.969 18.276 137.496 17.8434C138.029 17.4108 138.295 16.74 138.295 15.8309C138.295 14.9407 138.025 14.2855 137.486 13.8655C136.953 13.4392 136.122 13.226 134.992 13.226H132.334Z" fill="#E4E3DD"/>
<path d="M141.721 19.1129H140.999V12.6054H141.721V19.1129Z" fill="#E4E3DD"/>
<path d="M147.554 16.6679V16.0472H151.53V16.2071C151.53 17.2353 151.206 18.0001 150.558 18.5017C149.909 19.0032 148.931 19.254 147.621 19.254C145.002 19.254 143.692 18.113 143.692 15.8309C143.692 13.5865 144.999 12.4643 147.611 12.4643C149.788 12.4643 151.036 13.2135 151.357 14.7118H150.635C150.333 13.6273 149.335 13.085 147.64 13.085C146.549 13.085 145.737 13.3075 145.204 13.7526C144.678 14.1915 144.414 14.8811 144.414 15.8215C144.414 16.7933 144.674 17.5048 145.194 17.9562C145.714 18.4076 146.526 18.6333 147.631 18.6333C149.691 18.6333 150.757 17.9782 150.827 16.6679H147.554Z" fill="#E4E3DD"/>
<path d="M154.232 19.1129H153.509V12.6054H154.232V19.1129Z" fill="#E4E3DD"/>
<path d="M159.311 19.1129H158.589V13.226H156.008V12.6054H161.901V13.226H159.311V19.1129Z" fill="#E4E3DD"/>
<path d="M169.123 19.1129H168.382L167.669 17.1663H163.557L162.845 19.1129H162.103L164.482 12.6054H166.745L169.123 19.1129ZM164.992 13.226L163.779 16.5456H167.448L166.234 13.226H164.992Z" fill="#E4E3DD"/>
<path d="M175.546 19.1129H170.818V12.6054H171.54V18.4923H175.546V19.1129Z" fill="#E4E3DD"/>
<path d="M136.783 27.454V24.6516H137.515V31.1591H136.783V28.084H132.334V31.1591H131.612V24.6516H132.334V27.454H136.783Z" fill="#E4E3DD"/>
<path d="M140.517 31.1591H139.795V24.6516H140.517V31.1591Z" fill="#E4E3DD"/>
<path d="M145.454 31.3002C144.427 31.3002 143.676 31.1278 143.201 30.783C142.732 30.4319 142.479 29.8677 142.44 29.0903H143.134C143.172 29.667 143.371 30.0777 143.731 30.3222C144.09 30.5604 144.668 30.6795 145.464 30.6795C146.138 30.6795 146.652 30.5667 147.005 30.341C147.364 30.1153 147.544 29.7956 147.544 29.3818C147.544 28.736 147.085 28.3411 146.167 28.1969L144.385 27.9242C143.243 27.7486 142.671 27.2063 142.671 26.2973C142.671 25.7268 142.903 25.2879 143.365 24.9807C143.827 24.6672 144.482 24.5105 145.329 24.5105C146.221 24.5105 146.892 24.6735 147.342 24.9995C147.791 25.3193 148.057 25.8302 148.141 26.5324H147.428C147.364 26.0434 147.162 25.6891 146.822 25.4697C146.488 25.244 145.99 25.1312 145.329 25.1312C144.706 25.1312 144.225 25.2315 143.885 25.4321C143.545 25.6265 143.374 25.9086 143.374 26.2785C143.374 26.8427 143.785 27.1875 144.607 27.3129L146.35 27.5762C147.621 27.7706 148.256 28.3661 148.256 29.363C148.256 29.9836 148.013 30.4632 147.525 30.8018C147.043 31.1341 146.353 31.3002 145.454 31.3002Z" fill="#E4E3DD"/>
<path d="M152.886 31.1591H152.164V25.2722H149.583V24.6516H155.477V25.2722H152.886V31.1591Z" fill="#E4E3DD"/>
<path d="M160.602 31.3002C157.964 31.3002 156.645 30.1686 156.645 27.9054C156.645 25.6421 157.964 24.5105 160.602 24.5105C161.931 24.5105 162.923 24.7926 163.578 25.3569C164.233 25.9148 164.56 26.7643 164.56 27.9054C164.56 29.0464 164.233 29.899 163.578 30.4632C162.923 31.0212 161.931 31.3002 160.602 31.3002ZM160.602 30.6795C161.707 30.6795 162.519 30.457 163.039 30.0118C163.565 29.5605 163.828 28.8583 163.828 27.9054C163.828 26.9461 163.565 26.244 163.039 25.7989C162.519 25.3537 161.707 25.1312 160.602 25.1312C159.498 25.1312 158.683 25.3537 158.157 25.7989C157.637 26.244 157.377 26.9461 157.377 27.9054C157.377 28.8583 157.64 29.5605 158.166 30.0118C158.693 30.457 159.505 30.6795 160.602 30.6795Z" fill="#E4E3DD"/>
<path d="M169.282 28.8175L172.594 31.1591H171.506L168.165 28.8175H167.269V31.1591H166.537V24.6516H169.205C171.188 24.6516 172.18 25.3161 172.18 26.6452C172.18 28.0746 171.214 28.7987 169.282 28.8175ZM169.205 25.2722H167.269V28.1875H169.205C169.962 28.1875 170.524 28.0621 170.89 27.8113C171.256 27.5605 171.439 27.1718 171.439 26.6452C171.439 26.175 171.256 25.8302 170.89 25.6108C170.524 25.3851 169.962 25.2722 169.205 25.2722Z" fill="#E4E3DD"/>
<path d="M179.201 24.6516H180L177.159 29.4664V31.1591H176.437V29.4758L173.596 24.6516H174.405L176.716 28.6107H176.88L179.201 24.6516Z" fill="#E4E3DD"/>
</svg>
