<svg width="425" height="1510" fill="none" xmlns="http://www.w3.org/2000/svg"><g style="mix-blend-mode:difference" clip-path="url(#a)" fill="#E4E3DD"><path d="M38.503 340.687h-1.41l1.41-1.411v1.411zM76.6 75.315v1.411l-1.409-1.411h1.41zM76.6 189.663h-1.409l1.41-1.411v1.411zM76.6 226.369v1.411l-1.409-1.411h1.41zM76.6 264.478v1.412l-1.409-1.412 1.41-1.411v1.411zM76.6 302.56h-1.409l1.41-1.411v1.411zM76.6 340.687h-1.409l1.41-1.411v1.411zM76.6 377.393v1.411l-1.409-1.411h1.41zM76.6 415.503v1.411l-1.409-1.411 1.41-1.412v1.412zM76.6 453.614h-1.409l1.41-1.411v1.411zM76.6 490.32v1.411l-1.409-1.411h1.41zM76.6 528.435v1.411l-1.409-1.411 1.41-1.412v1.412zM76.6 566.542h-1.409l1.41-1.412v1.412zM76.6 604.664h-1.409l1.41-1.412v1.412zM76.6 641.369v1.412l-1.409-1.412h1.41zM76.6 754.297v1.411l-1.409-1.411h1.41zM76.6 830.533h-1.409l1.41-1.411v1.411zM76.6 868.62h-1.409l1.41-1.411v1.411zM76.6 1245.54h-1.409l1.41-1.41v1.41zM76.6 1282.24v1.41l-1.409-1.41h1.41zM76.6 1396.55h-1.409l1.41-1.41v1.41zM114.573 75.315l-1.409 1.411v-1.411h1.409zM114.573 113.427l-1.409 1.411v-1.411h1.409zM114.573 151.556h-1.409v-1.411l1.409 1.411zM114.575 189.663h-1.409v-1.411l1.409 1.411zM114.604 226.371a1.41 1.41 0 1 1-2.821.003 1.41 1.41 0 0 1 2.821-.003zM114.604 264.478c0 1.412 0 1.412-1.41 1.412-1.409 0-1.409 0-1.409-1.412 0-1.411 0-1.411 1.409-1.411 1.41 0 1.41 1.411 1.41 1.411zM114.604 302.56c0 1.412 0 1.412-1.41 1.412-1.409 0-1.409 0-1.409-1.412 0-1.411 0-1.411 1.409-1.411 1.41 0 1.41 0 1.41 1.411zM114.604 340.675c0 1.411-1.41 1.411-1.41 1.411-1.409 0-1.409-1.411-1.409-1.411l1.409-2.823c1.41 0 1.41 1.412 1.41 2.823zM114.604 377.391c0 1.411-1.41 1.411-1.41 1.411-1.409 0-1.409-1.411-1.409-1.411 0-1.412 1.409-1.412 1.409-1.412 1.41 0 1.41 1.412 1.41 1.412zM114.604 415.503c0 1.411-1.41 1.411-1.41 1.411-1.409 0-1.409-1.411-1.409-1.411 0-1.412 1.409-1.412 1.409-1.412 1.41 0 1.41 0 1.41 1.412zM114.604 453.614c0 1.412 0 1.412-1.41 1.412-1.409 0-1.409-1.412-1.409-1.412 0-1.411 0-1.411 1.409-1.411 1.41 0 1.41 0 1.41 1.411zM114.604 490.313c0 1.411 0 1.411-1.41 1.411-1.409 0-1.409 0-1.409-1.411s0-1.411 1.409-1.411c1.41 0 1.41 1.411 1.41 1.411zM114.604 528.435c0 1.411 0 1.411-1.41 1.411-1.409 0-1.409 0-1.409-1.411 0-1.412 0-1.412 1.409-1.412 1.41 0 1.41 1.412 1.41 1.412zM114.604 566.544s0 1.411 0 0c-2.819 1.411-2.819 1.411-2.819 0 0-1.412 1.409-1.412 2.819 0 0-1.412 0-1.412 0 0zM114.604 604.664a1.41 1.41 0 1 1-2.821.001 1.41 1.41 0 0 1 2.821-.001zM114.604 641.382c0 1.411 0 1.411 0 0-1.41 1.411-2.819 0-2.819 0s1.409-1.411 2.819 0c0 0 0-1.411 0 0zM114.573 679.494s0 1.411 0 0c-1.409 1.411-1.409 0-1.409 0s0-1.411 1.409 0c0 0 0-1.411 0 0zM114.573 717.596h-1.409v-1.411l1.409 1.411zM114.573 754.297l-1.409 1.411v-1.411h1.409zM114.573 792.423l-1.409 1.412v-1.412h1.409zM114.575 830.533h-1.409v-1.411l1.409 1.411zM114.575 868.62h-1.409v-1.411l1.409 1.411zM114.573 905.316l-1.409 1.411v-1.411h1.409zM114.573 981.557h-1.409v-1.411l1.409 1.411zM114.573 1018.26l-1.409 1.41v-1.41h1.409zM114.573 1169.31l-1.409 1.41v-1.41h1.409zM114.573 1245.54h-1.409v-1.41l1.409 1.41zM114.575 1282.24l-1.409 1.41v-1.41h1.409zM152.576 151.533s-1.409 1.411 0 0c-1.409 1.411-2.818 0-2.818 0 0-1.411 1.409-1.411 2.818 0 0-1.411-1.409-1.411 0 0zM152.576 189.663a1.41 1.41 0 1 1-2.818 0 1.41 1.41 0 0 1 1.409-1.411 1.41 1.41 0 0 1 1.409 1.411zM152.576 226.371c0 1.412-1.409 1.412-1.409 1.412-1.409 0-1.409-1.412-1.409-1.412 0-1.411 1.409-1.411 1.409-1.411 1.409 0 1.409 1.411 1.409 1.411zM154.013 264.481c0 1.411-1.408 2.822-2.817 2.822-1.408 0-2.817-1.411-2.817-2.822s1.409-2.823 2.817-2.823c1.409 0 2.817 1.412 2.817 2.823zM154.013 302.593c0 1.411-1.408 2.822-2.817 2.822-1.408 0-2.817-1.411-2.817-2.822s1.409-2.823 2.817-2.823c1.409 0 2.817 1.412 2.817 2.823zM154.013 340.675a2.82 2.82 0 0 1-2.817 2.822 2.82 2.82 0 0 1-2.817-2.822 2.82 2.82 0 0 1 2.817-2.823 2.82 2.82 0 0 1 2.817 2.823zM154.013 377.378c0 1.411-1.408 2.822-2.817 2.822-1.408 0-2.817-1.411-2.817-2.822s1.409-2.822 2.817-2.822c1.409 1.411 2.817 1.411 2.817 2.822zM154.013 415.49c0 1.411-1.408 2.822-2.817 2.822-1.408 0-2.817-1.411-2.817-2.822s1.409-2.823 2.817-2.823c1.409 0 2.817 1.412 2.817 2.823zM154.013 453.617c0 1.411-1.408 2.822-2.817 2.822-1.408 0-2.817-1.411-2.817-2.822s1.409-2.823 2.817-2.823c1.409 0 2.817 1.412 2.817 2.823zM152.576 490.313a1.41 1.41 0 0 1-1.409 1.411 1.41 1.41 0 0 1 0-2.822 1.41 1.41 0 0 1 1.409 1.411zM152.576 528.435c0 1.411-1.409 1.411-1.409 1.411-1.409 0-1.409-1.411-1.409-1.411 0-1.412 1.409-1.412 1.409-1.412 1.409 0 1.409 0 1.409 1.412zM152.576 566.544c0 1.411-1.409 1.411-1.409 1.411-1.409 0-1.409-1.411-1.409-1.411 0-1.411 0-2.822 1.409-2.822s1.409 1.411 1.409 2.822zM152.576 604.669c0 1.411-1.409 1.411-1.409 1.411-1.409 0-1.409-1.411-1.409-1.411 0-1.411 1.409-1.411 1.409-1.411 1.409-1.412 1.409 0 1.409 1.411zM152.576 641.367c0 1.411-1.409 1.411-1.409 1.411-1.409 0-1.409-1.411-1.409-1.411 0-1.411 1.409-1.411 1.409-1.411 1.409 0 1.409 1.411 1.409 1.411zM152.576 679.489c0 1.411 0 1.411-1.409 1.411s-1.409-1.411-1.409-1.411c0-1.412 0-1.411 1.409-1.411s1.409-.001 1.409 1.411zM152.576 717.596c0 1.411 0 1.411-1.409 1.411s-1.409 0-1.409-1.411 0-1.411 1.409-1.411 1.409 0 1.409 1.411zM152.576 754.279c0 1.412 0 1.412 0 0-1.409 1.412-2.818 1.412-2.818 0 0 0 0-1.411 2.818 0 0 0 0-1.411 0 0zM152.576 792.391c0 1.412 0 1.412 0 0-1.409 1.412-2.818 0-2.818 0s1.409-1.411 2.818 0c0 0 0-1.411 0 0zM152.576 830.535s0 1.411 0 0c-1.409 1.411-2.818 0-2.818 0s1.409-1.411 2.818 0c0-1.411 0-1.411 0 0zM152.576 868.647s-1.409 0 0 0c-1.409 1.411-2.818 0-2.818 0s1.409-1.411 2.818 0c0-1.411-1.409-1.411 0 0zM152.576 905.333c0 1.412-1.409 1.412 0 0-1.409 1.412-2.818 0-2.818 0s1.409-1.411 2.818 0c0 0-1.409-1.411 0 0zM152.579 943.445s-1.409 1.412 0 0c-1.409 1.412-1.409 0-1.409 0-1.41 0 0-1.411 1.409 0 0 0-1.409-1.411 0 0zM152.576 981.557a1.41 1.41 0 0 1-1.409 1.411 1.41 1.41 0 0 1 0-2.822 1.41 1.41 0 0 1 1.409 1.411zM152.576 1018.26l-1.409 1.41-1.409-1.41h2.818zM152.576 1056.37a1.409 1.409 0 1 1-2.818 0 1.409 1.409 0 1 1 2.818 0zM152.576 1094.48h-2.818l1.409-1.41 1.409 1.41zM152.576 1132.6a1.409 1.409 0 1 1-2.818 0 1.409 1.409 0 1 1 2.818 0zM189.265 75.315v1.411l-1.41-1.411h1.41zM189.265 113.439c0 1.412 0 1.412 0 0-1.41 1.412-1.41 0-1.41 0s0-1.411 1.41 0c0 0 0-1.411 0 0zM190.674 151.556c0 1.411 0 1.411-1.409 1.411-1.41 0-1.41 0-1.41-1.411s0-1.411 1.41-1.411c.003 0 1.409.001 1.409 1.411zM190.676 189.663a1.41 1.41 0 1 1-2.819 0 1.41 1.41 0 1 1 2.819 0zM192.115 226.359c0 1.411-1.409 2.822-2.817 2.822-1.409 0-2.818-1.411-2.818-2.822s1.409-2.823 2.818-2.823c1.408 0 2.817 1.412 2.817 2.823zM192.115 264.481c0 1.411-1.409 2.822-2.817 2.822-1.409 0-2.818-1.411-2.818-2.822s1.409-2.823 2.818-2.823c1.408 0 2.817 1.412 2.817 2.823zM192.115 302.595c0 1.411-1.409 2.823-2.817 2.823-1.409 0-2.818-1.412-2.818-2.823s0-4.233 2.818-4.233c1.408 0 2.817 1.411 2.817 4.233zM192.014 340.677c0 1.411-1.409 4.234-4.226 4.234s-2.817-2.823-2.817-4.234 1.408-4.233 4.226-4.233c2.817 0 2.817 1.411 2.817 4.233zM192.044 377.38c0 1.412-1.409 4.234-4.226 4.234-1.409 0-4.226-1.411-4.226-4.234 0-1.411 1.408-4.233 4.226-4.233 2.817 1.411 4.226 2.822 4.226 4.233zM192.115 415.492c0 1.412-1.409 2.823-2.817 2.823-1.409 0-2.818-1.411-2.818-2.823 0-1.411 0-4.233 2.818-4.233 1.408 0 2.817 2.822 2.817 4.233zM192.115 453.617a2.82 2.82 0 0 1-2.817 2.822 2.82 2.82 0 0 1-2.818-2.822 2.82 2.82 0 0 1 2.818-2.823 2.82 2.82 0 0 1 2.817 2.823zM192.115 490.305c0 1.411-1.409 2.823-2.817 2.823-1.409 0-2.818-1.412-2.818-2.823s1.409-2.822 2.818-2.822c1.408 0 2.817 1.411 2.817 2.822zM192.115 528.432c0 1.411-1.409 2.822-2.817 2.822-1.409 0-2.818-1.411-2.818-2.822s1.409-2.822 2.818-2.822c1.408 0 2.817 1.411 2.817 2.822zM192.115 566.544c0 1.411-1.409 2.822-2.817 2.822-1.409 0-2.818-1.411-2.818-2.822s1.409-2.822 2.818-2.822c1.408 0 2.817 1.411 2.817 2.822zM192.115 604.661c0 1.411-1.409 2.822-2.817 2.822-1.409 0-2.818-1.411-2.818-2.822s1.409-2.822 2.818-2.822c1.408 0 2.817 1.411 2.817 2.822zM190.605 641.369c0 1.411-1.408 2.823-2.817 2.823-1.409 0-2.817-1.412-2.817-2.823s1.408-2.822 2.817-2.822c2.817 1.411 2.817 1.411 2.817 2.822zM190.706 679.486c0 1.411-1.408 2.823-2.817 2.823-1.409 0-1.409-1.412-1.409-2.823s1.409-2.822 2.818-2.822c1.408 0 1.408 1.411 1.408 2.822zM190.676 717.596c0 1.411-1.409 1.411-1.409 1.411-1.41 0-1.41-1.411-1.41-1.411 0-1.411 1.41-1.411 1.41-1.411 1.409-1.412 1.409 0 1.409 1.411zM190.676 754.299c0 1.411-1.409 1.411-1.409 1.411-1.41 0-1.41-1.411-1.41-1.411 0-1.411 1.41-1.411 1.41-1.411 1.409 0 1.409 1.411 1.409 1.411zM190.674 792.426a1.41 1.41 0 1 1-2.82.001 1.41 1.41 0 0 1 2.82-.001zM190.674 830.533c0 1.411-1.409 1.411-1.409 1.411-1.41 0-1.41-1.411-1.41-1.411 0-1.411 1.41-1.411 1.41-1.411s1.409 0 1.409 1.411zM190.674 868.615c0 1.411-1.409 1.411-1.409 1.411-1.41 0-1.41-1.411-1.41-1.411 0-1.411 1.41-1.411 1.41-1.411 0-1.411 1.409 0 1.409 1.411zM190.676 905.323c0 1.411 0 1.411-1.409 1.411-1.41 0-1.41-1.411-1.41-1.411 0-1.411 0-1.411 1.41-1.411l1.409 1.411zM190.676 943.43c0 1.411 0 1.411-1.409 1.411-1.41 0-1.41 0-1.41-1.411s0-1.411 1.41-1.411c0 0 1.409 0 1.409 1.411zM190.676 981.544s-1.409 1.411 0 0c-2.819 1.411-2.819 1.411-2.819 0s0-1.411 2.819 0c0-1.411-1.409-1.411 0 0zM190.676 1018.26c0 1.41-1.409 1.41 0 0-2.819 1.41-2.819 1.41-2.819 0 0 0 0-1.41 2.819 0 0 0-1.409-1.41 0 0zM190.676 1056.38c0 1.41-1.409 1.41 0 0-1.409 1.41-2.819 0-2.819 0s0-1.41 2.819 0c0 0-1.409-1.41 0 0zM190.676 1094.49s-1.409 1.41 0 0c-1.409 1.41-2.819 0-2.819 0s0-1.42 2.819 0c0-1.42-1.409-1.42 0 0zM190.676 1132.59s-1.409 0 0 0c-1.409 1.41-2.819 0-2.819 0 0-1.41 0-1.41 2.819 0 0-1.41-1.409-1.41 0 0zM190.676 1169.3c0 .78-.631 1.42-1.409 1.42-.779 0-1.41-.64-1.41-1.42a1.409 1.409 0 1 1 2.819 0zM189.267 1207.41v1.41l-1.41-1.41 1.41-1.41v1.41zM189.267 1245.54h-1.41l1.41-1.41v1.41zM189.267 1282.24v1.41l-1.41-1.41h1.41zM189.267 1320.36v1.41l-1.41-1.41h1.41zM189.267 1358.47h-1.41l1.41-1.42v1.42zM189.267 1396.55h-1.41l1.41-1.41v1.41zM227.235 75.315l-1.409 1.411v-1.411h1.409zM227.27 113.439c0 1.412 0 1.412 0 0-1.41 1.412-2.819 1.412-2.819 0 0 0 1.409-1.411 2.819 0 0 0 0-1.411 0 0zM228.645 151.541c0 1.411-1.41 1.411-1.41 1.411-1.409 0-1.409-1.411-1.409-1.411 0-1.411 1.409-1.411 1.409-1.411 0-1.411 1.41 0 1.41 1.411zM228.705 189.666c0 1.411-1.409 2.822-2.817 2.822-1.409 0-2.818-1.411-2.818-2.822 0-1.412 1.409-2.823 2.818-2.823 2.817 0 2.817 1.411 2.817 2.823zM230.147 226.356c0 1.411-1.409 4.234-4.226 4.234-1.408 0-4.226-1.411-4.226-4.234 0-1.411 1.409-4.233 4.226-4.233 2.817 1.411 4.226 2.822 4.226 4.233zM230.147 264.488c0 2.823-1.409 4.234-4.226 4.234s-4.226-1.411-4.226-4.234c0-2.822 1.409-4.233 4.226-4.233s4.226 1.411 4.226 4.233zM231.556 302.595c0 2.823-1.409 4.234-4.226 4.234s-5.635-1.411-5.635-4.234c0-2.822 1.409-4.233 4.226-4.233s5.635 1.411 5.635 4.233zM231.522 340.711c0 2.823-1.409 4.235-4.226 4.235s-4.226-1.412-4.226-4.235c0-2.823 1.409-5.646 2.818-5.646 2.817 0 5.634 2.823 5.634 5.646zM231.556 377.38c0 2.823-1.409 4.234-4.226 4.234s-5.635-1.411-5.635-4.234c0-2.822 1.409-4.233 4.226-4.233s5.635 1.411 5.635 4.233zM231.522 415.492c0 2.823-1.409 4.234-4.226 4.234s-4.226-1.411-4.226-4.234c0-2.822 1.409-4.233 4.226-4.233 1.409 0 4.226 1.411 4.226 4.233zM230.147 453.609c0 2.823-1.409 4.234-4.226 4.234s-4.226-1.411-4.226-4.234c0-2.822 1.409-4.233 4.226-4.233s4.226 1.411 4.226 4.233zM230.147 490.313c0 2.822-1.409 4.233-4.226 4.233s-4.226-1.411-4.226-4.233c0-2.823 1.409-4.234 4.226-4.234 2.817 1.411 4.226 2.822 4.226 4.234zM230.147 528.429c0 1.412-1.409 4.234-4.226 4.234-1.408 0-4.226-1.411-4.226-4.234 0-1.411 1.409-4.233 4.226-4.233s4.226 2.822 4.226 4.233zM230.147 566.552c0 1.411-1.409 4.233-4.226 4.233-1.408 0-4.226-1.411-4.226-4.233 0-1.412 1.409-4.234 4.226-4.234s4.226 1.411 4.226 4.234zM230.086 604.658c0 1.412-1.409 2.823-2.818 2.823-1.408 0-2.817-1.411-2.817-2.823 0-1.411 0-4.233 1.409-4.233 2.817 0 4.226 1.411 4.226 4.233zM230.086 641.369c0 1.411-1.409 2.823-2.818 2.823-1.408 0-2.817-1.412-2.817-2.823s1.409-2.822 2.817-2.822c1.409 0 2.818 1.411 2.818 2.822zM230.086 679.486c0 1.411-1.409 2.823-2.818 2.823-1.408 0-2.817-1.412-2.817-2.823s1.409-2.822 2.817-2.822c1.409 0 2.818 1.411 2.818 2.822zM228.705 717.598c0 1.411-1.409 2.823-2.817 2.823-1.409 0-2.818-1.412-2.818-2.823s1.409-2.822 2.818-2.822c2.817 0 2.817 1.411 2.817 2.822zM228.705 754.301c0 1.412-1.409 2.823-2.817 2.823-1.409 0-2.818-1.411-2.818-2.823 0-1.411 1.409-2.822 2.818-2.822 1.408 1.411 2.817 1.411 2.817 2.822zM228.705 792.413c0 1.412-1.409 2.823-2.817 2.823-1.409 0-2.818-1.411-2.818-2.823l2.818-2.822c1.408 0 2.817 1.411 2.817 2.822zM228.705 830.54c0 1.412-1.409 2.823-2.817 2.823-1.409 0-2.818-1.411-2.818-2.823 0-1.411 1.409-2.822 2.818-2.822 1.408 0 2.817 1.411 2.817 2.822zM228.645 868.615c0 1.411-1.41 1.411-1.41 1.411-1.409 0-1.409-1.411-1.409-1.411 0-1.411 1.409-1.411 1.409-1.411 0-1.411 1.41 0 1.41 1.411zM228.645 905.323c0 1.411-1.41 1.411-1.41 1.411-1.409 0-1.409-1.411-1.409-1.411v-1.411c1.409 0 2.819 0 2.819 1.411zM228.645 943.43c0 1.411-1.41 1.411-1.41 1.411-1.409 0-1.409-1.411-1.409-1.411 0-1.411 1.409-1.411 1.409-1.411s1.41 0 1.41 1.411zM227.27 981.557a1.41 1.41 0 1 1-2.821.001 1.41 1.41 0 0 1 2.821-.001zM228.721 1018.25c0 1.41-1.409 1.41-1.409 1.41-1.409 0-1.409-1.41-1.409-1.41-1.408 0 0-1.41 0-1.41 1.409 0 2.818 1.41 2.818 1.41zM228.645 1056.37c0 1.41-1.41 1.41-1.41 1.41-1.409 0-1.409-1.41-1.409-1.41 0-1.41 1.409-1.41 1.409-1.41s1.41 0 1.41 1.41zM228.645 1094.48c0 1.42 0 1.42-1.41 1.42-1.409 0-1.409-1.42-1.409-1.42 0-1.41 0-1.41 1.409-1.41 0 0 1.41 0 1.41 1.41zM227.27 1132.6c0 1.41 0 1.41-1.41 1.41-1.409 0-1.409 0-1.409-1.41s0-1.41 1.409-1.41c1.41 0 1.41 0 1.41 1.41zM227.27 1169.31c0 1.41 0 1.41 0 0-1.41 1.41-2.819 0-2.819 0 1.409 0 1.409-1.41 2.819 0 0 0 0-1.41 0 0zM227.27 1207.41s0 1.41 0 0c-1.41 1.41-2.819 0-2.819 0s1.409-1.41 2.819 0c0-1.41 0-1.41 0 0zM227.27 1245.52c-1.41 1.41-2.819 0-2.819 0 1.409-1.41 1.409-1.41 2.819 0 0-1.41 0-1.41 0 0zM227.235 1282.24l-1.409 1.41v-1.41h1.409zM227.235 1320.36l-1.409 1.41v-1.41h1.409zM227.235 1358.47h-1.409v-1.42l1.409 1.42zM227.235 1396.55h-1.409v-1.41l1.409 1.41zM227.235 1433.26l-1.409 1.41v-1.41h1.409zM265.339 75.315l-1.409 1.411v-1.411h1.409zM265.375 113.424c0 1.411-1.409 1.411-1.409 1.411-1.409 0-1.409-1.411-1.409-1.411 0-1.411 1.409-1.411 1.409-1.411 1.409 0 1.409 1.411 1.409 1.411zM266.678 151.544c0 1.411-1.409 2.822-2.818 2.822-1.408 0-2.817-1.411-2.817-2.822 0-1.412 1.409-2.823 2.817-2.823 1.409 0 2.818 1.411 2.818 2.823zM268.086 189.658c0 1.411-1.408 4.234-4.226 4.234-1.408 0-2.817-1.412-2.817-4.234 0-1.411 1.409-4.234 2.817-4.234 2.818 0 4.226 1.412 4.226 4.234zM268.114 226.356c0 2.823-1.409 4.234-4.226 4.234s-4.226-1.411-4.226-4.234c0-2.822 1.409-4.233 4.226-4.233s4.226 2.822 4.226 4.233zM269.556 264.472c0 2.824-2.817 5.647-5.634 5.647-2.818 0-5.635-2.823-5.635-5.647 0-2.823 2.817-5.646 5.635-5.646 2.817 0 5.634 2.823 5.634 5.646zM269.556 302.599c0 2.823-2.817 5.647-5.634 5.647-2.818 0-5.635-2.824-5.635-5.647 0-2.823 2.817-5.646 5.635-5.646 2.817 0 5.634 2.823 5.634 5.646zM269.556 340.699c0 2.823-2.817 5.646-5.634 5.646-2.818 0-5.635-2.823-5.635-5.646 0-2.824 2.817-5.647 5.635-5.647 2.817-1.411 5.634 1.412 5.634 5.647zM269.556 377.379c0 2.823-2.817 5.647-5.634 5.647-2.818 0-5.635-2.824-5.635-5.647 0-2.823 2.817-5.646 5.635-5.646 2.817 0 5.634 2.823 5.634 5.646zM269.556 415.496c0 2.824-2.817 5.647-5.634 5.647-2.818 0-5.635-2.823-5.635-5.647 0-2.823 2.817-5.646 5.635-5.646 2.817 0 5.634 2.823 5.634 5.646zM269.556 453.608c0 2.824-2.817 5.647-5.634 5.647-2.818 0-5.635-2.823-5.635-5.647 0-2.823 2.817-5.646 5.635-5.646 2.817 0 5.634 2.823 5.634 5.646zM269.495 490.313c0 2.822-2.817 4.233-4.226 4.233-2.817 0-4.226-2.822-4.226-4.233 0-2.823 2.817-4.234 4.226-4.234 1.409 0 4.226 1.411 4.226 4.234zM268.116 528.429c0 2.823-1.409 4.234-4.226 4.234s-4.226-1.411-4.226-4.234c0-2.822 1.409-4.233 4.226-4.233s4.226 1.411 4.226 4.233zM268.116 566.552c0 2.822-1.409 4.233-4.226 4.233s-4.226-1.411-4.226-4.233c0-2.823 1.409-4.234 4.226-4.234s4.226 1.411 4.226 4.234zM268.116 604.658c0 2.823-1.409 4.234-4.226 4.234s-4.226-1.411-4.226-4.234c0-2.822 1.409-4.233 4.226-4.233s4.226 1.411 4.226 4.233zM268.116 641.367c0 1.411-1.409 4.233-4.226 4.233-1.409 0-4.226-1.411-4.226-4.233 0-1.412 1.409-4.234 4.226-4.234 2.817 1.411 4.226 2.822 4.226 4.234zM268.086 679.484c0 1.411-1.408 4.233-4.226 4.233-1.408 0-2.817-1.411-2.817-4.233 0-1.412 1.409-4.234 2.817-4.234 2.818 0 4.226 2.822 4.226 4.234zM268.191 717.597c0 1.411-1.408 2.823-2.817 2.823-1.409 0-2.817-1.412-2.817-2.823s1.408-2.822 2.817-2.822c0-1.411 2.817 0 2.817 2.822zM266.677 754.301c0 1.412-1.408 2.823-2.817 2.823-1.408 0-2.817-1.411-2.817-2.823 0-1.411 1.409-2.822 2.817-2.822 1.409 0 2.817 1.411 2.817 2.822zM266.677 792.413c0 1.412-1.408 2.823-2.817 2.823-1.408 0-2.817-1.411-2.817-2.823 0-1.411 1.409-2.822 2.817-2.822 1.409 0 2.817 1.411 2.817 2.822zM266.677 830.54c0 1.412-1.408 2.823-2.817 2.823-1.408 0-2.817-1.411-2.817-2.823 0-1.411 1.409-2.822 2.817-2.822 1.409 0 2.817 1.411 2.817 2.822zM266.677 868.622c0 1.412-1.408 2.823-2.817 2.823-1.408 0-2.817-1.411-2.817-2.823 0-1.411 1.409-2.822 2.817-2.822 1.409 0 2.817 1.411 2.817 2.822zM266.677 905.323c0 1.411-1.408 2.823-2.817 2.823-1.408 0-2.817-1.412-2.817-2.823s1.409-1.411 2.817-1.411c1.409 0 2.817 0 2.817 1.411zM266.677 943.433c0 1.411-1.408 2.822-2.817 2.822-1.408 0-2.817-1.411-2.817-2.822 0-1.412 1.409-2.823 2.817-2.823 1.409 0 2.817 1.411 2.817 2.823zM266.677 981.55c0 1.411-1.408 2.822-2.817 2.822-1.408 0-2.817-1.411-2.817-2.822 0-1.412 1.409-2.823 2.817-2.823 1.409 0 2.817 1.411 2.817 2.823zM266.748 1018.25c0 1.41-1.409 1.41-1.409 1.41-1.409 0-1.409-1.41-1.409-1.41 0-1.41 1.409-1.41 1.409-1.41l1.409 1.41zM266.748 1056.37c0 1.41-1.409 1.41-1.409 1.41-1.409 0-1.409-1.41-1.409-1.41 0-1.41 1.409-1.41 1.409-1.41s1.409 0 1.409 1.41zM265.375 1094.48c0 1.42-1.409 1.42-1.409 1.42-1.409 0-1.409-1.42-1.409-1.42 0-1.41 1.409-1.41 1.409-1.41 1.409 0 1.409 0 1.409 1.41zM265.375 1132.6c0 1.41-1.409 1.41-1.409 1.41-1.409 0-1.409-1.41-1.409-1.41 0-1.41 1.409-2.82 1.409-2.82 1.409 0 1.409 1.41 1.409 2.82zM265.375 1169.3c0 1.42 0 1.42-1.409 1.42s-1.409-1.42-1.409-1.42c0-1.41 0-1.41 1.409-1.41s1.409 1.41 1.409 1.41zM265.375 1207.41c0 1.41 0 1.41-1.409 1.41s-1.409 0-1.409-1.41 0-1.41 1.409-1.41 1.409 0 1.409 1.41zM265.375 1245.52s0 1.41 0 0c-1.409 1.41-2.818 0-2.818 0 0-1.41 1.409-1.41 2.818 0 0-1.41 0-1.41 0 0zM265.375 1282.24c0 1.41 0 1.41 0 0-1.409 1.41-2.818 0-2.818 0h2.818zM265.375 1320.36l-1.409 1.41-1.409-1.41 1.409-1.41 1.409 1.41zM265.339 1358.47h-1.409v-1.42l1.409 1.42zM265.339 1396.55h-1.409v-1.41l1.409 1.41zM303.34 75.317a1.41 1.41 0 1 1-2.82.002 1.41 1.41 0 0 1 2.82-.002zM303.34 113.424c0 1.411-1.409 1.411-1.409 1.411-1.41 0-1.41-1.411-1.41-1.411 0-1.411 1.41-1.411 1.41-1.411 1.409 0 1.409 0 1.409 1.411zM304.775 151.544c0 1.411-1.408 2.822-2.817 2.822-1.409 0-2.817-1.411-2.817-2.822 0-1.412 1.408-2.823 2.817-2.823 1.409 0 2.817 1.411 2.817 2.823zM306.221 189.658c0 2.822-1.408 4.234-4.226 4.234-2.817 0-4.225-2.823-4.225-4.234 0-2.822 1.408-4.234 4.225-4.234 2.818 0 4.226 1.412 4.226 4.234zM307.525 226.365c0 2.823-2.817 5.647-5.635 5.647-2.817 0-5.634-2.824-5.634-5.647 0-2.823 2.817-5.646 5.634-5.646 2.818 0 5.635 2.823 5.635 5.646zM307.559 264.472c0 2.824-2.818 5.647-5.635 5.647-2.817 0-7.043-1.412-7.043-5.647 0-2.823 2.817-5.646 5.634-5.646 2.818 0 7.044 2.823 7.044 5.646zM308.967 302.597c0 4.235-2.817 7.058-7.043 7.058s-7.043-2.823-7.043-7.058c0-4.235 2.817-7.058 7.043-7.058 2.817 0 7.043 2.823 7.043 7.058zM308.967 340.704c0 3.898-3.153 7.058-7.043 7.058s-7.043-3.16-7.043-7.058c0-3.898 3.153-7.058 7.043-7.058s7.043 3.16 7.043 7.058zM308.967 377.407c0 4.235-2.817 7.058-7.043 7.058s-7.043-2.823-7.043-7.058c0-4.235 2.817-7.058 7.043-7.058 2.817 0 7.043 4.235 7.043 7.058zM308.967 415.499c0 3.898-3.153 7.058-7.043 7.058s-7.043-3.16-7.043-7.058c0-3.898 3.153-7.058 7.043-7.058s7.043 3.16 7.043 7.058zM307.525 453.641c0 2.823-2.817 5.646-5.635 5.646-2.817 0-5.634-2.823-5.634-5.646s2.817-5.647 5.634-5.647c2.818-1.411 5.635 1.412 5.635 5.647zM307.525 490.317c0 2.823-2.817 5.646-5.635 5.646-2.817 0-5.634-1.412-5.634-5.646 0-2.824 2.817-5.647 5.634-5.647 2.818 0 5.635 2.823 5.635 5.647zM307.525 528.423c0 2.824-2.817 5.647-5.635 5.647-2.817 0-5.634-2.823-5.634-5.647 0-2.823 2.817-5.646 5.634-5.646 2.818 0 5.635 2.823 5.635 5.646zM306.116 566.551c0 2.823-2.817 5.646-5.634 5.646s-4.226-2.823-4.226-5.646c0-2.824 2.817-5.647 5.634-5.647 2.818 0 4.226 2.823 4.226 5.647zM306.221 604.658c0 2.823-1.408 4.234-4.226 4.234-2.817 0-4.225-2.822-4.225-4.234 0-2.822 1.408-4.233 4.225-4.233 2.818 0 4.226 1.411 4.226 4.233zM306.221 641.367a4.23 4.23 0 0 1-4.226 4.233 4.23 4.23 0 0 1-4.225-4.233 4.23 4.23 0 0 1 4.225-4.234 4.23 4.23 0 0 1 4.226 4.234zM306.221 679.484c0 2.822-1.408 4.233-4.226 4.233-2.817 0-4.225-1.411-4.225-4.233 0-2.823 1.408-4.234 4.225-4.234 2.818 0 4.226 1.411 4.226 4.234zM306.221 717.601a4.23 4.23 0 0 1-4.226 4.233 4.23 4.23 0 0 1-4.225-4.233 4.23 4.23 0 0 1 4.225-4.234 4.23 4.23 0 0 1 4.226 4.234zM304.813 754.304c0 1.411-1.409 4.234-4.226 4.234s-2.817-1.412-2.817-4.234c0-1.411 1.408-4.234 4.225-4.234 2.818 0 2.818 2.823 2.818 4.234zM304.813 792.413c0 1.412-1.409 2.823-2.818 2.823-1.408 0-4.225-1.411-4.225-2.823 0-1.411 1.408-2.822 2.817-2.822 1.408 0 4.226 1.411 4.226 2.822zM304.775 830.54a2.82 2.82 0 0 1-2.817 2.823 2.82 2.82 0 0 1-2.817-2.823 2.82 2.82 0 0 1 2.817-2.822 2.82 2.82 0 0 1 2.817 2.822zM304.775 868.621c0 1.412-1.408 2.823-2.817 2.823-1.409 0-2.817-1.411-2.817-2.823 0-1.411 1.408-2.822 2.817-2.822 1.409-1.411 2.817 0 2.817 2.822zM304.775 905.326a2.82 2.82 0 0 1-2.817 2.822 2.82 2.82 0 0 1-2.817-2.822 2.82 2.82 0 0 1 2.817-2.823 2.82 2.82 0 0 1 2.817 2.823zM304.775 943.433a2.82 2.82 0 0 1-2.817 2.822 2.82 2.82 0 0 1-2.817-2.822 2.82 2.82 0 0 1 2.817-2.823 2.82 2.82 0 0 1 2.817 2.823zM304.775 981.55a2.82 2.82 0 0 1-2.817 2.822 2.82 2.82 0 0 1-2.817-2.822 2.82 2.82 0 0 1 2.817-2.823 2.82 2.82 0 0 1 2.817 2.823zM304.775 1018.25c0 1.41-1.408 2.82-2.817 2.82-1.409 0-2.817-1.41-2.817-2.82s1.408-1.41 2.817-1.41c1.409 0 2.817 0 2.817 1.41zM303.367 1056.36c0 1.42-1.409 2.83-2.818 2.83-1.408 0-1.408-1.41-1.408-2.83 0-1.41 1.408-2.82 2.817-2.82 1.409 0 1.409 1.41 1.409 2.82zM303.367 1094.49c0 1.41-1.409 2.82-2.818 2.82-1.408 0-1.408-1.41-1.408-2.82s1.408-2.83 2.817-2.83c1.409 0 1.409 1.42 1.409 2.83zM303.34 1132.6a1.409 1.409 0 1 1-2.819 0 1.409 1.409 0 1 1 2.819 0zM303.34 1169.3c0 1.42-1.409 1.42-1.409 1.42s-1.41 0-1.41-1.42c0-1.41 1.41-1.41 1.41-1.41l1.409 1.41zM303.34 1207.41a1.409 1.409 0 1 1-2.819 0 1.409 1.409 0 1 1 2.819 0zM303.34 1245.54c0 1.41 0 1.41-1.409 1.41-1.41 0-1.41-1.41-1.41-1.41 0-1.41 1.41-1.41 1.41-1.41s1.409 0 1.409 1.41zM303.34 1282.21c0 1.41-1.409 1.41 0 0-1.409 1.41-2.819 1.41-2.819 0 0 0 0-1.41 2.819 0 0 0-1.409-1.41 0 0zM303.34 1320.33c0 1.41-1.409 1.41 0 0-1.409 1.41-2.819 0-2.819 0s0-1.41 2.819 0c0 0-1.409-1.41 0 0zM303.34 1358.47h-2.819l1.41-1.42 1.409 1.42zM303.34 1396.55a1.409 1.409 0 1 1-2.819 0 1.409 1.409 0 1 1 2.819 0zM301.931 1433.26v1.41l-1.41-1.41h1.41zM340.038 38.614h-1.409l1.409-1.411v1.411zM339.934 75.315c0 1.412 0 1.412 0 0-1.409 1.412-2.819 0-2.819 0h2.819zM342.75 113.432a2.82 2.82 0 0 1-2.817 2.822 2.82 2.82 0 0 1-2.818-2.822 2.82 2.82 0 0 1 2.818-2.823 2.82 2.82 0 0 1 2.817 2.823zM342.811 151.541c0 1.411-1.408 4.234-4.226 4.234-1.408 0-4.226-1.411-4.226-4.234 0-2.822 2.818-4.234 5.635-4.234 1.409 0 2.817 1.412 2.817 4.234zM344.22 189.649c0 2.822-2.817 4.233-4.226 4.233-2.817 0-5.635-2.822-5.635-4.233 0-.145.008-.285.022-.422.51-4.867 9.839-4.472 9.839.422zM345.628 226.365c0 2.823-2.817 5.647-5.634 5.647s-5.635-2.824-5.635-5.647c0-2.823 2.818-5.646 5.635-5.646 2.817 0 5.634 2.823 5.634 5.646zM347.079 264.475c0 4.235-2.818 7.058-7.044 7.058-4.226 0-7.043-2.823-7.043-7.058 0-4.235 2.817-7.058 7.043-7.058 2.818 0 7.044 2.823 7.044 7.058zM347.003 302.59c0 4.235-2.817 8.47-8.452 8.47-4.225 0-8.451-2.824-8.451-8.47 0-4.235 4.226-8.47 8.451-8.47 5.635 0 8.452 4.235 8.452 8.47zM346.97 340.707c0 4.235-4.226 8.469-8.452 8.469s-7.043-4.234-7.043-8.469c0-4.235 2.817-8.47 8.452-8.47 5.634 0 7.043 2.824 7.043 8.47zM347.003 377.41c0 4.235-2.817 8.47-8.452 8.47-4.225 0-8.451-2.824-8.451-8.47 0-4.235 4.226-8.47 8.451-8.47 5.635 1.412 8.452 4.235 8.452 8.47zM347.079 415.499c0 4.235-2.818 7.058-7.044 7.058-4.226 0-7.043-2.823-7.043-7.058 0-4.235 2.817-7.058 7.043-7.058s7.044 2.823 7.044 7.058zM347.079 453.611c0 4.235-2.818 7.058-7.044 7.058-4.226 0-7.043-2.823-7.043-7.058 0-4.235 2.817-7.058 7.043-7.058 2.818 0 7.044 2.823 7.044 7.058zM345.561 490.309c0 4.235-2.817 7.058-7.043 7.058s-7.043-2.823-7.043-7.058c0-4.234 2.817-7.058 7.043-7.058 4.226 1.412 7.043 4.235 7.043 7.058zM345.628 528.423c0 2.824-2.817 5.647-5.634 5.647s-5.635-2.823-5.635-5.647c0-2.823 2.818-5.646 5.635-5.646 2.817 0 5.634 2.823 5.634 5.646zM345.628 566.551c0 2.823-2.817 5.646-5.634 5.646s-5.635-2.823-5.635-5.646c0-2.824 1.409-5.647 5.635-5.647 2.817 0 5.634 2.823 5.634 5.647zM345.628 604.663c0 2.823-2.817 5.646-5.634 5.646s-5.635-2.823-5.635-5.646c0-2.824 1.409-5.647 5.635-5.647 2.817 0 5.634 1.412 5.634 5.647zM344.261 641.366c0 2.823-2.817 5.646-5.634 5.646-2.818 0-5.635-2.823-5.635-5.646s2.817-5.647 5.635-5.647c4.226 1.412 5.634 2.824 5.634 5.647zM344.22 679.474c0 2.823-2.817 4.234-4.226 4.234-2.817 0-5.635-2.822-5.635-4.234 0-2.822 2.818-4.233 5.635-4.233 2.817-1.411 4.226 1.411 4.226 4.233zM344.188 717.596c0 2.823-1.408 4.234-4.226 4.234-2.817 0-4.226-1.411-4.226-4.234 0-2.822 1.409-4.233 4.226-4.233 1.409-1.412 4.226 1.411 4.226 4.233zM344.188 754.304c0 2.822-1.408 4.234-4.226 4.234-2.817 0-4.226-1.412-4.226-4.234 0-2.823 1.409-4.234 4.226-4.234 1.409 0 4.226 2.823 4.226 4.234zM342.811 792.416c0 2.822-1.408 4.233-4.226 4.233-2.817 0-4.226-1.411-4.226-4.233 0-2.823 1.409-4.234 4.226-4.234 2.818 0 4.226 1.411 4.226 4.234zM342.811 830.528c0 2.822-1.408 4.233-4.226 4.233-2.817 0-4.226-1.411-4.226-4.233 0-2.823 2.818-4.234 5.635-4.234 1.409 0 2.817 1.411 2.817 4.234zM342.811 868.65c0 1.411-1.408 4.233-4.226 4.233-1.408 0-4.226-1.411-4.226-4.233 0-1.412 1.409-4.234 4.226-4.234 2.818 0 4.226 1.411 4.226 4.234zM342.811 905.308c0 1.411-1.408 4.234-4.226 4.234-1.408 0-4.226-1.412-4.226-4.234 0-1.411 1.409-4.234 4.226-4.234 2.818 1.412 4.226 2.823 4.226 4.234zM342.75 943.433c0 1.411-1.409 2.822-2.817 2.822-1.409 0-2.818-1.411-2.818-2.822 0-1.412 1.409-2.823 2.818-2.823 1.408 0 2.817 1.411 2.817 2.823zM342.75 981.549c0 1.411-1.409 2.822-2.817 2.822-1.409 0-2.818-1.411-2.818-2.822 0-1.412 1.409-2.823 2.818-2.823 1.408-1.411 2.817 0 2.817 2.823zM342.75 1018.25c0 1.41-1.409 2.82-2.817 2.82-1.409 0-2.818-1.41-2.818-2.82s1.409-2.82 2.818-2.82c1.408 0 2.817 1.41 2.817 2.82zM342.75 1056.36c0 1.42-1.409 2.83-2.817 2.83-1.409 0-2.818-1.41-2.818-2.83 0-1.41 1.409-2.82 2.818-2.82 1.408 0 2.817 1.41 2.817 2.82zM341.371 1094.49c0 1.41-1.409 2.82-2.817 2.82-1.409 0-2.818-1.41-2.818-2.82s1.409-2.83 2.818-2.83c2.817 0 2.817 1.42 2.817 2.83zM341.371 1132.6c0 1.41-1.409 2.82-2.817 2.82-1.409 0-2.818-1.41-2.818-2.82s2.818-2.82 4.226-2.82c1.409 0 1.409 1.41 1.409 2.82zM341.371 1169.3c0 1.41-1.409 2.82-2.817 2.82-1.409 0-2.818-1.41-2.818-2.82s1.409-2.82 2.818-2.82c1.408 1.41 2.817 1.41 2.817 2.82zM341.447 1207.41c0 1.41-1.409 1.41-1.409 1.41-1.409 0-1.409-1.41-1.409-1.41 0-1.41 1.409-1.41 1.409-1.41s1.409 0 1.409 1.41zM341.344 1245.54c0 1.41-1.41 1.41-1.41 1.41-1.409 0-1.409-1.41-1.409-1.41-1.409-1.41 0-2.82 1.409-2.82 0 0 1.41 1.41 1.41 2.82zM341.447 1282.24c0 1.41-1.409 1.41-1.409 1.41-1.409 0-1.409 0-1.409-1.41s0-1.41 1.409-1.41l1.409 1.41zM341.447 1320.33c0 1.41-1.409 1.41 0 0-1.409 1.41-2.818 1.41-2.818 0 0 0 0-1.41 2.818 0 0 0-1.409-1.41 0 0zM339.934 1358.47s0 1.41 0 0c-1.409 1.41-2.819 0-2.819 0 1.41-1.41 1.41-1.41 2.819 0 0-1.41 0-1.41 0 0zM340.038 1396.55h-1.409l1.409-1.41v1.41zM340.038 1433.26v1.41l-1.409-1.41h1.409zM378.003 38.614h-1.409v-1.411l1.409 1.411zM378.041 75.315c0 1.412 0 1.412 0 0-1.409 1.412-2.818 1.412-2.818 0h2.818zM379.476 113.432c0 1.411-1.408 2.822-2.817 2.822-1.409 0-2.817-1.411-2.817-2.822 0-1.412 1.408-2.823 2.817-2.823 1.409 0 2.817 1.411 2.817 2.823zM380.78 151.541c0 2.823-1.409 4.234-4.226 4.234s-4.226-1.411-4.226-4.234c0-2.822 1.409-4.234 4.226-4.234s4.226 1.412 4.226 4.234zM382.216 189.662a5.64 5.64 0 0 1-5.634 5.646 5.64 5.64 0 0 1-5.635-5.646 5.64 5.64 0 0 1 5.635-5.646 5.64 5.64 0 0 1 5.634 5.646zM383.672 226.368c0 4.235-2.817 7.058-7.043 7.058s-7.043-2.823-7.043-7.058c0-4.235 2.817-7.058 7.043-7.058s7.043 4.235 7.043 7.058zM385.109 264.478c0 4.235-4.226 8.469-8.452 8.469s-8.452-4.234-8.452-8.469c0-4.235 4.226-8.47 8.452-8.47s8.452 4.235 8.452 8.47zM386.49 302.59c0 4.235-4.226 8.47-8.452 8.47s-8.452-4.235-8.452-8.47 4.226-8.47 8.452-8.47 8.452 2.824 8.452 8.47zM386.49 340.701c0 5.646-4.226 8.469-8.452 8.469-5.635 0-8.452-4.234-8.452-8.469 0-3.394 1.527-5.768 3.663-7.122 2.82-1.788 6.833-2.487 9.589-.603 2.13 1.457 3.652 4.337 3.652 7.725zM386.49 377.41c0 4.235-4.226 8.47-8.452 8.47s-8.452-4.235-8.452-8.47 4.226-8.47 8.452-8.47 8.452 4.235 8.452 8.47zM385.109 415.487c0 4.235-2.818 8.47-8.452 8.47-4.226 0-8.452-4.235-8.452-8.47s4.226-8.47 8.452-8.47c5.634 0 8.452 4.235 8.452 8.47zM385.109 453.614c0 4.235-4.226 8.47-8.452 8.47s-8.452-4.235-8.452-8.47 4.226-8.47 8.452-8.47 8.452 2.824 8.452 8.47zM383.672 490.309c0 3.898-3.153 7.058-7.043 7.058s-7.043-3.16-7.043-7.058c0-3.898 3.153-7.058 7.043-7.058s7.043 3.16 7.043 7.058zM383.672 528.431c0 4.235-2.817 7.058-7.043 7.058s-7.043-2.823-7.043-7.058c0-4.234 2.817-7.058 7.043-7.058s7.043 2.824 7.043 7.058zM383.672 566.538c0 4.235-2.817 7.058-7.043 7.058s-7.043-2.823-7.043-7.058c0-4.235 2.817-7.058 7.043-7.058s7.043 2.823 7.043 7.058zM383.672 604.66c0 3.898-3.153 7.058-7.043 7.058s-7.043-3.16-7.043-7.058c0-3.898 3.153-7.058 7.043-7.058s7.043 3.16 7.043 7.058zM383.597 641.366c0 2.823-2.817 5.646-5.634 5.646-2.818 0-5.635-2.823-5.635-5.646s2.817-5.647 5.635-5.647c2.817 0 5.634 2.824 5.634 5.647zM382.216 679.478c0 2.823-2.817 5.646-5.634 5.646s-5.635-2.823-5.635-5.646c0-2.824 2.818-5.647 5.635-5.647 4.226 0 5.634 2.823 5.634 5.647zM382.216 717.6c0 2.823-2.817 5.646-5.634 5.646s-5.635-2.823-5.635-5.646c0-2.824 2.818-5.647 5.635-5.647 2.817 0 5.634 2.823 5.634 5.647zM382.216 754.303c0 2.823-2.817 5.646-5.634 5.646s-5.635-2.823-5.635-5.646 2.818-5.647 5.635-5.647c2.817 1.412 5.634 2.824 5.634 5.647zM382.294 792.416c0 2.822-1.409 4.233-4.226 4.233-2.818 0-4.226-1.411-4.226-4.233 0-2.823 1.408-4.234 4.226-4.234 1.408 0 4.226 1.411 4.226 4.234zM380.78 830.528c0 2.822-1.409 4.233-4.226 4.233s-4.226-1.411-4.226-4.233c0-2.823 2.817-4.234 4.226-4.234 2.817 0 4.226 1.411 4.226 4.234zM380.78 868.65c0 2.823-1.409 4.234-4.226 4.234s-4.226-1.411-4.226-4.234c0-2.822 1.409-4.233 4.226-4.233 2.817-1.411 4.226 1.411 4.226 4.233zM380.78 905.308a4.23 4.23 0 0 1-4.226 4.234 4.23 4.23 0 0 1-4.226-4.234 4.23 4.23 0 0 1 4.226-4.234 4.23 4.23 0 0 1 4.226 4.234zM380.78 943.435c0 2.822-1.409 4.234-4.226 4.234s-4.226-1.412-4.226-4.234c0-2.823 1.409-4.234 4.226-4.234s4.226 1.411 4.226 4.234zM380.78 981.547c0 1.411-1.409 4.234-4.226 4.234-1.409 0-4.226-1.412-4.226-4.234 0-1.411 1.409-4.234 4.226-4.234s4.226 1.411 4.226 4.234zM380.78 1018.26c0 1.41-1.409 4.23-4.226 4.23-1.409 0-4.226-1.41-4.226-4.23 0-1.42 1.409-4.24 4.226-4.24 2.817 1.41 4.226 2.82 4.226 4.24zM380.857 1056.36c0 1.42-1.408 2.83-2.817 2.83-1.409 0-2.817-1.41-2.817-2.83 0-1.41 0-2.82 1.408-2.82 2.818 0 4.226 1.41 4.226 2.82zM379.476 1094.49a2.817 2.817 0 1 1-5.634 0c0-1.56 1.261-2.83 2.817-2.83a2.825 2.825 0 0 1 2.817 2.83zM379.476 1132.6a2.817 2.817 0 1 1-5.634 0 2.817 2.817 0 1 1 5.634 0zM379.476 1169.3c0 1.41-1.408 2.82-2.817 2.82-1.409 0-2.817-1.41-2.817-2.82s1.408-2.82 2.817-2.82c1.409 0 2.817 1.41 2.817 2.82zM379.476 1207.42a2.817 2.817 0 1 1-5.634 0 2.817 2.817 0 1 1 5.634 0zM379.412 1245.53c0 1.41-1.409 1.41-1.409 1.41-1.409 0-1.409-1.41-1.409-1.41 0-1.41 1.409-1.41 1.409-1.41 0-1.41 1.409 0 1.409 1.41zM378.041 1282.24a1.409 1.409 0 1 1-2.818 0 1.409 1.409 0 1 1 2.818 0zM378.041 1320.36a1.409 1.409 0 1 1-2.818 0 1.409 1.409 0 1 1 2.818 0zM378.041 1358.47s0 1.41 0 0c-1.409 1.41-2.818 1.41-2.818 0s1.409-1.41 2.818 0c0-1.41 0-1.41 0 0zM378.041 1396.55a1.409 1.409 0 1 1-2.818 0 1.409 1.409 0 1 1 2.818 0zM378.003 1433.26l-1.409 1.41v-1.41h1.409zM416 75.317a1.41 1.41 0 1 1-2.82.002 1.41 1.41 0 0 1 2.82-.002zM417.441 113.432c0 1.411-1.408 2.822-2.817 2.822-1.409 0-2.817-1.411-2.817-2.822 0-1.412 1.408-2.823 2.817-2.823 1.409 0 2.817 1.411 2.817 2.823zM418.887 151.541c0 2.823-1.408 4.234-4.226 4.234-2.817 0-4.225-1.411-4.225-4.234 0-2.822 1.408-4.234 4.225-4.234 2.818 0 4.226 1.412 4.226 4.234zM421.627 189.66c0 3.898-3.153 7.058-7.043 7.058s-7.043-3.16-7.043-7.058c0-3.898 3.153-7.058 7.043-7.058s7.043 3.16 7.043 7.058zM423.083 226.356c0 4.235-4.226 8.47-8.451 8.47-4.226 0-8.452-4.235-8.452-8.47 0-1.773.74-3.545 1.911-5.007 3.164-3.951 9.611-3.318 13.049.397 1.189 1.285 1.943 2.821 1.943 4.61zM424.52 264.481c0 5.646-4.226 9.881-9.861 9.881-5.634 0-9.86-4.235-9.86-9.881 0-5.647 4.226-9.882 9.86-9.882 5.635 0 9.861 4.235 9.861 9.882zM424.52 302.593c0 5.646-4.226 9.881-9.861 9.881-5.634 0-9.86-4.235-9.86-9.881 0-5.647 4.226-9.882 9.86-9.882 5.635 0 9.861 4.235 9.861 9.882zM424.52 340.679c0 5.647-4.226 9.881-9.861 9.881-5.634 0-9.86-4.234-9.86-9.881 0-5.646 4.226-9.881 9.86-9.881 5.635-1.411 9.861 4.235 9.861 9.881zM424.52 377.408c0 5.646-4.226 9.881-9.861 9.881-5.634 0-9.86-4.235-9.86-9.881 0-5.647 4.226-9.881 9.86-9.881 5.635 0 9.861 4.234 9.861 9.881zM424.52 415.525c0 5.646-4.226 9.881-9.861 9.881-5.634 0-9.86-4.235-9.86-9.881 0-5.647 4.226-9.881 9.86-9.881 5.635 0 9.861 4.234 9.861 9.881zM423.083 453.607c0 5.646-4.226 8.469-8.452 8.469-5.634 0-8.451-4.234-8.451-8.469 0-4.235 2.817-9.881 8.451-9.881 5.635 0 8.452 4.234 8.452 9.881zM423.083 490.312c0 4.235-4.226 8.47-8.452 8.47-4.225 0-8.451-4.235-8.451-8.47s4.226-8.469 8.451-8.469c4.226 0 8.452 4.234 8.452 8.469zM423.083 528.429c0 4.235-4.226 8.47-8.452 8.47-4.225 0-8.451-4.235-8.451-8.47s4.226-8.469 8.451-8.469c4.226 0 8.452 4.234 8.452 8.469zM421.627 566.54c0 4.235-2.817 7.058-7.043 7.058s-7.043-2.823-7.043-7.058c0-4.234 2.817-7.058 7.043-7.058 4.226-1.411 7.043 2.824 7.043 7.058zM421.627 604.658c0 4.235-2.817 7.058-7.043 7.058s-7.043-2.823-7.043-7.058c0-4.235 2.817-8.469 7.043-8.469s7.043 4.234 7.043 8.469zM421.627 641.363c0 4.235-2.817 7.059-7.043 7.059s-7.043-2.824-7.043-7.059c0-4.234 2.817-7.058 7.043-7.058s7.043 4.235 7.043 7.058zM421.627 679.485c0 4.235-2.817 7.058-7.043 7.058s-7.043-2.823-7.043-7.058c0-4.234 2.817-7.058 7.043-7.058s7.043 2.824 7.043 7.058zM420.334 717.587c0 2.823-2.818 5.646-5.635 5.646-2.817 0-5.635-2.823-5.635-5.646s2.818-5.646 5.635-5.646c2.817-1.412 5.635 1.411 5.635 5.646zM420.334 754.303c0 2.823-2.818 5.646-5.635 5.646-2.817 0-5.635-2.823-5.635-5.646s2.818-5.647 5.635-5.647c2.817 0 5.635 2.824 5.635 5.647zM420.334 792.42c0 2.823-2.818 5.646-5.635 5.646-2.817 0-5.635-2.823-5.635-5.646s2.818-5.647 5.635-5.647c2.817 0 5.635 2.824 5.635 5.647zM420.334 830.532c0 2.823-2.818 5.646-5.635 5.646-2.817 0-5.635-2.823-5.635-5.646s2.818-5.647 5.635-5.647c2.817 0 5.635 2.824 5.635 5.647zM418.887 868.65c0 2.823-2.817 4.234-4.226 4.234-2.817 0-4.225-2.822-4.225-4.234 0-2.822 2.817-4.233 4.225-4.233 2.818-1.411 4.226 1.411 4.226 4.233zM418.887 905.308c0 2.822-1.408 4.234-4.226 4.234-2.817 0-4.225-1.412-4.225-4.234s1.408-4.234 4.225-4.234c2.818 0 4.226 1.412 4.226 4.234zM418.887 943.435c0 2.822-1.408 4.234-4.226 4.234-2.817 0-4.225-1.412-4.225-4.234 0-2.823 1.408-4.234 4.225-4.234 2.818 0 4.226 1.411 4.226 4.234zM418.887 981.547c0 2.822-1.408 4.234-4.226 4.234-2.817 0-4.225-1.412-4.225-4.234 0-2.823 1.408-4.234 4.225-4.234 2.818 0 4.226 1.411 4.226 4.234zM418.887 1018.26c0 2.82-1.408 4.23-4.226 4.23-2.817 0-4.225-1.41-4.225-4.23 0-2.83 1.408-4.24 4.225-4.24 2.818 1.41 4.226 2.82 4.226 4.24zM418.887 1056.36c0 1.41-1.408 4.24-4.226 4.24-1.408 0-4.225-1.42-4.225-4.24 0-1.41 1.408-4.23 4.225-4.23 1.409 1.41 4.226 2.82 4.226 4.23zM417.441 1094.49c0 1.41-1.408 2.82-2.817 2.82-1.409 0-2.817-1.41-2.817-2.82s1.408-2.83 2.817-2.83c1.409 0 2.817 0 2.817 2.83zM417.441 1132.6c0 1.41-1.408 2.82-2.817 2.82-1.409 0-2.817-1.41-2.817-2.82s1.408-4.23 2.817-4.23c1.409 0 2.817 1.41 2.817 4.23zM417.441 1169.3a2.817 2.817 0 1 1-5.634 0 2.817 2.817 0 1 1 5.634 0zM417.441 1207.42c0 1.41-1.408 2.82-2.817 2.82-1.409 0-2.817-1.41-2.817-2.82s1.408-2.82 2.817-2.82c1.409 0 2.817 1.41 2.817 2.82zM417.441 1245.54c0 1.41-1.408 2.82-2.817 2.82-1.409 0-2.817-1.41-2.817-2.82s1.408-2.82 2.817-2.82c1.409 0 2.817 1.41 2.817 2.82zM416.002 1282.24c0 1.41-1.409 1.41-1.409 1.41-1.409 0-1.409-1.41-1.409-1.41 0-1.41 1.409-1.41 1.409-1.41 1.409 0 1.409 1.41 1.409 1.41zM416.002 1320.36c0 1.41-1.409 1.41-1.409 1.41-1.409 0-1.409-1.41-1.409-1.41 0-1.41 1.409-1.41 1.409-1.41 1.409 0 1.409 0 1.409 1.41zM416.002 1358.47s0 1.41 0 0c-2.818 1.41-2.818 1.41-2.818 0s0-1.41 2.818 0c0-1.41 0-1.41 0 0zM416.002 1396.55h-2.818l1.409-1.41 1.409 1.41z"/></g><defs><clipPath id="a"><path fill="#fff" transform="matrix(0 1 1 0 .5 .5)" d="M0 0h1509v424H0z"/></clipPath></defs></svg>