<svg width="1509" height="424" fill="none" xmlns="http://www.w3.org/2000/svg"><g style="mix-blend-mode:difference" clip-path="url(#a)" fill="#E4E3DD"><path d="M340.187 385.997v1.41l-1.412-1.41h1.412zM74.814 347.899h1.412l-1.412 1.409v-1.409zM189.163 347.899v1.409l-1.411-1.409h1.411zM225.869 347.899h1.411l-1.411 1.409v-1.409zM263.978 347.899h1.411l-1.411 1.409-1.412-1.409h1.412zM302.06 347.899v1.409l-1.412-1.409h1.412zM340.187 347.899v1.409l-1.412-1.409h1.412zM376.893 347.899h1.411l-1.411 1.409v-1.409zM415.003 347.899h1.411l-1.411 1.409-1.411-1.409h1.411zM453.114 347.899v1.409l-1.411-1.409h1.411zM489.82 347.899h1.412l-1.412 1.409v-1.409zM527.935 347.899h1.411l-1.411 1.409-1.412-1.409h1.412zM566.042 347.899v1.409l-1.411-1.409h1.411zM604.163 347.899v1.409l-1.411-1.409h1.411zM640.869 347.899h1.411l-1.411 1.409v-1.409zM753.797 347.899h1.411l-1.411 1.409v-1.409zM830.032 347.899v1.409l-1.411-1.409h1.411zM868.12 347.899v1.409l-1.411-1.409h1.411zM1245.04 347.899v1.409l-1.41-1.409h1.41zM1281.74 347.899h1.41l-1.41 1.409v-1.409zM1396.05 347.899v1.409l-1.41-1.409h1.41zM74.814 309.926l1.412 1.409h-1.412v-1.409zM112.928 309.926l1.411 1.409h-1.411v-1.409zM151.056 309.926v1.409h-1.411l1.411-1.409zM189.163 309.925v1.41h-1.411l1.411-1.41zM225.872 309.897a1.409 1.409 0 1 1 0 2.818 1.41 1.41 0 1 1 0-2.818zM263.978 309.897c1.411 0 1.411 0 1.411 1.409s0 1.409-1.411 1.409c-1.412 0-1.412 0-1.412-1.409s1.412-1.409 1.412-1.409zM302.06 309.897c1.411 0 1.411 0 1.411 1.409s0 1.409-1.411 1.409c-1.412 0-1.412 0-1.412-1.409s0-1.409 1.412-1.409zM340.174 309.897c1.411 0 1.411 1.409 1.411 1.409 0 1.409-1.411 1.409-1.411 1.409l-2.822-1.409c0-1.409 1.411-1.409 2.822-1.409zM376.89 309.897c1.411 0 1.411 1.409 1.411 1.409 0 1.409-1.411 1.409-1.411 1.409-1.411 0-1.411-1.409-1.411-1.409 0-1.409 1.411-1.409 1.411-1.409zM415.003 309.897c1.411 0 1.411 1.409 1.411 1.409 0 1.409-1.411 1.409-1.411 1.409-1.411 0-1.411-1.409-1.411-1.409 0-1.409 0-1.409 1.411-1.409zM453.114 309.897c1.412 0 1.412 0 1.412 1.409s-1.412 1.409-1.412 1.409c-1.411 0-1.411 0-1.411-1.409s0-1.409 1.411-1.409zM489.814 309.897c1.411 0 1.411 0 1.411 1.409s0 1.409-1.411 1.409c-1.412 0-1.412 0-1.412-1.409s1.412-1.409 1.412-1.409zM527.935 309.896c1.411 0 1.411 0 1.411 1.41 0 1.409 0 1.409-1.411 1.409-1.412 0-1.412 0-1.412-1.409 0-1.41 1.412-1.41 1.412-1.41zM566.043 309.896s1.411 0 0 0c1.411 2.819 1.411 2.819 0 2.819s-1.411-1.409 0-2.819c-1.411 0-1.411 0 0 0zM604.163 309.896a1.41 1.41 0 1 1 .002 2.82 1.41 1.41 0 0 1-.002-2.82zM640.881 309.896c1.411 0 1.411 0 0 0 1.411 1.41 0 2.819 0 2.819s-1.411-1.409 0-2.819c0 0-1.411 0 0 0zM678.994 309.926s1.412 0 0 0c1.412 1.409 0 1.409 0 1.409s-1.411 0 0-1.409c0 0-1.411 0 0 0zM717.097 309.926v1.409h-1.411l1.411-1.409zM753.797 309.926l1.411 1.409h-1.411v-1.409zM791.924 309.926l1.411 1.409h-1.411v-1.409zM830.032 309.925v1.41h-1.411l1.411-1.41zM868.12 309.925v1.41h-1.411l1.411-1.41zM904.816 309.926l1.412 1.409h-1.412v-1.409zM981.058 309.926v1.409h-1.412l1.412-1.409zM1017.76 309.926l1.41 1.409h-1.41v-1.409zM1168.81 309.926l1.41 1.409h-1.41v-1.409zM1245.04 309.926v1.409h-1.41l1.41-1.409zM1281.74 309.925l1.41 1.41h-1.41v-1.41zM151.033 271.923s1.411 1.409 0 0c1.411 1.409 0 2.818 0 2.818-1.411 0-1.411-1.409 0-2.818-1.411 0-1.411 1.409 0 0zM189.163 271.923a1.41 1.41 0 1 1 0 2.818 1.41 1.41 0 0 1-1.411-1.409 1.41 1.41 0 0 1 1.411-1.409zM225.872 271.923c1.411 0 1.411 1.409 1.411 1.409 0 1.409-1.411 1.409-1.411 1.409-1.411 0-1.411-1.409-1.411-1.409 0-1.409 1.411-1.409 1.411-1.409zM263.981 270.487c1.411 0 2.822 1.409 2.822 2.818 0 1.408-1.411 2.817-2.822 2.817-1.412 0-2.823-1.409-2.823-2.817 0-1.409 1.411-2.818 2.823-2.818zM302.092 270.487c1.411 0 2.822 1.409 2.822 2.818 0 1.408-1.411 2.817-2.822 2.817s-2.822-1.409-2.822-2.817c0-1.409 1.411-2.818 2.822-2.818zM340.174 270.487a2.82 2.82 0 0 1 2.822 2.818 2.82 2.82 0 0 1-2.822 2.817 2.82 2.82 0 0 1-2.822-2.817 2.82 2.82 0 0 1 2.822-2.818zM376.877 270.487c1.411 0 2.823 1.409 2.823 2.818 0 1.408-1.412 2.817-2.823 2.817s-2.822-1.409-2.822-2.817c1.411-1.409 1.411-2.818 2.822-2.818zM414.99 270.487c1.412 0 2.823 1.409 2.823 2.818 0 1.408-1.411 2.817-2.823 2.817-1.411 0-2.822-1.409-2.822-2.817 0-1.409 1.411-2.818 2.822-2.818zM453.117 270.487c1.412 0 2.823 1.409 2.823 2.818 0 1.408-1.411 2.817-2.823 2.817-1.411 0-2.822-1.409-2.822-2.817 0-1.409 1.411-2.818 2.822-2.818zM489.814 271.923a1.41 1.41 0 0 1 1.411 1.409 1.41 1.41 0 0 1-2.823 0 1.41 1.41 0 0 1 1.412-1.409zM527.935 271.923c1.411 0 1.411 1.409 1.411 1.409 0 1.409-1.411 1.409-1.411 1.409-1.412 0-1.412-1.409-1.412-1.409 0-1.409 0-1.409 1.412-1.409zM566.043 271.923c1.411 0 1.411 1.409 1.411 1.409 0 1.409-1.411 1.409-1.411 1.409-1.411 0-2.822 0-2.822-1.409s1.411-1.409 2.822-1.409zM604.17 271.923c1.411 0 1.411 1.409 1.411 1.409 0 1.409-1.411 1.409-1.411 1.409-1.412 0-1.412-1.409-1.412-1.409-1.411-1.409 0-1.409 1.412-1.409zM640.866 271.923c1.412 0 1.412 1.409 1.412 1.409 0 1.409-1.412 1.409-1.412 1.409-1.411 0-1.411-1.409-1.411-1.409 0-1.409 1.411-1.409 1.411-1.409zM678.989 271.923c1.412 0 1.412 0 1.412 1.409s-1.412 1.409-1.412 1.409c-1.411 0-1.411 0-1.411-1.409s0-1.409 1.411-1.409zM717.097 271.923c1.411 0 1.411 0 1.411 1.409s0 1.409-1.411 1.409-1.411 0-1.411-1.409 0-1.409 1.411-1.409zM753.78 271.923c1.411 0 1.411 0 0 0 1.411 1.409 1.411 2.818 0 2.818 0 0-1.412 0 0-2.818 0 0-1.412 0 0 0zM791.891 271.923c1.411 0 1.411 0 0 0 1.411 1.409 0 2.818 0 2.818s-1.411-1.409 0-2.818c0 0-1.411 0 0 0zM830.035 271.923s1.411 0 0 0c1.411 1.409 0 2.818 0 2.818s-1.411-1.409 0-2.818c-1.411 0-1.411 0 0 0zM868.146 271.923s0 1.409 0 0c1.412 1.409 0 2.818 0 2.818s-1.411-1.409 0-2.818c-1.411 0-1.411 1.409 0 0zM904.834 271.923c1.411 0 1.411 1.409 0 0 1.411 1.409 0 2.818 0 2.818s-1.411-1.409 0-2.818c0 0-1.411 1.409 0 0zM942.946 271.921s1.411 1.409 0 0c1.411 1.409 0 1.409 0 1.409 0 1.409-1.412 0 0-1.409 0 0-1.412 1.409 0 0zM981.058 271.923a1.41 1.41 0 0 1 1.411 1.409 1.41 1.41 0 0 1-2.823 0 1.41 1.41 0 0 1 1.412-1.409zM1017.76 271.923l1.41 1.409-1.41 1.409v-2.818zM1055.87 271.923a1.409 1.409 0 1 1 0 2.818 1.409 1.409 0 1 1 0-2.818zM1093.98 271.923v2.818l-1.41-1.409 1.41-1.409zM1132.1 271.923a1.409 1.409 0 1 1 0 2.818 1.409 1.409 0 1 1 0-2.818zM74.814 235.234h1.412l-1.412 1.41v-1.41zM112.94 235.234c1.411 0 1.411 0 0 0 1.411 1.41 0 1.41 0 1.41s-1.412 0 0-1.41c0 0-1.412 0 0 0zM151.056 233.825c1.411 0 1.411 0 1.411 1.409 0 1.41 0 1.41-1.411 1.41s-1.411 0-1.411-1.41c0-.003.001-1.409 1.411-1.409zM189.163 233.825a1.41 1.41 0 1 1 0 2.819 1.41 1.41 0 1 1 0-2.819zM225.86 232.384c1.411 0 2.822 1.409 2.822 2.818 0 1.408-1.411 2.817-2.822 2.817-1.412 0-2.823-1.409-2.823-2.817 0-1.409 1.411-2.818 2.823-2.818zM263.981 232.384c1.411 0 2.822 1.409 2.822 2.818 0 1.408-1.411 2.817-2.822 2.817-1.412 0-2.823-1.409-2.823-2.817 0-1.409 1.411-2.818 2.823-2.818zM302.095 232.384c1.411 0 2.822 1.409 2.822 2.818 0 1.408-1.411 2.817-2.822 2.817s-4.234 0-4.234-2.817c0-1.409 1.412-2.818 4.234-2.818zM340.177 232.485c1.411 0 4.234 1.409 4.234 4.226 0 2.818-2.823 2.818-4.234 2.818s-4.234-1.409-4.234-4.226c0-2.818 1.412-2.818 4.234-2.818zM376.88 232.457c1.411 0 4.234 1.408 4.234 4.225 0 1.409-1.411 4.226-4.234 4.226-1.411 0-4.234-1.408-4.234-4.226 1.412-2.817 2.823-4.225 4.234-4.225zM414.991 232.385c1.412 0 2.823 1.408 2.823 2.817 0 1.408-1.411 2.817-2.823 2.817-1.411 0-4.233 0-4.233-2.817 0-1.409 2.822-2.817 4.233-2.817zM453.117 232.385a2.82 2.82 0 0 1 2.823 2.817 2.82 2.82 0 0 1-2.823 2.817 2.82 2.82 0 0 1-2.822-2.817 2.82 2.82 0 0 1 2.822-2.817zM489.805 232.385c1.411 0 2.822 1.408 2.822 2.817 0 1.408-1.411 2.817-2.822 2.817s-2.823-1.409-2.823-2.817c0-1.409 1.412-2.817 2.823-2.817zM527.932 232.385c1.411 0 2.822 1.408 2.822 2.817 0 1.408-1.411 2.817-2.822 2.817s-2.823-1.409-2.823-2.817c0-1.409 1.412-2.817 2.823-2.817zM566.043 232.385c1.411 0 2.823 1.408 2.823 2.817 0 1.408-1.412 2.817-2.823 2.817s-2.822-1.409-2.822-2.817c0-1.409 1.411-2.817 2.822-2.817zM604.16 232.385c1.411 0 2.823 1.408 2.823 2.817 0 1.408-1.412 2.817-2.823 2.817s-2.822-1.409-2.822-2.817c0-1.409 1.411-2.817 2.822-2.817zM640.869 233.894c1.412 0 2.823 1.409 2.823 2.817 0 1.409-1.411 2.818-2.823 2.818-1.411 0-2.822-1.409-2.822-2.818 1.411-2.817 1.411-2.817 2.822-2.817zM678.987 233.793c1.411 0 2.822 1.409 2.822 2.817 0 1.409-1.411 1.409-2.822 1.409-1.412 0-2.823-1.409-2.823-2.817 0-1.409 1.411-1.409 2.823-1.409zM717.095 233.825c1.412 0 1.412 1.409 1.412 1.409 0 1.41-1.412 1.41-1.412 1.41-1.411 0-1.411-1.41-1.411-1.41-1.411-1.409 0-1.409 1.411-1.409zM753.798 233.825c1.411 0 1.411 1.409 1.411 1.409 0 1.41-1.411 1.41-1.411 1.41-1.411 0-1.411-1.41-1.411-1.41 0-1.409 1.411-1.409 1.411-1.409zM791.927 233.825a1.41 1.41 0 1 1 .001 2.82 1.41 1.41 0 0 1-.001-2.82zM830.032 233.825c1.412 0 1.412 1.409 1.412 1.409 0 1.41-1.412 1.41-1.412 1.41-1.411 0-1.411-1.41-1.411-1.41s0-1.409 1.411-1.409zM868.115 233.825c1.411 0 1.411 1.409 1.411 1.409 0 1.41-1.411 1.41-1.411 1.41-1.411 0-1.411-1.41-1.411-1.41-1.412 0 0-1.409 1.411-1.409zM904.823 233.825c1.412 0 1.412 0 1.412 1.409 0 1.41-1.412 1.41-1.412 1.41-1.411 0-1.411 0-1.411-1.41l1.411-1.409zM942.931 233.825c1.411 0 1.411 0 1.411 1.409 0 1.41 0 1.41-1.411 1.41-1.412 0-1.411 0-1.411-1.41 0 0-.001-1.409 1.411-1.409zM981.045 233.825s1.411 1.409 0 0c1.411 2.819 1.411 2.819 0 2.819s-1.411 0 0-2.819c-1.411 0-1.411 1.409 0 0zM1017.76 233.825c1.41 0 1.41 1.409 0 0 1.41 2.819 1.41 2.819 0 2.819 0 0-1.41 0 0-2.819 0 0-1.41 1.409 0 0zM1055.88 233.825c1.41 0 1.41 1.409 0 0 1.41 1.409 0 2.819 0 2.819s-1.41 0 0-2.819c0 0-1.41 1.409 0 0zM1093.99 233.825s1.41 1.409 0 0c1.41 1.409 0 2.819 0 2.819s-1.42 0 0-2.819c-1.42 0-1.42 1.409 0 0zM1132.09 233.825s0 1.409 0 0c1.41 1.409 0 2.819 0 2.819-1.41 0-1.41 0 0-2.819-1.41 0-1.41 1.409 0 0zM1168.8 233.825a1.409 1.409 0 1 1 0 2.819 1.409 1.409 0 1 1 0-2.819zM1206.91 235.234h1.41l-1.41 1.41-1.41-1.41h1.41zM1245.04 235.234v1.409l-1.41-1.409h1.41zM1281.74 235.234h1.41l-1.41 1.409v-1.409zM1319.86 235.234h1.41l-1.41 1.409v-1.409zM1357.97 235.234v1.409l-1.42-1.409h1.42zM1396.05 235.234v1.409l-1.41-1.409h1.41zM74.814 197.264l1.412 1.41h-1.412v-1.41zM112.94 197.231c1.411 0 1.411 0 0 0 1.411 1.409 1.411 2.819 0 2.819 0 0-1.412-1.41 0-2.819 0 0-1.412 0 0 0zM151.041 195.855c1.411 0 1.411 1.409 1.411 1.409 0 1.41-1.411 1.41-1.411 1.41-1.412 0-1.412-1.41-1.412-1.41-1.411 0 0-1.409 1.412-1.409zM189.166 195.796c1.411 0 2.823 1.408 2.823 2.817 0 1.409-1.412 2.817-2.823 2.817s-2.822-1.408-2.822-2.817c0-2.817 1.411-2.817 2.822-2.817zM225.857 194.354c1.411 0 4.233 1.408 4.233 4.226 0 1.408-1.411 4.226-4.233 4.226-1.412 0-4.234-1.409-4.234-4.226 1.411-2.818 2.822-4.226 4.234-4.226zM263.988 194.354c2.822 0 4.233 1.408 4.233 4.226 0 2.817-1.411 4.226-4.233 4.226-2.823 0-4.234-1.409-4.234-4.226 0-2.818 1.411-4.226 4.234-4.226zM302.095 192.945c2.822 0 4.234 1.409 4.234 4.226s-1.412 5.635-4.234 5.635-4.234-1.409-4.234-4.226c0-2.818 1.412-5.635 4.234-5.635zM340.211 192.978c2.823 0 4.235 1.409 4.235 4.226s-1.412 4.226-4.235 4.226c-2.823 0-5.647-1.409-5.647-2.817 0-2.817 2.824-5.635 5.647-5.635zM376.88 192.945c2.823 0 4.234 1.409 4.234 4.226s-1.411 5.635-4.234 5.635c-2.822 0-4.234-1.409-4.234-4.226 0-2.818 1.412-5.635 4.234-5.635zM414.991 192.978c2.823 0 4.234 1.409 4.234 4.226s-1.411 4.226-4.234 4.226c-2.822 0-4.233-1.409-4.233-4.226 0-1.408 1.411-4.226 4.233-4.226zM453.109 194.354c2.822 0 4.233 1.408 4.233 4.226 0 2.817-1.411 4.226-4.233 4.226-2.823 0-4.234-1.409-4.234-4.226 0-2.818 1.411-4.226 4.234-4.226zM489.812 194.354c2.822 0 4.233 1.408 4.233 4.226 0 2.817-1.411 4.226-4.233 4.226-2.823 0-4.234-1.409-4.234-4.226 1.411-2.818 2.823-4.226 4.234-4.226zM527.929 194.354c1.411 0 4.234 1.408 4.234 4.226 0 1.408-1.412 4.226-4.234 4.226-1.411 0-4.234-1.409-4.234-4.226 0-2.818 2.823-4.226 4.234-4.226zM566.052 194.354c1.411 0 4.234 1.408 4.234 4.226 0 1.408-1.411 4.226-4.234 4.226-1.411 0-4.234-1.409-4.234-4.226 0-2.818 1.412-4.226 4.234-4.226zM604.157 194.415c1.412 0 2.823 1.409 2.823 2.817 0 1.409-1.411 2.818-2.823 2.818-1.411 0-4.233 0-4.233-1.409 0-2.817 1.411-4.226 4.233-4.226zM640.869 194.415c1.412 0 2.823 1.409 2.823 2.817 0 1.409-1.411 2.818-2.823 2.818-1.411 0-2.822-1.409-2.822-2.818 0-1.408 1.411-2.817 2.822-2.817zM678.987 194.415c1.411 0 2.822 1.409 2.822 2.817 0 1.409-1.411 2.818-2.822 2.818-1.412 0-2.823-1.409-2.823-2.818 0-1.408 1.411-2.817 2.823-2.817zM717.098 195.796c1.411 0 2.822 1.408 2.822 2.817 0 1.408-1.411 2.817-2.822 2.817s-2.823-1.409-2.823-2.817c0-2.817 1.412-2.817 2.823-2.817zM753.801 195.796c1.411 0 2.822 1.408 2.822 2.817 0 1.408-1.411 2.817-2.822 2.817s-2.822-1.409-2.822-2.817c1.411-1.409 1.411-2.817 2.822-2.817zM791.914 195.796c1.411 0 2.823 1.408 2.823 2.817 0 1.408-1.412 2.817-2.823 2.817l-2.822-2.817c0-1.409 1.411-2.817 2.822-2.817zM830.041 195.796c1.411 0 2.823 1.408 2.823 2.817 0 1.408-1.412 2.817-2.823 2.817s-2.822-1.409-2.822-2.817c0-1.409 1.411-2.817 2.822-2.817zM868.115 195.856c1.411 0 1.411 1.409 1.411 1.409 0 1.409-1.411 1.409-1.411 1.409-1.411 0-1.411-1.409-1.411-1.409-1.412 0 0-1.409 1.411-1.409zM904.823 195.856c1.412 0 1.412 1.409 1.412 1.409 0 1.409-1.412 1.409-1.412 1.409h-1.411c0-1.409 0-2.818 1.411-2.818zM942.931 195.856c1.411 0 1.411 1.409 1.411 1.409 0 1.409-1.411 1.409-1.411 1.409-1.412 0-1.411-1.409-1.411-1.409s-.001-1.409 1.411-1.409zM981.058 197.231a1.41 1.41 0 1 1-1.412 1.409 1.41 1.41 0 0 1 1.412-1.409zM1017.75 195.779c1.41 0 1.41 1.409 1.41 1.409 0 1.408-1.41 1.408-1.41 1.408 0 1.409-1.41 0-1.41 0 0-1.408 1.41-2.817 1.41-2.817zM1055.87 195.856c1.41 0 1.41 1.409 1.41 1.409 0 1.409-1.41 1.409-1.41 1.409-1.41 0-1.41-1.409-1.41-1.409s0-1.409 1.41-1.409zM1093.98 195.856c1.41 0 1.41 0 1.41 1.409s-1.41 1.409-1.41 1.409c-1.41 0-1.41 0-1.41-1.409 0 0 0-1.409 1.41-1.409zM1132.1 197.231c1.41 0 1.41 0 1.41 1.409 0 1.41 0 1.41-1.41 1.41s-1.41 0-1.41-1.41c0-1.409 0-1.409 1.41-1.409zM1168.81 197.231c1.41 0 1.41 0 0 0 1.41 1.409 0 2.819 0 2.819 0-1.41-1.41-1.41 0-2.819 0 0-1.41 0 0 0zM1206.91 197.231s1.41 0 0 0c1.41 1.409 0 2.819 0 2.819s-1.41-1.41 0-2.819c-1.41 0-1.41 0 0 0zM1245.02 197.231c1.41 1.409 0 2.819 0 2.819-1.41-1.41-1.41-1.41 0-2.819-1.41 0-1.41 0 0 0zM1281.74 197.265l1.41 1.409h-1.41v-1.409zM1319.86 197.265l1.41 1.409h-1.41v-1.409zM1357.97 197.265v1.409h-1.42l1.42-1.409zM1396.05 197.265v1.409h-1.41l1.41-1.409zM1432.76 197.265l1.41 1.409h-1.41v-1.409zM74.814 159.162l1.412 1.409h-1.412v-1.409zM112.925 159.124c1.411 0 1.411 1.409 1.411 1.409 0 1.41-1.411 1.41-1.411 1.41-1.411 0-1.411-1.41-1.411-1.41 0-1.409 1.411-1.409 1.411-1.409zM151.043 157.823c1.411 0 2.823 1.408 2.823 2.817 0 1.408-1.412 2.817-2.823 2.817s-2.822-1.409-2.822-2.817c0-1.409 1.411-2.817 2.822-2.817zM189.157 156.414c1.412 0 4.234 1.409 4.234 4.226 0 1.408-1.411 2.817-4.234 2.817-1.411 0-4.233-1.409-4.233-2.817 0-2.817 1.411-4.226 4.233-4.226zM225.857 156.385c2.822 0 4.233 1.409 4.233 4.226s-1.411 4.226-4.233 4.226c-2.823 0-4.234-1.409-4.234-4.226s2.822-4.226 4.234-4.226zM263.973 154.943c2.823 0 5.646 2.818 5.646 5.635 0 2.817-2.823 5.634-5.646 5.634-2.824 0-5.647-2.817-5.647-5.634s2.823-5.635 5.647-5.635zM302.1 154.943c2.823 0 5.646 2.818 5.646 5.635 0 2.817-2.823 5.634-5.646 5.634-2.824 0-5.647-2.817-5.647-5.634s2.823-5.635 5.647-5.635zM340.199 154.943c2.823 0 5.647 2.818 5.647 5.635 0 2.817-2.824 5.634-5.647 5.634-2.823 0-5.646-2.817-5.646-5.634-1.412-2.817 1.411-5.635 5.646-5.635zM376.879 154.943c2.823 0 5.646 2.818 5.646 5.635 0 2.817-2.823 5.634-5.646 5.634s-5.647-2.817-5.647-5.634 2.824-5.635 5.647-5.635zM414.996 154.943c2.823 0 5.646 2.818 5.646 5.635 0 2.817-2.823 5.634-5.646 5.634s-5.646-2.817-5.646-5.634 2.823-5.635 5.646-5.635zM453.107 154.943c2.824 0 5.647 2.818 5.647 5.635 0 2.817-2.823 5.634-5.647 5.634-2.823 0-5.646-2.817-5.646-5.634s2.823-5.635 5.646-5.635zM489.812 155.005c2.822 0 4.233 2.818 4.233 4.226 0 2.817-2.822 4.226-4.233 4.226-2.823 0-4.234-2.817-4.234-4.226 0-1.408 1.411-4.226 4.234-4.226zM527.929 156.385c2.822 0 4.234 1.409 4.234 4.226s-1.412 4.226-4.234 4.226-4.234-1.409-4.234-4.226 1.412-4.226 4.234-4.226zM566.052 156.385c2.823 0 4.234 1.409 4.234 4.226s-1.411 4.226-4.234 4.226c-2.822 0-4.234-1.409-4.234-4.226s1.412-4.226 4.234-4.226zM604.158 156.385c2.822 0 4.233 1.409 4.233 4.226s-1.411 4.226-4.233 4.226c-2.823 0-4.234-1.409-4.234-4.226s1.411-4.226 4.234-4.226zM640.866 156.385c1.412 0 4.234 1.409 4.234 4.226 0 1.409-1.411 4.226-4.234 4.226-1.411 0-4.233-1.409-4.233-4.226 1.411-2.817 2.822-4.226 4.233-4.226zM678.984 156.414c1.411 0 4.233 1.409 4.233 4.226 0 1.408-1.411 2.817-4.233 2.817-1.412 0-4.234-1.409-4.234-2.817 0-2.817 2.822-4.226 4.234-4.226zM717.097 156.308c1.411 0 2.822 1.409 2.822 2.817 0 1.409-1.411 2.818-2.822 2.818s-2.823-1.409-2.823-2.818c-1.411 0 0-2.817 2.823-2.817zM753.801 157.823c1.411 0 2.822 1.408 2.822 2.817 0 1.408-1.411 2.817-2.822 2.817s-2.822-1.409-2.822-2.817c0-1.409 1.411-2.817 2.822-2.817zM791.914 157.823c1.411 0 2.823 1.408 2.823 2.817 0 1.408-1.412 2.817-2.823 2.817s-2.822-1.409-2.822-2.817c0-1.409 1.411-2.817 2.822-2.817zM830.041 157.823c1.411 0 2.823 1.408 2.823 2.817 0 1.408-1.412 2.817-2.823 2.817s-2.822-1.409-2.822-2.817c0-1.409 1.411-2.817 2.822-2.817zM868.123 157.823c1.412 0 2.823 1.408 2.823 2.817 0 1.408-1.411 2.817-2.823 2.817-1.411 0-2.822-1.409-2.822-2.817 0-1.409 1.411-2.817 2.822-2.817zM904.823 157.823c1.412 0 2.823 1.408 2.823 2.817 0 1.408-1.411 2.817-2.823 2.817-1.411 0-1.411-1.409-1.411-2.817 0-1.409 0-2.817 1.411-2.817zM942.932 157.823c1.411 0 2.822 1.408 2.822 2.817 0 1.408-1.411 2.817-2.822 2.817s-2.823-1.409-2.823-2.817c0-1.409 1.412-2.817 2.823-2.817zM981.049 157.823c1.411 0 2.822 1.408 2.822 2.817 0 1.408-1.411 2.817-2.822 2.817s-2.822-1.409-2.822-2.817c0-1.409 1.411-2.817 2.822-2.817zM1017.75 157.752c1.41 0 1.41 1.41 1.41 1.41 0 1.409-1.41 1.409-1.41 1.409-1.41 0-1.41-1.409-1.41-1.409l1.41-1.41zM1055.87 157.752c1.41 0 1.41 1.41 1.41 1.41 0 1.409-1.41 1.409-1.41 1.409-1.41 0-1.41-1.409-1.41-1.409s0-1.41 1.41-1.41zM1093.98 159.124c1.41 0 1.41 1.409 1.41 1.409 0 1.41-1.41 1.41-1.41 1.41-1.41 0-1.41-1.41-1.41-1.41 0-1.409 0-1.409 1.41-1.409zM1132.1 159.124c1.41 0 1.41 1.409 1.41 1.409 0 1.41-1.41 1.41-1.41 1.41-1.41 0-2.82-1.41-2.82-1.41 0-1.409 1.41-1.409 2.82-1.409zM1168.8 159.124c1.41 0 1.41 0 1.41 1.409 0 1.41-1.41 1.41-1.41 1.41-1.41 0-1.41 0-1.41-1.41 0-1.409 1.41-1.409 1.41-1.409zM1206.91 159.124c1.41 0 1.41 0 1.41 1.409 0 1.41 0 1.41-1.41 1.41s-1.41 0-1.41-1.41c0-1.409 0-1.409 1.41-1.409zM1245.02 159.124s1.41 0 0 0c1.41 1.409 0 2.819 0 2.819-1.41 0-1.41-1.41 0-2.819-1.41 0-1.41 0 0 0zM1281.74 159.124c1.41 0 1.41 0 0 0 1.41 1.409 0 2.819 0 2.819v-2.819zM1319.86 159.124l1.41 1.409-1.41 1.41-1.41-1.41 1.41-1.409zM1357.97 159.162v1.409h-1.42l1.42-1.409zM1396.05 159.162v1.409h-1.41l1.41-1.409zM74.817 121.16a1.41 1.41 0 1 1 .002 2.821 1.41 1.41 0 0 1-.002-2.821zM112.925 121.16c1.411 0 1.411 1.41 1.411 1.41 0 1.409-1.411 1.409-1.411 1.409-1.411 0-1.411-1.409-1.411-1.409 0-1.41 0-1.41 1.411-1.41zM151.043 119.724c1.411 0 2.823 1.409 2.823 2.817 0 1.409-1.412 2.818-2.823 2.818s-2.822-1.409-2.822-2.818c0-1.408 1.411-2.817 2.822-2.817zM189.157 118.278c2.823 0 4.234 1.409 4.234 4.226s-2.822 4.226-4.234 4.226c-2.822 0-4.233-1.409-4.233-4.226s1.411-4.226 4.233-4.226zM225.865 116.975c2.823 0 5.647 2.817 5.647 5.634s-2.824 5.635-5.647 5.635c-2.823 0-5.646-2.818-5.646-5.635 0-2.817 2.823-5.634 5.646-5.634zM263.973 116.942c2.823 0 5.646 2.817 5.646 5.635 0 2.817-1.412 7.043-5.646 7.043-2.824 0-5.647-2.818-5.647-5.635 0-2.817 2.823-7.043 5.647-7.043zM302.097 115.533c4.235 0 7.058 2.818 7.058 7.044 0 4.225-2.823 7.043-7.058 7.043-4.235 0-7.058-2.818-7.058-7.043 0-2.818 2.823-7.044 7.058-7.044zM340.205 115.533c3.898 0 7.058 3.154 7.058 7.044 0 3.889-3.16 7.043-7.058 7.043-3.899 0-7.059-3.154-7.059-7.043 0-3.89 3.16-7.044 7.059-7.044zM376.908 115.533c4.234 0 7.058 2.818 7.058 7.044 0 4.225-2.824 7.043-7.058 7.043-4.235 0-7.058-2.818-7.058-7.043 0-2.818 4.234-7.044 7.058-7.044zM414.999 115.533c3.898 0 7.058 3.154 7.058 7.044 0 3.889-3.16 7.043-7.058 7.043-3.898 0-7.058-3.154-7.058-7.043 0-3.89 3.16-7.044 7.058-7.044zM453.141 116.975c2.823 0 5.646 2.817 5.646 5.634s-2.823 5.635-5.646 5.635c-2.824 0-5.647-2.818-5.647-5.635-1.411-2.817 1.412-5.634 5.647-5.634zM489.816 116.975c2.823 0 5.647 2.817 5.647 5.634s-1.412 5.635-5.647 5.635c-2.823 0-5.646-2.818-5.646-5.635 0-2.817 2.823-5.634 5.646-5.634zM527.924 116.975c2.823 0 5.646 2.817 5.646 5.634s-2.823 5.635-5.646 5.635-5.647-2.818-5.647-5.635c0-2.817 2.824-5.634 5.647-5.634zM566.051 118.383c2.823 0 5.646 2.817 5.646 5.635 0 2.817-2.823 4.226-5.646 4.226s-5.647-2.818-5.647-5.635c0-2.817 2.824-4.226 5.647-4.226zM604.158 118.278c2.822 0 4.233 1.409 4.233 4.226s-2.822 4.226-4.233 4.226c-2.823 0-4.234-1.409-4.234-4.226s1.411-4.226 4.234-4.226zM640.866 118.278a4.23 4.23 0 0 1 4.234 4.226 4.23 4.23 0 0 1-4.234 4.226 4.23 4.23 0 0 1-4.233-4.226 4.23 4.23 0 0 1 4.233-4.226zM678.984 118.278c2.822 0 4.233 1.409 4.233 4.226s-1.411 4.226-4.233 4.226c-2.823 0-4.234-1.409-4.234-4.226s1.411-4.226 4.234-4.226zM717.101 118.278a4.23 4.23 0 0 1 4.234 4.226 4.23 4.23 0 0 1-4.234 4.226 4.23 4.23 0 0 1-4.234-4.226 4.23 4.23 0 0 1 4.234-4.226zM753.804 119.687c1.411 0 4.234 1.408 4.234 4.225 0 2.818-1.412 2.818-4.234 2.818-1.411 0-4.234-1.409-4.234-4.226s2.823-2.817 4.234-2.817zM791.914 119.687c1.411 0 2.823 1.408 2.823 2.817 0 1.408-1.412 4.226-2.823 4.226s-2.822-1.409-2.822-2.818c0-1.408 1.411-4.225 2.822-4.225zM830.041 119.724a2.82 2.82 0 0 1 2.823 2.817 2.82 2.82 0 0 1-2.823 2.818 2.82 2.82 0 0 1-2.822-2.818 2.82 2.82 0 0 1 2.822-2.817zM868.122 119.724c1.411 0 2.823 1.409 2.823 2.817 0 1.409-1.412 2.818-2.823 2.818s-2.822-1.409-2.822-2.818c-1.411-1.408 0-2.817 2.822-2.817zM904.826 119.724a2.82 2.82 0 0 1 2.823 2.817 2.82 2.82 0 0 1-2.823 2.818 2.82 2.82 0 0 1-2.822-2.818 2.82 2.82 0 0 1 2.822-2.817zM942.932 119.724a2.82 2.82 0 0 1 2.822 2.817 2.82 2.82 0 0 1-2.822 2.818 2.82 2.82 0 0 1-2.823-2.818 2.82 2.82 0 0 1 2.823-2.817zM981.049 119.724a2.82 2.82 0 0 1 2.822 2.817 2.82 2.82 0 0 1-2.822 2.818 2.82 2.82 0 0 1-2.822-2.818 2.82 2.82 0 0 1 2.822-2.817zM1017.75 119.724c1.41 0 2.82 1.409 2.82 2.817 0 1.409-1.41 2.818-2.82 2.818s-1.41-1.409-1.41-2.818c0-1.408 0-2.817 1.41-2.817zM1055.87 121.133c1.41 0 2.82 1.408 2.82 2.817 0 1.409-1.41 1.409-2.82 1.409-1.42 0-2.83-1.409-2.83-2.818 0-1.408 1.41-1.408 2.83-1.408zM1093.99 121.133c1.41 0 2.82 1.408 2.82 2.817 0 1.409-1.41 1.409-2.82 1.409s-2.83-1.409-2.83-2.818c0-1.408 1.42-1.408 2.83-1.408zM1132.1 121.16a1.409 1.409 0 1 1 0 2.819 1.409 1.409 0 1 1 0-2.819zM1168.8 121.16c1.41 0 1.41 1.41 1.41 1.41s0 1.409-1.41 1.409-1.41-1.409-1.41-1.409l1.41-1.41zM1206.91 121.16a1.409 1.409 0 1 1 0 2.819 1.409 1.409 0 1 1 0-2.819zM1245.04 121.16c1.41 0 1.41 0 1.41 1.41 0 1.409-1.41 1.409-1.41 1.409-1.41 0-1.41-1.409-1.41-1.409s0-1.41 1.41-1.41zM1281.71 121.16c1.41 0 1.41 1.41 0 0 1.41 1.41 1.41 2.819 0 2.819 0 0-1.41 0 0-2.819 0 0-1.41 1.41 0 0zM1319.83 121.16c1.42 0 1.42 1.41 0 0 1.42 1.41 0 2.819 0 2.819s-1.41 0 0-2.819c0 0-1.41 1.41 0 0zM1357.97 121.16v2.819l-1.42-1.41 1.42-1.409zM1396.05 121.16a1.409 1.409 0 1 1 0 2.819 1.409 1.409 0 1 1 0-2.819zM1432.76 122.569h1.41l-1.41 1.41v-1.41zM38.114 84.462v1.41l-1.41-1.41h1.41zM74.814 84.566c1.413 0 1.413 0 0 0 1.413 1.41 0 2.818 0 2.818v-2.818zM112.932 81.75a2.82 2.82 0 0 1 2.822 2.817 2.82 2.82 0 0 1-2.822 2.817 2.82 2.82 0 0 1-2.823-2.817 2.82 2.82 0 0 1 2.823-2.817zM151.04 81.689c1.411 0 4.234 1.408 4.234 4.225 0 1.409-1.411 4.226-4.234 4.226-2.822 0-4.233-2.817-4.233-5.634 0-1.409 1.411-2.817 4.233-2.817zM189.148 80.28c2.822 0 4.234 2.817 4.234 4.226 0 2.817-2.823 5.634-4.234 5.634a4.04 4.04 0 0 1-.422-.022c-4.867-.51-4.471-9.838.422-9.838zM225.865 78.871c2.823 0 5.647 2.817 5.647 5.635 0 2.817-2.824 5.634-5.647 5.634-2.823 0-5.646-2.817-5.646-5.634 0-2.818 2.823-5.635 5.646-5.635zM263.976 77.42c4.235 0 7.058 2.818 7.058 7.044 0 4.226-2.823 7.043-7.058 7.043-4.235 0-7.058-2.817-7.058-7.043 0-2.818 2.823-7.043 7.058-7.043zM302.091 77.498c4.234 0 8.469 2.817 8.469 8.451 0 4.226-2.823 8.452-8.469 8.452-4.235 0-8.47-4.226-8.47-8.451 0-5.635 4.235-8.452 8.47-8.452zM340.206 77.53c4.235 0 8.469 4.226 8.469 8.452s-4.234 7.043-8.469 7.043c-4.235 0-8.47-2.817-8.47-8.452 0-5.634 2.824-7.043 8.47-7.043zM376.911 77.498c4.235 0 8.47 2.817 8.47 8.451 0 4.226-2.824 8.452-8.47 8.452-4.235 0-8.47-4.226-8.47-8.451 1.412-5.635 4.235-8.452 8.47-8.452zM414.999 77.42c4.235 0 7.058 2.818 7.058 7.044 0 4.226-2.823 7.043-7.058 7.043-4.234 0-7.058-2.817-7.058-7.043s2.824-7.043 7.058-7.043zM453.111 77.42c4.235 0 7.058 2.818 7.058 7.044 0 4.226-2.823 7.043-7.058 7.043-4.235 0-7.058-2.817-7.058-7.043 0-2.817 2.823-7.043 7.058-7.043zM489.81 78.939c4.235 0 7.058 2.817 7.058 7.043s-2.823 7.043-7.058 7.043c-4.235 0-7.058-2.817-7.058-7.043 1.412-4.226 4.235-7.043 7.058-7.043zM527.924 78.871c2.823 0 5.646 2.817 5.646 5.635 0 2.817-2.823 5.634-5.646 5.634s-5.647-2.817-5.647-5.634c0-2.818 2.824-5.635 5.647-5.635zM566.051 78.871c2.823 0 5.646 2.817 5.646 5.635 0 2.817-2.823 5.634-5.646 5.634s-5.647-1.409-5.647-5.634c0-2.818 2.824-5.635 5.647-5.635zM604.162 78.871c2.823 0 5.647 2.817 5.647 5.635 0 2.817-2.824 5.634-5.647 5.634-2.823 0-5.646-1.409-5.646-5.634 0-2.818 1.411-5.635 5.646-5.635zM640.865 80.238c2.823 0 5.647 2.817 5.647 5.634 0 2.818-2.824 5.635-5.647 5.635-2.823 0-5.646-2.817-5.646-5.635 1.411-4.225 2.823-5.634 5.646-5.634zM678.974 80.28c2.823 0 4.234 2.817 4.234 4.226 0 2.817-2.823 5.634-4.234 5.634-2.822 0-4.233-2.817-4.233-5.634-1.412-2.818 1.411-4.226 4.233-4.226zM717.095 80.312c2.823 0 4.234 1.409 4.234 4.226 0 2.818-1.411 4.226-4.234 4.226-2.822 0-4.233-1.408-4.233-4.226-1.412-1.408 1.411-4.226 4.233-4.226zM753.804 80.312c2.822 0 4.234 1.409 4.234 4.226 0 2.818-1.412 4.226-4.234 4.226s-4.234-1.408-4.234-4.226c0-1.408 2.823-4.226 4.234-4.226zM791.915 81.688c2.823 0 4.234 1.409 4.234 4.226s-1.411 4.226-4.234 4.226c-2.822 0-4.233-1.409-4.233-4.226s1.411-4.226 4.233-4.226zM830.029 81.688c2.822 0 4.233 1.409 4.233 4.226s-1.411 4.226-4.233 4.226c-2.823 0-4.234-2.817-4.234-5.634 0-1.41 1.411-2.818 4.234-2.818zM868.15 81.688c1.411 0 4.233 1.409 4.233 4.226 0 1.409-1.411 4.226-4.233 4.226-1.412 0-4.234-1.409-4.234-4.226s1.411-4.226 4.234-4.226zM904.808 81.688c1.411 0 4.234 1.409 4.234 4.226 0 1.409-1.412 4.226-4.234 4.226-1.411 0-4.234-1.409-4.234-4.226 1.411-2.817 2.823-4.226 4.234-4.226zM942.932 81.75c1.411 0 2.822 1.408 2.822 2.817 0 1.409-1.411 2.817-2.822 2.817s-2.823-1.408-2.823-2.817c0-1.409 1.412-2.817 2.823-2.817zM981.048 81.75c1.411 0 2.822 1.408 2.822 2.817 0 1.409-1.411 2.817-2.822 2.817s-2.823-1.408-2.823-2.817c-1.411-1.409 0-2.817 2.823-2.817zM1017.75 81.75c1.41 0 2.82 1.408 2.82 2.817 0 1.409-1.41 2.817-2.82 2.817s-2.82-1.408-2.82-2.817c0-1.409 1.41-2.817 2.82-2.817zM1055.87 81.75c1.41 0 2.82 1.408 2.82 2.817 0 1.409-1.41 2.817-2.82 2.817-1.42 0-2.83-1.408-2.83-2.817 0-1.409 1.41-2.817 2.83-2.817zM1093.99 83.13c1.41 0 2.82 1.408 2.82 2.817 0 1.409-1.41 2.817-2.82 2.817s-2.83-1.408-2.83-2.817c0-2.817 1.42-2.817 2.83-2.817zM1132.1 83.13c1.41 0 2.82 1.408 2.82 2.817 0 1.409-1.41 2.817-2.82 2.817s-2.82-2.817-2.82-4.226c0-1.408 1.41-1.408 2.82-1.408zM1168.8 83.13c1.41 0 2.82 1.408 2.82 2.817 0 1.409-1.41 2.817-2.82 2.817s-2.82-1.408-2.82-2.817c1.41-1.409 1.41-2.817 2.82-2.817zM1206.91 83.053c1.41 0 1.41 1.41 1.41 1.41 0 1.409-1.41 1.409-1.41 1.409-1.41 0-1.41-1.41-1.41-1.41s0-1.409 1.41-1.409zM1245.04 83.156c1.41 0 1.41 1.409 1.41 1.409 0 1.41-1.41 1.41-1.41 1.41-1.41 1.408-2.82 0-2.82-1.41 0 0 1.41-1.41 2.82-1.41zM1281.74 83.053c1.41 0 1.41 1.41 1.41 1.41 0 1.409 0 1.409-1.41 1.409s-1.41 0-1.41-1.41l1.41-1.409zM1319.83 83.052c1.42 0 1.42 1.41 0 0 1.42 1.41 1.42 2.819 0 2.819 0 0-1.41 0 0-2.819 0 0-1.41 1.41 0 0zM1357.97 84.566s1.41 0 0 0c1.41 1.41 0 2.818 0 2.818-1.41-1.409-1.41-1.409 0-2.818-1.41 0-1.41 0 0 0zM1396.05 84.462v1.409l-1.41-1.41h1.41zM1432.76 84.462h1.41l-1.41 1.409v-1.41zM38.114 46.498v1.409h-1.41l1.41-1.41zM74.814 46.46c1.413 0 1.413 0 0 0 1.413 1.409 1.413 2.818 0 2.818v-2.819zM112.932 45.023c1.411 0 2.822 1.409 2.822 2.817 0 1.409-1.411 2.818-2.822 2.818s-2.823-1.409-2.823-2.818c0-1.408 1.412-2.817 2.823-2.817zM151.04 43.72c2.823 0 4.234 1.409 4.234 4.226 0 2.818-1.411 4.226-4.234 4.226-2.822 0-4.233-1.408-4.233-4.226 0-2.817 1.411-4.226 4.233-4.226zM189.162 42.283a5.64 5.64 0 0 1 5.646 5.634 5.64 5.64 0 0 1-5.646 5.635 5.64 5.64 0 0 1-5.646-5.635 5.64 5.64 0 0 1 5.646-5.634zM225.869 40.828c4.234 0 7.058 2.818 7.058 7.044 0 4.226-2.824 7.043-7.058 7.043-4.235 0-7.058-2.817-7.058-7.043s4.234-7.044 7.058-7.044zM263.977 39.391c4.235 0 8.47 4.226 8.47 8.452s-4.235 8.452-8.47 8.452c-4.234 0-8.469-4.226-8.469-8.452s4.235-8.452 8.469-8.452zM302.091 38.011c4.234 0 8.469 4.226 8.469 8.452s-4.235 8.452-8.469 8.452c-4.235 0-8.47-4.226-8.47-8.452s2.823-8.452 8.47-8.452zM340.2 38.011c5.647 0 8.47 4.226 8.47 8.452 0 5.635-4.235 8.452-8.47 8.452-3.394 0-5.768-1.527-7.122-3.663-1.787-2.82-2.487-6.833-.602-9.589 1.456-2.13 4.336-3.652 7.724-3.652zM376.911 38.011c4.235 0 8.47 4.226 8.47 8.452s-4.235 8.452-8.47 8.452-8.47-4.226-8.47-8.452 4.235-8.452 8.47-8.452zM414.987 39.391c4.235 0 8.47 2.817 8.47 8.452 0 4.226-4.235 8.452-8.47 8.452s-8.469-4.226-8.469-8.452c0-5.635 4.234-8.452 8.469-8.452zM453.114 39.391c4.235 0 8.47 4.226 8.47 8.452s-4.235 8.452-8.47 8.452-8.469-4.226-8.469-8.452 2.823-8.452 8.469-8.452zM489.81 40.829c3.898 0 7.058 3.153 7.058 7.043s-3.16 7.043-7.058 7.043c-3.898 0-7.058-3.153-7.058-7.043s3.16-7.043 7.058-7.043zM527.931 40.829c4.235 0 7.058 2.817 7.058 7.043s-2.823 7.043-7.058 7.043c-4.235 0-7.058-2.817-7.058-7.043s2.823-7.043 7.058-7.043zM566.039 40.829c4.234 0 7.057 2.817 7.057 7.043s-2.823 7.043-7.057 7.043c-4.235 0-7.059-2.817-7.059-7.043s2.824-7.043 7.059-7.043zM604.16 40.829c3.898 0 7.058 3.153 7.058 7.043s-3.16 7.043-7.058 7.043c-3.898 0-7.058-3.153-7.058-7.043s3.16-7.043 7.058-7.043zM640.865 40.903c2.823 0 5.647 2.817 5.647 5.635 0 2.817-2.824 5.634-5.647 5.634-2.823 0-5.646-2.817-5.646-5.634 0-2.818 2.823-5.635 5.646-5.635zM678.978 42.283c2.824 0 5.647 2.817 5.647 5.634 0 2.818-2.823 5.635-5.647 5.635-2.823 0-5.646-2.817-5.646-5.635 0-4.225 2.823-5.634 5.646-5.634zM717.1 42.283c2.823 0 5.646 2.817 5.646 5.634 0 2.818-2.823 5.635-5.646 5.635-2.824 0-5.647-2.817-5.647-5.635 0-2.817 2.823-5.634 5.647-5.634zM753.803 42.283c2.823 0 5.646 2.817 5.646 5.634 0 2.818-2.823 5.635-5.646 5.635-2.824 0-5.647-2.817-5.647-5.635 1.412-2.817 2.823-5.634 5.647-5.634zM791.915 42.206c2.823 0 4.234 1.408 4.234 4.226 0 2.817-1.411 4.226-4.234 4.226-2.822 0-4.233-1.409-4.233-4.226 0-1.409 1.411-4.226 4.233-4.226zM830.029 43.72c2.822 0 4.233 1.409 4.233 4.226 0 2.818-1.411 4.226-4.233 4.226-2.823 0-4.234-2.817-4.234-4.226 0-2.817 1.411-4.226 4.234-4.226zM868.15 43.72c2.822 0 4.234 1.409 4.234 4.226 0 2.818-1.412 4.226-4.234 4.226s-4.234-1.408-4.234-4.226c-1.411-2.817 1.412-4.226 4.234-4.226zM904.808 43.72a4.23 4.23 0 0 1 4.234 4.226 4.23 4.23 0 0 1-4.234 4.226 4.23 4.23 0 0 1-4.234-4.226 4.23 4.23 0 0 1 4.234-4.226zM942.935 43.72c2.822 0 4.234 1.409 4.234 4.226 0 2.818-1.412 4.226-4.234 4.226-2.823 0-4.234-1.408-4.234-4.226 0-2.817 1.411-4.226 4.234-4.226zM981.046 43.72c1.411 0 4.234 1.409 4.234 4.226 0 1.409-1.411 4.226-4.234 4.226-1.411 0-4.234-1.408-4.234-4.226 0-2.817 1.412-4.226 4.234-4.226zM1017.76 43.72c1.41 0 4.23 1.409 4.23 4.226 0 1.409-1.41 4.226-4.23 4.226-1.42 0-4.24-1.408-4.24-4.226 1.41-2.817 2.82-4.226 4.24-4.226zM1055.87 43.643c1.41 0 2.82 1.409 2.82 2.818 0 1.408-1.41 2.817-2.82 2.817-1.42 0-2.83 0-2.83-1.409 0-2.817 1.41-4.226 2.83-4.226zM1093.99 45.023a2.817 2.817 0 1 1 0 5.635 2.826 2.826 0 0 1-2.83-2.818 2.826 2.826 0 0 1 2.83-2.817zM1132.1 45.023a2.817 2.817 0 1 1 0 5.635 2.817 2.817 0 1 1 0-5.635zM1168.8 45.023c1.41 0 2.82 1.409 2.82 2.817 0 1.409-1.41 2.818-2.82 2.818s-2.82-1.409-2.82-2.818c0-1.408 1.41-2.817 2.82-2.817zM1206.92 45.023a2.817 2.817 0 1 1 0 5.635 2.817 2.817 0 1 1 0-5.635zM1245.03 45.088c1.41 0 1.41 1.41 1.41 1.41 0 1.409-1.41 1.409-1.41 1.409-1.41 0-1.41-1.41-1.41-1.41-1.41 0 0-1.409 1.41-1.409zM1281.74 46.46a1.409 1.409 0 1 1 0 2.818 1.409 1.409 0 1 1 0-2.819zM1319.86 46.46a1.409 1.409 0 1 1 0 2.818 1.409 1.409 0 1 1 0-2.819zM1357.97 46.46s1.41 0 0 0c1.41 1.408 1.41 2.818 0 2.818s-1.41-1.41 0-2.819c-1.41 0-1.41 0 0 0zM1396.05 46.46a1.409 1.409 0 1 1 0 2.818 1.409 1.409 0 1 1 0-2.819zM1432.76 46.497l1.41 1.41h-1.41v-1.41zM74.817 8.5a1.41 1.41 0 1 1 .002 2.82 1.41 1.41 0 0 1-.002-2.82zM112.932 7.059c1.411 0 2.822 1.408 2.822 2.817 0 1.409-1.411 2.817-2.822 2.817s-2.823-1.408-2.823-2.817c0-1.409 1.412-2.817 2.823-2.817zM151.04 5.613c2.823 0 4.234 1.409 4.234 4.226s-1.411 4.226-4.234 4.226c-2.822 0-4.233-1.409-4.233-4.226s1.411-4.226 4.233-4.226zM189.16 2.872c3.898 0 7.058 3.153 7.058 7.043s-3.16 7.043-7.058 7.043c-3.898 0-7.058-3.153-7.058-7.043s3.16-7.043 7.058-7.043zM225.856 1.418c4.235 0 8.47 4.225 8.47 8.451 0 4.226-4.235 8.452-8.47 8.452-1.772 0-3.545-.74-5.007-1.911-3.951-3.164-3.318-9.611.397-13.05 1.285-1.189 2.822-1.942 4.61-1.942zM263.981-.02c5.646 0 9.881 4.226 9.881 9.86 0 5.635-4.235 9.86-9.881 9.86-5.647 0-9.881-4.225-9.881-9.86 0-5.634 4.234-9.86 9.881-9.86zM302.092-.02c5.647 0 9.881 4.226 9.881 9.86 0 5.635-4.234 9.86-9.881 9.86-5.646 0-9.881-4.225-9.881-9.86 0-5.634 4.235-9.86 9.881-9.86zM340.179-.02c5.646 0 9.881 4.226 9.881 9.86 0 5.635-4.235 9.86-9.881 9.86-5.647 0-9.881-4.225-9.881-9.86-1.412-5.634 4.234-9.86 9.881-9.86zM376.909-.02c5.646 0 9.881 4.226 9.881 9.86 0 5.635-4.235 9.86-9.881 9.86-5.647 0-9.882-4.225-9.882-9.86 0-5.634 4.235-9.86 9.882-9.86zM415.026-.02c5.646 0 9.881 4.226 9.881 9.86 0 5.635-4.235 9.86-9.881 9.86-5.647 0-9.881-4.225-9.881-9.86 0-5.634 4.234-9.86 9.881-9.86zM453.108 1.417c5.646 0 8.469 4.226 8.469 8.452 0 5.635-4.234 8.452-8.469 8.452-4.235 0-9.881-2.817-9.881-8.452 0-5.634 4.234-8.452 9.881-8.452zM489.811 1.417c4.235 0 8.47 4.226 8.47 8.452s-4.235 8.452-8.47 8.452c-4.234 0-8.469-4.226-8.469-8.452s4.235-8.452 8.469-8.452zM527.929 1.417c4.234 0 8.469 4.226 8.469 8.452s-4.235 8.452-8.469 8.452c-4.235 0-8.47-4.226-8.47-8.452s4.235-8.452 8.47-8.452zM566.04 2.872c4.235 0 7.058 2.817 7.058 7.043s-2.823 7.043-7.058 7.043c-4.235 0-7.058-2.817-7.058-7.043-1.412-4.226 2.823-7.043 7.058-7.043zM604.159 2.872c4.235 0 7.058 2.817 7.058 7.043s-2.823 7.043-7.058 7.043c-4.235 0-8.47-2.817-8.47-7.043s4.235-7.043 8.47-7.043zM640.863 2.872c4.234 0 7.058 2.817 7.058 7.043s-2.824 7.043-7.058 7.043c-4.235 0-7.058-2.817-7.058-7.043s4.235-7.043 7.058-7.043zM678.986 2.872c4.234 0 7.058 2.817 7.058 7.043s-2.824 7.043-7.058 7.043c-4.235 0-7.058-2.817-7.058-7.043s2.823-7.043 7.058-7.043zM717.088 4.167c2.823 0 5.646 2.817 5.646 5.635 0 2.817-2.823 5.634-5.646 5.634s-5.647-2.817-5.647-5.634c-1.411-2.818 1.412-5.635 5.647-5.635zM753.803 4.167c2.823 0 5.646 2.817 5.646 5.635 0 2.817-2.823 5.634-5.646 5.634-2.824 0-5.647-2.817-5.647-5.634 0-2.818 2.823-5.635 5.647-5.635zM791.92 4.167c2.823 0 5.646 2.817 5.646 5.635 0 2.817-2.823 5.634-5.646 5.634s-5.647-2.817-5.647-5.634c0-2.818 2.824-5.635 5.647-5.635zM830.031 4.167c2.823 0 5.647 2.817 5.647 5.635 0 2.817-2.824 5.634-5.647 5.634-2.823 0-5.646-2.817-5.646-5.634 0-2.818 2.823-5.635 5.646-5.635zM868.15 5.613c2.822 0 4.234 2.817 4.234 4.226 0 2.817-2.823 4.226-4.234 4.226-2.822 0-4.234-2.817-4.234-4.226-1.411-2.817 1.412-4.226 4.234-4.226zM904.808 5.613c2.822 0 4.234 1.409 4.234 4.226s-1.412 4.226-4.234 4.226c-2.823 0-4.234-1.409-4.234-4.226s1.411-4.226 4.234-4.226zM942.935 5.613c2.822 0 4.234 1.409 4.234 4.226s-1.412 4.226-4.234 4.226c-2.823 0-4.234-1.409-4.234-4.226s1.411-4.226 4.234-4.226zM981.046 5.613c2.823 0 4.234 1.409 4.234 4.226s-1.411 4.226-4.234 4.226c-2.822 0-4.234-1.409-4.234-4.226s1.412-4.226 4.234-4.226zM1017.76 5.613c2.82 0 4.23 1.409 4.23 4.226s-1.41 4.226-4.23 4.226c-2.83 0-4.24-1.409-4.24-4.226 1.41-2.817 2.82-4.226 4.24-4.226zM1055.86 5.613c1.41 0 4.24 1.409 4.24 4.226 0 1.409-1.42 4.226-4.24 4.226-1.41 0-4.23-1.409-4.23-4.226 1.41-1.409 2.82-4.226 4.23-4.226zM1093.99 7.059c1.41 0 2.82 1.408 2.82 2.817 0 1.409-1.41 2.817-2.82 2.817s-2.83-1.408-2.83-2.817c0-1.409 0-2.817 2.83-2.817zM1132.1 7.059c1.41 0 2.82 1.408 2.82 2.817 0 1.409-1.41 2.817-2.82 2.817s-4.23-1.408-4.23-2.817c0-1.409 1.41-2.817 4.23-2.817zM1168.8 7.059a2.817 2.817 0 1 1 0 5.634 2.817 2.817 0 1 1 0-5.634zM1206.92 7.059c1.41 0 2.82 1.408 2.82 2.817 0 1.409-1.41 2.817-2.82 2.817s-2.82-1.408-2.82-2.817c0-1.409 1.41-2.817 2.82-2.817zM1245.04 7.059c1.41 0 2.82 1.408 2.82 2.817 0 1.409-1.41 2.817-2.82 2.817s-2.82-1.408-2.82-2.817c0-1.409 1.41-2.817 2.82-2.817zM1281.74 8.499c1.41 0 1.41 1.409 1.41 1.409 0 1.41-1.41 1.41-1.41 1.41-1.41 0-1.41-1.41-1.41-1.41 0-1.41 1.41-1.41 1.41-1.41zM1319.86 8.499c1.41 0 1.41 1.409 1.41 1.409 0 1.41-1.41 1.41-1.41 1.41-1.41 0-1.41-1.41-1.41-1.41 0-1.41 0-1.41 1.41-1.41zM1357.97 8.499s1.41 0 0 0c1.41 2.818 1.41 2.818 0 2.818s-1.41 0 0-2.818c-1.41 0-1.41 0 0 0zM1396.05 8.499v2.819l-1.41-1.41 1.41-1.41z"/></g><defs><clipPath id="a"><path fill="#fff" transform="matrix(1 0 0 -1 0 424)" d="M0 0h1509v424H0z"/></clipPath></defs></svg>