<svg width="425" height="1510" fill="none" xmlns="http://www.w3.org/2000/svg"><g style="mix-blend-mode:difference" clip-path="url(#a)" fill="#E4E3DD"><path d="M386.497 1169.31h1.409l-1.409 1.41v-1.41zM348.399 1434.69v-1.42l1.41 1.42h-1.41zM348.399 1320.34h1.41l-1.41 1.41v-1.41zM348.399 1283.63v-1.41l1.41 1.41h-1.41zM348.399 1245.52v-1.41l1.41 1.41-1.41 1.41v-1.41zM348.399 1207.44h1.41l-1.41 1.41v-1.41zM348.399 1169.31h1.41l-1.41 1.41v-1.41zM348.399 1132.61v-1.41l1.41 1.41h-1.41zM348.399 1094.5v-1.41l1.41 1.41-1.41 1.41v-1.41zM348.399 1056.39h1.41l-1.41 1.41v-1.41zM348.399 1019.68v-1.41l1.41 1.41h-1.41zM348.399 981.565v-1.411l1.41 1.411-1.41 1.412v-1.412zM348.399 943.458h1.41l-1.41 1.412v-1.412zM348.399 905.336h1.41l-1.41 1.412v-1.412zM348.399 868.631v-1.412l1.41 1.412h-1.41zM348.399 755.703v-1.411l1.41 1.411h-1.41zM348.399 679.467h1.41l-1.41 1.411v-1.411zM348.399 641.38h1.41l-1.41 1.411v-1.411zM348.399 264.462h1.41l-1.41 1.411v-1.411zM348.399 227.761v-1.411l1.41 1.411h-1.41zM348.399 113.448h1.41l-1.41 1.411v-1.411zM310.427 1434.69l1.409-1.42v1.42h-1.409zM310.427 1396.57l1.409-1.41v1.41h-1.409zM310.427 1358.44h1.409v1.41l-1.409-1.41zM310.425 1320.34h1.409v1.41l-1.409-1.41zM310.396 1283.63a1.409 1.409 0 1 1 2.819 0 1.409 1.409 0 1 1-2.819 0zM310.396 1245.52c0-1.41 0-1.41 1.41-1.41 1.409 0 1.409 0 1.409 1.41s0 1.41-1.409 1.41c-1.41 0-1.41-1.41-1.41-1.41zM310.396 1207.44c0-1.41 0-1.41 1.41-1.41 1.409 0 1.409 0 1.409 1.41s0 1.41-1.409 1.41c-1.41 0-1.41 0-1.41-1.41zM310.396 1169.33c0-1.42 1.41-1.42 1.41-1.42 1.409 0 1.409 1.42 1.409 1.42l-1.409 2.82c-1.41 0-1.41-1.41-1.41-2.82zM310.396 1132.61c0-1.41 1.41-1.41 1.41-1.41 1.409 0 1.409 1.41 1.409 1.41 0 1.41-1.409 1.41-1.409 1.41-1.41 0-1.41-1.41-1.41-1.41zM310.396 1094.5c0-1.41 1.41-1.41 1.41-1.41 1.409 0 1.409 1.41 1.409 1.41 0 1.41-1.409 1.41-1.409 1.41-1.41 0-1.41 0-1.41-1.41zM310.396 1056.39c0-1.42 0-1.42 1.41-1.42 1.409 0 1.409 1.42 1.409 1.42 0 1.41 0 1.41-1.409 1.41-1.41 0-1.41 0-1.41-1.41zM310.396 1019.69c0-1.41 0-1.41 1.41-1.41 1.409 0 1.409 0 1.409 1.41s0 1.41-1.409 1.41c-1.41 0-1.41-1.41-1.41-1.41zM310.396 981.565c0-1.411 0-1.411 1.41-1.411 1.409 0 1.409 0 1.409 1.411 0 1.412 0 1.412-1.409 1.412-1.41 0-1.41-1.412-1.41-1.412zM310.396 943.456s0-1.411 0 0c2.819-1.411 2.819-1.411 2.819 0 0 1.412-1.409 1.412-2.819 0 0 1.412 0 1.412 0 0zM310.396 905.336a1.41 1.41 0 1 1 2.821-.001 1.41 1.41 0 0 1-2.821.001zM310.396 868.618c0-1.411 0-1.411 0 0 1.41-1.411 2.819 0 2.819 0s-1.409 1.411-2.819 0c0 0 0 1.411 0 0zM310.427 830.506s0-1.411 0 0c1.409-1.411 1.409 0 1.409 0s0 1.411-1.409 0c0 0 0 1.411 0 0zM310.427 792.404h1.409v1.411l-1.409-1.411zM310.427 755.703l1.409-1.411v1.411h-1.409zM310.427 717.577l1.409-1.412v1.412h-1.409zM310.425 679.467h1.409v1.411l-1.409-1.411zM310.425 641.38h1.409v1.411l-1.409-1.411zM310.427 604.684l1.409-1.411v1.411h-1.409zM310.427 528.443h1.409v1.411l-1.409-1.411zM310.427 491.737l1.409-1.411v1.411h-1.409zM310.427 340.688l1.409-1.411v1.411h-1.409zM310.427 264.462h1.409v1.411l-1.409-1.411zM310.425 227.761l1.409-1.411v1.411h-1.409zM272.424 1358.47s1.409-1.41 0 0c1.409-1.41 2.818 0 2.818 0 0 1.41-1.409 1.41-2.818 0 0 1.41 1.409 1.41 0 0zM272.424 1320.34a1.409 1.409 0 1 1 2.818 0 1.409 1.409 0 1 1-2.818 0zM272.424 1283.63c0-1.41 1.409-1.41 1.409-1.41 1.409 0 1.409 1.41 1.409 1.41 0 1.41-1.409 1.41-1.409 1.41-1.409 0-1.409-1.41-1.409-1.41zM270.987 1245.52c0-1.41 1.408-2.82 2.817-2.82 1.408 0 2.817 1.41 2.817 2.82s-1.409 2.82-2.817 2.82c-1.409 0-2.817-1.41-2.817-2.82zM270.987 1207.41c0-1.41 1.408-2.83 2.817-2.83 1.408 0 2.817 1.42 2.817 2.83 0 1.41-1.409 2.82-2.817 2.82-1.409 0-2.817-1.41-2.817-2.82zM270.987 1169.33c0-1.56 1.261-2.83 2.817-2.83a2.825 2.825 0 0 1 0 5.65 2.823 2.823 0 0 1-2.817-2.82zM270.987 1132.62c0-1.41 1.408-2.82 2.817-2.82 1.408 0 2.817 1.41 2.817 2.82s-1.409 2.82-2.817 2.82c-1.409-1.41-2.817-1.41-2.817-2.82zM270.987 1094.51c0-1.41 1.408-2.82 2.817-2.82 1.408 0 2.817 1.41 2.817 2.82s-1.409 2.82-2.817 2.82c-1.409 0-2.817-1.41-2.817-2.82zM270.987 1056.38c0-1.41 1.408-2.82 2.817-2.82 1.408 0 2.817 1.41 2.817 2.82s-1.409 2.83-2.817 2.83c-1.409 0-2.817-1.42-2.817-2.83zM272.424 1019.69a1.409 1.409 0 1 1 2.818 0 1.409 1.409 0 1 1-2.818 0zM272.424 981.565c0-1.411 1.409-1.411 1.409-1.411 1.409 0 1.409 1.411 1.409 1.411 0 1.412-1.409 1.412-1.409 1.412-1.409 0-1.409 0-1.409-1.412zM272.424 943.456c0-1.411 1.409-1.411 1.409-1.411 1.409 0 1.409 1.411 1.409 1.411 0 1.411 0 2.822-1.409 2.822s-1.409-1.411-1.409-2.822zM272.424 905.331c0-1.411 1.409-1.411 1.409-1.411 1.409 0 1.409 1.411 1.409 1.411 0 1.411-1.409 1.411-1.409 1.411-1.409 1.412-1.409 0-1.409-1.411zM272.424 868.633c0-1.411 1.409-1.411 1.409-1.411 1.409 0 1.409 1.411 1.409 1.411 0 1.411-1.409 1.411-1.409 1.411-1.409 0-1.409-1.411-1.409-1.411zM272.424 830.511c0-1.411 0-1.411 1.409-1.411s1.409 1.411 1.409 1.411c0 1.412 0 1.411-1.409 1.411s-1.409.001-1.409-1.411zM272.424 792.404c0-1.411 0-1.411 1.409-1.411s1.409 0 1.409 1.411 0 1.411-1.409 1.411-1.409 0-1.409-1.411zM272.424 755.721c0-1.412 0-1.412 0 0 1.409-1.412 2.818-1.412 2.818 0 0 0 0 1.411-2.818 0 0 0 0 1.411 0 0zM272.424 717.609c0-1.412 0-1.412 0 0 1.409-1.412 2.818 0 2.818 0s-1.409 1.411-2.818 0c0 0 0 1.411 0 0zM272.424 679.465s0-1.411 0 0c1.409-1.411 2.818 0 2.818 0s-1.409 1.411-2.818 0c0 1.411 0 1.411 0 0zM272.424 641.353s1.409 0 0 0c1.409-1.411 2.818 0 2.818 0s-1.409 1.411-2.818 0c0 1.411 1.409 1.411 0 0zM272.424 604.667c0-1.412 1.409-1.412 0 0 1.409-1.412 2.818 0 2.818 0s-1.409 1.411-2.818 0c0 0 1.409 1.411 0 0zM272.421 566.555s1.409-1.412 0 0c1.409-1.412 1.409 0 1.409 0 1.41 0 0 1.411-1.409 0 0 0 1.409 1.411 0 0zM272.424 528.443a1.41 1.41 0 0 1 1.409-1.411 1.41 1.41 0 0 1 0 2.822 1.41 1.41 0 0 1-1.409-1.411zM272.424 491.737l1.409-1.411 1.409 1.411h-2.818zM272.424 453.628c0-.78.631-1.412 1.409-1.412a1.41 1.41 0 0 1 0 2.823 1.41 1.41 0 0 1-1.409-1.411zM272.424 415.516h2.818l-1.409 1.411-1.409-1.411zM272.424 377.399a1.41 1.41 0 0 1 1.409-1.411 1.41 1.41 0 0 1 0 2.822 1.41 1.41 0 0 1-1.409-1.411zM235.735 1434.69v-1.42l1.41 1.42h-1.41zM235.735 1396.56c0-1.41 0-1.41 0 0 1.41-1.41 1.41 0 1.41 0s0 1.41-1.41 0c0 0 0 1.41 0 0zM234.326 1358.44c0-1.41 0-1.41 1.409-1.41 1.41 0 1.41 0 1.41 1.41s0 1.41-1.41 1.41c-.003 0-1.409 0-1.409-1.41zM234.324 1320.34a1.409 1.409 0 1 1 2.819 0 1.409 1.409 0 1 1-2.819 0zM232.885 1283.64c0-1.41 1.409-2.82 2.817-2.82 1.409 0 2.818 1.41 2.818 2.82s-1.409 2.82-2.818 2.82c-1.408 0-2.817-1.41-2.817-2.82zM232.885 1245.52c0-1.41 1.409-2.82 2.817-2.82 1.409 0 2.818 1.41 2.818 2.82s-1.409 2.82-2.818 2.82c-1.408 0-2.817-1.41-2.817-2.82zM232.885 1207.4c0-1.41 1.409-2.82 2.817-2.82 1.409 0 2.818 1.41 2.818 2.82 0 1.42 0 4.24-2.818 4.24-1.408 0-2.817-1.41-2.817-4.24zM232.986 1169.32c0-1.41 1.409-4.23 4.226-4.23s2.817 2.82 2.817 4.23c0 1.41-1.408 4.24-4.226 4.24-2.817 0-2.817-1.41-2.817-4.24zM232.956 1132.62c0-1.41 1.409-4.23 4.226-4.23 1.409 0 4.226 1.41 4.226 4.23 0 1.41-1.408 4.23-4.226 4.23-2.817-1.41-4.226-2.82-4.226-4.23zM232.885 1094.51c0-1.41 1.409-2.82 2.817-2.82 1.409 0 2.818 1.41 2.818 2.82s0 4.23-2.818 4.23c-1.408 0-2.817-2.82-2.817-4.23zM232.885 1056.38a2.817 2.817 0 1 1 5.635 0c0 1.56-1.262 2.83-2.818 2.83a2.825 2.825 0 0 1-2.817-2.83zM232.885 1019.69c0-1.41 1.409-2.82 2.817-2.82 1.409 0 2.818 1.41 2.818 2.82 0 1.42-1.409 2.83-2.818 2.83-1.408 0-2.817-1.41-2.817-2.83zM232.885 981.568c0-1.411 1.409-2.822 2.817-2.822 1.409 0 2.818 1.411 2.818 2.822s-1.409 2.822-2.818 2.822c-1.408 0-2.817-1.411-2.817-2.822zM232.885 943.456c0-1.411 1.409-2.822 2.817-2.822 1.409 0 2.818 1.411 2.818 2.822s-1.409 2.822-2.818 2.822c-1.408 0-2.817-1.411-2.817-2.822zM232.885 905.339c0-1.411 1.409-2.822 2.817-2.822 1.409 0 2.818 1.411 2.818 2.822s-1.409 2.822-2.818 2.822c-1.408 0-2.817-1.411-2.817-2.822zM234.395 868.631c0-1.411 1.408-2.823 2.817-2.823 1.409 0 2.817 1.412 2.817 2.823s-1.408 2.822-2.817 2.822c-2.817-1.411-2.817-1.411-2.817-2.822zM234.294 830.514c0-1.411 1.408-2.823 2.817-2.823 1.409 0 1.409 1.412 1.409 2.823s-1.409 2.822-2.818 2.822c-1.408 0-1.408-1.411-1.408-2.822zM234.324 792.404c0-1.411 1.409-1.411 1.409-1.411 1.41 0 1.41 1.411 1.41 1.411 0 1.411-1.41 1.411-1.41 1.411-1.409 1.412-1.409 0-1.409-1.411zM234.324 755.701c0-1.411 1.409-1.411 1.409-1.411 1.41 0 1.41 1.411 1.41 1.411 0 1.411-1.41 1.411-1.41 1.411-1.409 0-1.409-1.411-1.409-1.411zM234.326 717.574a1.41 1.41 0 1 1 2.82-.001 1.41 1.41 0 0 1-2.82.001zM234.326 679.467c0-1.411 1.409-1.411 1.409-1.411 1.41 0 1.41 1.411 1.41 1.411 0 1.411-1.41 1.411-1.41 1.411s-1.409 0-1.409-1.411zM234.326 641.385c0-1.411 1.409-1.411 1.409-1.411 1.41 0 1.41 1.411 1.41 1.411 0 1.411-1.41 1.411-1.41 1.411 0 1.411-1.409 0-1.409-1.411zM234.324 604.677c0-1.411 0-1.411 1.409-1.411 1.41 0 1.41 1.411 1.41 1.411 0 1.411 0 1.411-1.41 1.411l-1.409-1.411zM234.324 566.57c0-1.411 0-1.411 1.409-1.411 1.41 0 1.41 0 1.41 1.411s0 1.411-1.41 1.411c0 0-1.409 0-1.409-1.411zM234.324 528.456s1.409-1.411 0 0c2.819-1.411 2.819-1.411 2.819 0s0 1.411-2.819 0c0 1.411 1.409 1.411 0 0zM234.324 491.739c0-1.411 1.409-1.411 0 0 2.819-1.411 2.819-1.411 2.819 0 0 0 0 1.412-2.819 0 0 0 1.409 1.412 0 0zM234.324 453.617c0-1.411 1.409-1.411 0 0 1.409-1.411 2.819 0 2.819 0s0 1.411-2.819 0c0 0 1.409 1.411 0 0zM234.324 415.514s1.409-1.411 0 0c1.409-1.411 2.819 0 2.819 0s0 1.411-2.819 0c0 1.411 1.409 1.411 0 0zM234.324 377.407s1.409 0 0 0c1.409-1.411 2.819 0 2.819 0 0 1.411 0 1.411-2.819 0 0 1.411 1.409 1.411 0 0zM234.324 340.696a1.41 1.41 0 1 1 2.821-.003 1.41 1.41 0 0 1-2.821.003zM235.733 302.589v-1.412l1.41 1.412-1.41 1.411v-1.411zM235.733 264.462h1.41l-1.41 1.411v-1.411zM235.733 227.761v-1.411l1.41 1.411h-1.41zM235.733 189.644v-1.411l1.41 1.411h-1.41zM235.733 151.534h1.41l-1.41 1.412v-1.412zM235.733 113.448h1.41l-1.41 1.411v-1.411zM197.765 1434.69l1.409-1.42v1.42h-1.409zM197.73 1396.56c0-1.41 0-1.41 0 0 1.41-1.41 2.819-1.41 2.819 0 0 0-1.409 1.41-2.819 0 0 0 0 1.41 0 0zM196.355 1358.46c0-1.41 1.41-1.41 1.41-1.41 1.409 0 1.409 1.41 1.409 1.41 0 1.41-1.409 1.41-1.409 1.41 0 1.41-1.41 0-1.41-1.41zM196.295 1320.33c0-1.41 1.409-2.82 2.817-2.82 1.409 0 2.818 1.41 2.818 2.82 0 1.42-1.409 2.83-2.818 2.83-2.817 0-2.817-1.41-2.817-2.83zM194.853 1283.64c0-1.41 1.409-4.23 4.226-4.23 1.408 0 4.226 1.41 4.226 4.23 0 1.41-1.409 4.24-4.226 4.24-2.817-1.41-4.226-2.83-4.226-4.24zM194.853 1245.51c0-2.82 1.409-4.23 4.226-4.23s4.226 1.41 4.226 4.23c0 2.82-1.409 4.24-4.226 4.24s-4.226-1.42-4.226-4.24zM193.444 1207.4c0-2.82 1.409-4.23 4.226-4.23s5.635 1.41 5.635 4.23c0 2.83-1.409 4.24-4.226 4.24s-5.635-1.41-5.635-4.24zM193.478 1169.29c0-2.82 1.409-4.24 4.226-4.24s4.226 1.42 4.226 4.24c0 2.82-1.409 5.65-2.818 5.65-2.817 0-5.634-2.83-5.634-5.65zM193.444 1132.62c0-2.82 1.409-4.23 4.226-4.23s5.635 1.41 5.635 4.23c0 2.82-1.409 4.23-4.226 4.23s-5.635-1.41-5.635-4.23zM193.478 1094.51c0-2.82 1.409-4.24 4.226-4.24s4.226 1.42 4.226 4.24c0 2.82-1.409 4.23-4.226 4.23-1.409 0-4.226-1.41-4.226-4.23zM194.853 1056.39c0-2.82 1.409-4.23 4.226-4.23s4.226 1.41 4.226 4.23c0 2.82-1.409 4.23-4.226 4.23s-4.226-1.41-4.226-4.23zM194.853 1019.69c0-2.82 1.409-4.24 4.226-4.24s4.226 1.42 4.226 4.24c0 2.82-1.409 4.23-4.226 4.23-2.817-1.41-4.226-2.82-4.226-4.23zM194.853 981.571c0-1.412 1.409-4.234 4.226-4.234 1.408 0 4.226 1.411 4.226 4.234 0 1.411-1.409 4.233-4.226 4.233s-4.226-2.822-4.226-4.233zM194.853 943.448c0-1.411 1.409-4.233 4.226-4.233 1.408 0 4.226 1.411 4.226 4.233 0 1.412-1.409 4.234-4.226 4.234s-4.226-1.411-4.226-4.234zM194.914 905.342c0-1.412 1.409-2.823 2.818-2.823 1.408 0 2.817 1.411 2.817 2.823 0 1.411 0 4.233-1.409 4.233-2.817 0-4.226-1.411-4.226-4.233zM194.914 868.631c0-1.411 1.409-2.823 2.818-2.823 1.408 0 2.817 1.412 2.817 2.823s-1.409 2.822-2.817 2.822c-1.409 0-2.818-1.411-2.818-2.822zM194.914 830.514c0-1.411 1.409-2.823 2.818-2.823 1.408 0 2.817 1.412 2.817 2.823s-1.409 2.822-2.817 2.822c-1.409 0-2.818-1.411-2.818-2.822zM196.295 792.402c0-1.411 1.409-2.823 2.817-2.823 1.409 0 2.818 1.412 2.818 2.823s-1.409 2.822-2.818 2.822c-2.817 0-2.817-1.411-2.817-2.822zM196.295 755.699c0-1.412 1.409-2.823 2.817-2.823 1.409 0 2.818 1.411 2.818 2.823 0 1.411-1.409 2.822-2.818 2.822-1.408-1.411-2.817-1.411-2.817-2.822zM196.295 717.587c0-1.412 1.409-2.823 2.817-2.823 1.409 0 2.818 1.411 2.818 2.823l-2.818 2.822c-1.408 0-2.817-1.411-2.817-2.822zM196.295 679.46c0-1.412 1.409-2.823 2.817-2.823 1.409 0 2.818 1.411 2.818 2.823 0 1.411-1.409 2.822-2.818 2.822-1.408 0-2.817-1.411-2.817-2.822zM196.355 641.385c0-1.411 1.41-1.411 1.41-1.411 1.409 0 1.409 1.411 1.409 1.411 0 1.411-1.409 1.411-1.409 1.411 0 1.411-1.41 0-1.41-1.411zM196.355 604.677c0-1.411 1.41-1.411 1.41-1.411 1.409 0 1.409 1.411 1.409 1.411v1.411c-1.409 0-2.819 0-2.819-1.411zM196.355 566.57c0-1.411 1.41-1.411 1.41-1.411 1.409 0 1.409 1.411 1.409 1.411 0 1.411-1.409 1.411-1.409 1.411s-1.41 0-1.41-1.411zM197.73 528.443a1.41 1.41 0 1 1 2.821-.001 1.41 1.41 0 0 1-2.821.001zM196.279 491.75c0-1.411 1.409-1.411 1.409-1.411 1.409 0 1.409 1.411 1.409 1.411 1.408 0 0 1.411 0 1.411-1.409 0-2.818-1.411-2.818-1.411zM196.355 453.628c0-1.412 1.41-1.412 1.41-1.412 1.409 0 1.409 1.412 1.409 1.412 0 1.411-1.409 1.411-1.409 1.411s-1.41 0-1.41-1.411zM196.355 415.516c0-1.411 0-1.411 1.41-1.411 1.409 0 1.409 1.411 1.409 1.411 0 1.411 0 1.411-1.409 1.411 0 0-1.41 0-1.41-1.411zM197.73 377.399c0-1.411 0-1.411 1.41-1.411 1.409 0 1.409 0 1.409 1.411s0 1.411-1.409 1.411c-1.41 0-1.41 0-1.41-1.411zM197.73 340.69c0-1.411 0-1.411 0 0 1.41-1.411 2.819 0 2.819 0-1.409 0-1.409 1.411-2.819 0 0 0 0 1.411 0 0zM197.73 302.587s0-1.411 0 0c1.41-1.411 2.819 0 2.819 0s-1.409 1.411-2.819 0c0 1.411 0 1.411 0 0zM197.73 264.48c1.41-1.411 2.819 0 2.819 0-1.409 1.411-1.409 1.411-2.819 0 0 1.411 0 1.411 0 0zM197.765 227.761l1.409-1.411v1.411h-1.409zM197.765 189.644l1.409-1.411v1.411h-1.409zM197.765 151.534h1.409v1.412l-1.409-1.412zM197.765 113.448h1.409v1.411l-1.409-1.411zM197.765 76.742l1.409-1.411v1.41h-1.409zM159.661 1434.69l1.409-1.42v1.42h-1.409zM159.625 1396.58c0-1.42 1.409-1.42 1.409-1.42 1.409 0 1.409 1.42 1.409 1.42 0 1.41-1.409 1.41-1.409 1.41-1.409 0-1.409-1.41-1.409-1.41zM158.322 1358.46c0-1.41 1.409-2.83 2.818-2.83 1.408 0 2.817 1.42 2.817 2.83 0 1.41-1.409 2.82-2.817 2.82-1.409 0-2.818-1.41-2.818-2.82zM156.914 1320.34c0-1.41 1.408-4.23 4.226-4.23 1.408 0 2.817 1.41 2.817 4.23 0 1.41-1.409 4.24-2.817 4.24-2.818 0-4.226-1.42-4.226-4.24zM156.886 1283.64c0-2.82 1.409-4.23 4.226-4.23s4.226 1.41 4.226 4.23c0 2.83-1.409 4.24-4.226 4.24s-4.226-2.83-4.226-4.24zM155.444 1245.53c0-2.83 2.817-5.65 5.634-5.65 2.818 0 5.635 2.82 5.635 5.65 0 2.82-2.817 5.64-5.635 5.64-2.817 0-5.634-2.82-5.634-5.64zM155.444 1207.4c0-2.82 2.817-5.65 5.634-5.65 2.818 0 5.635 2.83 5.635 5.65 0 2.82-2.817 5.65-5.635 5.65-2.817 0-5.634-2.83-5.634-5.65zM155.444 1169.3c0-2.82 2.817-5.65 5.634-5.65 2.818 0 5.635 2.83 5.635 5.65 0 2.82-2.817 5.65-5.635 5.65-2.817 1.41-5.634-1.41-5.634-5.65zM155.444 1132.62c0-2.82 2.817-5.65 5.634-5.65 2.818 0 5.635 2.83 5.635 5.65 0 2.82-2.817 5.65-5.635 5.65-2.817 0-5.634-2.83-5.634-5.65zM155.444 1094.5c0-2.82 2.817-5.64 5.634-5.64 2.818 0 5.635 2.82 5.635 5.64 0 2.83-2.817 5.65-5.635 5.65-2.817 0-5.634-2.82-5.634-5.65zM155.444 1056.39c0-2.82 2.817-5.64 5.634-5.64 2.818 0 5.635 2.82 5.635 5.64s-2.817 5.65-5.635 5.65c-2.817 0-5.634-2.83-5.634-5.65zM155.505 1019.69c0-2.82 2.817-4.24 4.226-4.24 2.817 0 4.226 2.83 4.226 4.24 0 2.82-2.817 4.23-4.226 4.23-1.409 0-4.226-1.41-4.226-4.23zM156.884 981.571c0-2.823 1.409-4.234 4.226-4.234s4.226 1.411 4.226 4.234c0 2.822-1.409 4.233-4.226 4.233s-4.226-1.411-4.226-4.233zM156.884 943.448c0-2.822 1.409-4.233 4.226-4.233s4.226 1.411 4.226 4.233c0 2.823-1.409 4.234-4.226 4.234s-4.226-1.411-4.226-4.234zM156.884 905.342c0-2.823 1.409-4.234 4.226-4.234s4.226 1.411 4.226 4.234c0 2.822-1.409 4.233-4.226 4.233s-4.226-1.411-4.226-4.233zM156.884 868.633c0-1.411 1.409-4.233 4.226-4.233 1.409 0 4.226 1.411 4.226 4.233 0 1.412-1.409 4.234-4.226 4.234-2.817-1.411-4.226-2.822-4.226-4.234zM156.914 830.516c0-1.411 1.408-4.233 4.226-4.233 1.408 0 2.817 1.411 2.817 4.233 0 1.412-1.409 4.234-2.817 4.234-2.818 0-4.226-2.822-4.226-4.234zM156.809 792.403c0-1.411 1.408-2.823 2.817-2.823 1.409 0 2.817 1.412 2.817 2.823s-1.408 2.822-2.817 2.822c0 1.411-2.817 0-2.817-2.822zM158.323 755.699c0-1.412 1.408-2.823 2.817-2.823 1.408 0 2.817 1.411 2.817 2.823 0 1.411-1.409 2.822-2.817 2.822-1.409 0-2.817-1.411-2.817-2.822zM158.323 717.587c0-1.412 1.408-2.823 2.817-2.823 1.408 0 2.817 1.411 2.817 2.823 0 1.411-1.409 2.822-2.817 2.822-1.409 0-2.817-1.411-2.817-2.822zM158.323 679.46c0-1.412 1.408-2.823 2.817-2.823 1.408 0 2.817 1.411 2.817 2.823 0 1.411-1.409 2.822-2.817 2.822-1.409 0-2.817-1.411-2.817-2.822zM158.323 641.378c0-1.412 1.408-2.823 2.817-2.823 1.408 0 2.817 1.411 2.817 2.823 0 1.411-1.409 2.822-2.817 2.822-1.409 0-2.817-1.411-2.817-2.822zM158.323 604.677c0-1.411 1.408-2.823 2.817-2.823 1.408 0 2.817 1.412 2.817 2.823s-1.409 1.411-2.817 1.411c-1.409 0-2.817 0-2.817-1.411zM158.323 566.567c0-1.411 1.408-2.822 2.817-2.822 1.408 0 2.817 1.411 2.817 2.822 0 1.412-1.409 2.823-2.817 2.823-1.409 0-2.817-1.411-2.817-2.823zM158.323 528.45c0-1.411 1.408-2.822 2.817-2.822 1.408 0 2.817 1.411 2.817 2.822 0 1.412-1.409 2.823-2.817 2.823-1.409 0-2.817-1.411-2.817-2.823zM158.252 491.75c0-1.411 1.409-1.411 1.409-1.411 1.409 0 1.409 1.411 1.409 1.411 0 1.411-1.409 1.411-1.409 1.411l-1.409-1.411zM158.252 453.628c0-1.412 1.409-1.412 1.409-1.412 1.409 0 1.409 1.412 1.409 1.412 0 1.411-1.409 1.411-1.409 1.411s-1.409 0-1.409-1.411zM159.625 415.516c0-1.411 1.409-1.411 1.409-1.411 1.409 0 1.409 1.411 1.409 1.411 0 1.411-1.409 1.411-1.409 1.411-1.409 0-1.409 0-1.409-1.411zM159.625 377.402c0-1.412 1.409-1.412 1.409-1.412 1.409 0 1.409 1.412 1.409 1.412 0 1.411-1.409 2.822-1.409 2.822-1.409 0-1.409-1.411-1.409-2.822zM159.625 340.696c0-1.412 0-1.412 1.409-1.412s1.409 1.412 1.409 1.412c0 1.411 0 1.411-1.409 1.411s-1.409-1.411-1.409-1.411zM159.625 302.589c0-1.412 0-1.412 1.409-1.412s1.409 0 1.409 1.412c0 1.411 0 1.411-1.409 1.411s-1.409 0-1.409-1.411zM159.625 264.48s0-1.411 0 0c1.409-1.411 2.818 0 2.818 0 0 1.411-1.409 1.411-2.818 0 0 1.411 0 1.411 0 0zM159.625 227.761c0-1.412 0-1.412 0 0 1.409-1.412 2.818 0 2.818 0h-2.818zM159.625 189.641l1.409-1.411 1.409 1.411-1.409 1.412-1.409-1.412zM159.661 151.534h1.409v1.412l-1.409-1.412zM159.661 113.448h1.409v1.411l-1.409-1.411zM121.66 1434.68a1.409 1.409 0 1 1 2.819 0 1.409 1.409 0 1 1-2.819 0zM121.66 1396.58c0-1.42 1.409-1.42 1.409-1.42 1.41 0 1.41 1.42 1.41 1.42 0 1.41-1.41 1.41-1.41 1.41-1.409 0-1.409 0-1.409-1.41zM120.225 1358.46c0-1.41 1.408-2.83 2.817-2.83 1.409 0 2.817 1.42 2.817 2.83 0 1.41-1.408 2.82-2.817 2.82-1.409 0-2.817-1.41-2.817-2.82zM118.779 1320.34c0-2.82 1.408-4.23 4.226-4.23 2.817 0 4.225 2.82 4.225 4.23 0 2.82-1.408 4.24-4.225 4.24-2.818 0-4.226-1.42-4.226-4.24zM117.475 1283.63c0-2.82 2.817-5.64 5.635-5.64 2.817 0 5.634 2.82 5.634 5.64 0 2.83-2.817 5.65-5.634 5.65-2.818 0-5.635-2.82-5.635-5.65zM117.441 1245.53c0-2.83 2.818-5.65 5.635-5.65 2.817 0 7.043 1.41 7.043 5.65 0 2.82-2.817 5.64-5.634 5.64-2.818 0-7.044-2.82-7.044-5.64zM116.033 1207.4c0-4.23 2.817-7.06 7.043-7.06s7.043 2.83 7.043 7.06c0 4.24-2.817 7.06-7.043 7.06-2.817 0-7.043-2.82-7.043-7.06zM116.033 1169.3c0-3.9 3.153-7.06 7.043-7.06s7.043 3.16 7.043 7.06c0 3.89-3.153 7.05-7.043 7.05s-7.043-3.16-7.043-7.05zM116.033 1132.59c0-4.23 2.817-7.06 7.043-7.06s7.043 2.83 7.043 7.06c0 4.24-2.817 7.06-7.043 7.06-2.817 0-7.043-4.23-7.043-7.06zM116.033 1094.5c0-3.9 3.153-7.06 7.043-7.06s7.043 3.16 7.043 7.06c0 3.9-3.153 7.06-7.043 7.06s-7.043-3.16-7.043-7.06zM117.475 1056.36c0-2.82 2.817-5.65 5.635-5.65 2.817 0 5.634 2.83 5.634 5.65 0 2.82-2.817 5.65-5.634 5.65-2.818 1.41-5.635-1.42-5.635-5.65zM117.475 1019.68c0-2.82 2.817-5.64 5.635-5.64 2.817 0 5.634 1.41 5.634 5.64 0 2.83-2.817 5.65-5.634 5.65-2.818 0-5.635-2.82-5.635-5.65zM117.475 981.577c0-2.824 2.817-5.647 5.635-5.647 2.817 0 5.634 2.823 5.634 5.647 0 2.823-2.817 5.646-5.634 5.646-2.818 0-5.635-2.823-5.635-5.646zM118.884 943.449c0-2.823 2.817-5.646 5.634-5.646s4.226 2.823 4.226 5.646c0 2.824-2.817 5.647-5.634 5.647-2.818 0-4.226-2.823-4.226-5.647zM118.779 905.342c0-2.823 1.408-4.234 4.226-4.234 2.817 0 4.225 2.822 4.225 4.234 0 2.822-1.408 4.233-4.225 4.233-2.818 0-4.226-1.411-4.226-4.233zM118.779 868.633a4.23 4.23 0 0 1 4.226-4.233 4.23 4.23 0 0 1 4.225 4.233 4.23 4.23 0 0 1-4.225 4.234 4.23 4.23 0 0 1-4.226-4.234zM118.779 830.516c0-2.822 1.408-4.233 4.226-4.233 2.817 0 4.225 1.411 4.225 4.233 0 2.823-1.408 4.234-4.225 4.234-2.818 0-4.226-1.411-4.226-4.234zM118.779 792.399a4.23 4.23 0 0 1 4.226-4.233 4.23 4.23 0 0 1 4.225 4.233 4.23 4.23 0 0 1-4.225 4.234 4.23 4.23 0 0 1-4.226-4.234zM120.187 755.696c0-1.411 1.409-4.234 4.226-4.234s2.817 1.412 2.817 4.234c0 1.411-1.408 4.234-4.225 4.234-2.818 0-2.818-2.823-2.818-4.234zM120.187 717.587c0-1.412 1.409-2.823 2.818-2.823 1.408 0 4.225 1.411 4.225 2.823 0 1.411-1.408 2.822-2.817 2.822-1.408 0-4.226-1.411-4.226-2.822zM120.225 679.46a2.82 2.82 0 0 1 2.817-2.823 2.82 2.82 0 0 1 2.817 2.823 2.82 2.82 0 0 1-2.817 2.822 2.82 2.82 0 0 1-2.817-2.822zM120.225 641.379c0-1.412 1.408-2.823 2.817-2.823 1.409 0 2.817 1.411 2.817 2.823 0 1.411-1.408 2.822-2.817 2.822-1.409 1.411-2.817 0-2.817-2.822zM120.225 604.674a2.82 2.82 0 0 1 2.817-2.822 2.82 2.82 0 0 1 2.817 2.822 2.82 2.82 0 0 1-2.817 2.823 2.82 2.82 0 0 1-2.817-2.823zM120.225 566.567a2.82 2.82 0 0 1 2.817-2.822 2.82 2.82 0 0 1 2.817 2.822 2.82 2.82 0 0 1-2.817 2.823 2.82 2.82 0 0 1-2.817-2.823zM120.225 528.45a2.82 2.82 0 0 1 2.817-2.822 2.82 2.82 0 0 1 2.817 2.822 2.82 2.82 0 0 1-2.817 2.823 2.82 2.82 0 0 1-2.817-2.823zM120.225 491.75c0-1.411 1.408-2.823 2.817-2.823 1.409 0 2.817 1.412 2.817 2.823s-1.408 1.411-2.817 1.411c-1.409 0-2.817 0-2.817-1.411zM121.633 453.635c0-1.411 1.409-2.822 2.818-2.822 1.408 0 1.408 1.411 1.408 2.822 0 1.412-1.408 2.823-2.817 2.823-1.409 0-1.409-1.411-1.409-2.823zM121.633 415.513c0-1.411 1.409-2.822 2.818-2.822 1.408 0 1.408 1.411 1.408 2.822s-1.408 2.823-2.817 2.823c-1.409 0-1.409-1.412-1.409-2.823zM121.66 377.399a1.41 1.41 0 1 1 2.82-.001 1.41 1.41 0 0 1-2.82.001zM121.66 340.696c0-1.412 1.409-1.412 1.409-1.412s1.41 0 1.41 1.412c0 1.411-1.41 1.411-1.41 1.411l-1.409-1.411zM121.66 302.589a1.41 1.41 0 1 1 2.821-.003 1.41 1.41 0 0 1-2.821.003zM121.66 264.462c0-1.412 0-1.412 1.409-1.412 1.41 0 1.41 1.412 1.41 1.412 0 1.411-1.41 1.411-1.41 1.411s-1.409 0-1.409-1.411zM121.66 227.788c0-1.411 1.409-1.411 0 0 1.409-1.411 2.819-1.411 2.819 0 0 0 0 1.411-2.819 0 0 0 1.409 1.411 0 0zM121.66 189.666c0-1.411 1.409-1.411 0 0 1.409-1.411 2.819 0 2.819 0s0 1.411-2.819 0c0 0 1.409 1.411 0 0zM121.66 151.534h2.819l-1.41 1.412-1.409-1.412zM121.66 113.448a1.41 1.41 0 1 1 2.819 0 1.41 1.41 0 1 1-2.819 0zM123.069 76.742V75.33l1.41 1.412h-1.41zM84.962 1471.39h1.41l-1.41 1.41v-1.41zM85.066 1434.69c0-1.42 0-1.42 0 0 1.41-1.42 2.819 0 2.819 0h-2.819zM82.25 1396.57a2.817 2.817 0 1 1 5.635 0 2.817 2.817 0 1 1-5.635 0zM82.189 1358.46c0-1.41 1.409-4.23 4.226-4.23 1.408 0 4.226 1.41 4.226 4.23 0 2.82-2.818 4.23-5.635 4.23-1.409 0-2.817-1.41-2.817-4.23zM80.78 1320.35c0-2.82 2.817-4.23 4.226-4.23 2.817 0 5.635 2.82 5.635 4.23 0 .15-.008.29-.022.42-.51 4.87-9.839 4.47-9.839-.42zM79.371 1283.63c0-2.82 2.818-5.64 5.635-5.64 2.817 0 5.635 2.82 5.635 5.64 0 2.83-2.818 5.65-5.635 5.65-2.817 0-5.635-2.82-5.635-5.65zM77.921 1245.52c0-4.23 2.818-7.05 7.044-7.05 4.225 0 7.043 2.82 7.043 7.05 0 4.24-2.817 7.06-7.043 7.06-2.818 0-7.044-2.82-7.044-7.06zM77.997 1207.41c0-4.23 2.817-8.47 8.451-8.47 4.227 0 8.452 2.82 8.452 8.47 0 4.23-4.226 8.47-8.452 8.47-5.634 0-8.451-4.24-8.451-8.47zM78.03 1169.29c0-4.23 4.226-8.47 8.452-8.47s7.043 4.24 7.043 8.47c0 4.24-2.817 8.47-8.452 8.47-5.634 0-7.043-2.82-7.043-8.47zM77.997 1132.59c0-4.23 2.817-8.47 8.451-8.47 4.227 0 8.452 2.82 8.452 8.47 0 4.23-4.226 8.47-8.452 8.47-5.634-1.41-8.451-4.24-8.451-8.47zM77.921 1094.5c0-4.23 2.818-7.06 7.044-7.06 4.225 0 7.043 2.83 7.043 7.06 0 4.24-2.817 7.06-7.043 7.06s-7.044-2.82-7.044-7.06zM77.921 1056.39c0-4.24 2.818-7.06 7.044-7.06 4.225 0 7.043 2.82 7.043 7.06 0 4.23-2.817 7.06-7.043 7.06-2.818 0-7.044-2.83-7.044-7.06zM79.439 1019.69c0-4.23 2.817-7.06 7.043-7.06s7.043 2.83 7.043 7.06c0 4.24-2.817 7.06-7.043 7.06-4.226-1.41-7.043-4.24-7.043-7.06zM79.371 981.577c0-2.824 2.818-5.647 5.635-5.647 2.817 0 5.635 2.823 5.635 5.647 0 2.823-2.818 5.646-5.635 5.646-2.817 0-5.635-2.823-5.635-5.646zM79.371 943.449c0-2.823 2.818-5.646 5.635-5.646 2.817 0 5.635 2.823 5.635 5.646 0 2.824-1.409 5.647-5.635 5.647-2.817 0-5.635-2.823-5.635-5.647zM79.371 905.337c0-2.823 2.818-5.646 5.635-5.646 2.817 0 5.635 2.823 5.635 5.646 0 2.824-1.409 5.647-5.635 5.647-2.817 0-5.635-1.412-5.635-5.647zM80.739 868.634c0-2.823 2.817-5.646 5.634-5.646s5.635 2.823 5.635 5.646-2.817 5.647-5.635 5.647c-4.226-1.412-5.634-2.824-5.634-5.647zM80.78 830.526c0-2.823 2.817-4.234 4.226-4.234 2.817 0 5.635 2.822 5.635 4.234 0 2.822-2.818 4.233-5.635 4.233-2.817 1.411-4.226-1.411-4.226-4.233zM80.812 792.404c0-2.823 1.409-4.234 4.226-4.234s4.226 1.411 4.226 4.234c0 2.822-1.409 4.233-4.226 4.233-1.409 1.412-4.226-1.411-4.226-4.233zM80.812 755.696c0-2.822 1.409-4.234 4.226-4.234s4.226 1.412 4.226 4.234c0 2.823-1.409 4.234-4.226 4.234-1.409 0-4.226-2.823-4.226-4.234zM82.189 717.584c0-2.822 1.408-4.233 4.226-4.233 2.817 0 4.226 1.411 4.226 4.233 0 2.823-1.409 4.234-4.226 4.234-2.818 0-4.226-1.411-4.226-4.234zM82.189 679.472c0-2.822 1.408-4.233 4.226-4.233 2.817 0 4.226 1.411 4.226 4.233 0 2.823-2.818 4.234-5.635 4.234-1.409 0-2.817-1.411-2.817-4.234zM82.189 641.35c0-1.411 1.408-4.233 4.226-4.233 1.408 0 4.226 1.411 4.226 4.233 0 1.412-1.409 4.234-4.226 4.234-2.818 0-4.226-1.411-4.226-4.234zM82.189 604.692c0-1.411 1.408-4.234 4.226-4.234 1.408 0 4.226 1.412 4.226 4.234 0 1.411-1.409 4.234-4.226 4.234-2.818-1.412-4.226-2.823-4.226-4.234zM82.25 566.567c0-1.411 1.409-2.822 2.817-2.822 1.41 0 2.818 1.411 2.818 2.822 0 1.412-1.409 2.823-2.818 2.823-1.408 0-2.817-1.411-2.817-2.823zM82.25 528.451c0-1.411 1.409-2.822 2.817-2.822 1.41 0 2.818 1.411 2.818 2.822 0 1.412-1.409 2.823-2.818 2.823-1.408 1.411-2.817 0-2.817-2.823zM82.25 491.752c0-1.411 1.409-2.822 2.817-2.822 1.41 0 2.818 1.411 2.818 2.822 0 1.412-1.409 2.823-2.818 2.823-1.408 0-2.817-1.411-2.817-2.823zM82.25 453.635c0-1.411 1.409-2.822 2.817-2.822 1.41 0 2.818 1.411 2.818 2.822 0 1.412-1.409 2.823-2.818 2.823-1.408 0-2.817-1.411-2.817-2.823zM83.63 415.513c0-1.411 1.408-2.822 2.816-2.822 1.409 0 2.818 1.411 2.818 2.822s-1.409 2.823-2.818 2.823c-2.817 0-2.817-1.412-2.817-2.823zM83.63 377.402c0-1.412 1.408-2.823 2.816-2.823 1.409 0 2.818 1.411 2.818 2.823 0 1.411-2.818 2.822-4.226 2.822-1.409 0-1.409-1.411-1.409-2.822zM83.63 340.698c0-1.411 1.408-2.822 2.816-2.822 1.409 0 2.818 1.411 2.818 2.822s-1.409 2.823-2.818 2.823c-1.408-1.412-2.817-1.412-2.817-2.823zM83.553 302.589c0-1.412 1.409-1.412 1.409-1.412 1.41 0 1.41 1.412 1.41 1.412 0 1.411-1.41 1.411-1.41 1.411s-1.41 0-1.41-1.411zM83.656 264.459c0-1.411 1.41-1.411 1.41-1.411 1.409 0 1.409 1.411 1.409 1.411 1.41 1.412 0 2.823-1.41 2.823 0 0-1.409-1.411-1.409-2.823zM83.552 227.763c0-1.411 1.41-1.411 1.41-1.411 1.41 0 1.41 0 1.41 1.411 0 1.412 0 1.412-1.41 1.412l-1.41-1.412zM83.553 189.666c0-1.411 1.409-1.411 0 0 1.409-1.411 2.818-1.411 2.818 0 0 0 0 1.411-2.818 0 0 0 1.409 1.411 0 0zM85.066 151.533s0-1.412 0 0c1.41-1.412 2.819 0 2.819 0-1.41 1.411-1.41 1.411-2.819 0 0 1.411 0 1.411 0 0zM84.962 113.448h1.41l-1.41 1.411v-1.411zM84.962 76.742V75.33l1.41 1.412h-1.41zM46.997 1471.39h1.41v1.41l-1.41-1.41zM46.959 1434.69c0-1.42 0-1.42 0 0 1.41-1.42 2.818-1.42 2.818 0H46.96zM45.524 1396.57c0-1.41 1.408-2.82 2.817-2.82 1.409 0 2.817 1.41 2.817 2.82s-1.408 2.82-2.817 2.82c-1.409 0-2.817-1.41-2.817-2.82zM44.22 1358.46c0-2.82 1.409-4.23 4.226-4.23s4.226 1.41 4.226 4.23c0 2.82-1.409 4.23-4.226 4.23s-4.226-1.41-4.226-4.23zM42.784 1320.34c0-3.12 2.522-5.65 5.634-5.65 3.112 0 5.635 2.53 5.635 5.65a5.634 5.634 0 1 1-11.27 0zM41.328 1283.63c0-4.23 2.817-7.06 7.043-7.06s7.043 2.83 7.043 7.06c0 4.24-2.817 7.06-7.043 7.06s-7.043-4.23-7.043-7.06zM39.891 1245.52c0-4.23 4.226-8.47 8.452-8.47s8.452 4.24 8.452 8.47c0 4.24-4.226 8.47-8.452 8.47s-8.452-4.23-8.452-8.47zM38.51 1207.41c0-4.23 4.226-8.47 8.452-8.47s8.452 4.24 8.452 8.47-4.226 8.47-8.452 8.47-8.452-2.82-8.452-8.47zM38.51 1169.3c0-5.65 4.226-8.47 8.452-8.47 5.635 0 8.452 4.23 8.452 8.47 0 3.39-1.527 5.77-3.663 7.12-2.82 1.79-6.833 2.49-9.589.6-2.13-1.45-3.652-4.33-3.652-7.72zM38.51 1132.59c0-4.23 4.226-8.47 8.452-8.47s8.452 4.24 8.452 8.47-4.226 8.47-8.452 8.47-8.452-4.24-8.452-8.47zM39.891 1094.51c0-4.23 2.818-8.47 8.452-8.47 4.226 0 8.452 4.24 8.452 8.47 0 4.24-4.226 8.47-8.452 8.47-5.635 0-8.452-4.23-8.452-8.47zM39.891 1056.39c0-4.24 4.226-8.47 8.452-8.47s8.452 4.23 8.452 8.47c0 4.23-4.226 8.47-8.452 8.47s-8.452-2.83-8.452-8.47zM41.328 1019.69c0-3.9 3.153-7.06 7.043-7.06s7.043 3.16 7.043 7.06c0 3.9-3.153 7.06-7.043 7.06s-7.043-3.16-7.043-7.06zM41.328 981.569c0-4.235 2.817-7.058 7.043-7.058s7.043 2.823 7.043 7.058c0 4.234-2.817 7.058-7.043 7.058s-7.043-2.824-7.043-7.058zM41.328 943.462c0-4.235 2.817-7.058 7.043-7.058s7.043 2.823 7.043 7.058c0 4.235-2.817 7.058-7.043 7.058s-7.043-2.823-7.043-7.058zM41.328 905.34c0-3.898 3.153-7.058 7.043-7.058s7.043 3.16 7.043 7.058c0 3.898-3.153 7.058-7.043 7.058s-7.043-3.16-7.043-7.058zM41.403 868.634c0-2.823 2.817-5.646 5.634-5.646 2.818 0 5.635 2.823 5.635 5.646s-2.817 5.647-5.635 5.647c-2.817 0-5.634-2.824-5.634-5.647zM42.784 830.522c0-2.823 2.817-5.646 5.634-5.646 2.818 0 5.635 2.823 5.635 5.646 0 2.824-2.817 5.647-5.635 5.647-4.226 0-5.634-2.823-5.634-5.647zM42.784 792.4c0-2.823 2.817-5.646 5.634-5.646 2.818 0 5.635 2.823 5.635 5.646 0 2.824-2.817 5.647-5.635 5.647-2.817 0-5.634-2.823-5.634-5.647zM42.784 755.697c0-2.823 2.817-5.646 5.634-5.646 2.818 0 5.635 2.823 5.635 5.646s-2.817 5.647-5.635 5.647c-2.817-1.412-5.634-2.824-5.634-5.647zM42.706 717.584c0-2.822 1.409-4.233 4.226-4.233 2.818 0 4.226 1.411 4.226 4.233 0 2.823-1.408 4.234-4.226 4.234-1.408 0-4.226-1.411-4.226-4.234zM44.22 679.472c0-2.822 1.409-4.233 4.226-4.233s4.226 1.411 4.226 4.233c0 2.823-2.817 4.234-4.226 4.234-2.817 0-4.226-1.411-4.226-4.234zM44.22 641.35c0-2.823 1.409-4.234 4.226-4.234s4.226 1.411 4.226 4.234c0 2.822-1.409 4.233-4.226 4.233-2.817 1.411-4.226-1.411-4.226-4.233zM44.22 604.692a4.23 4.23 0 0 1 4.226-4.234 4.23 4.23 0 0 1 4.226 4.234 4.23 4.23 0 0 1-4.226 4.234 4.23 4.23 0 0 1-4.226-4.234zM44.22 566.565c0-2.822 1.409-4.234 4.226-4.234s4.226 1.412 4.226 4.234c0 2.823-1.409 4.234-4.226 4.234s-4.226-1.411-4.226-4.234zM44.22 528.453c0-1.411 1.409-4.234 4.226-4.234 1.409 0 4.226 1.412 4.226 4.234 0 1.411-1.409 4.234-4.226 4.234s-4.226-1.411-4.226-4.234zM44.22 491.745c0-1.411 1.409-4.234 4.226-4.234 1.409 0 4.226 1.411 4.226 4.234 0 1.411-1.409 4.233-4.226 4.233-2.817-1.411-4.226-2.822-4.226-4.233zM44.143 453.635c0-1.411 1.408-2.822 2.817-2.822 1.409 0 2.817 1.411 2.817 2.822 0 1.412 0 2.823-1.408 2.823-2.818 0-4.226-1.411-4.226-2.823zM45.524 415.513a2.82 2.82 0 0 1 2.817-2.822 2.82 2.82 0 0 1 2.817 2.822 2.82 2.82 0 0 1-2.817 2.823 2.82 2.82 0 0 1-2.817-2.823zM45.524 377.402a2.82 2.82 0 0 1 2.817-2.823 2.82 2.82 0 0 1 2.817 2.823 2.82 2.82 0 0 1-2.817 2.822 2.82 2.82 0 0 1-2.817-2.822zM45.524 340.698c0-1.411 1.408-2.822 2.817-2.822 1.409 0 2.817 1.411 2.817 2.822s-1.408 2.823-2.817 2.823c-1.409 0-2.817-1.412-2.817-2.823zM45.524 302.581a2.82 2.82 0 0 1 2.817-2.822 2.82 2.82 0 0 1 2.817 2.822 2.82 2.82 0 0 1-2.817 2.823 2.82 2.82 0 0 1-2.817-2.823zM45.588 264.472c0-1.411 1.409-1.411 1.409-1.411 1.41 0 1.41 1.411 1.41 1.411 0 1.411-1.41 1.411-1.41 1.411 0 1.411-1.41 0-1.41-1.411zM46.959 227.763a1.41 1.41 0 1 1 1.41 1.412 1.41 1.41 0 0 1-1.41-1.412zM46.959 189.641a1.41 1.41 0 1 1 1.41 1.412 1.41 1.41 0 0 1-1.41-1.412zM46.959 151.533s0-1.412 0 0c1.41-1.412 2.818-1.412 2.818 0 0 1.411-1.409 1.411-2.818 0 0 1.411 0 1.411 0 0zM46.959 113.448a1.41 1.41 0 1 1 2.818 0 1.41 1.41 0 1 1-2.818 0zM46.997 76.742l1.41-1.412v1.412h-1.41zM9 1434.68a1.409 1.409 0 1 1 2.818 0 1.409 1.409 0 1 1-2.818 0zM7.559 1396.57c0-1.41 1.408-2.82 2.817-2.82 1.409 0 2.817 1.41 2.817 2.82s-1.408 2.82-2.817 2.82c-1.409 0-2.817-1.41-2.817-2.82zM6.113 1358.46c0-2.82 1.408-4.23 4.225-4.23 2.818 0 4.227 1.41 4.227 4.23 0 2.82-1.41 4.23-4.226 4.23-2.818 0-4.226-1.41-4.226-4.23zM3.373 1320.34c0-3.9 3.153-7.06 7.043-7.06s7.043 3.16 7.043 7.06c0 3.9-3.153 7.06-7.043 7.06s-7.043-3.16-7.043-7.06zM1.917 1283.64c0-4.23 4.226-8.47 8.451-8.47 4.226 0 8.452 4.24 8.452 8.47 0 1.78-.74 3.55-1.911 5.01-3.164 3.95-9.611 3.32-13.05-.4-1.188-1.28-1.942-2.82-1.942-4.61zM.48 1245.52c0-5.65 4.226-9.88 9.86-9.88 5.635 0 9.861 4.23 9.861 9.88s-4.226 9.88-9.86 9.88c-5.635 0-9.86-4.23-9.86-9.88zM.48 1207.41c0-5.65 4.226-9.88 9.86-9.88 5.635 0 9.861 4.23 9.861 9.88 0 5.64-4.226 9.88-9.86 9.88-5.635 0-9.86-4.24-9.86-9.88zM.48 1169.32c0-5.65 4.226-9.88 9.86-9.88 5.635 0 9.861 4.23 9.861 9.88s-4.226 9.88-9.86 9.88c-5.635 1.41-9.86-4.23-9.86-9.88zM.48 1132.59c0-5.64 4.226-9.88 9.86-9.88 5.635 0 9.861 4.24 9.861 9.88 0 5.65-4.226 9.88-9.86 9.88-5.635 0-9.86-4.23-9.86-9.88zM.48 1094.48c0-5.65 4.226-9.89 9.86-9.89 5.635 0 9.861 4.24 9.861 9.89 0 5.64-4.226 9.88-9.86 9.88-5.635 0-9.86-4.24-9.86-9.88zM1.917 1056.39c0-5.64 4.226-8.47 8.451-8.47 5.635 0 8.452 4.24 8.452 8.47 0 4.24-2.817 9.88-8.452 9.88-5.634 0-8.451-4.23-8.451-9.88zM1.917 1019.69c0-4.24 4.226-8.47 8.451-8.47 4.226 0 8.452 4.23 8.452 8.47 0 4.23-4.226 8.47-8.452 8.47-4.225 0-8.451-4.24-8.451-8.47zM1.917 981.571c0-4.235 4.226-8.47 8.451-8.47 4.226 0 8.452 4.235 8.452 8.47s-4.226 8.469-8.452 8.469c-4.225 0-8.451-4.234-8.451-8.469zM3.373 943.46c0-4.235 2.817-7.058 7.043-7.058s7.043 2.823 7.043 7.058c0 4.234-2.817 7.058-7.043 7.058-4.226 1.411-7.043-2.824-7.043-7.058zM3.373 905.342c0-4.235 2.817-7.058 7.043-7.058s7.043 2.823 7.043 7.058c0 4.235-2.817 8.469-7.043 8.469s-7.043-4.234-7.043-8.469zM3.373 868.637c0-4.235 2.817-7.059 7.043-7.059s7.043 2.824 7.043 7.059c0 4.234-2.817 7.058-7.043 7.058s-7.043-4.235-7.043-7.058zM3.373 830.515c0-4.235 2.817-7.058 7.043-7.058s7.043 2.823 7.043 7.058c0 4.234-2.817 7.058-7.043 7.058s-7.043-2.824-7.043-7.058zM4.666 792.413c0-2.823 2.818-5.646 5.635-5.646 2.817 0 5.634 2.823 5.634 5.646s-2.817 5.646-5.634 5.646c-2.817 1.412-5.635-1.411-5.635-5.646zM4.666 755.697c0-2.823 2.818-5.646 5.635-5.646 2.817 0 5.634 2.823 5.634 5.646s-2.817 5.647-5.634 5.647-5.635-2.824-5.635-5.647zM4.666 717.58c0-2.823 2.818-5.646 5.635-5.646 2.817 0 5.634 2.823 5.634 5.646s-2.817 5.647-5.634 5.647-5.635-2.824-5.635-5.647zM4.667 679.468c0-2.823 2.817-5.646 5.634-5.646s5.634 2.823 5.634 5.646-2.817 5.647-5.634 5.647-5.635-2.824-5.635-5.647zM6.113 641.35c0-2.823 2.817-4.234 4.225-4.234 2.818 0 4.227 2.822 4.227 4.234 0 2.822-2.818 4.233-4.226 4.233-2.818 1.411-4.226-1.411-4.226-4.233zM6.113 604.692c0-2.822 1.408-4.234 4.225-4.234 2.818 0 4.227 1.412 4.227 4.234s-1.41 4.234-4.226 4.234c-2.818 0-4.226-1.412-4.226-4.234zM6.113 566.565c0-2.822 1.408-4.234 4.225-4.234 2.818 0 4.227 1.412 4.227 4.234 0 2.823-1.41 4.234-4.226 4.234-2.818 0-4.226-1.411-4.226-4.234zM6.113 528.453c0-2.822 1.408-4.234 4.225-4.234 2.818 0 4.227 1.412 4.227 4.234 0 2.823-1.41 4.234-4.226 4.234-2.818 0-4.226-1.411-4.226-4.234zM6.113 491.745c0-2.823 1.408-4.234 4.225-4.234 2.818 0 4.227 1.411 4.227 4.234 0 2.822-1.41 4.233-4.226 4.233-2.818-1.411-4.226-2.822-4.226-4.233zM6.113 453.638c0-1.411 1.408-4.234 4.225-4.234 1.41 0 4.227 1.411 4.227 4.234 0 1.411-1.41 4.233-4.226 4.233-1.41-1.411-4.226-2.822-4.226-4.233zM7.559 415.513c0-1.411 1.408-2.822 2.817-2.822 1.409 0 2.817 1.411 2.817 2.822s-1.408 2.823-2.817 2.823c-1.409 0-2.817 0-2.817-2.823zM7.559 377.399c0-1.411 1.408-2.822 2.817-2.822 1.409 0 2.817 1.411 2.817 2.822s-1.408 4.234-2.817 4.234c-1.409 0-2.817-1.412-2.817-4.234zM7.559 340.698a2.82 2.82 0 0 1 2.817-2.822 2.82 2.82 0 0 1 2.817 2.822 2.82 2.82 0 0 1-2.817 2.823 2.82 2.82 0 0 1-2.817-2.823zM7.559 302.581c0-1.411 1.408-2.822 2.817-2.822 1.409 0 2.817 1.411 2.817 2.822s-1.408 2.823-2.817 2.823c-1.409 0-2.817-1.412-2.817-2.823zM7.559 264.459c0-1.411 1.408-2.822 2.817-2.822 1.409 0 2.817 1.411 2.817 2.822 0 1.412-1.408 2.823-2.817 2.823-1.409 0-2.817-1.411-2.817-2.823zM8.998 227.763c0-1.411 1.41-1.411 1.41-1.411 1.408 0 1.408 1.411 1.408 1.411 0 1.412-1.409 1.412-1.409 1.412-1.41 0-1.41-1.412-1.41-1.412zM8.998 189.641c0-1.411 1.41-1.411 1.41-1.411 1.408 0 1.408 1.411 1.408 1.411 0 1.412-1.409 1.412-1.409 1.412-1.41 0-1.41 0-1.41-1.412zM8.998 151.533s0-1.412 0 0c2.818-1.412 2.818-1.412 2.818 0 0 1.411 0 1.411-2.818 0 0 1.411 0 1.411 0 0zM8.998 113.448H11.816l-1.409 1.411-1.41-1.411z"/></g><defs><clipPath id="a"><path fill="#fff" transform="matrix(0 -1 -1 0 424.5 1509.5)" d="M0 0h1509v424H0z"/></clipPath></defs></svg>