<svg width="789" height="218" viewBox="0 0 789 218" fill="none" xmlns="http://www.w3.org/2000/svg">
<path d="M337.89 67.4488C339.179 67.4488 340.224 66.3904 340.224 65.0848C340.224 63.7793 339.179 62.7209 337.89 62.7209C336.601 62.7209 335.556 63.7793 335.556 65.0848C335.556 66.3904 336.601 67.4488 337.89 67.4488Z" fill="black"/>
<path d="M225.862 66.2764C225.084 66.2764 224.695 65.8824 224.695 65.0944C224.695 64.3065 225.084 63.9125 225.862 63.9125C226.64 63.9125 227.029 64.3065 227.029 65.0944C227.029 65.8824 226.64 66.2764 225.862 66.2764Z" fill="black"/>
<path d="M188.52 65.8748C188.95 65.8748 189.298 65.522 189.298 65.0868C189.298 64.6517 188.95 64.2989 188.52 64.2989C188.09 64.2989 187.742 64.6517 187.742 65.0868C187.742 65.522 188.09 65.8748 188.52 65.8748Z" fill="black"/>
<path d="M412.325 141.437C412.755 141.437 413.103 141.084 413.103 140.649C413.103 140.214 412.755 139.861 412.325 139.861C411.895 139.861 411.547 140.214 411.547 140.649C411.547 141.084 411.895 141.437 412.325 141.437Z" fill="black"/>
<path d="M393.653 141.838C394.298 141.838 394.82 141.309 394.82 140.656C394.82 140.004 394.298 139.474 393.653 139.474C393.009 139.474 392.486 140.004 392.486 140.656C392.486 141.309 393.009 141.838 393.653 141.838Z" fill="black"/>
<path d="M374.982 142.627C376.056 142.627 376.927 141.745 376.927 140.657C376.927 139.569 376.056 138.687 374.982 138.687C373.908 138.687 373.037 139.569 373.037 140.657C373.037 141.745 373.908 142.627 374.982 142.627Z" fill="black"/>
<path d="M356.311 142.627C357.385 142.627 358.256 141.745 358.256 140.657C358.256 139.569 357.385 138.687 356.311 138.687C355.237 138.687 354.366 139.569 354.366 140.657C354.366 141.745 355.237 142.627 356.311 142.627Z" fill="black"/>
<path d="M337.64 142.226C338.499 142.226 339.196 141.52 339.196 140.65C339.196 139.779 338.499 139.074 337.64 139.074C336.78 139.074 336.084 139.779 336.084 140.65C336.084 141.52 336.78 142.226 337.64 142.226Z" fill="black"/>
<path d="M318.968 142.627C320.042 142.627 320.913 141.745 320.913 140.657C320.913 139.569 320.042 138.687 318.968 138.687C317.894 138.687 317.023 139.569 317.023 140.657C317.023 141.745 317.894 142.627 318.968 142.627Z" fill="black"/>
<path d="M300.297 142.627C301.371 142.627 302.242 141.745 302.242 140.657C302.242 139.569 301.371 138.687 300.297 138.687C299.223 138.687 298.352 139.569 298.352 140.657C298.352 141.745 299.223 142.627 300.297 142.627Z" fill="black"/>
<path d="M281.626 143.011C282.915 143.011 283.959 141.952 283.959 140.647C283.959 139.341 282.915 138.283 281.626 138.283C280.337 138.283 279.292 139.341 279.292 140.647C279.292 141.952 280.337 143.011 281.626 143.011Z" fill="black"/>
<path d="M262.954 141.437C263.384 141.437 263.732 141.084 263.732 140.649C263.732 140.214 263.384 139.861 262.954 139.861C262.525 139.861 262.176 140.214 262.176 140.649C262.176 141.084 262.525 141.437 262.954 141.437Z" fill="black"/>
<path d="M244.283 141.838C244.928 141.838 245.45 141.309 245.45 140.656C245.45 140.004 244.928 139.474 244.283 139.474C243.639 139.474 243.116 140.004 243.116 140.656C243.116 141.309 243.639 141.838 244.283 141.838Z" fill="black"/>
<path d="M786.666 11.0221C787.955 11.0221 789 9.96372 789 8.65815C789 7.35259 787.955 6.29422 786.666 6.29422C785.377 6.29422 784.332 7.35259 784.332 8.65815C784.332 9.96372 785.377 11.0221 786.666 11.0221Z" fill="black"/>
<path d="M767.994 9.84973C768.639 9.84973 769.161 9.32055 769.161 8.66777C769.161 8.015 768.639 7.48582 767.994 7.48582C767.35 7.48582 766.827 8.015 766.827 8.66777C766.827 9.32055 767.35 9.84973 767.994 9.84973Z" fill="black"/>
<path d="M749.323 10.6385C748.156 10.6385 747.378 9.85054 747.378 8.66858C747.378 7.48661 748.156 6.69864 749.323 6.69864C750.49 6.69864 751.268 7.48661 751.268 8.66858C751.268 9.85054 750.49 10.6385 749.323 10.6385Z" fill="black"/>
<path d="M730.652 10.2369C731.511 10.2369 732.208 9.53137 732.208 8.66099C732.208 7.79062 731.511 7.08505 730.652 7.08505C729.792 7.08505 729.096 7.79062 729.096 8.66099C729.096 9.53137 729.792 10.2369 730.652 10.2369Z" fill="black"/>
<path d="M711.98 9.84972C712.625 9.84972 713.147 9.32054 713.147 8.66776C713.147 8.01498 712.625 7.4858 711.98 7.4858C711.336 7.4858 710.813 8.01498 710.813 8.66776C710.813 9.32054 711.336 9.84972 711.98 9.84972Z" fill="black"/>
<path d="M693.309 10.6385C692.142 10.6385 691.364 9.85053 691.364 8.66856C691.364 7.4866 692.142 6.69862 693.309 6.69862C694.476 6.69862 695.254 7.4866 695.254 8.66856C695.254 9.85053 694.476 10.6385 693.309 10.6385Z" fill="black"/>
<path d="M674.638 10.2369C675.497 10.2369 676.194 9.53135 676.194 8.66098C676.194 7.79061 675.497 7.08503 674.638 7.08503C673.779 7.08503 673.082 7.79061 673.082 8.66098C673.082 9.53135 673.779 10.2369 674.638 10.2369Z" fill="black"/>
<path d="M655.967 12.5996C653.633 12.5996 652.077 11.0237 652.077 8.65974C652.077 6.29581 653.633 4.71985 655.967 4.71985C658.301 4.71985 659.857 6.29581 659.857 8.65974C659.857 11.0237 658.301 12.5996 655.967 12.5996Z" fill="black"/>
<path d="M637.296 11.4236C635.74 11.4236 634.573 10.2417 634.573 8.6657C634.573 7.08974 635.74 5.90777 637.296 5.90777C638.852 5.90777 640.019 7.08975 640.019 8.6657C640.019 10.2417 638.852 11.4236 637.296 11.4236Z" fill="black"/>
<path d="M618.624 14.5751C621.847 14.5751 624.459 11.9292 624.459 8.66526C624.459 5.40135 621.847 2.75541 618.624 2.75541C615.402 2.75541 612.79 5.40135 612.79 8.66526C612.79 11.9292 615.402 14.5751 618.624 14.5751Z" fill="black"/>
<path d="M599.953 14.1735C602.961 14.1735 605.399 11.704 605.399 8.65767C605.399 5.61136 602.961 3.14183 599.953 3.14183C596.945 3.14183 594.507 5.61136 594.507 8.65767C594.507 11.704 596.945 14.1735 599.953 14.1735Z" fill="black"/>
<path d="M581.281 12.5988C579.336 12.5988 577.781 11.0228 577.781 9.0529C577.781 7.08295 579.336 5.507 581.281 5.507C583.226 5.507 584.782 7.08296 584.782 9.0529C584.782 11.0228 583.226 12.5988 581.281 12.5988Z" fill="black"/>
<path d="M562.611 14.5751C565.833 14.5751 568.445 11.9292 568.445 8.66525C568.445 5.40134 565.833 2.75539 562.611 2.75539C559.388 2.75539 556.776 5.40133 556.776 8.66524C556.776 11.9292 559.388 14.5751 562.611 14.5751Z" fill="black"/>
<path d="M543.939 15.3602C547.591 15.3602 550.552 12.3615 550.552 8.66236C550.552 4.96327 547.591 1.96456 543.939 1.96456C540.287 1.96456 537.327 4.96326 537.327 8.66236C537.327 12.3615 540.287 15.3602 543.939 15.3602Z" fill="black"/>
<path d="M525.268 14.5751C528.49 14.5751 531.102 11.9291 531.102 8.66524C531.102 5.40133 528.49 2.75538 525.268 2.75538C522.045 2.75538 519.433 5.40132 519.433 8.66523C519.433 11.9291 522.045 14.5751 525.268 14.5751Z" fill="black"/>
<path d="M506.596 14.575C509.819 14.5751 512.431 11.9291 512.431 8.66523C512.431 5.40132 509.819 2.75538 506.596 2.75538C503.374 2.75538 500.762 5.40132 500.762 8.66523C500.762 11.9291 503.374 14.575 506.596 14.575Z" fill="black"/>
<path d="M487.925 16.5362C483.646 16.5362 480.146 12.9903 480.146 8.65638C480.146 4.32251 483.646 0.776621 487.925 0.776622C492.204 0.776623 495.705 4.32252 495.705 8.65639C495.705 12.9903 492.204 16.5362 487.925 16.5362Z" fill="black"/>
<path d="M469.254 15.7474C473.121 15.7474 476.256 12.5723 476.256 8.65557C476.256 4.73888 473.121 1.56378 469.254 1.56378C465.387 1.56378 462.253 4.73888 462.253 8.65557C462.253 12.5723 465.387 15.7474 469.254 15.7474Z" fill="black"/>
<path d="M450.583 16.5361C454.88 16.5361 458.363 13.0083 458.363 8.65638C458.363 4.3045 454.88 0.776613 450.583 0.776612C446.286 0.776611 442.803 4.3045 442.803 8.65637C442.803 13.0082 446.286 16.5361 450.583 16.5361Z" fill="black"/>
<path d="M431.912 17.3356C436.638 17.3356 440.469 13.4549 440.469 8.66786C440.469 3.88079 436.638 0.000114516 431.912 0.000113277C427.185 0.000112037 423.354 3.88079 423.354 8.66785C423.354 13.4549 427.185 17.3356 431.912 17.3356Z" fill="black"/>
<path d="M413.24 17.3356C417.966 17.3356 421.798 13.4549 421.798 8.66785C421.798 3.88079 417.966 0.000109619 413.24 0.00010838C408.514 0.00010714 404.682 3.88078 404.682 8.66785C404.682 13.4549 408.514 17.3356 413.24 17.3356Z" fill="black"/>
<path d="M394.569 16.1489C398.651 16.1489 401.96 12.7974 401.96 8.66314C401.96 4.52885 398.651 1.17735 394.569 1.17735C390.487 1.17735 387.178 4.52885 387.178 8.66314C387.178 12.7974 390.487 16.1489 394.569 16.1489Z" fill="black"/>
<path d="M375.897 15.3601C379.549 15.3601 382.51 12.3614 382.51 8.66232C382.51 4.96322 379.549 1.96452 375.897 1.96452C372.245 1.96452 369.285 4.96322 369.285 8.66231C369.285 12.3614 372.245 15.3601 375.897 15.3601Z" fill="black"/>
<path d="M357.226 15.7473C361.093 15.7473 364.228 12.5722 364.228 8.65554C364.228 4.73885 361.093 1.56375 357.226 1.56375C353.359 1.56375 350.225 4.73885 350.225 8.65554C350.225 12.5722 353.359 15.7473 357.226 15.7473Z" fill="black"/>
<path d="M337.89 85.9759C338.964 85.9759 339.835 85.094 339.835 84.006C339.835 82.918 338.964 82.0361 337.89 82.0361C336.816 82.0361 335.945 82.918 335.945 84.006C335.945 85.094 336.816 85.9759 337.89 85.9759Z" fill="black"/>
<path d="M319.219 87.1475C317.663 87.1475 316.496 85.9655 316.496 84.3895C316.496 82.8136 317.663 81.6316 319.219 81.6316C320.775 81.6316 321.942 82.8136 321.942 84.3895C321.942 85.9655 320.775 87.1475 319.219 87.1475Z" fill="black"/>
<path d="M300.548 88.7222C298.214 88.7222 295.88 86.7522 295.88 83.9943C295.88 81.6304 297.825 79.2665 300.548 79.2665C302.882 79.2665 305.215 81.2364 305.215 83.9943C305.215 86.7522 303.271 88.7222 300.548 88.7222Z" fill="black"/>
<path d="M281.876 87.5498C279.932 87.5498 278.376 85.9739 278.376 84.0039C278.376 82.034 279.932 80.4581 281.876 80.4581C283.821 80.4581 285.377 82.034 285.377 84.0039C285.377 85.9739 283.821 87.5498 281.876 87.5498Z" fill="black"/>
<path d="M263.205 85.9759C264.279 85.9759 265.15 85.0939 265.15 84.006C265.15 82.918 264.279 82.036 263.205 82.036C262.131 82.036 261.26 82.918 261.26 84.006C261.26 85.0939 262.131 85.9759 263.205 85.9759Z" fill="black"/>
<path d="M244.534 85.5744C245.393 85.5744 246.09 84.8688 246.09 83.9984C246.09 83.128 245.393 82.4224 244.534 82.4224C243.674 82.4224 242.978 83.128 242.978 83.9984C242.978 84.8688 243.674 85.5744 244.534 85.5744Z" fill="black"/>
<path d="M225.863 84.7856C226.292 84.7856 226.641 84.4328 226.641 83.9976C226.641 83.5624 226.292 83.2096 225.863 83.2096C225.433 83.2096 225.085 83.5624 225.085 83.9976C225.085 84.4328 225.433 84.7856 225.863 84.7856Z" fill="black"/>
<path d="M207.191 85.1871C207.836 85.1871 208.358 84.6579 208.358 84.0052C208.358 83.3524 207.836 82.8232 207.191 82.8232C206.547 82.8232 206.024 83.3524 206.024 84.0052C206.024 84.6579 206.547 85.1871 207.191 85.1871Z" fill="black"/>
<path d="M188.52 85.5743C189.379 85.5743 190.076 84.8688 190.076 83.9984C190.076 83.128 189.379 82.4224 188.52 82.4224C187.66 82.4224 186.964 83.128 186.964 83.9984C186.964 84.8688 187.66 85.5743 188.52 85.5743Z" fill="black"/>
<path d="M169.849 84.7855C170.278 84.7855 170.627 84.4328 170.627 83.9976C170.627 83.5624 170.278 83.2096 169.849 83.2096C169.419 83.2096 169.071 83.5624 169.071 83.9976C169.071 84.4328 169.419 84.7855 169.849 84.7855Z" fill="black"/>
<path d="M412.325 160.749C412.969 160.749 413.491 160.22 413.491 159.567C413.491 158.914 412.969 158.385 412.325 158.385C411.68 158.385 411.158 158.914 411.158 159.567C411.158 160.22 411.68 160.749 412.325 160.749Z" fill="black"/>
<path d="M393.654 159.96C393.265 159.96 393.265 159.96 393.265 159.566C393.265 159.172 393.265 159.172 393.654 159.172C394.043 159.172 394.043 159.172 394.043 159.566C394.043 159.96 394.043 159.96 393.654 159.96Z" fill="black"/>
<path d="M356.311 160.348C356.741 160.348 357.089 159.995 357.089 159.56C357.089 159.124 356.741 158.772 356.311 158.772C355.881 158.772 355.533 159.124 355.533 159.56C355.533 159.995 355.881 160.348 356.311 160.348Z" fill="black"/>
<path d="M337.64 160.348C338.07 160.348 338.418 159.995 338.418 159.56C338.418 159.124 338.07 158.772 337.64 158.772C337.21 158.772 336.862 159.124 336.862 159.56C336.862 159.995 337.21 160.348 337.64 160.348Z" fill="black"/>
<path d="M318.968 160.348C319.398 160.348 319.746 159.995 319.746 159.56C319.746 159.124 319.398 158.772 318.968 158.772C318.538 158.772 318.19 159.124 318.19 159.56C318.19 159.995 318.538 160.348 318.968 160.348Z" fill="black"/>
<path d="M300.297 161.538C301.371 161.538 302.242 160.656 302.242 159.568C302.242 158.48 301.371 157.598 300.297 157.598C299.223 157.598 298.352 158.48 298.352 159.568C298.352 160.656 299.223 161.538 300.297 161.538Z" fill="black"/>
<path d="M281.626 160.348C282.056 160.348 282.404 159.995 282.404 159.56C282.404 159.124 282.056 158.772 281.626 158.772C281.196 158.772 280.848 159.124 280.848 159.56C280.848 159.995 281.196 160.348 281.626 160.348Z" fill="black"/>
<path d="M262.955 159.96C262.566 159.96 262.566 159.96 262.566 159.566C262.566 159.172 262.566 159.172 262.955 159.172C263.344 159.172 263.343 159.172 263.343 159.566C263.343 159.96 263.344 159.96 262.955 159.96Z" fill="black"/>
<path d="M244.283 160.348C244.713 160.348 245.061 159.995 245.061 159.56C245.061 159.124 244.713 158.772 244.283 158.772C243.853 158.772 243.505 159.124 243.505 159.56C243.505 159.995 243.853 160.348 244.283 160.348Z" fill="black"/>
<path d="M786.666 27.9717C786.88 27.9717 787.055 27.7953 787.055 27.5777C787.055 27.3601 786.88 27.1837 786.666 27.1837C786.451 27.1837 786.277 27.3601 786.277 27.5777C786.277 27.7953 786.451 27.9717 786.666 27.9717Z" fill="black"/>
<path d="M730.652 27.9717C730.866 27.9717 731.041 27.7953 731.041 27.5777C731.041 27.3601 730.866 27.1837 730.652 27.1837C730.437 27.1837 730.263 27.3601 730.263 27.5777C730.263 27.7953 730.437 27.9717 730.652 27.9717Z" fill="black"/>
<path d="M711.98 27.9717C712.195 27.9717 712.37 27.7953 712.37 27.5777C712.37 27.3601 712.195 27.1837 711.98 27.1837C711.766 27.1837 711.592 27.3601 711.592 27.5777C711.592 27.7953 711.766 27.9717 711.98 27.9717Z" fill="black"/>
<path d="M693.309 27.9717C693.524 27.9717 693.698 27.7953 693.698 27.5777C693.698 27.3601 693.524 27.1837 693.309 27.1837C693.095 27.1837 692.921 27.3601 692.921 27.5777C692.921 27.7953 693.095 27.9717 693.309 27.9717Z" fill="black"/>
<path d="M674.638 27.9717C674.853 27.9717 675.027 27.7953 675.027 27.5777C675.027 27.3601 674.853 27.1837 674.638 27.1837C674.424 27.1837 674.249 27.3601 674.249 27.5777C674.249 27.7953 674.424 27.9717 674.638 27.9717Z" fill="black"/>
<path d="M655.967 29.1477C656.826 29.1477 657.523 28.4421 657.523 27.5717C657.523 26.7013 656.826 25.9958 655.967 25.9958C655.107 25.9958 654.411 26.7013 654.411 27.5717C654.411 28.4421 655.107 29.1477 655.967 29.1477Z" fill="black"/>
<path d="M637.296 29.1476C638.155 29.1476 638.852 28.4421 638.852 27.5717C638.852 26.7013 638.155 25.9958 637.296 25.9958C636.436 25.9958 635.74 26.7013 635.74 27.5717C635.74 28.4421 636.436 29.1476 637.296 29.1476Z" fill="black"/>
<path d="M618.624 31.9119C616.29 31.9119 614.345 29.942 614.345 27.578C614.345 25.2141 616.29 23.2442 618.624 23.2442C620.958 23.2442 622.903 25.2141 622.903 27.578C622.903 29.942 620.958 31.9119 618.624 31.9119Z" fill="black"/>
<path d="M599.953 29.5492C601.027 29.5492 601.898 28.6672 601.898 27.5793C601.898 26.4913 601.027 25.6093 599.953 25.6093C598.879 25.6093 598.008 26.4913 598.008 27.5793C598.008 28.6672 598.879 29.5492 599.953 29.5492Z" fill="black"/>
<path d="M581.282 29.5492C582.356 29.5492 583.227 28.6672 583.227 27.5793C583.227 26.4913 582.356 25.6093 581.282 25.6093C580.208 25.6093 579.337 26.4913 579.337 27.5793C579.337 28.6672 580.208 29.5492 581.282 29.5492Z" fill="black"/>
<path d="M562.611 31.9111C560.277 31.9111 558.721 29.9411 558.721 27.9712C558.721 25.6073 560.666 24.0313 562.611 24.0313C564.556 24.0313 566.5 26.0013 566.5 27.9712C566.889 29.9411 564.945 31.9111 562.611 31.9111Z" fill="black"/>
<path d="M543.939 31.9111C541.605 31.9111 540.05 29.9411 540.05 27.9712C540.05 25.6073 541.994 24.0313 543.939 24.0313C546.273 24.0313 547.829 26.0013 547.829 27.9712C548.218 29.9411 546.273 31.9111 543.939 31.9111Z" fill="black"/>
<path d="M525.268 33.0842C522.156 33.0842 519.822 30.7203 519.822 27.5684C519.822 24.4165 522.156 22.0525 525.268 22.0525C528.38 22.0525 530.714 24.4165 530.714 27.5684C530.714 30.7203 528.38 33.0842 525.268 33.0842Z" fill="black"/>
<path d="M506.597 33.0842C503.874 33.0842 501.151 30.7203 501.151 27.5684C501.151 24.4165 503.485 22.0525 506.597 22.0525C509.709 22.0525 512.043 24.4165 512.043 27.5684C512.043 30.7203 509.709 33.0842 506.597 33.0842Z" fill="black"/>
<path d="M487.925 31.9111C485.592 31.9111 484.036 29.9411 484.036 27.9712C484.036 25.6073 485.981 24.0313 487.925 24.0313C489.87 24.0313 491.815 26.0013 491.815 27.9712C492.204 29.9411 490.259 31.9111 487.925 31.9111Z" fill="black"/>
<path d="M469.254 33.4858C472.477 33.4858 475.089 30.8399 475.089 27.576C475.089 24.312 472.477 21.6661 469.254 21.6661C466.032 21.6661 463.42 24.312 463.42 27.576C463.42 30.8399 466.032 33.4858 469.254 33.4858Z" fill="black"/>
<path d="M450.583 33.873C454.02 33.873 456.806 31.0507 456.806 27.5692C456.806 24.0877 454.02 21.2654 450.583 21.2654C447.145 21.2654 444.359 24.0877 444.359 27.5692C444.359 31.0507 447.145 33.873 450.583 33.873Z" fill="black"/>
<path d="M431.911 34.2709C435.563 34.2709 438.524 31.2722 438.524 27.5731C438.524 23.874 435.563 20.8753 431.911 20.8753C428.259 20.8753 425.299 23.874 425.299 27.5731C425.299 31.2722 428.259 34.2709 431.911 34.2709Z" fill="black"/>
<path d="M413.24 34.6581C417.107 34.6581 420.242 31.483 420.242 27.5663C420.242 23.6496 417.107 20.4745 413.24 20.4745C409.373 20.4745 406.239 23.6496 406.239 27.5663C406.239 31.483 409.373 34.6581 413.24 34.6581Z" fill="black"/>
<path d="M394.569 34.2737C391.068 34.2737 387.956 31.5158 387.956 27.9699C387.956 24.424 390.679 21.6661 394.569 21.6661C398.07 21.6661 401.182 24.424 401.182 27.9699C401.182 31.5158 398.07 34.2737 394.569 34.2737Z" fill="black"/>
<path d="M375.897 32.2954C378.475 32.2954 380.565 30.1787 380.565 27.5675C380.565 24.9564 378.475 22.8397 375.897 22.8397C373.319 22.8397 371.23 24.9564 371.23 27.5675C371.23 30.1787 373.319 32.2954 375.897 32.2954Z" fill="black"/>
<path d="M357.227 32.6969C354.504 32.6969 352.17 30.333 352.17 27.5751C352.17 24.8172 354.504 22.4533 357.227 22.4533C359.949 22.4533 362.283 24.8172 362.283 27.5751C362.283 30.333 359.949 32.6969 357.227 32.6969Z" fill="black"/>
<path d="M337.89 106.46C336.334 106.46 334.778 104.884 334.778 103.308C334.778 101.732 336.334 100.156 337.89 100.156C339.446 100.156 341.002 101.732 341.002 103.308C341.002 104.884 339.835 106.46 337.89 106.46Z" fill="black"/>
<path d="M319.219 106.848C317.274 106.848 315.329 105.272 315.329 102.908C315.329 100.544 316.885 98.968 319.219 98.968C321.164 98.968 323.109 100.544 323.109 102.908C323.109 105.272 321.164 106.848 319.219 106.848Z" fill="black"/>
<path d="M300.548 107.633C298.214 107.633 295.88 105.663 295.88 102.905C295.88 100.541 297.825 98.1772 300.548 98.1772C302.882 98.1772 305.215 100.147 305.215 102.905C305.215 105.663 303.271 107.633 300.548 107.633Z" fill="black"/>
<path d="M281.877 104.887C282.951 104.887 283.822 104.005 283.822 102.917C283.822 101.829 282.951 100.947 281.877 100.947C280.803 100.947 279.932 101.829 279.932 102.917C279.932 104.005 280.803 104.887 281.877 104.887Z" fill="black"/>
<path d="M263.205 104.098C263.85 104.098 264.372 103.569 264.372 102.916C264.372 102.263 263.85 101.734 263.205 101.734C262.561 101.734 262.038 102.263 262.038 102.916C262.038 103.569 262.561 104.098 263.205 104.098Z" fill="black"/>
<path d="M244.534 104.485C245.393 104.485 246.09 103.779 246.09 102.909C246.09 102.039 245.393 101.333 244.534 101.333C243.674 101.333 242.978 102.039 242.978 102.909C242.978 103.779 243.674 104.485 244.534 104.485Z" fill="black"/>
<path d="M225.863 103.696C226.292 103.696 226.641 103.344 226.641 102.908C226.641 102.473 226.292 102.12 225.863 102.12C225.433 102.12 225.085 102.473 225.085 102.908C225.085 103.344 225.433 103.696 225.863 103.696Z" fill="black"/>
<path d="M207.191 104.098C207.836 104.098 208.358 103.569 208.358 102.916C208.358 102.263 207.836 101.734 207.191 101.734C206.547 101.734 206.024 102.263 206.024 102.916C206.024 103.569 206.547 104.098 207.191 104.098Z" fill="black"/>
<path d="M188.52 104.485C189.379 104.485 190.076 103.779 190.076 102.909C190.076 102.039 189.379 101.333 188.52 101.333C187.66 101.333 186.964 102.039 186.964 102.909C186.964 103.779 187.66 104.485 188.52 104.485Z" fill="black"/>
<path d="M169.849 103.309C170.063 103.309 170.238 103.133 170.238 102.915C170.238 102.697 170.063 102.521 169.849 102.521C169.634 102.521 169.46 102.697 169.46 102.915C169.46 103.133 169.634 103.309 169.849 103.309Z" fill="black"/>
<path d="M412.325 181.237C411.158 181.237 409.991 180.055 409.991 178.873C409.991 177.691 411.158 176.509 412.325 176.509C413.492 176.509 414.658 177.691 414.658 178.873C414.658 180.055 413.881 181.237 412.325 181.237Z" fill="black"/>
<path d="M393.654 180.047C394.513 180.047 395.209 179.342 395.209 178.471C395.209 177.601 394.513 176.895 393.654 176.895C392.794 176.895 392.098 177.601 392.098 178.471C392.098 179.342 392.794 180.047 393.654 180.047Z" fill="black"/>
<path d="M374.982 179.258C375.412 179.258 375.76 178.906 375.76 178.47C375.76 178.035 375.412 177.682 374.982 177.682C374.552 177.682 374.204 178.035 374.204 178.47C374.204 178.906 374.552 179.258 374.982 179.258Z" fill="black"/>
<path d="M337.64 180.047C338.499 180.047 339.196 179.342 339.196 178.471C339.196 177.601 338.499 176.895 337.64 176.895C336.78 176.895 336.084 177.601 336.084 178.471C336.084 179.342 336.78 180.047 337.64 180.047Z" fill="black"/>
<path d="M318.968 179.66C319.613 179.66 320.135 179.131 320.135 178.478C320.135 177.825 319.613 177.296 318.968 177.296C318.324 177.296 317.801 177.825 317.801 178.478C317.801 179.131 318.324 179.66 318.968 179.66Z" fill="black"/>
<path d="M300.297 178.871C299.908 178.871 299.908 178.871 299.908 178.477C299.908 178.083 299.908 178.083 300.297 178.083C300.686 178.083 300.686 178.083 300.686 178.477C300.686 178.871 300.686 178.871 300.297 178.871Z" fill="black"/>
<path d="M262.955 178.871C263.169 178.871 263.343 178.695 263.343 178.477C263.343 178.259 263.169 178.083 262.955 178.083C262.74 178.083 262.566 178.259 262.566 178.477C262.566 178.695 262.74 178.871 262.955 178.871Z" fill="black"/>
<path d="M730.652 46.8824C730.866 46.8824 731.041 46.706 731.041 46.4884C731.041 46.2708 730.866 46.0944 730.652 46.0944C730.437 46.0944 730.263 46.2708 730.263 46.4884C730.263 46.706 730.437 46.8824 730.652 46.8824Z" fill="black"/>
<path d="M711.981 47.2696C712.41 47.2696 712.759 46.9168 712.759 46.4816C712.759 46.0465 712.41 45.6937 711.981 45.6937C711.551 45.6937 711.203 46.0465 711.203 46.4816C711.203 46.9168 711.551 47.2696 711.981 47.2696Z" fill="black"/>
<path d="M693.309 47.6712C692.531 47.6712 692.142 47.2772 692.142 46.4892C692.142 45.7012 692.531 45.3073 693.309 45.3073C694.087 45.3073 694.476 45.7012 694.476 46.4892C694.476 47.2772 694.087 47.6712 693.309 47.6712Z" fill="black"/>
<path d="M674.638 47.6712C673.86 47.6712 673.471 47.2772 673.471 46.4892C673.471 45.7012 673.86 45.3073 674.638 45.3073C675.416 45.3073 675.805 45.7012 675.805 46.4892C675.805 47.2772 675.416 47.6712 674.638 47.6712Z" fill="black"/>
<path d="M655.967 48.8464C654.8 48.8464 654.022 48.0584 654.022 46.8764C654.022 45.6945 654.8 44.9065 655.967 44.9065C657.134 44.9065 657.912 45.6945 657.912 46.8764C657.912 47.6644 657.134 48.8464 655.967 48.8464Z" fill="black"/>
<path d="M637.296 48.0584C638.155 48.0584 638.852 47.3528 638.852 46.4824C638.852 45.6121 638.155 44.9065 637.296 44.9065C636.436 44.9065 635.74 45.6121 635.74 46.4824C635.74 47.3528 636.436 48.0584 637.296 48.0584Z" fill="black"/>
<path d="M618.624 48.8472C619.913 48.8472 620.958 47.7888 620.958 46.4833C620.958 45.1777 619.913 44.1193 618.624 44.1193C617.335 44.1193 616.29 45.1777 616.29 46.4833C616.29 47.7888 617.335 48.8472 618.624 48.8472Z" fill="black"/>
<path d="M599.953 47.6712C600.598 47.6712 601.12 47.142 601.12 46.4892C601.12 45.8364 600.598 45.3072 599.953 45.3072C599.309 45.3072 598.786 45.8364 598.786 46.4892C598.786 47.142 599.309 47.6712 599.953 47.6712Z" fill="black"/>
<path d="M581.282 48.0584C582.141 48.0584 582.838 47.3528 582.838 46.4824C582.838 45.6121 582.141 44.9065 581.282 44.9065C580.422 44.9065 579.726 45.6121 579.726 46.4824C579.726 47.3528 580.422 48.0584 581.282 48.0584Z" fill="black"/>
<path d="M413.24 51.9949C416.248 51.9949 418.686 49.5254 418.686 46.4791C418.686 43.4328 416.248 40.9632 413.24 40.9632C410.233 40.9632 407.794 43.4328 407.794 46.4791C407.794 49.5254 410.233 51.9949 413.24 51.9949Z" fill="black"/>
<path d="M394.569 53.5831C398.436 53.5831 401.57 50.408 401.57 46.4914C401.57 42.5747 398.436 39.3996 394.569 39.3996C390.702 39.3996 387.567 42.5747 387.567 46.4914C387.567 50.408 390.702 53.5831 394.569 53.5831Z" fill="black"/>
<path d="M375.898 51.6077C373.175 51.6077 370.841 49.2438 370.841 46.4858C370.841 43.7279 373.175 41.364 375.898 41.364C378.621 41.364 380.954 43.7279 380.954 46.4858C380.954 49.2438 378.621 51.6077 375.898 51.6077Z" fill="black"/>
<path d="M357.226 52.3965C360.449 52.3965 363.061 49.7505 363.061 46.4866C363.061 43.2227 360.449 40.5768 357.226 40.5768C354.004 40.5768 351.392 43.2227 351.392 46.4866C351.392 49.7505 354.004 52.3965 357.226 52.3965Z" fill="black"/>
<path d="M786.666 66.1804C787.095 66.1804 787.444 65.8276 787.444 65.3924C787.444 64.9572 787.095 64.6044 786.666 64.6044C786.236 64.6044 785.888 64.9572 785.888 65.3924C785.888 65.8276 786.236 66.1804 786.666 66.1804Z" fill="black"/>
<path d="M767.995 66.1804C768.424 66.1804 768.773 65.8276 768.773 65.3924C768.773 64.9572 768.424 64.6044 767.995 64.6044C767.565 64.6044 767.217 64.9572 767.217 65.3924C767.217 65.8276 767.565 66.1804 767.995 66.1804Z" fill="black"/>
<path d="M749.323 68.1587C748.156 68.1587 746.989 66.9767 746.989 65.7948C746.989 64.6128 748.156 63.4308 749.323 63.4308C750.49 63.4308 751.657 64.6128 751.657 65.7948C751.657 66.9767 750.879 68.1587 749.323 68.1587Z" fill="black"/>
<path d="M730.652 67.7571C729.485 67.7571 728.707 66.9691 728.707 65.7872C728.707 64.6052 729.485 63.8172 730.652 63.8172C731.819 63.8172 732.597 64.6052 732.597 65.7872C732.597 66.5752 731.819 67.7571 730.652 67.7571Z" fill="black"/>
<path d="M711.981 66.9692C712.84 66.9692 713.537 66.2636 713.537 65.3932C713.537 64.5228 712.84 63.8172 711.981 63.8172C711.121 63.8172 710.425 64.5228 710.425 65.3932C710.425 66.2636 711.121 66.9692 711.981 66.9692Z" fill="black"/>
<path d="M693.309 66.5819C693.954 66.5819 694.476 66.0527 694.476 65.4C694.476 64.7472 693.954 64.218 693.309 64.218C692.665 64.218 692.142 64.7472 692.142 65.4C692.142 66.0527 692.665 66.5819 693.309 66.5819Z" fill="black"/>
<path d="M674.638 66.1804C675.068 66.1804 675.416 65.8276 675.416 65.3924C675.416 64.9572 675.068 64.6044 674.638 64.6044C674.208 64.6044 673.86 64.9572 673.86 65.3924C673.86 65.8276 674.208 66.1804 674.638 66.1804Z" fill="black"/>
<path d="M655.967 66.5819C656.611 66.5819 657.134 66.0527 657.134 65.4C657.134 64.7472 656.611 64.218 655.967 64.218C655.323 64.218 654.8 64.7472 654.8 65.4C654.8 66.0527 655.323 66.5819 655.967 66.5819Z" fill="black"/>
<path d="M637.295 68.9446C639.229 68.9446 640.796 67.357 640.796 65.3987C640.796 63.4404 639.229 61.8528 637.295 61.8528C635.362 61.8528 633.795 63.4404 633.795 65.3987C633.795 67.357 635.362 68.9446 637.295 68.9446Z" fill="black"/>
<path d="M618.624 69.331C616.679 69.331 615.123 67.7551 615.123 65.7851C615.123 63.8152 616.679 62.2392 618.624 62.2392C620.569 62.2392 622.125 63.8152 622.125 65.7851C622.125 67.7551 620.569 69.331 618.624 69.331Z" fill="black"/>
<path d="M599.953 70.1169C602.531 70.1169 604.621 68.0002 604.621 65.3891C604.621 62.7779 602.531 60.6612 599.953 60.6612C597.375 60.6612 595.285 62.7779 595.285 65.389C595.285 68.0002 597.375 70.1169 599.953 70.1169Z" fill="black"/>
<path d="M581.282 69.3318C578.948 69.3318 577.392 67.7558 577.392 65.3919C577.392 63.028 578.948 61.452 581.282 61.452C583.616 61.452 585.172 63.028 585.172 65.3919C585.172 67.7558 583.616 69.3318 581.282 69.3318Z" fill="black"/>
<path d="M562.61 70.5109C559.887 70.5109 557.942 68.147 557.942 65.389C557.942 62.6311 559.887 60.6612 562.61 60.6612C565.333 60.6612 567.278 62.6311 567.278 65.389C567.278 68.147 565.333 70.5109 562.61 70.5109Z" fill="black"/>
<path d="M543.939 70.5185C546.732 70.5185 548.996 68.2254 548.996 65.3966C548.996 62.5679 546.732 60.2748 543.939 60.2748C541.146 60.2748 538.882 62.5679 538.882 65.3966C538.882 68.2254 541.146 70.5185 543.939 70.5185Z" fill="black"/>
<path d="M525.268 70.1169C522.934 70.1169 520.6 68.1469 520.6 65.389C520.6 63.0251 522.545 60.6612 525.268 60.6612C527.602 60.6612 529.936 62.6311 529.936 65.389C529.936 68.1469 527.991 70.1169 525.268 70.1169Z" fill="black"/>
<path d="M506.597 69.3318C504.652 69.3318 502.707 67.7558 502.707 65.3919C502.707 63.028 504.263 61.452 506.597 61.452C508.931 61.452 510.487 63.028 510.487 65.3919C510.487 67.7558 508.542 69.3318 506.597 69.3318Z" fill="black"/>
<path d="M487.925 69.7333C490.288 69.7333 492.204 67.793 492.204 65.3995C492.204 63.006 490.288 61.0656 487.925 61.0656C485.562 61.0656 483.646 63.006 483.646 65.3995C483.646 67.793 485.562 69.7333 487.925 69.7333Z" fill="black"/>
<path d="M469.254 68.9446C471.188 68.9446 472.755 67.357 472.755 65.3987C472.755 63.4403 471.188 61.8528 469.254 61.8528C467.321 61.8528 465.753 63.4403 465.753 65.3987C465.753 67.357 467.321 68.9446 469.254 68.9446Z" fill="black"/>
<path d="M450.583 71.7088C454.02 71.7088 456.806 68.8865 456.806 65.405C456.806 61.9235 454.02 59.1012 450.583 59.1012C447.145 59.1012 444.359 61.9235 444.359 65.405C444.359 68.8865 447.145 71.7088 450.583 71.7088Z" fill="black"/>
<path d="M431.911 72.096C435.563 72.096 438.524 69.0973 438.524 65.3982C438.524 61.6991 435.563 58.7004 431.911 58.7004C428.259 58.7004 425.299 61.6991 425.299 65.3982C425.299 69.0973 428.259 72.096 431.911 72.096Z" fill="black"/>
<path d="M413.24 71.7088C416.677 71.7088 419.464 68.8865 419.464 65.405C419.464 61.9235 416.677 59.1012 413.24 59.1012C409.803 59.1012 407.016 61.9235 407.016 65.405C407.016 68.8865 409.803 71.7088 413.24 71.7088Z" fill="black"/>
<path d="M394.569 72.8811C398.651 72.8811 401.96 69.5296 401.96 65.3953C401.96 61.261 398.651 57.9096 394.569 57.9096C390.487 57.9096 387.178 61.261 387.178 65.3953C387.178 69.5296 390.487 72.8811 394.569 72.8811Z" fill="black"/>
<path d="M375.898 71.3072C379.12 71.3072 381.732 68.6613 381.732 65.3974C381.732 62.1335 379.12 59.4876 375.898 59.4876C372.675 59.4876 370.063 62.1335 370.063 65.3974C370.063 68.6613 372.675 71.3072 375.898 71.3072Z" fill="black"/>
<path d="M357.226 71.7088C360.663 71.7088 363.45 68.8865 363.45 65.405C363.45 61.9235 360.663 59.1011 357.226 59.1011C353.789 59.1011 351.002 61.9235 351.002 65.405C351.002 68.8865 353.789 71.7088 357.226 71.7088Z" fill="black"/>
<path d="M786.666 85.4927C787.311 85.4927 787.833 84.9635 787.833 84.3107C787.833 83.6579 787.311 83.1287 786.666 83.1287C786.022 83.1287 785.499 83.6579 785.499 84.3107C785.499 84.9635 786.022 85.4927 786.666 85.4927Z" fill="black"/>
<path d="M767.995 86.2815C769.069 86.2815 769.94 85.3995 769.94 84.3115C769.94 83.2236 769.069 82.3416 767.995 82.3416C766.921 82.3416 766.05 83.2236 766.05 84.3115C766.05 85.3995 766.921 86.2815 767.995 86.2815Z" fill="black"/>
<path d="M749.323 87.0666C747.767 87.0666 746.601 85.8846 746.601 84.3087C746.601 82.7327 747.767 81.5507 749.323 81.5507C750.879 81.5507 752.046 82.7327 752.046 84.3087C752.046 85.8846 750.879 87.0666 749.323 87.0666Z" fill="black"/>
<path d="M730.652 85.0911C731.082 85.0911 731.43 84.7383 731.43 84.3031C731.43 83.868 731.082 83.5152 730.652 83.5152C730.222 83.5152 729.874 83.868 729.874 84.3031C729.874 84.7383 730.222 85.0911 730.652 85.0911Z" fill="black"/>
<path d="M711.98 86.6687C713.269 86.6687 714.314 85.6103 714.314 84.3047C714.314 82.9992 713.269 81.9408 711.98 81.9408C710.691 81.9408 709.647 82.9992 709.647 84.3047C709.647 85.6103 710.691 86.6687 711.98 86.6687Z" fill="black"/>
<path d="M693.309 86.2814C694.383 86.2814 695.254 85.3995 695.254 84.3115C695.254 83.2235 694.383 82.3416 693.309 82.3416C692.235 82.3416 691.364 83.2235 691.364 84.3115C691.364 85.3995 692.235 86.2814 693.309 86.2814Z" fill="black"/>
<path d="M674.638 85.0911C675.068 85.0911 675.416 84.7383 675.416 84.3031C675.416 83.8679 675.068 83.5151 674.638 83.5151C674.208 83.5151 673.86 83.8679 673.86 84.3031C673.86 84.7383 674.208 85.0911 674.638 85.0911Z" fill="black"/>
<path d="M655.967 85.4926C656.611 85.4926 657.134 84.9635 657.134 84.3107C657.134 83.6579 656.611 83.1287 655.967 83.1287C655.323 83.1287 654.8 83.6579 654.8 84.3107C654.8 84.9635 655.323 85.4926 655.967 85.4926Z" fill="black"/>
<path d="M637.296 87.0665C638.8 87.0665 640.019 85.8318 640.019 84.3086C640.019 82.7855 638.8 81.5507 637.296 81.5507C635.792 81.5507 634.573 82.7855 634.573 84.3086C634.573 85.8318 635.792 87.0665 637.296 87.0665Z" fill="black"/>
<path d="M618.624 89.0277C616.29 89.0277 613.957 87.0577 613.957 84.2998C613.957 81.5419 615.901 79.5719 618.624 79.5719C620.958 79.5719 623.292 81.5419 623.292 84.2998C623.292 87.0577 621.347 89.0277 618.624 89.0277Z" fill="black"/>
<path d="M599.953 90.218C603.175 90.218 605.787 87.5721 605.787 84.3082C605.787 81.0443 603.175 78.3984 599.953 78.3984C596.73 78.3984 594.118 81.0443 594.118 84.3082C594.118 87.5721 596.73 90.218 599.953 90.218Z" fill="black"/>
<path d="M581.282 88.2425C579.337 88.2425 577.392 86.6666 577.392 84.3026C577.392 82.3327 578.948 80.3627 581.282 80.3627C583.616 80.3627 585.172 81.9387 585.172 84.3027C585.172 86.6666 583.227 88.2425 581.282 88.2425Z" fill="black"/>
<path d="M562.611 89.4292C565.403 89.4292 567.668 87.1361 567.668 84.3074C567.668 81.4787 565.403 79.1855 562.611 79.1855C559.818 79.1855 557.554 81.4787 557.554 84.3074C557.554 87.1361 559.818 89.4292 562.611 89.4292Z" fill="black"/>
<path d="M543.939 89.4292C541.216 89.4292 538.882 87.0653 538.882 84.3074C538.882 81.5495 541.216 79.1855 543.939 79.1855C546.662 79.1855 548.996 81.5495 548.996 84.3074C548.996 87.0653 546.662 89.4292 543.939 89.4292Z" fill="black"/>
<path d="M525.268 88.6441C522.934 88.6441 520.989 86.6741 520.989 84.3102C520.989 81.9463 522.934 79.9763 525.268 79.9763C527.602 79.9763 529.547 81.9463 529.547 84.3102C529.547 86.6742 527.602 88.6441 525.268 88.6441Z" fill="black"/>
<path d="M506.597 88.2425C504.652 88.2425 502.707 86.6666 502.707 84.3026C502.707 82.3327 504.263 80.3627 506.597 80.3627C508.931 80.3627 510.487 81.9387 510.487 84.3026C510.487 86.6666 508.542 88.2425 506.597 88.2425Z" fill="black"/>
<path d="M487.925 90.218C491.148 90.218 493.76 87.5721 493.76 84.3082C493.76 81.0443 491.148 78.3983 487.925 78.3983C484.703 78.3983 482.091 81.0443 482.091 84.3082C482.091 87.5721 484.703 90.218 487.925 90.218Z" fill="black"/>
<path d="M469.254 90.218C472.477 90.218 475.089 87.5721 475.089 84.3082C475.089 81.0443 472.477 78.3983 469.254 78.3983C466.032 78.3983 463.42 81.0443 463.42 84.3082C463.42 87.5721 466.032 90.218 469.254 90.218Z" fill="black"/>
<path d="M450.583 89.8307C447.471 89.8307 445.137 87.4668 445.137 84.3149C445.137 81.163 447.471 78.7991 450.583 78.7991C453.695 78.7991 456.029 81.163 456.029 84.3149C456.029 87.4668 453.695 89.8307 450.583 89.8307Z" fill="black"/>
<path d="M431.912 91.4046C435.778 91.4046 438.913 88.2295 438.913 84.3129C438.913 80.3962 435.778 77.221 431.912 77.221C428.045 77.221 424.91 80.3962 424.91 84.3128C424.91 88.2295 428.045 91.4046 431.912 91.4046Z" fill="black"/>
<path d="M413.24 92.1934C408.961 92.1934 405.461 88.6475 405.461 84.3137C405.461 79.9798 408.961 76.4339 413.24 76.4339C417.519 76.4339 421.02 79.9798 421.02 84.3137C421.02 88.6475 417.519 92.1934 413.24 92.1934Z" fill="black"/>
<path d="M394.569 89.4292C397.362 89.4292 399.626 87.136 399.626 84.3073C399.626 81.4786 397.362 79.1855 394.569 79.1855C391.776 79.1855 389.512 81.4786 389.512 84.3073C389.512 87.136 391.776 89.4292 394.569 89.4292Z" fill="black"/>
<path d="M375.897 89.8307C378.905 89.8307 381.343 87.3612 381.343 84.3149C381.343 81.2686 378.905 78.799 375.897 78.799C372.89 78.799 370.451 81.2686 370.451 84.3149C370.451 87.3612 372.89 89.8307 375.897 89.8307Z" fill="black"/>
<path d="M357.226 90.218C360.449 90.218 363.061 87.572 363.061 84.3081C363.061 81.0442 360.449 78.3983 357.226 78.3983C354.004 78.3983 351.392 81.0442 351.392 84.3081C351.392 87.572 354.004 90.218 357.226 90.218Z" fill="black"/>
<path d="M337.639 13.9859C334.916 13.9859 332.582 11.6219 332.582 8.86403C332.582 6.10611 334.916 3.74218 337.639 3.74218C340.362 3.74218 342.696 6.10611 342.696 8.86403C342.696 11.6219 340.362 13.9859 337.639 13.9859Z" fill="black"/>
<path d="M318.968 14.7898C322.405 14.7898 325.192 11.9675 325.192 8.48602C325.192 5.00452 322.405 2.18216 318.968 2.18216C315.531 2.18216 312.744 5.00451 312.744 8.48602C312.744 11.9675 315.531 14.7898 318.968 14.7898Z" fill="black"/>
<path d="M300.297 15.1771C303.949 15.1771 306.909 12.1783 306.909 8.47925C306.909 4.78014 303.949 1.78141 300.297 1.78141C296.644 1.78141 293.684 4.78014 293.684 8.47924C293.684 12.1783 296.644 15.1771 300.297 15.1771Z" fill="black"/>
<path d="M281.625 14.7898C285.062 14.7898 287.849 11.9675 287.849 8.48601C287.849 5.00451 285.062 2.18215 281.625 2.18215C278.188 2.18215 275.401 5.0045 275.401 8.48601C275.401 11.9675 278.188 14.7898 281.625 14.7898Z" fill="black"/>
<path d="M262.954 15.1771C266.606 15.1771 269.567 12.1783 269.567 8.47924C269.567 4.78013 266.606 1.7814 262.954 1.7814C259.302 1.7814 256.342 4.78013 256.342 8.47923C256.342 12.1783 259.302 15.1771 262.954 15.1771Z" fill="black"/>
<path d="M244.283 13.9859C241.56 13.9859 239.226 11.6219 239.226 8.864C239.226 6.10608 241.56 3.74215 244.283 3.74215C247.006 3.74215 249.34 6.10609 249.34 8.86401C249.34 11.6219 247.006 13.9859 244.283 13.9859Z" fill="black"/>
<path d="M225.611 12.8143C227.975 12.8143 229.89 10.874 229.89 8.48048C229.89 6.08695 227.975 4.14657 225.611 4.14657C223.248 4.14656 221.333 6.08694 221.333 8.48048C221.333 10.874 223.248 12.8143 225.611 12.8143Z" fill="black"/>
<path d="M206.94 14.7898C210.377 14.7898 213.164 11.9675 213.164 8.48599C213.164 5.00449 210.377 2.18213 206.94 2.18213C203.503 2.18213 200.716 5.00448 200.716 8.48599C200.716 11.9675 203.503 14.7898 206.94 14.7898Z" fill="black"/>
<path d="M188.269 11.2368C189.773 11.2368 190.992 10.002 190.992 8.47886C190.992 6.9557 189.773 5.7209 188.269 5.7209C186.765 5.7209 185.546 6.9557 185.546 8.47886C185.546 10.002 186.765 11.2368 188.269 11.2368Z" fill="black"/>
<path d="M169.598 12.8143C171.961 12.8143 173.876 10.874 173.876 8.48046C173.876 6.08693 171.961 4.14655 169.598 4.14655C167.234 4.14655 165.319 6.08693 165.319 8.48046C165.319 10.874 167.234 12.8143 169.598 12.8143Z" fill="black"/>
<path d="M150.926 12.0255C152.86 12.0255 154.427 10.438 154.427 8.47964C154.427 6.5213 152.86 4.93371 150.926 4.93371C148.993 4.93371 147.426 6.5213 147.426 8.47964C147.426 10.438 148.993 12.0255 150.926 12.0255Z" fill="black"/>
<path d="M132.255 10.0501C133.114 10.0501 133.811 9.34449 133.811 8.47411C133.811 7.60374 133.114 6.89813 132.255 6.89813C131.396 6.89813 130.699 7.60373 130.699 8.47411C130.699 9.34449 131.396 10.0501 132.255 10.0501Z" fill="black"/>
<path d="M113.584 10.8388C114.873 10.8388 115.918 9.78047 115.918 8.47491C115.918 7.16935 114.873 6.11099 113.584 6.11099C112.295 6.11099 111.25 7.16935 111.25 8.47491C111.25 9.78046 112.295 10.8388 113.584 10.8388Z" fill="black"/>
<path d="M94.9128 9.26125C95.3425 9.26125 95.6908 8.90848 95.6908 8.4733C95.6908 8.03812 95.3425 7.68531 94.9128 7.68531C94.4831 7.68531 94.1349 8.03812 94.1349 8.4733C94.1349 8.90848 94.4831 9.26125 94.9128 9.26125Z" fill="black"/>
<path d="M76.2416 10.0501C77.1009 10.0501 77.7975 9.34447 77.7975 8.4741C77.7975 7.60372 77.1009 6.89812 76.2416 6.89812C75.3822 6.89812 74.6856 7.60372 74.6856 8.4741C74.6856 9.34447 75.3822 10.0501 76.2416 10.0501Z" fill="black"/>
<path d="M57.57 9.26124C57.9996 9.26124 58.348 8.90847 58.348 8.47329C58.348 8.03811 57.9996 7.6853 57.57 7.6853C57.1403 7.6853 56.7921 8.03811 56.7921 8.47329C56.7921 8.90847 57.1403 9.26124 57.57 9.26124Z" fill="black"/>
<path d="M38.8989 9.26124C39.3285 9.26124 39.6768 8.90847 39.6768 8.47329C39.6768 8.0381 39.3286 7.68529 38.8989 7.68529C38.4693 7.68529 38.1209 8.0381 38.1209 8.47329C38.1209 8.90847 38.4693 9.26124 38.8989 9.26124Z" fill="black"/>
<path d="M20.2272 9.26123C20.6568 9.26123 21.0052 8.90846 21.0052 8.47328C21.0052 8.0381 20.6568 7.68529 20.2272 7.68529C19.7975 7.68529 19.4492 8.0381 19.4492 8.47328C19.4492 8.90846 19.7975 9.26123 20.2272 9.26123Z" fill="black"/>
<path d="M1.55608 9.26123C1.98574 9.26123 2.33403 8.90846 2.33403 8.47328C2.33403 8.03809 1.98574 7.68528 1.55608 7.68528C1.12642 7.68528 0.778101 8.03809 0.778101 8.47328C0.778101 8.90846 1.12642 9.26123 1.55608 9.26123Z" fill="black"/>
<path d="M506.597 108.34C509.389 108.34 511.653 106.047 511.653 103.218C511.653 100.389 509.389 98.0962 506.597 98.0962C503.804 98.0962 501.54 100.389 501.54 103.218C501.54 106.047 503.804 108.34 506.597 108.34Z" fill="black"/>
<path d="M487.925 109.128C484.813 109.128 482.479 106.764 482.479 103.612C482.479 100.46 484.813 98.0962 487.925 98.0962C491.037 98.0962 493.371 100.46 493.371 103.612C493.371 106.764 491.037 109.128 487.925 109.128Z" fill="black"/>
<path d="M469.254 107.555C471.617 107.555 473.533 105.614 473.533 103.221C473.533 100.827 471.617 98.8871 469.254 98.8871C466.891 98.8871 464.975 100.827 464.975 103.221C464.975 105.614 466.891 107.555 469.254 107.555Z" fill="black"/>
<path d="M450.583 106.364C449.027 106.364 447.471 105.182 447.471 103.213C447.471 101.637 448.638 100.061 450.583 100.061C452.139 100.061 453.695 101.243 453.695 103.213C453.695 105.182 452.139 106.364 450.583 106.364Z" fill="black"/>
<path d="M431.912 109.53C435.349 109.53 438.135 106.708 438.135 103.226C438.135 99.745 435.349 96.9226 431.912 96.9226C428.474 96.9226 425.688 99.745 425.688 103.226C425.688 106.708 428.474 109.53 431.912 109.53Z" fill="black"/>
<path d="M413.24 111.104C417.537 111.104 421.02 107.576 421.02 103.224C421.02 98.8725 417.537 95.3446 413.24 95.3446C408.944 95.3446 405.461 98.8725 405.461 103.224C405.461 107.576 408.944 111.104 413.24 111.104Z" fill="black"/>
<path d="M394.569 108.741C397.576 108.741 400.015 106.272 400.015 103.226C400.015 100.179 397.576 97.7098 394.569 97.7098C391.561 97.7098 389.123 100.179 389.123 103.226C389.123 106.272 391.561 108.741 394.569 108.741Z" fill="black"/>
<path d="M375.898 107.554C373.564 107.554 372.008 105.584 372.008 103.614C372.008 101.644 373.953 99.6742 375.898 99.6742C378.232 99.6742 379.787 101.644 379.787 103.614C379.787 105.584 378.232 107.554 375.898 107.554Z" fill="black"/>
<path d="M357.226 109.129C360.449 109.129 363.061 106.483 363.061 103.219C363.061 99.955 360.449 97.309 357.226 97.309C354.004 97.309 351.392 99.955 351.392 103.219C351.392 106.483 354.004 109.129 357.226 109.129Z" fill="black"/>
<path d="M337.639 33.7006C341.076 33.7006 343.863 30.8783 343.863 27.3968C343.863 23.9153 341.076 21.093 337.639 21.093C334.202 21.093 331.415 23.9153 331.415 27.3968C331.415 30.8783 334.202 33.7006 337.639 33.7006Z" fill="black"/>
<path d="M318.968 32.9118C315.856 32.9118 313.522 30.5479 313.522 27.396C313.522 24.2441 315.856 21.8801 318.968 21.8801C321.691 21.8801 324.414 24.2441 324.414 27.396C324.414 30.5479 322.08 32.9118 318.968 32.9118Z" fill="black"/>
<path d="M300.296 32.9118C303.304 32.9118 305.742 30.4423 305.742 27.396C305.742 24.3497 303.304 21.8801 300.296 21.8801C297.289 21.8801 294.851 24.3497 294.851 27.396C294.851 30.4423 297.289 32.9118 300.296 32.9118Z" fill="black"/>
<path d="M281.625 31.7251C283.988 31.7251 285.904 29.7848 285.904 27.3913C285.904 24.9977 283.988 23.0574 281.625 23.0574C279.262 23.0574 277.346 24.9977 277.346 27.3913C277.346 29.7848 279.262 31.7251 281.625 31.7251Z" fill="black"/>
<path d="M262.954 33.2983C259.842 33.2983 257.509 30.9343 257.509 27.7824C257.509 24.6305 259.842 22.2665 262.954 22.2665C266.066 22.2665 268.4 24.6305 268.4 27.7824C268.4 30.9343 266.066 33.2983 262.954 33.2983Z" fill="black"/>
<path d="M244.283 33.7006C247.72 33.7006 250.507 30.8783 250.507 27.3968C250.507 23.9153 247.72 21.0929 244.283 21.0929C240.846 21.0929 238.059 23.9153 238.059 27.3968C238.059 30.8783 240.846 33.7006 244.283 33.7006Z" fill="black"/>
<path d="M225.612 33.2991C228.834 33.2991 231.446 30.6531 231.446 27.3892C231.446 24.1253 228.834 21.4794 225.612 21.4794C222.389 21.4794 219.777 24.1253 219.777 27.3892C219.777 30.6531 222.389 33.2991 225.612 33.2991Z" fill="black"/>
<path d="M206.94 31.7251C209.303 31.7251 211.219 29.7848 211.219 27.3913C211.219 24.9977 209.303 23.0574 206.94 23.0574C204.577 23.0574 202.661 24.9977 202.661 27.3913C202.661 29.7848 204.577 31.7251 206.94 31.7251Z" fill="black"/>
<path d="M188.269 31.7251C190.632 31.7251 192.548 29.7848 192.548 27.3913C192.548 24.9977 190.632 23.0573 188.269 23.0573C185.906 23.0573 183.99 24.9977 183.99 27.3913C183.99 29.7848 185.906 31.7251 188.269 31.7251Z" fill="black"/>
<path d="M169.598 31.7251C171.961 31.7251 173.876 29.7848 173.876 27.3912C173.876 24.9977 171.961 23.0573 169.598 23.0573C167.234 23.0573 165.319 24.9977 165.319 27.3912C165.319 29.7848 167.234 31.7251 169.598 31.7251Z" fill="black"/>
<path d="M150.926 32.5102C148.203 32.5102 145.869 30.1463 145.869 27.3884C145.869 24.6305 148.203 22.2665 150.926 22.2665C153.649 22.2665 155.983 24.6305 155.983 27.3884C155.983 30.1463 153.649 32.5102 150.926 32.5102Z" fill="black"/>
<path d="M132.255 30.5348C133.974 30.5348 135.367 29.1236 135.367 27.3828C135.367 25.6421 133.974 24.2309 132.255 24.2309C130.536 24.2309 129.143 25.6421 129.143 27.3828C129.143 29.1236 130.536 30.5348 132.255 30.5348Z" fill="black"/>
<path d="M113.584 30.5348C115.303 30.5348 116.696 29.1236 116.696 27.3828C116.696 25.6421 115.303 24.2309 113.584 24.2309C111.865 24.2309 110.472 25.6421 110.472 27.3828C110.472 29.1236 111.865 30.5348 113.584 30.5348Z" fill="black"/>
<path d="M94.9129 29.3625C95.987 29.3625 96.8578 28.4805 96.8578 27.3925C96.8578 26.3045 95.987 25.4225 94.9129 25.4225C93.8387 25.4225 92.968 26.3045 92.968 27.3925C92.968 28.4805 93.8387 29.3625 94.9129 29.3625Z" fill="black"/>
<path d="M76.2412 28.1721C76.6708 28.1721 77.0191 27.8193 77.0191 27.3841C77.0191 26.9489 76.6708 26.5961 76.2412 26.5961C75.8115 26.5961 75.4632 26.9489 75.4632 27.3841C75.4632 27.8193 75.8115 28.1721 76.2412 28.1721Z" fill="black"/>
<path d="M57.57 28.1721C57.9996 28.1721 58.348 27.8193 58.348 27.3841C58.348 26.9489 57.9996 26.5961 57.57 26.5961C57.1403 26.5961 56.7921 26.9489 56.7921 27.3841C56.7921 27.8193 57.1403 28.1721 57.57 28.1721Z" fill="black"/>
<path d="M38.8986 27.7885C39.1135 27.7885 39.2877 27.6121 39.2877 27.3945C39.2877 27.1769 39.1135 27.0005 38.8986 27.0005C38.6838 27.0005 38.5097 27.1769 38.5097 27.3945C38.5097 27.6121 38.6838 27.7885 38.8986 27.7885Z" fill="black"/>
<path d="M20.2276 27.7885C20.4424 27.7885 20.6166 27.6121 20.6166 27.3945C20.6166 27.1769 20.4424 27.0005 20.2276 27.0005C20.0127 27.0005 19.8386 27.1769 19.8386 27.3945C19.8386 27.6121 20.0127 27.7885 20.2276 27.7885Z" fill="black"/>
<path d="M1.55608 28.172C1.98573 28.172 2.33403 27.8192 2.33403 27.3841C2.33403 26.9489 1.98574 26.5961 1.55608 26.5961C1.12642 26.5961 0.778096 26.9489 0.778096 27.3841C0.778096 27.8192 1.12642 28.172 1.55608 28.172Z" fill="black"/>
<path d="M693.309 122.529C693.524 122.529 693.698 122.353 693.698 122.135C693.698 121.917 693.524 121.741 693.309 121.741C693.095 121.741 692.921 121.917 692.921 122.135C692.921 122.353 693.095 122.529 693.309 122.529Z" fill="black"/>
<path d="M655.967 122.913C656.396 122.913 656.745 122.56 656.745 122.125C656.745 121.689 656.396 121.337 655.967 121.337C655.537 121.337 655.189 121.689 655.189 122.125C655.189 122.56 655.537 122.913 655.967 122.913Z" fill="black"/>
<path d="M637.296 123.701C638.155 123.701 638.852 122.996 638.852 122.125C638.852 121.255 638.155 120.549 637.296 120.549C636.436 120.549 635.74 121.255 635.74 122.125C635.74 122.996 636.436 123.701 637.296 123.701Z" fill="black"/>
<path d="M618.624 123.314C619.269 123.314 619.791 122.785 619.791 122.132C619.791 121.479 619.269 120.95 618.624 120.95C617.98 120.95 617.457 121.479 617.457 122.132C617.457 122.785 617.98 123.314 618.624 123.314Z" fill="black"/>
<path d="M599.953 123.701C600.813 123.701 601.509 122.996 601.509 122.125C601.509 121.255 600.813 120.549 599.953 120.549C599.094 120.549 598.397 121.255 598.397 122.125C598.397 122.996 599.094 123.701 599.953 123.701Z" fill="black"/>
<path d="M581.282 123.701C582.141 123.701 582.837 122.996 582.837 122.125C582.837 121.255 582.141 120.549 581.282 120.549C580.422 120.549 579.726 121.255 579.726 122.125C579.726 122.996 580.422 123.701 581.282 123.701Z" fill="black"/>
<path d="M562.61 123.314C563.255 123.314 563.777 122.785 563.777 122.132C563.777 121.479 563.255 120.95 562.61 120.95C561.966 120.95 561.443 121.479 561.443 122.132C561.443 122.785 561.966 123.314 562.61 123.314Z" fill="black"/>
<path d="M543.939 124.103C545.013 124.103 545.884 123.221 545.884 122.133C545.884 121.045 545.013 120.163 543.939 120.163C542.865 120.163 541.994 121.045 541.994 122.133C541.994 123.221 542.865 124.103 543.939 124.103Z" fill="black"/>
<path d="M525.268 124.489C524.101 124.489 523.323 123.701 523.323 122.519C523.323 121.337 524.101 120.549 525.268 120.549C526.435 120.549 527.213 121.337 527.213 122.519C527.213 123.307 526.435 124.489 525.268 124.489Z" fill="black"/>
<path d="M506.597 126.466C508.96 126.466 510.876 124.525 510.876 122.132C510.876 119.738 508.96 117.798 506.597 117.798C504.234 117.798 502.318 119.738 502.318 122.132C502.318 124.525 504.234 126.466 506.597 126.466Z" fill="black"/>
<path d="M487.925 126.466C490.288 126.466 492.204 124.525 492.204 122.132C492.204 119.738 490.288 117.798 487.925 117.798C485.562 117.798 483.646 119.738 483.646 122.132C483.646 124.525 485.562 126.466 487.925 126.466Z" fill="black"/>
<path d="M469.254 126.465C466.92 126.465 465.364 124.495 465.364 122.525C465.364 120.555 467.309 118.585 469.254 118.585C471.588 118.585 473.144 120.555 473.144 122.525C473.144 124.495 471.588 126.465 469.254 126.465Z" fill="black"/>
<path d="M450.583 127.251C447.86 127.251 445.526 124.887 445.526 122.129C445.526 119.371 447.86 117.007 450.583 117.007C453.306 117.007 455.639 119.371 455.639 122.129C455.639 124.887 453.306 127.251 450.583 127.251Z" fill="black"/>
<path d="M431.911 126.867C434.489 126.867 436.579 124.75 436.579 122.139C436.579 119.528 434.489 117.411 431.911 117.411C429.333 117.411 427.244 119.528 427.244 122.139C427.244 124.75 429.333 126.867 431.911 126.867Z" fill="black"/>
<path d="M300.297 49.4455C302.016 49.4455 303.409 48.0344 303.409 46.2937C303.409 44.5529 302.016 43.1417 300.297 43.1417C298.578 43.1417 297.185 44.5529 297.185 46.2937C297.185 48.0344 298.578 49.4455 300.297 49.4455Z" fill="black"/>
<path d="M281.626 50.6351C279.292 50.6351 277.736 48.6651 277.736 46.6952C277.736 44.7252 279.681 42.7553 281.626 42.7553C283.96 42.7553 285.516 44.7252 285.516 46.6952C285.516 48.6651 283.96 50.6351 281.626 50.6351Z" fill="black"/>
<path d="M262.954 51.421C265.747 51.421 268.011 49.1279 268.011 46.2992C268.011 43.4704 265.747 41.1773 262.954 41.1773C260.161 41.1773 257.897 43.4704 257.897 46.2992C257.897 49.1279 260.161 51.421 262.954 51.421Z" fill="black"/>
<path d="M244.283 49.8471C246.216 49.8471 247.784 48.2595 247.784 46.3012C247.784 44.3429 246.216 42.7553 244.283 42.7553C242.349 42.7553 240.782 44.3429 240.782 46.3012C240.782 48.2595 242.349 49.8471 244.283 49.8471Z" fill="black"/>
<path d="M225.612 50.2411C223.667 50.2411 221.722 48.6651 221.722 46.3012C221.722 43.9373 223.667 42.7553 225.612 42.7553C227.557 42.7553 229.502 44.3312 229.502 46.6952C229.502 49.0591 227.557 50.2411 225.612 50.2411Z" fill="black"/>
<path d="M206.941 51.4315C204.218 51.4315 202.273 49.0675 202.273 46.7036C202.273 44.3396 204.218 41.5817 206.941 41.5817C209.663 41.5817 211.608 43.9457 211.608 46.3096C211.608 48.6735 209.663 51.4315 206.941 51.4315Z" fill="black"/>
<path d="M188.269 51.0367C185.935 51.0367 183.99 49.0667 183.99 46.7028C183.99 44.3388 185.935 42.3689 188.269 42.3689C190.603 42.3689 192.548 44.3388 192.548 46.7028C192.548 49.0667 190.603 51.0367 188.269 51.0367Z" fill="black"/>
<path d="M169.598 51.421C172.391 51.421 174.655 49.1279 174.655 46.2991C174.655 43.4704 172.391 41.1773 169.598 41.1773C166.805 41.1773 164.541 43.4704 164.541 46.2991C164.541 49.1279 166.805 51.421 169.598 51.421Z" fill="black"/>
<path d="M150.927 50.6351C148.593 50.6351 147.037 48.6651 147.037 46.6952C147.037 44.7252 148.982 42.7553 150.927 42.7553C153.261 42.7553 154.817 44.7252 154.817 46.6952C154.817 48.6651 153.261 50.6351 150.927 50.6351Z" fill="black"/>
<path d="M132.255 49.4484C130.699 49.4484 129.532 48.2664 129.532 46.6904C129.532 45.1145 130.699 43.9325 132.255 43.9325C133.811 43.9325 134.978 45.1145 134.978 46.6904C134.978 48.2664 133.811 49.4484 132.255 49.4484Z" fill="black"/>
<path d="M113.584 49.062C115.088 49.062 116.307 47.8272 116.307 46.304C116.307 44.7809 115.088 43.5461 113.584 43.5461C112.08 43.5461 110.861 44.7809 110.861 46.304C110.861 47.8272 112.08 49.062 113.584 49.062Z" fill="black"/>
<path d="M94.9123 49.4455C93.3564 49.4455 91.8005 48.2635 91.8005 46.2936C91.8005 44.7176 92.9674 43.1417 94.9123 43.1417C96.8573 43.1417 98.0243 44.7176 98.0243 46.2936C98.0243 48.2635 96.4683 49.4455 94.9123 49.4455Z" fill="black"/>
<path d="M76.2414 47.4844C76.8859 47.4844 77.4083 46.9552 77.4083 46.3024C77.4083 45.6496 76.8859 45.1204 76.2414 45.1204C75.5969 45.1204 75.0744 45.6496 75.0744 46.3024C75.0744 46.9552 75.5969 47.4844 76.2414 47.4844Z" fill="black"/>
<path d="M57.57 48.6596C56.4031 48.6596 55.6251 47.8716 55.6251 46.6896C55.6251 45.5077 56.4031 44.7197 57.57 44.7197C58.737 44.7197 59.515 45.5077 59.515 46.6896C59.515 47.4776 58.737 48.6596 57.57 48.6596Z" fill="black"/>
<path d="M38.8985 47.4844C38.1206 47.4844 37.7316 47.0904 37.7316 46.3024C37.7316 45.5144 38.1206 45.1204 38.8985 45.1204C39.6765 45.1204 40.0655 45.5144 40.0655 46.3024C40.0655 47.0904 39.6765 47.4844 38.8985 47.4844Z" fill="black"/>
<path d="M20.2274 47.4843C20.8719 47.4843 21.3943 46.9552 21.3943 46.3024C21.3943 45.6496 20.8719 45.1204 20.2274 45.1204C19.5829 45.1204 19.0604 45.6496 19.0604 46.3024C19.0604 46.9552 19.5829 47.4843 20.2274 47.4843Z" fill="black"/>
<path d="M1.55607 47.0828C1.98573 47.0828 2.33402 46.73 2.33402 46.2948C2.33402 45.8596 1.98573 45.5068 1.55607 45.5068C1.12641 45.5068 0.778091 45.8596 0.778091 46.2948C0.778091 46.73 1.12641 47.0828 1.55607 47.0828Z" fill="black"/>
<path d="M693.309 143.014C694.383 143.014 695.254 142.132 695.254 141.044C695.254 139.956 694.383 139.074 693.309 139.074C692.235 139.074 691.364 139.956 691.364 141.044C691.364 142.132 692.235 143.014 693.309 143.014Z" fill="black"/>
<path d="M637.296 141.823C637.725 141.823 638.074 141.47 638.074 141.035C638.074 140.6 637.725 140.247 637.296 140.247C636.866 140.247 636.518 140.6 636.518 141.035C636.518 141.47 636.866 141.823 637.296 141.823Z" fill="black"/>
<path d="M618.624 141.44C618.839 141.44 619.013 141.263 619.013 141.046C619.013 140.828 618.839 140.652 618.624 140.652C618.41 140.652 618.235 140.828 618.235 141.046C618.235 141.263 618.41 141.44 618.624 141.44Z" fill="black"/>
<path d="M599.953 141.823C600.383 141.823 600.731 141.47 600.731 141.035C600.731 140.6 600.383 140.247 599.953 140.247C599.523 140.247 599.175 140.6 599.175 141.035C599.175 141.47 599.523 141.823 599.953 141.823Z" fill="black"/>
<path d="M581.282 142.225C581.926 142.225 582.449 141.696 582.449 141.043C582.449 140.39 581.926 139.861 581.282 139.861C580.637 139.861 580.115 140.39 580.115 141.043C580.115 141.696 580.637 142.225 581.282 142.225Z" fill="black"/>
<path d="M562.61 142.612C563.47 142.612 564.166 141.906 564.166 141.036C564.166 140.166 563.47 139.46 562.61 139.46C561.751 139.46 561.054 140.166 561.054 141.036C561.054 141.906 561.751 142.612 562.61 142.612Z" fill="black"/>
<path d="M543.939 144.988C541.994 144.988 540.438 143.412 540.438 141.442C540.438 139.472 541.994 137.896 543.939 137.896C545.884 137.896 547.44 139.472 547.44 141.442C547.44 143.018 545.884 144.988 543.939 144.988Z" fill="black"/>
<path d="M525.268 144.2C526.987 144.2 528.38 142.789 528.38 141.048C528.38 139.308 526.987 137.896 525.268 137.896C523.549 137.896 522.156 139.308 522.156 141.048C522.156 142.789 523.549 144.2 525.268 144.2Z" fill="black"/>
<path d="M506.597 143.014C505.43 143.014 504.652 142.226 504.652 141.044C504.652 139.862 505.43 139.074 506.597 139.074C507.764 139.074 508.542 139.862 508.542 141.044C508.542 142.226 507.764 143.014 506.597 143.014Z" fill="black"/>
<path d="M487.925 144.989C485.591 144.989 484.036 143.413 484.036 141.049C484.036 138.685 485.591 137.109 487.925 137.109C490.259 137.109 491.815 138.685 491.815 141.049C491.815 143.413 490.259 144.989 487.925 144.989Z" fill="black"/>
<path d="M469.254 143.014C470.328 143.014 471.199 142.132 471.199 141.044C471.199 139.956 470.328 139.074 469.254 139.074C468.18 139.074 467.309 139.956 467.309 141.044C467.309 142.132 468.18 143.014 469.254 143.014Z" fill="black"/>
<path d="M450.583 144.196C449.027 144.196 447.86 143.014 447.86 141.438C447.86 139.862 449.027 138.287 450.583 138.287C452.139 138.287 453.305 139.469 453.305 141.044C453.305 142.62 452.139 144.196 450.583 144.196Z" fill="black"/>
<path d="M431.911 143.802C433.415 143.802 434.634 142.568 434.634 141.044C434.634 139.521 433.415 138.287 431.911 138.287C430.408 138.287 429.189 139.521 429.189 141.044C429.189 142.568 430.408 143.802 431.911 143.802Z" fill="black"/>
<path d="M262.954 67.9727C261.398 67.9727 260.231 66.7908 260.231 65.2148C260.231 63.6389 261.398 62.4569 262.954 62.4569C264.51 62.4569 265.677 63.6389 265.677 65.2148C265.677 66.7908 264.51 67.9727 262.954 67.9727Z" fill="black"/>
<path d="M244.283 68.3707C246.002 68.3707 247.395 66.9595 247.395 65.2187C247.395 63.478 246.002 62.0668 244.283 62.0668C242.564 62.0668 241.171 63.478 241.171 65.2187C241.171 66.9595 242.564 68.3707 244.283 68.3707Z" fill="black"/>
<path d="M225.612 67.5711C226.901 67.5711 227.945 66.5128 227.945 65.2072C227.945 63.9016 226.901 62.8433 225.612 62.8433C224.323 62.8433 223.278 63.9016 223.278 65.2072C223.278 66.5128 224.323 67.5711 225.612 67.5711Z" fill="black"/>
<path d="M188.269 67.9727C189.773 67.9727 190.992 66.738 190.992 65.2148C190.992 63.6917 189.773 62.4569 188.269 62.4569C186.765 62.4569 185.546 63.6916 185.546 65.2148C185.546 66.738 186.765 67.9727 188.269 67.9727Z" fill="black"/>
<path d="M150.927 67.9727C149.371 67.9727 148.204 66.7908 148.204 65.2148C148.204 63.6388 149.371 62.4569 150.927 62.4569C152.483 62.4569 153.65 63.6388 153.65 65.2148C153.65 66.7908 152.483 67.9727 150.927 67.9727Z" fill="black"/>
<path d="M132.255 67.1839C133.329 67.1839 134.2 66.3019 134.2 65.214C134.2 64.126 133.329 63.244 132.255 63.244C131.181 63.244 130.31 64.126 130.31 65.214C130.31 66.3019 131.181 67.1839 132.255 67.1839Z" fill="black"/>
<path d="M113.584 67.9727C112.028 67.9727 110.861 66.7907 110.861 65.2148C110.861 63.6388 112.028 62.4569 113.584 62.4569C115.14 62.4569 116.307 63.6388 116.307 65.2148C116.307 66.7907 115.14 67.9727 113.584 67.9727Z" fill="black"/>
<path d="M94.9127 67.9727C96.4165 67.9727 97.6356 66.7379 97.6356 65.2148C97.6356 63.6916 96.4165 62.4569 94.9127 62.4569C93.4089 62.4568 92.1898 63.6916 92.1898 65.2148C92.1898 66.7379 93.4089 67.9727 94.9127 67.9727Z" fill="black"/>
<path d="M76.2414 67.5711C77.5303 67.5711 78.5752 66.5127 78.5752 65.2072C78.5752 63.9016 77.5303 62.8432 76.2414 62.8432C74.9524 62.8432 73.9075 63.9016 73.9075 65.2072C73.9075 66.5127 74.9524 67.5711 76.2414 67.5711Z" fill="black"/>
<path d="M57.5701 68.7607C56.0141 68.7607 54.4582 67.1847 54.4582 65.6088C54.4582 64.0328 56.0142 62.4568 57.5701 62.4568C59.126 62.4568 60.682 64.0328 60.682 65.6088C60.682 67.1847 59.515 68.7607 57.5701 68.7607Z" fill="black"/>
<path d="M38.8989 65.9935C39.3285 65.9935 39.6768 65.6407 39.6768 65.2056C39.6768 64.7704 39.3285 64.4176 38.8989 64.4176C38.4692 64.4176 38.1209 64.7704 38.1209 65.2056C38.1209 65.6407 38.4692 65.9935 38.8989 65.9935Z" fill="black"/>
<path d="M20.2276 65.61C20.4424 65.61 20.6166 65.4336 20.6166 65.216C20.6166 64.9984 20.4424 64.822 20.2276 64.822C20.0127 64.822 19.8386 64.9984 19.8386 65.216C19.8386 65.4336 20.0127 65.61 20.2276 65.61Z" fill="black"/>
<path d="M1.55643 65.61C1.77127 65.61 1.94545 65.4336 1.94545 65.216C1.94545 64.9984 1.77127 64.822 1.55643 64.822C1.3416 64.822 1.16744 64.9984 1.16744 65.216C1.16744 65.4336 1.3416 65.61 1.55643 65.61Z" fill="black"/>
<path d="M693.309 160.35C693.524 160.35 693.698 160.174 693.698 159.956C693.698 159.739 693.524 159.562 693.309 159.562C693.095 159.562 692.92 159.739 692.92 159.956C692.92 160.174 693.095 160.35 693.309 160.35Z" fill="black"/>
<path d="M655.967 160.35C656.181 160.35 656.355 160.174 656.355 159.956C656.355 159.739 656.181 159.562 655.967 159.562C655.752 159.562 655.578 159.739 655.578 159.956C655.578 160.174 655.752 160.35 655.967 160.35Z" fill="black"/>
<path d="M599.953 160.35C599.564 160.35 599.564 160.35 599.564 159.956C599.564 159.562 599.564 159.562 599.953 159.562C600.342 159.562 600.342 159.562 600.342 159.956C600.342 160.35 600.342 160.35 599.953 160.35Z" fill="black"/>
<path d="M581.282 161.136C581.926 161.136 582.449 160.606 582.449 159.954C582.449 159.301 581.926 158.772 581.282 158.772C580.637 158.772 580.115 159.301 580.115 159.954C580.115 160.606 580.637 161.136 581.282 161.136Z" fill="black"/>
<path d="M562.61 161.136C563.255 161.136 563.777 160.606 563.777 159.954C563.777 159.301 563.255 158.772 562.61 158.772C561.966 158.772 561.443 159.301 561.443 159.954C561.443 160.606 561.966 161.136 562.61 161.136Z" fill="black"/>
<path d="M543.939 161.523C544.799 161.523 545.495 160.817 545.495 159.947C545.495 159.076 544.799 158.371 543.939 158.371C543.08 158.371 542.383 159.076 542.383 159.947C542.383 160.817 543.08 161.523 543.939 161.523Z" fill="black"/>
<path d="M525.268 160.734C525.697 160.734 526.046 160.381 526.046 159.946C526.046 159.511 525.697 159.158 525.268 159.158C524.838 159.158 524.49 159.511 524.49 159.946C524.49 160.381 524.838 160.734 525.268 160.734Z" fill="black"/>
<path d="M506.597 161.523C507.456 161.523 508.152 160.817 508.152 159.947C508.152 159.076 507.456 158.371 506.597 158.371C505.737 158.371 505.04 159.076 505.04 159.947C505.04 160.817 505.737 161.523 506.597 161.523Z" fill="black"/>
<path d="M487.925 163.498C485.98 163.498 484.424 161.922 484.424 159.952C484.424 157.982 485.98 156.406 487.925 156.406C489.87 156.406 491.426 157.982 491.426 159.952C491.426 161.922 489.87 163.498 487.925 163.498Z" fill="black"/>
<path d="M469.254 163.111C470.973 163.111 472.366 161.7 472.366 159.959C472.366 158.218 470.973 156.807 469.254 156.807C467.535 156.807 466.142 158.218 466.142 159.959C466.142 161.7 467.535 163.111 469.254 163.111Z" fill="black"/>
<path d="M450.583 162.713C452.086 162.713 453.305 161.478 453.305 159.955C453.305 158.432 452.086 157.197 450.583 157.197C449.079 157.197 447.86 158.432 447.86 159.955C447.86 161.478 449.079 162.713 450.583 162.713Z" fill="black"/>
<path d="M431.911 162.713C430.355 162.713 429.189 161.531 429.189 159.955C429.189 158.379 430.355 157.197 431.911 157.197C433.467 157.197 434.634 158.379 434.634 159.955C434.634 161.531 433.467 162.713 431.911 162.713Z" fill="black"/>
<path d="M132.255 86.8834C133.759 86.8834 134.978 85.6487 134.978 84.1255C134.978 82.6023 133.759 81.3676 132.255 81.3676C130.751 81.3676 129.532 82.6023 129.532 84.1255C129.532 85.6487 130.751 86.8834 132.255 86.8834Z" fill="black"/>
<path d="M113.584 86.8834C115.088 86.8834 116.307 85.6487 116.307 84.1255C116.307 82.6023 115.088 81.3676 113.584 81.3676C112.08 81.3676 110.861 82.6023 110.861 84.1255C110.861 85.6486 112.08 86.8834 113.584 86.8834Z" fill="black"/>
<path d="M94.9128 86.0946C95.987 86.0946 96.8578 85.2127 96.8578 84.1247C96.8578 83.0367 95.987 82.1547 94.9129 82.1547C93.8387 82.1547 92.968 83.0367 92.968 84.1247C92.968 85.2127 93.8387 86.0946 94.9128 86.0946Z" fill="black"/>
<path d="M76.2412 86.0946C77.3153 86.0946 78.186 85.2127 78.186 84.1247C78.186 83.0367 77.3153 82.1547 76.2412 82.1547C75.167 82.1547 74.2962 83.0367 74.2962 84.1247C74.2962 85.2127 75.167 86.0946 76.2412 86.0946Z" fill="black"/>
<path d="M57.57 86.4886C56.4031 86.4886 55.6251 85.7006 55.6251 84.5187C55.6251 82.9427 56.4031 82.1547 57.57 82.1547C58.737 82.1547 59.515 82.9427 59.515 84.1247C59.515 85.3066 58.737 86.4886 57.57 86.4886Z" fill="black"/>
<path d="M38.8989 84.9043C39.3285 84.9043 39.6768 84.5515 39.6768 84.1163C39.6768 83.6811 39.3285 83.3283 38.8989 83.3283C38.4692 83.3283 38.1209 83.6811 38.1209 84.1163C38.1209 84.5515 38.4692 84.9043 38.8989 84.9043Z" fill="black"/>
<path d="M20.2274 85.3058C20.8719 85.3058 21.3943 84.7767 21.3943 84.1239C21.3943 83.4711 20.8719 82.9419 20.2274 82.9419C19.5829 82.9419 19.0604 83.4711 19.0604 84.1239C19.0604 84.7767 19.5829 85.3058 20.2274 85.3058Z" fill="black"/>
<path d="M1.55591 85.693C2.41523 85.693 3.11187 84.9875 3.11187 84.1171C3.11187 83.2467 2.41523 82.5411 1.55591 82.5411C0.696585 82.5411 -2.1833e-05 83.2467 -2.20612e-05 84.1171C-2.22895e-05 84.9874 0.696585 85.693 1.55591 85.693Z" fill="black"/>
<path d="M693.309 179.261C692.92 179.261 692.92 179.261 692.92 178.867C692.92 178.473 692.92 178.473 693.309 178.473C693.698 178.473 693.698 178.473 693.698 178.867C693.698 179.261 693.698 179.261 693.309 179.261Z" fill="black"/>
<path d="M674.638 180.046C673.86 180.046 673.471 179.652 673.471 178.864C673.471 178.076 673.86 177.682 674.638 177.682C675.416 177.682 675.805 178.076 675.805 178.864C675.805 179.652 675.416 180.046 674.638 180.046Z" fill="black"/>
<path d="M655.967 179.261C656.181 179.261 656.355 179.085 656.355 178.867C656.355 178.65 656.181 178.473 655.967 178.473C655.752 178.473 655.578 178.65 655.578 178.867C655.578 179.085 655.752 179.261 655.967 179.261Z" fill="black"/>
<path d="M599.953 179.261C600.168 179.261 600.342 179.085 600.342 178.867C600.342 178.65 600.168 178.473 599.953 178.473C599.738 178.473 599.564 178.65 599.564 178.867C599.564 179.085 599.738 179.261 599.953 179.261Z" fill="black"/>
<path d="M543.939 179.648C544.368 179.648 544.717 179.296 544.717 178.86C544.717 178.425 544.368 178.072 543.939 178.072C543.509 178.072 543.161 178.425 543.161 178.86C543.161 179.296 543.509 179.648 543.939 179.648Z" fill="black"/>
<path d="M525.268 180.046C525.912 180.046 526.435 179.517 526.435 178.864C526.435 178.212 525.912 177.682 525.268 177.682C524.623 177.682 524.101 178.212 524.101 178.864C524.101 179.517 524.623 180.046 525.268 180.046Z" fill="black"/>
<path d="M506.596 180.046C507.241 180.046 507.763 179.517 507.763 178.864C507.763 178.212 507.241 177.682 506.596 177.682C505.952 177.682 505.429 178.212 505.429 178.864C505.429 179.517 505.952 180.046 506.596 180.046Z" fill="black"/>
<path d="M487.925 180.046C488.57 180.046 489.092 179.517 489.092 178.864C489.092 178.212 488.57 177.682 487.925 177.682C487.281 177.682 486.758 178.212 486.758 178.864C486.758 179.517 487.281 180.046 487.925 180.046Z" fill="black"/>
<path d="M469.254 180.835C470.328 180.835 471.199 179.953 471.199 178.865C471.199 177.777 470.328 176.895 469.254 176.895C468.18 176.895 467.309 177.777 467.309 178.865C467.309 179.953 468.18 180.835 469.254 180.835Z" fill="black"/>
<path d="M450.582 181.237C451.871 181.237 452.916 180.178 452.916 178.873C452.916 177.567 451.871 176.509 450.582 176.509C449.293 176.509 448.248 177.567 448.248 178.873C448.248 180.178 449.293 181.237 450.582 181.237Z" fill="black"/>
<path d="M431.911 182.409C429.966 182.409 428.411 180.833 428.411 178.863C428.411 176.893 429.966 175.317 431.911 175.317C433.856 175.317 435.412 176.893 435.412 178.863C435.412 180.833 433.856 182.409 431.911 182.409Z" fill="black"/>
<path d="M206.94 105.407C208.229 105.407 209.274 104.349 209.274 103.043C209.274 101.737 208.229 100.679 206.94 100.679C205.651 100.679 204.607 101.737 204.607 103.043C204.607 104.349 205.651 105.407 206.94 105.407Z" fill="black"/>
<path d="M188.269 105.794C189.773 105.794 190.992 104.559 190.992 103.036C190.992 101.513 189.773 100.278 188.269 100.278C186.765 100.278 185.546 101.513 185.546 103.036C185.546 104.559 186.765 105.794 188.269 105.794Z" fill="black"/>
<path d="M169.598 105.794C171.102 105.794 172.321 104.559 172.321 103.036C172.321 101.513 171.102 100.278 169.598 100.278C168.094 100.278 166.875 101.513 166.875 103.036C166.875 104.559 168.094 105.794 169.598 105.794Z" fill="black"/>
<path d="M674.638 198.172C674.853 198.172 675.027 197.996 675.027 197.778C675.027 197.56 674.853 197.384 674.638 197.384C674.423 197.384 674.249 197.56 674.249 197.778C674.249 197.996 674.423 198.172 674.638 198.172Z" fill="black"/>
<path d="M655.967 198.172C656.181 198.172 656.355 197.996 656.355 197.778C656.355 197.56 656.181 197.384 655.967 197.384C655.752 197.384 655.578 197.56 655.578 197.778C655.578 197.996 655.752 198.172 655.967 198.172Z" fill="black"/>
<path d="M469.254 198.573C469.683 198.573 470.032 198.221 470.032 197.785C470.032 197.35 469.683 196.997 469.254 196.997C468.824 196.997 468.476 197.35 468.476 197.785C468.476 198.221 468.824 198.573 469.254 198.573Z" fill="black"/>
<path d="M450.583 198.573C451.012 198.573 451.361 198.221 451.361 197.785C451.361 197.35 451.012 196.997 450.583 196.997C450.153 196.997 449.805 197.35 449.805 197.785C449.805 198.221 450.153 198.573 450.583 198.573Z" fill="black"/>
<path d="M431.911 199.746C432.985 199.746 433.856 198.864 433.856 197.776C433.856 196.688 432.985 195.806 431.911 195.806C430.837 195.806 429.966 196.688 429.966 197.776C429.966 198.864 430.837 199.746 431.911 199.746Z" fill="black"/>
<path d="M674.638 217.484C675.068 217.484 675.416 217.131 675.416 216.696C675.416 216.261 675.068 215.908 674.638 215.908C674.208 215.908 673.86 216.261 673.86 216.696C673.86 217.131 674.208 217.484 674.638 217.484Z" fill="black"/>
<path d="M655.967 217.083C656.181 217.083 656.355 216.906 656.355 216.689C656.355 216.471 656.181 216.295 655.967 216.295C655.752 216.295 655.578 216.471 655.578 216.689C655.578 216.906 655.752 217.083 655.967 217.083Z" fill="black"/>
<path d="M431.912 217.484C432.341 217.484 432.69 217.131 432.69 216.696C432.69 216.261 432.341 215.908 431.912 215.908C431.482 215.908 431.134 216.261 431.134 216.696C431.134 217.131 431.482 217.484 431.912 217.484Z" fill="black"/>
<path d="M337.639 51.8254C334.916 51.8254 332.582 49.4615 332.582 46.7036C332.582 43.9457 334.916 41.5818 337.639 41.5818C340.362 41.5818 342.696 43.9457 342.696 46.7036C342.696 49.4615 340.362 51.8254 337.639 51.8254Z" fill="black"/>
<path d="M318.968 51.421C321.761 51.421 324.025 49.1279 324.025 46.2992C324.025 43.4705 321.761 41.1773 318.968 41.1773C316.175 41.1773 313.911 43.4705 313.911 46.2992C313.911 49.1279 316.175 51.421 318.968 51.421Z" fill="black"/>
</svg>
